<svg width="24" height="24" viewBox="0 0 24 24" fill="none" xmlns="http://www.w3.org/2000/svg">
<g filter="url(#filter0_i_6001_791)">
<path d="M13.9503 0.664065L16.7883 2.84805C17.0111 3.01947 17.255 3.16047 17.5143 3.26804L20.8207 4.63903C22.1608 5.19488 22.9614 6.58387 22.7711 8.02471L22.3026 11.5797C22.2658 11.8587 22.2658 12.1411 22.3026 12.4201L22.7711 15.9751C22.9609 17.4159 22.1608 18.8049 20.8207 19.3608L17.5143 20.7317C17.255 20.8393 17.0107 20.9807 16.7883 21.1517L13.9503 23.3357C12.8 24.2211 11.1993 24.2211 10.049 23.3357L7.21106 21.1517C6.98821 20.9803 6.74435 20.8393 6.48507 20.7317L3.17867 19.3608C1.83854 18.8049 1.03798 17.4159 1.22826 15.9751L1.69668 12.4201C1.73354 12.1411 1.73354 11.8587 1.69668 11.5797L1.22826 8.02471C1.0384 6.58387 1.83854 5.19488 3.17867 4.63903L6.48507 3.26804C6.74435 3.16047 6.98864 3.01904 7.21106 2.84805L10.0495 0.664065C11.1997 -0.221355 12.8004 -0.221355 13.9507 0.664065H13.9503Z" fill="#FF9100"/>
<path d="M16.4059 9.46812C16.2607 7.96084 14.9608 7.45556 13.3198 7.31114V5.21973H12.0598V7.31971H11.0399V5.21973H9.77987V7.31971C9.47987 7.31971 9.21716 7.32014 8.95359 7.32056L7.19989 7.31285L7.20075 8.67184C7.20075 8.67184 8.13974 8.65427 8.12388 8.67184C8.63859 8.67184 8.80659 8.97141 8.85545 9.22941L8.85673 14.9564C8.83445 15.1184 8.73888 15.3772 8.37931 15.3776C8.39559 15.3922 7.45532 15.3776 7.45532 15.3776L7.20032 16.9205C7.20032 16.9205 9.48073 16.9209 9.7803 16.9209V19.0205H11.0403V16.9205C11.4003 16.9205 11.7307 16.9205 12.0603 16.9205V19.0205H13.3203V16.9205C15.4575 16.7983 16.9562 16.2493 17.1414 14.2402C17.2909 12.6228 16.5307 11.9007 15.3174 11.6088C16.0545 11.2334 16.5152 10.5717 16.4068 9.46855H16.4064L16.4059 9.46812ZM14.6287 13.9886C14.6295 15.5688 11.9017 15.3884 11.0399 15.3888V12.5877C11.9013 12.5881 14.6283 12.3408 14.6287 13.9886ZM14.0364 10.0364C14.0364 11.4738 11.7577 11.3058 11.0399 11.3054V8.76484C11.7568 8.76484 14.036 8.53727 14.0364 10.0364Z" fill="white"/>
</g>
<defs>
<filter id="filter0_i_6001_791" x="0" y="0" width="24" height="24" filterUnits="userSpaceOnUse" color-interpolation-filters="sRGB">
<feFlood flood-opacity="0" result="BackgroundImageFix"/>
<feBlend mode="normal" in="SourceGraphic" in2="BackgroundImageFix" result="shape"/>
<feColorMatrix in="SourceAlpha" type="matrix" values="0 0 0 0 0 0 0 0 0 0 0 0 0 0 0 0 0 0 127 0" result="hardAlpha"/>
<feMorphology radius="0.5" operator="erode" in="SourceAlpha" result="effect1_innerShadow_6001_791"/>
<feOffset/>
<feComposite in2="hardAlpha" operator="arithmetic" k2="-1" k3="1"/>
<feColorMatrix type="matrix" values="0 0 0 0 0.0941176 0 0 0 0 0.0705882 0 0 0 0 0.141176 0 0 0 0.1 0"/>
<feBlend mode="normal" in2="shape" result="effect1_innerShadow_6001_791"/>
</filter>
</defs>
</svg>
