<svg width="31" height="22" viewBox="0 0 31 22" fill="none" xmlns="http://www.w3.org/2000/svg">
<path d="M11.137 3.849C11.2172 3.81605 11.2681 3.77627 11.3189 3.77627C13.2002 3.79218 15.0939 3.67968 16.9594 3.86378C19.7254 4.13651 21.9852 6.34107 22.7027 9.18428C23.4066 11.9729 22.4914 14.7059 20.2711 16.3718C19.0949 17.2548 17.7526 17.773 16.2916 17.8162C13.7324 17.8923 11.1698 17.8741 8.6094 17.915C8.09416 17.923 8.15179 17.6003 8.14953 17.2764C8.12241 12.8059 8.09303 8.33427 8.06592 3.86378C8.06253 3.37173 8.04897 2.87854 8.06818 2.38649C8.12015 1.03648 9.03876 0.112605 10.3822 0.113741C12.6409 0.116014 14.9278 -0.0646695 17.1515 0.227379C21.1479 0.751247 24.0167 3.03195 25.7624 6.69562C25.9263 7.03994 26.1014 7.1979 26.4799 7.16608C26.8166 7.13767 27.159 7.13994 27.4957 7.16721C28.0697 7.21494 28.4878 7.68085 28.4787 8.22177C28.4708 8.72405 28.0448 9.17519 27.5172 9.25246C27.1782 9.30132 26.7138 9.25019 26.5409 9.45019C26.3794 9.63655 26.5409 10.0956 26.5398 10.4343C26.5387 10.8695 26.5421 11.307 26.4958 11.7388C26.4539 12.1252 26.5974 12.2593 26.9635 12.24C27.2076 12.2275 27.4562 12.2264 27.6968 12.2593C28.185 12.3264 28.5262 12.7707 28.4957 13.2673C28.4674 13.732 28.098 14.14 27.6336 14.1627C27.2584 14.1809 26.8777 14.1718 26.5059 14.1195C26.1421 14.0684 25.9624 14.1968 25.8223 14.5309C24.732 17.1309 22.8541 18.9616 20.3276 20.1401C19.0113 20.7537 17.6147 21.0526 16.1696 21.0821C14.4374 21.1173 12.7042 21.1162 10.972 21.1207C9.85229 21.123 9.08848 20.5094 9.08848 19.5594C9.29638 19.5435 9.51106 19.5139 9.72574 19.5116C11.7969 19.4901 13.8691 19.4957 15.9402 19.4491C20.9988 19.3355 24.7376 15.3207 24.5444 10.2366C24.4088 6.69221 21.5807 3.16945 18.1458 2.36035C17.2215 2.14217 16.2543 2.04785 15.3029 2.0183C13.7041 1.96944 12.1019 2.02626 10.5009 2.01944C10.0907 2.01717 9.93816 2.15581 9.94381 2.58081C9.99579 6.82403 10.0353 11.0672 10.0681 15.3105C10.0704 15.6787 10.2082 15.8127 10.5653 15.815C12.3912 15.8298 14.2194 15.9173 16.0442 15.865C18.3831 15.7991 20.4203 14.1855 20.9197 12.1332C21.4733 9.85701 20.4666 7.28767 18.4712 6.20925C17.7673 5.82857 16.9153 5.63765 16.1108 5.55697C15.0487 5.44902 13.9663 5.54561 12.8929 5.53311C11.8014 5.51947 11.1991 4.94333 11.137 3.849Z" fill="#00B43C"/>
<path d="M6.66976 3.75244C6.66976 8.52521 6.66976 13.1355 6.66976 17.7435C5.73533 17.8128 4.87887 17.023 4.77492 16.0116C4.74215 15.6923 4.75232 15.3685 4.74441 15.0469C4.72633 14.2866 4.72746 14.2866 3.94783 14.2787C3.74106 14.2764 3.53315 14.2889 3.32751 14.273C2.77612 14.2287 2.3976 13.8298 2.40438 13.3173C2.41229 12.815 2.81341 12.4082 3.3422 12.3673C3.36141 12.3662 3.37949 12.3673 3.3987 12.3662C4.69921 12.3025 4.69921 12.3025 4.69017 10.9968C4.69017 10.9593 4.6913 10.9207 4.68904 10.8832C4.66984 10.4309 4.81333 9.84 4.58396 9.56727C4.37832 9.32295 3.76139 9.42522 3.32525 9.38317C2.77273 9.32977 2.39421 8.92408 2.38969 8.36839C2.38517 7.78771 2.7264 7.40247 3.30152 7.34566C3.43259 7.33316 3.56479 7.3377 3.69699 7.33657C4.88565 7.32066 4.78848 7.45248 4.76023 6.21724C4.73876 5.29791 4.94892 4.52177 5.78731 4.04449C6.01668 3.91267 6.29803 3.87176 6.66976 3.75244Z" fill="#00B43C"/>
<path d="M30.9999 8.30022C30.9999 8.8025 30.5762 9.24682 30.0802 9.26614C29.574 9.28546 29.096 8.815 29.0972 8.29795C29.0983 7.76272 29.5344 7.34567 30.0813 7.3559C30.6124 7.36726 30.9999 7.76499 30.9999 8.30022Z" fill="#00B43C"/>
<path d="M1.75573 13.3491C1.75912 13.8377 1.39303 14.2127 0.904909 14.2196C0.363686 14.2275 0.0032471 13.8832 0.000987297 13.3536C-0.00127251 12.8582 0.353517 12.4832 0.838245 12.4684C1.32975 12.4536 1.75234 12.8593 1.75573 13.3491Z" fill="#00B43C"/>
</svg>
