<svg width="25" height="25" viewBox="0 0 25 25" fill="none" xmlns="http://www.w3.org/2000/svg">
<path d="M9.48507 7.71188C9.48507 5.35205 9.49675 2.99223 9.47573 0.632411C9.47105 0.158121 9.60656 -0.00230009 10.0972 2.48553e-05C13.7534 0.0162995 17.4095 2.48556e-05 21.0657 0.0116496C23.2197 0.0186244 24.9719 1.74374 24.9836 3.88269C25.0023 7.53751 24.9813 11.1946 24.9999 14.8495C25.0023 15.3517 24.8201 15.4586 24.3551 15.4563C19.6103 15.4423 14.8654 15.44 10.1182 15.4586C9.58086 15.4609 9.47105 15.2749 9.47573 14.7867C9.49675 12.4315 9.48507 10.0717 9.48507 7.71188Z" fill="#00B43C"/>
<path d="M15.4817 21.8822C15.4817 22.7145 15.4701 23.5445 15.4864 24.3768C15.4934 24.7372 15.3953 24.9046 14.9981 24.9023C13.3254 24.8883 11.655 24.8883 9.98227 24.9023C9.6038 24.9046 9.4753 24.7744 9.47764 24.3954C9.49399 22.7331 9.49399 21.0684 9.47764 19.4061C9.47297 18.9923 9.62949 18.8737 10.0267 18.876C11.6784 18.8923 13.3324 18.89 14.9841 18.876C15.3696 18.8737 15.4958 19.0178 15.4887 19.3875C15.4701 20.2175 15.4817 21.0498 15.4817 21.8822Z" fill="#00B43C"/>
<path d="M0.00473692 9.42526C0.731303 9.42526 1.38545 9.42526 2.04193 9.42526C3.17032 9.42526 4.29638 9.43921 5.42478 9.41829C5.83829 9.41131 6.01585 9.51594 6.01117 9.96698C5.99015 11.6107 5.99248 13.2545 6.00884 14.8959C6.01351 15.3283 5.85698 15.4632 5.42945 15.4562C3.79643 15.4353 2.16341 15.4469 0.530388 15.4492C0.245368 15.4492 -0.00460798 15.4678 6.44704e-05 15.047C0.0117456 13.2149 0.00473692 11.3805 0.00473692 9.42526Z" fill="#00B43C"/>
<path d="M0.00543195 18.9369C0.218029 18.9137 0.351193 18.8858 0.482022 18.8834C2.13373 18.8811 3.78545 18.8927 5.43716 18.8741C5.86936 18.8695 6.0142 19.016 6.00953 19.4461C5.99084 21.0898 6.01187 22.7312 5.98851 24.375C5.98617 24.5493 5.7946 24.8678 5.69414 24.8678C4.78535 24.8585 3.84852 24.9213 2.97478 24.7191C1.15953 24.3006 0.0241218 22.7521 0.00776817 20.9015C0.000759497 20.2644 0.00543195 19.6274 0.00543195 18.9369Z" fill="#00B43C"/>
<path d="M0.0222086 5.88443C0.0222086 5.08232 -0.0268521 4.30579 0.0315535 3.53856C0.178736 1.63675 1.82811 0.0860092 3.73915 0.0116108C4.32087 -0.00931369 4.90492 0.0232356 5.48664 0.00463599C5.85343 -0.00698875 6.00996 0.118558 6.00762 0.5045C5.9936 2.16684 6.00061 3.82918 6.00528 5.49151C6.00528 5.77981 5.95389 5.97743 5.59878 5.9751C3.81157 5.9658 2.02435 5.9658 0.237141 5.96115C0.181072 5.95883 0.127339 5.92395 0.0222086 5.88443Z" fill="#00B43C"/>
<path d="M21.9983 18.8815C22.8137 18.8815 23.6313 18.8955 24.4467 18.8745C24.8392 18.8652 25.0214 18.9815 24.9957 19.3976C24.9466 20.1858 25.0214 20.9949 24.8742 21.7621C24.5354 23.5128 23.059 24.738 21.2694 24.8543C20.669 24.8938 20.0662 24.8729 19.4635 24.8961C19.1177 24.9101 18.9752 24.7776 18.9776 24.4242C18.9869 22.7432 18.9892 21.0623 18.9776 19.3814C18.9752 19.0071 19.1154 18.8676 19.4939 18.8745C20.3256 18.8931 21.1619 18.8815 21.9983 18.8815Z" fill="#00B43C"/>
</svg>
