<svg width="26" height="38" viewBox="0 0 26 38" fill="none" xmlns="http://www.w3.org/2000/svg">
<g clip-path="url(#clip0)">
<path d="M21.5815 20.803L22.1888 20.4585C22.3592 20.3608 22.4436 20.246 22.5128 20.0317C22.6393 19.6393 22.3525 19.2982 22.0488 19.2331C21.8312 19.1868 21.6911 19.2108 21.5241 19.3154L20.9353 19.689C21.6591 17.5672 23.6701 18.1019 24.5018 18.3025C24.2707 19.1371 23.7578 21.1818 21.5815 20.803ZM17.0027 23.804C16.4409 23.804 15.9853 23.3412 15.9853 22.7705C15.9853 22.2015 16.4409 21.7371 17.0027 21.7371C17.5628 21.7371 18.02 22.2015 18.02 22.7705C18.02 23.3412 17.5645 23.804 17.0027 23.804ZM18.0166 31.417C18.0166 31.9877 17.5611 32.4505 16.9993 32.4505C16.4375 32.4505 15.982 31.9877 15.982 31.417C15.982 30.8463 16.4375 30.3835 16.9993 30.3835C17.5594 30.3818 18.0166 30.8463 18.0166 31.417ZM11.8401 27.5368C11.8739 27.3774 11.8924 27.2129 11.8924 27.0449C11.8924 26.8787 11.8755 26.7176 11.8418 26.5616L15.4488 24.445C15.6901 24.6763 15.9803 24.8529 16.3025 24.9574V29.2284C16.0056 29.3261 15.7356 29.4838 15.5079 29.6877L11.8401 27.5368ZM14.7791 31.8575L11.1417 33.9912C10.9071 33.7787 10.6288 33.6142 10.3234 33.5131V29.2318C10.6338 29.1307 10.9139 28.9645 11.1501 28.7485L14.7993 30.8874C14.7588 31.0571 14.7386 31.2336 14.7386 31.417C14.7369 31.5678 14.7504 31.7152 14.7791 31.8575ZM9.63 36.7352C9.06989 36.7352 8.61268 36.2707 8.61268 35.7017C8.61268 35.131 9.0682 34.6682 9.63 34.6682C10.1918 34.6682 10.6473 35.1327 10.6473 35.7017C10.6473 36.2707 10.1918 36.7352 9.63 36.7352ZM4.48264 31.8558C4.50964 31.7135 4.52482 31.5661 4.52482 31.417C4.52482 31.2353 4.50289 31.0588 4.46408 30.8909L8.1133 28.7502C8.34949 28.9679 8.63124 29.1341 8.94167 29.2335V33.5131C8.63461 33.6125 8.35455 33.777 8.12004 33.9912L4.48264 31.8558ZM3.75381 29.6894C3.52605 29.4855 3.25612 29.3278 2.96087 29.2301V24.9574C3.28142 24.8512 3.5716 24.6746 3.81117 24.445L7.41821 26.5599C7.38615 26.7159 7.36759 26.877 7.36759 27.0432C7.36759 27.2129 7.38615 27.3774 7.41989 27.5368L3.75381 29.6894ZM2.26241 32.4505C1.7006 32.4505 1.24508 31.9877 1.24508 31.417C1.24508 30.8463 1.70229 30.3835 2.26241 30.3835C2.82253 30.3835 3.27974 30.848 3.27974 31.417C3.27974 31.986 2.82422 32.4505 2.26241 32.4505ZM1.24508 22.7722C1.24508 22.2032 1.70229 21.7388 2.26241 21.7388C2.82253 21.7388 3.27974 22.2032 3.27974 22.7722C3.27974 23.3412 2.82422 23.8057 2.26241 23.8057C1.70229 23.804 1.24508 23.3412 1.24508 22.7722ZM8.13017 20.1054C8.36299 20.3163 8.63799 20.4774 8.94167 20.5751V24.8529C8.62786 24.954 8.34274 25.1254 8.10486 25.3465L4.48096 23.2213C4.50964 23.0773 4.52482 22.9265 4.52482 22.7722C4.52482 22.594 4.50457 22.4209 4.46746 22.2546L8.13017 20.1054ZM9.63 17.3513C10.1918 17.3513 10.6473 17.814 10.6473 18.3847C10.6473 18.9537 10.1918 19.4182 9.63 19.4182C9.06989 19.4182 8.61268 18.9554 8.61268 18.3847C8.61437 17.8157 9.06989 17.3513 9.63 17.3513ZM5.97573 7.96437C6.05334 5.96599 7.30686 3.83908 9.63169 1.67445H9.63338C11.9582 3.84079 13.2117 5.96771 13.2893 7.96437C13.2978 9.82392 12.3091 11.6252 10.3217 13.3699V8.3877C10.3217 8.00207 10.013 7.68672 9.63169 7.68672C9.25041 7.68672 8.94167 8.00036 8.94167 8.3877V13.3716C6.95594 11.6252 5.96561 9.82392 5.97573 7.96437ZM10.6473 27.0432C10.6473 27.6122 10.1918 28.0767 9.63 28.0767C9.06989 28.0767 8.61268 27.6122 8.61268 27.0432C8.61268 26.4725 9.0682 26.0097 9.63 26.0097C10.1918 26.0097 10.6473 26.4725 10.6473 27.0432ZM14.7942 22.2529C14.7571 22.4192 14.7352 22.594 14.7352 22.7722C14.7352 22.9265 14.7504 23.0756 14.7791 23.2213L11.1551 25.3465C10.9173 25.1254 10.6338 24.9574 10.32 24.8546V20.5733C10.622 20.4739 10.897 20.3128 11.1298 20.1037L14.7942 22.2529ZM25.4888 17.1319C25.4888 17.1319 22.943 16.155 21.239 17.0976C20.2487 17.646 19.5401 18.7738 19.3292 20.5528L18.4924 21.0429C18.0942 20.6882 17.5729 20.4722 17.0027 20.4722C16.4274 20.4722 15.9044 20.6899 15.5045 21.0481H15.4994L11.8351 18.8989C11.8722 18.7343 11.8924 18.5612 11.8924 18.3847C11.8924 17.3598 11.2328 16.4926 10.3217 16.1961V15.2072L10.6541 14.9553H10.6524C13.4412 12.7187 14.7909 10.3775 14.6964 7.93352C14.6643 5.43641 13.1308 2.8536 10.099 0.183384C9.97417 0.0754104 9.84089 0.013711 9.69918 0H9.5659C9.42418 0.013711 9.28921 0.0754104 9.16605 0.181671C6.13263 2.85189 4.59905 5.43641 4.567 7.93181C4.47252 10.3758 5.82389 12.7169 8.61099 14.9535L8.94167 15.2055V16.1944C8.02894 16.4909 7.36759 17.3598 7.36759 18.3847C7.36759 18.5612 7.38784 18.7343 7.42496 18.9006L3.76225 21.0515C3.3624 20.6916 2.83771 20.4739 2.2641 20.4739C1.01226 20.4722 0 21.5023 0 22.7722C0 23.8006 0.66472 24.6712 1.58251 24.9643V29.225C0.66472 29.518 0 30.3887 0 31.417C0 32.687 1.01226 33.7153 2.26241 33.7153C2.86471 33.7153 3.41302 33.4754 3.81792 33.0846L7.42327 35.1978C7.38784 35.3606 7.36759 35.5286 7.36759 35.7034C7.36759 36.9717 8.37986 38.0017 9.63 38.0017C10.8802 38.0017 11.8924 36.9734 11.8924 35.7034C11.8924 35.5303 11.8739 35.3624 11.8367 35.1995L15.4421 33.0846C15.847 33.4754 16.3953 33.7153 16.9976 33.7153C18.2477 33.7153 19.26 32.687 19.26 31.417C19.26 30.3904 18.597 29.5198 17.6809 29.225V24.9643C18.5987 24.6712 19.2634 23.8006 19.2634 22.7722C19.2634 22.5889 19.2415 22.414 19.2026 22.2426L19.9838 21.7799C21.654 22.4877 22.9936 22.4072 23.9603 21.7816C25.5951 20.7224 25.9848 17.9854 25.9848 17.9854C26.0692 17.6478 25.7841 17.2107 25.4888 17.1319Z" fill="#00B43C"/>
</g>
<defs>
<clipPath id="clip0">
<rect width="26" height="38" fill="white"/>
</clipPath>
</defs>
</svg>
