<svg width="136" height="136" viewBox="0 0 136 136" fill="none" xmlns="http://www.w3.org/2000/svg">
<g clip-path="url(#clip0_8_84)">
<path d="M25.4225 63.717C35.8332 63.717 44.2727 55.248 44.2727 44.801C44.2727 34.3539 35.8332 25.8849 25.4225 25.8849C15.0118 25.8849 6.57227 34.3539 6.57227 44.801C6.57227 55.248 15.0118 63.717 25.4225 63.717Z" fill="black" stroke="#FF9100" stroke-miterlimit="10"/>
<path d="M26.7124 63.6714C26.7124 63.6714 27.885 63.1863 27.885 51.3449C27.885 38.346 25.5231 27.3715 25.5231 27.3715" stroke="#FF9100" stroke-miterlimit="10"/>
<path d="M31.9868 62.538C31.9868 62.538 38.1585 59.7115 37.5554 48.8258C36.7107 33.5623 25.5231 27.3715 25.5231 27.3715" stroke="#FF9100" stroke-miterlimit="10"/>
<path d="M42.0425 53.7271C42.0425 53.7271 45.1917 46.4916 41.8917 39.7244C36.4139 28.4905 25.5231 27.369 25.5231 27.369" stroke="#FF9100" stroke-miterlimit="10"/>
<path d="M21.0863 63.2127C21.0863 63.2127 16.6136 61.378 17.0898 49.6374C17.7575 33.1372 25.523 27.369 25.523 27.369" stroke="#FF9100" stroke-miterlimit="10"/>
<path d="M14.5819 60.2758C14.5819 60.2758 6.94084 54.169 10.0303 43.2401C13.8042 29.8882 25.5231 27.3715 25.5231 27.3715" stroke="#FF9100" stroke-miterlimit="10"/>
<path d="M7.85974 37.9329C7.85974 37.9329 11.0282 32.0902 15.867 29.6288C20.7058 27.1673 25.523 27.3714 25.523 27.3714" stroke="#FF9100" stroke-miterlimit="10"/>
<path d="M38.4217 31.1056C38.4217 31.1056 34.3033 28.344 31.2449 27.6404C28.1866 26.9368 25.5231 27.3714 25.5231 27.3714" stroke="#FF9100" stroke-miterlimit="10"/>
<path d="M17.4823 27.6404C17.4823 27.6404 19.2627 27.0616 21.3519 26.9175C23.4411 26.7735 25.523 27.3714 25.523 27.3714" stroke="#FF9100" stroke-miterlimit="10"/>
<path d="M30.716 26.6438C30.716 26.6438 29.5171 26.4541 28.0502 26.6294C26.5832 26.8047 25.5231 27.3714 25.5231 27.3714" stroke="#FF9100" stroke-miterlimit="10"/>
<path d="M26.3774 25.9114C26.3774 25.9114 26.04 26.2092 25.839 26.5718C25.6667 26.8816 25.5231 27.3714 25.5231 27.3714" stroke="#FF9100" stroke-miterlimit="10"/>
<path d="M22.7543 26.0746C22.7543 26.0746 23.4674 26.1515 24.0729 26.4493C24.6783 26.747 25.5231 27.3714 25.5231 27.3714" stroke="#FF9100" stroke-miterlimit="10"/>
<path d="M6.67993 42.7766C7.76639 46.5997 15.7545 49.6279 25.4225 49.6279C35.0905 49.6279 43.0786 46.6021 44.165 42.7766" stroke="#FF9100" stroke-miterlimit="10"/>
<path d="M9.14001 54.3251C12.1577 57.0147 18.3151 58.8565 25.4201 58.8565C32.5251 58.8565 38.6993 57.0099 41.7121 54.313" stroke="#FF9100" stroke-miterlimit="10"/>
<path d="M11.9615 31.5595C11.5092 32.1407 11.179 32.7482 11.179 33.3918C11.179 36.6986 18.2337 38.9391 25.3005 38.9391C32.8004 38.9391 39.623 36.6386 39.623 33.3318C39.623 32.5489 39.3287 31.975 38.795 31.4731" stroke="#FF9100" stroke-miterlimit="10"/>
<path d="M25.4225 30.1787C28.4134 30.1787 30.838 29.2175 30.838 28.0318C30.838 26.8461 28.4134 25.8849 25.4225 25.8849C22.4316 25.8849 20.007 26.8461 20.007 28.0318C20.007 29.2175 22.4316 30.1787 25.4225 30.1787Z" stroke="#FF9100" stroke-miterlimit="10"/>
<path d="M51.8348 63.8275L36.4498 55.8452C36.3828 55.8091 36.1434 55.6723 36.0788 55.629C35.1479 55.0263 34.844 54.3395 35.0905 53.1195C35.4279 51.4506 37.0744 50.4348 38.5652 51.2536C42.6813 53.5134 53.4238 59.613 53.6009 59.6682" fill="black"/>
<path d="M51.8348 63.8275L36.4498 55.8452C36.3828 55.8091 36.1434 55.6723 36.0788 55.629C35.1479 55.0263 34.844 54.3395 35.0905 53.1195C35.4279 51.4506 37.0744 50.4348 38.5652 51.2536C42.6813 53.5134 53.4238 59.613 53.6009 59.6682" stroke="#FF9100" stroke-miterlimit="10"/>
<path d="M110.578 112.002C120.988 112.002 129.428 103.533 129.428 93.0865C129.428 82.6394 120.988 74.1704 110.578 74.1704C100.167 74.1704 91.7274 82.6394 91.7274 93.0865C91.7274 103.533 100.167 112.002 110.578 112.002Z" fill="black" stroke="#FF9100" stroke-miterlimit="10"/>
<path d="M111.87 111.959C111.87 111.959 113.043 111.474 113.043 99.6328C113.043 86.6338 110.681 75.6593 110.681 75.6593" stroke="#FF9100" stroke-miterlimit="10"/>
<path d="M117.142 110.823C117.142 110.823 123.314 107.997 122.711 97.1113C121.866 81.8478 110.678 75.6569 110.678 75.6569" stroke="#FF9100" stroke-miterlimit="10"/>
<path d="M127.2 102.013C127.2 102.013 130.349 94.777 127.049 88.0098C121.571 76.7759 110.681 75.6545 110.681 75.6545" stroke="#FF9100" stroke-miterlimit="10"/>
<path d="M106.244 111.498C106.244 111.498 101.771 109.663 102.247 97.9229C102.915 81.4227 110.681 75.6545 110.681 75.6545" stroke="#FF9100" stroke-miterlimit="10"/>
<path d="M99.7394 108.564C99.7394 108.564 92.0983 102.454 95.1878 91.5256C98.9616 78.1736 110.681 75.6569 110.681 75.6569" stroke="#FF9100" stroke-miterlimit="10"/>
<path d="M93.0149 86.2184C93.0149 86.2184 96.1833 80.3757 101.022 77.9143C105.861 75.4504 110.678 75.6569 110.678 75.6569" stroke="#FF9100" stroke-miterlimit="10"/>
<path d="M123.579 79.3911C123.579 79.3911 119.461 76.6295 116.402 75.9258C113.344 75.2222 110.681 75.6569 110.681 75.6569" stroke="#FF9100" stroke-miterlimit="10"/>
<path d="M102.64 75.9258C102.64 75.9258 104.42 75.3471 106.509 75.203C108.599 75.0589 110.681 75.6569 110.681 75.6569" stroke="#FF9100" stroke-miterlimit="10"/>
<path d="M115.874 74.9293C115.874 74.9293 114.675 74.7396 113.208 74.9149C111.741 75.0902 110.681 75.6569 110.681 75.6569" stroke="#FF9100" stroke-miterlimit="10"/>
<path d="M111.535 74.1968C111.535 74.1968 111.197 74.4946 110.996 74.8572C110.824 75.167 110.681 75.6569 110.681 75.6569" stroke="#FF9100" stroke-miterlimit="10"/>
<path d="M107.909 74.3601C107.909 74.3601 108.623 74.437 109.228 74.7347C109.833 75.0325 110.678 75.6569 110.678 75.6569" stroke="#FF9100" stroke-miterlimit="10"/>
<path d="M91.8351 91.0621C92.9215 94.8851 100.91 97.9133 110.578 97.9133C120.246 97.9133 128.234 94.8875 129.32 91.0621" stroke="#FF9100" stroke-miterlimit="10"/>
<path d="M94.2976 102.611C97.3153 105.3 103.473 107.142 110.578 107.142C117.683 107.142 123.857 105.295 126.87 102.599" stroke="#FF9100" stroke-miterlimit="10"/>
<path d="M97.119 79.845C96.6667 80.4261 96.3364 81.0337 96.3364 81.6773C96.3364 84.984 103.391 87.2246 110.458 87.2246C117.958 87.2246 124.78 84.924 124.78 81.6172C124.78 80.8344 124.486 80.2604 123.952 79.7585" stroke="#FF9100" stroke-miterlimit="10"/>
<path d="M110.578 78.4642C113.569 78.4642 115.993 77.503 115.993 76.3173C115.993 75.1316 113.569 74.1704 110.578 74.1704C107.587 74.1704 105.162 75.1316 105.162 76.3173C105.162 77.503 107.587 78.4642 110.578 78.4642Z" stroke="#FF9100" stroke-miterlimit="10"/>
<path d="M25.4225 112.002C35.8332 112.002 44.2727 103.533 44.2727 93.0865C44.2727 82.6394 35.8332 74.1704 25.4225 74.1704C15.0118 74.1704 6.57227 82.6394 6.57227 93.0865C6.57227 103.533 15.0118 112.002 25.4225 112.002Z" fill="black" stroke="#FF9100" stroke-miterlimit="10"/>
<path d="M26.7124 111.959C26.7124 111.959 27.885 111.474 27.885 99.6328C27.885 86.6338 25.5231 75.6593 25.5231 75.6593" stroke="#FF9100" stroke-miterlimit="10"/>
<path d="M31.9868 110.823C31.9868 110.823 38.1585 107.997 37.5554 97.1113C36.7107 81.8478 25.5231 75.6569 25.5231 75.6569" stroke="#FF9100" stroke-miterlimit="10"/>
<path d="M42.0425 102.013C42.0425 102.013 45.1917 94.777 41.8917 88.0098C36.4139 76.7759 25.5231 75.6545 25.5231 75.6545" stroke="#FF9100" stroke-miterlimit="10"/>
<path d="M21.0863 111.498C21.0863 111.498 16.6136 109.663 17.0898 97.9229C17.7575 81.4227 25.523 75.6545 25.523 75.6545" stroke="#FF9100" stroke-miterlimit="10"/>
<path d="M14.5819 108.564C14.5819 108.564 6.94084 102.454 10.0303 91.5256C13.8042 78.1736 25.5231 75.6569 25.5231 75.6569" stroke="#FF9100" stroke-miterlimit="10"/>
<path d="M7.85974 86.2184C7.85974 86.2184 11.0282 80.3757 15.867 77.9143C20.7058 75.4504 25.523 75.6569 25.523 75.6569" stroke="#FF9100" stroke-miterlimit="10"/>
<path d="M38.4217 79.3911C38.4217 79.3911 34.3033 76.6295 31.2449 75.9258C28.1866 75.2222 25.5231 75.6569 25.5231 75.6569" stroke="#FF9100" stroke-miterlimit="10"/>
<path d="M17.4823 75.9258C17.4823 75.9258 19.2627 75.3471 21.3519 75.203C23.4411 75.0589 25.523 75.6569 25.523 75.6569" stroke="#FF9100" stroke-miterlimit="10"/>
<path d="M30.716 74.9293C30.716 74.9293 29.5171 74.7396 28.0502 74.9149C26.5832 75.0902 25.5231 75.6569 25.5231 75.6569" stroke="#FF9100" stroke-miterlimit="10"/>
<path d="M26.3774 74.1968C26.3774 74.1968 26.04 74.4946 25.839 74.8572C25.6667 75.167 25.5231 75.6569 25.5231 75.6569" stroke="#FF9100" stroke-miterlimit="10"/>
<path d="M22.7543 74.3601C22.7543 74.3601 23.4674 74.437 24.0729 74.7347C24.6783 75.0325 25.5231 75.6569 25.5231 75.6569" stroke="#FF9100" stroke-miterlimit="10"/>
<path d="M6.67993 91.0621C7.76639 94.8851 15.7545 97.9133 25.4225 97.9133C35.0905 97.9133 43.0786 94.8875 44.165 91.0621" stroke="#FF9100" stroke-miterlimit="10"/>
<path d="M9.14001 102.611C12.1577 105.3 18.3151 107.142 25.4201 107.142C32.5251 107.142 38.6993 105.295 41.7121 102.599" stroke="#FF9100" stroke-miterlimit="10"/>
<path d="M11.9615 79.845C11.5092 80.4261 11.179 81.0337 11.179 81.6773C11.179 84.984 18.2337 87.2246 25.3005 87.2246C32.8004 87.2246 39.623 84.924 39.623 81.6172C39.623 80.8344 39.3287 80.2604 38.795 79.7585" stroke="#FF9100" stroke-miterlimit="10"/>
<path d="M25.4225 78.4642C28.4134 78.4642 30.838 77.503 30.838 76.3173C30.838 75.1316 28.4134 74.1704 25.4225 74.1704C22.4316 74.1704 20.007 75.1316 20.007 76.3173C20.007 77.503 22.4316 78.4642 25.4225 78.4642Z" stroke="#FF9100" stroke-miterlimit="10"/>
<path d="M110.578 63.717C120.988 63.717 129.428 55.248 129.428 44.801C129.428 34.3539 120.988 25.8849 110.578 25.8849C100.167 25.8849 91.7274 34.3539 91.7274 44.801C91.7274 55.248 100.167 63.717 110.578 63.717Z" fill="black" stroke="#FF9100" stroke-miterlimit="10"/>
<path d="M111.87 63.6714C111.87 63.6714 113.043 63.1863 113.043 51.3449C113.043 38.346 110.681 27.3715 110.681 27.3715" stroke="#FF9100" stroke-miterlimit="10"/>
<path d="M117.142 62.538C117.142 62.538 123.314 59.7115 122.711 48.8258C121.866 33.5623 110.678 27.3715 110.678 27.3715" stroke="#FF9100" stroke-miterlimit="10"/>
<path d="M127.2 53.7271C127.2 53.7271 130.349 46.4916 127.049 39.7244C121.571 28.4905 110.681 27.369 110.681 27.369" stroke="#FF9100" stroke-miterlimit="10"/>
<path d="M106.244 63.2127C106.244 63.2127 101.771 61.378 102.247 49.6374C102.915 33.1372 110.681 27.369 110.681 27.369" stroke="#FF9100" stroke-miterlimit="10"/>
<path d="M99.7394 60.2758C99.7394 60.2758 92.0983 54.1665 95.1878 43.2376C98.9616 29.8857 110.681 27.369 110.681 27.369" stroke="#FF9100" stroke-miterlimit="10"/>
<path d="M93.0149 37.9329C93.0149 37.9329 96.1833 32.0902 101.022 29.6288C105.861 27.1649 110.678 27.3714 110.678 27.3714" stroke="#FF9100" stroke-miterlimit="10"/>
<path d="M123.579 31.1056C123.579 31.1056 119.461 28.344 116.402 27.6404C113.344 26.9368 110.681 27.3714 110.681 27.3714" stroke="#FF9100" stroke-miterlimit="10"/>
<path d="M102.64 27.6404C102.64 27.6404 104.42 27.0616 106.509 26.9175C108.599 26.7735 110.681 27.3714 110.681 27.3714" stroke="#FF9100" stroke-miterlimit="10"/>
<path d="M115.874 26.6438C115.874 26.6438 114.675 26.4541 113.208 26.6294C111.741 26.8047 110.681 27.3714 110.681 27.3714" stroke="#FF9100" stroke-miterlimit="10"/>
<path d="M111.535 25.9114C111.535 25.9114 111.197 26.2092 110.996 26.5718C110.824 26.8816 110.681 27.3714 110.681 27.3714" stroke="#FF9100" stroke-miterlimit="10"/>
<path d="M107.909 26.0746C107.909 26.0746 108.623 26.1515 109.228 26.4493C109.833 26.747 110.678 27.3714 110.678 27.3714" stroke="#FF9100" stroke-miterlimit="10"/>
<path d="M91.8351 42.7766C92.9215 46.5997 100.91 49.6279 110.578 49.6279C120.246 49.6279 128.234 46.6021 129.32 42.7766" stroke="#FF9100" stroke-miterlimit="10"/>
<path d="M94.2976 54.3251C97.3153 57.0147 103.473 58.8565 110.578 58.8565C117.683 58.8565 123.857 57.0099 126.87 54.313" stroke="#FF9100" stroke-miterlimit="10"/>
<path d="M97.119 31.5595C96.6667 32.1407 96.3364 32.7482 96.3364 33.3918C96.3364 36.6986 103.391 38.9391 110.458 38.9391C117.958 38.9391 124.78 36.6386 124.78 33.3318C124.78 32.5489 124.486 31.975 123.952 31.4731" stroke="#FF9100" stroke-miterlimit="10"/>
<path d="M110.578 30.1787C113.569 30.1787 115.993 29.2175 115.993 28.0318C115.993 26.8461 113.569 25.8849 110.578 25.8849C107.587 25.8849 105.162 26.8461 105.162 28.0318C105.162 29.2175 107.587 30.1787 110.578 30.1787Z" stroke="#FF9100" stroke-miterlimit="10"/>
<path d="M84.2514 63.8275L99.6365 55.8452C99.7035 55.8091 99.9428 55.6723 100.007 55.629C100.938 55.0263 101.242 54.3395 100.996 53.1195C100.658 51.4506 99.0119 50.4348 97.521 51.2536C93.4049 53.5134 82.6624 59.613 82.4854 59.6682" fill="black"/>
<path d="M84.2514 63.8275L99.6365 55.8452C99.7035 55.8091 99.9428 55.6723 100.007 55.629C100.938 55.0263 101.242 54.3395 100.996 53.1195C100.658 51.4506 99.0119 50.4348 97.521 51.2536C93.4049 53.5134 82.6624 59.613 82.4854 59.6682" stroke="#FF9100" stroke-miterlimit="10"/>
<path d="M51.8348 112.223L36.4498 104.241C36.3828 104.205 36.1434 104.068 36.0788 104.025C35.1479 103.422 34.844 102.735 35.0905 101.515C35.4279 99.8465 37.0744 98.8307 38.5652 99.6496C42.6813 101.909 53.4238 108.009 53.6009 108.064" fill="black"/>
<path d="M51.8348 112.223L36.4498 104.241C36.3828 104.205 36.1434 104.068 36.0788 104.025C35.1479 103.422 34.844 102.735 35.0905 101.515C35.4279 99.8465 37.0744 98.8307 38.5652 99.6496C42.6813 101.909 53.4238 108.009 53.6009 108.064" stroke="#FF9100" stroke-miterlimit="10"/>
<path d="M84.2514 112.223L99.6365 104.241C99.7035 104.205 99.9428 104.068 100.007 104.025C100.938 103.422 101.242 102.735 100.996 101.515C100.658 99.8465 99.0119 98.8307 97.521 99.6496C93.4049 101.909 82.6624 108.009 82.4854 108.064" fill="black"/>
<path d="M84.2514 112.223L99.6365 104.241C99.7035 104.205 99.9428 104.068 100.007 104.025C100.938 103.422 101.242 102.735 100.996 101.515C100.658 99.8465 99.0119 98.8307 97.521 99.6496C93.4049 101.909 82.6624 108.009 82.4854 108.064" stroke="#FF9100" stroke-miterlimit="10"/>
<path d="M67.9259 135.882C78.3366 135.882 86.7762 127.413 86.7762 116.966C86.7762 106.519 78.3366 98.0502 67.9259 98.0502C57.5152 98.0502 49.0757 106.519 49.0757 116.966C49.0757 127.413 57.5152 135.882 67.9259 135.882Z" fill="black" stroke="#FF9100" stroke-miterlimit="10"/>
<path d="M69.2182 135.837C69.2182 135.837 70.3908 135.352 70.3908 123.51C70.3908 110.511 68.0288 99.5367 68.0288 99.5367" stroke="#FF9100" stroke-miterlimit="10"/>
<path d="M74.4902 134.701C74.4902 134.701 80.6619 131.874 80.0589 120.989C79.2141 105.725 68.0265 99.5343 68.0265 99.5343" stroke="#FF9100" stroke-miterlimit="10"/>
<path d="M84.5482 125.892C84.5482 125.892 87.6975 118.657 84.3974 111.89C78.9197 100.656 68.0288 99.5343 68.0288 99.5343" stroke="#FF9100" stroke-miterlimit="10"/>
<path d="M63.5921 135.378C63.5921 135.378 59.1195 133.543 59.5957 121.803C60.2633 105.303 68.0289 99.5343 68.0289 99.5343" stroke="#FF9100" stroke-miterlimit="10"/>
<path d="M57.0877 132.441C57.0877 132.441 49.4466 126.332 52.536 115.403C56.3099 102.051 68.0288 99.5343 68.0288 99.5343" stroke="#FF9100" stroke-miterlimit="10"/>
<path d="M50.3632 110.098C50.3632 110.098 53.5316 104.256 58.3704 101.794C63.2092 99.3302 68.0264 99.5367 68.0264 99.5367" stroke="#FF9100" stroke-miterlimit="10"/>
<path d="M80.9275 103.269C80.9275 103.269 76.809 100.507 73.7506 99.8033C70.6923 99.0997 68.0288 99.5343 68.0288 99.5343" stroke="#FF9100" stroke-miterlimit="10"/>
<path d="M59.9882 99.8057C59.9882 99.8057 61.7686 99.2269 63.8578 99.0828C65.9469 98.9387 68.0289 99.5367 68.0289 99.5367" stroke="#FF9100" stroke-miterlimit="10"/>
<path d="M73.2218 98.8067C73.2218 98.8067 72.0228 98.617 70.5559 98.7923C69.0889 98.9676 68.0288 99.5343 68.0288 99.5343" stroke="#FF9100" stroke-miterlimit="10"/>
<path d="M68.8831 98.0743C68.8831 98.0743 68.5457 98.3721 68.3447 98.7347C68.1724 99.0445 68.0288 99.5344 68.0288 99.5344" stroke="#FF9100" stroke-miterlimit="10"/>
<path d="M65.26 98.2375C65.26 98.2375 65.9731 98.3144 66.5786 98.6122C67.184 98.91 68.0288 99.5343 68.0288 99.5343" stroke="#FF9100" stroke-miterlimit="10"/>
<path d="M49.1833 114.942C50.2698 118.765 58.2579 121.793 67.9259 121.793C77.5939 121.793 85.582 118.767 86.6684 114.942" stroke="#FF9100" stroke-miterlimit="10"/>
<path d="M51.6459 126.49C54.6635 129.18 60.8209 131.022 67.926 131.022C75.031 131.022 81.2051 129.175 84.218 126.478" stroke="#FF9100" stroke-miterlimit="10"/>
<path d="M54.4672 103.725C54.0149 104.306 53.6847 104.914 53.6847 105.557C53.6847 108.864 60.7395 111.104 67.8062 111.104C75.3061 111.104 82.1288 108.804 82.1288 105.497C82.1288 104.714 81.8344 104.14 81.3008 103.638" stroke="#FF9100" stroke-miterlimit="10"/>
<path d="M67.9259 102.344C70.9168 102.344 73.3414 101.383 73.3414 100.197C73.3414 99.0114 70.9168 98.0502 67.9259 98.0502C64.935 98.0502 62.5104 99.0114 62.5104 100.197C62.5104 101.383 64.935 102.344 67.9259 102.344Z" stroke="#FF9100" stroke-miterlimit="10"/>
<path d="M70.4266 83.925V99.7216C70.4266 100.226 69.4168 100.637 68.1724 100.637C66.928 100.637 65.9181 100.228 65.9181 99.7216V83.8914C65.9181 83.3871 66.928 82.9764 68.1724 82.9764C69.4168 82.9764 70.4266 83.3847 70.4266 83.8914V83.925Z" fill="black" stroke="#FF9100" stroke-miterlimit="10"/>
<path d="M67.9259 87.6016C78.3366 87.6016 86.7762 79.1326 86.7762 68.6856C86.7762 58.2385 78.3366 49.7695 67.9259 49.7695C57.5152 49.7695 49.0757 58.2385 49.0757 68.6856C49.0757 79.1326 57.5152 87.6016 67.9259 87.6016Z" fill="black" stroke="#FF9100" stroke-miterlimit="10"/>
<path d="M69.2182 87.556C69.2182 87.556 70.3908 87.0709 70.3908 75.2295C70.3908 62.2306 68.0288 51.256 68.0288 51.256" stroke="#FF9100" stroke-miterlimit="10"/>
<path d="M74.4902 86.4201C74.4902 86.4201 80.6619 83.5936 80.0589 72.7079C79.2141 57.4445 68.0265 51.2536 68.0265 51.2536" stroke="#FF9100" stroke-miterlimit="10"/>
<path d="M84.5482 77.6117C84.5482 77.6117 87.6975 70.3762 84.3974 63.6089C78.9197 52.3751 68.0288 51.2536 68.0288 51.2536" stroke="#FF9100" stroke-miterlimit="10"/>
<path d="M63.5921 87.0973C63.5921 87.0973 59.1195 85.2626 59.5957 73.522C60.2633 57.0218 68.0289 51.2536 68.0289 51.2536" stroke="#FF9100" stroke-miterlimit="10"/>
<path d="M57.0877 84.1604C57.0877 84.1604 49.4466 78.0511 52.536 67.1222C56.3099 53.7703 68.0288 51.2536 68.0288 51.2536" stroke="#FF9100" stroke-miterlimit="10"/>
<path d="M50.3632 61.8175C50.3632 61.8175 53.5316 55.9748 58.3704 53.5134C63.2092 51.0519 68.0264 51.256 68.0264 51.256" stroke="#FF9100" stroke-miterlimit="10"/>
<path d="M80.9275 54.9902C80.9275 54.9902 76.809 52.2286 73.7506 51.525C70.6923 50.8213 68.0288 51.256 68.0288 51.256" stroke="#FF9100" stroke-miterlimit="10"/>
<path d="M59.9882 51.525C59.9882 51.525 61.7686 50.9462 63.8578 50.8021C65.9469 50.658 68.0289 51.256 68.0289 51.256" stroke="#FF9100" stroke-miterlimit="10"/>
<path d="M73.2218 50.5259C73.2218 50.5259 72.0228 50.3362 70.5559 50.5115C69.0889 50.6868 68.0288 51.2536 68.0288 51.2536" stroke="#FF9100" stroke-miterlimit="10"/>
<path d="M68.8831 49.7935C68.8831 49.7935 68.5457 50.0913 68.3447 50.4539C68.1724 50.7637 68.0288 51.2536 68.0288 51.2536" stroke="#FF9100" stroke-miterlimit="10"/>
<path d="M65.26 49.9592C65.26 49.9592 65.9731 50.0361 66.5786 50.3339C67.184 50.6316 68.0288 51.256 68.0288 51.256" stroke="#FF9100" stroke-miterlimit="10"/>
<path d="M49.1833 66.6611C50.2698 70.4842 58.2579 73.5124 67.9259 73.5124C77.5939 73.5124 85.582 70.4866 86.6684 66.6611" stroke="#FF9100" stroke-miterlimit="10"/>
<path d="M51.6459 78.2096C54.6635 80.8992 60.8209 82.7411 67.926 82.7411C75.031 82.7411 81.2051 80.8944 84.218 78.1976" stroke="#FF9100" stroke-miterlimit="10"/>
<path d="M54.4672 55.4441C54.0149 56.0253 53.6847 56.6328 53.6847 57.2764C53.6847 60.5832 60.7395 62.8237 67.8062 62.8237C75.3061 62.8237 82.1288 60.5231 82.1288 57.2164C82.1288 56.4335 81.8344 55.8596 81.3008 55.3577" stroke="#FF9100" stroke-miterlimit="10"/>
<path d="M67.9259 54.0633C70.9168 54.0633 73.3414 53.1021 73.3414 51.9164C73.3414 50.7307 70.9168 49.7695 67.9259 49.7695C64.935 49.7695 62.5104 50.7307 62.5104 51.9164C62.5104 53.1021 64.935 54.0633 67.9259 54.0633Z" stroke="#FF9100" stroke-miterlimit="10"/>
<path d="M70.4266 35.457V51.2536C70.4266 51.7579 69.4168 52.1686 68.1724 52.1686C66.928 52.1686 65.9181 51.7603 65.9181 51.2536V35.4234C65.9181 34.9191 66.928 34.5085 68.1724 34.5085C69.4168 34.5085 70.4266 34.9167 70.4266 35.4234V35.457Z" fill="black" stroke="#FF9100" stroke-miterlimit="10"/>
<path d="M67.9259 37.9521C78.3366 37.9521 86.7762 29.4831 86.7762 19.0361C86.7762 8.58905 78.3366 0.120056 67.9259 0.120056C57.5152 0.120056 49.0757 8.58905 49.0757 19.0361C49.0757 29.4831 57.5152 37.9521 67.9259 37.9521Z" fill="black" stroke="#FF9100" stroke-miterlimit="10"/>
<path d="M69.2182 37.9065C69.2182 37.9065 70.3908 37.4214 70.3908 25.58C70.3908 12.5811 68.0288 1.60657 68.0288 1.60657" stroke="#FF9100" stroke-miterlimit="10"/>
<path d="M74.4902 36.7706C74.4902 36.7706 80.6619 33.9441 80.0589 23.0585C79.2141 7.795 68.0265 1.60413 68.0265 1.60413" stroke="#FF9100" stroke-miterlimit="10"/>
<path d="M84.5482 27.9622C84.5482 27.9622 87.6975 20.7267 84.3974 13.9595C78.9197 2.72559 68.0288 1.60413 68.0288 1.60413" stroke="#FF9100" stroke-miterlimit="10"/>
<path d="M63.5921 37.4478C63.5921 37.4478 59.1195 35.6131 59.5957 23.8726C60.2633 7.37235 68.0289 1.60413 68.0289 1.60413" stroke="#FF9100" stroke-miterlimit="10"/>
<path d="M57.0877 34.5109C57.0877 34.5109 49.4466 28.4016 52.536 17.4728C56.3075 4.12082 68.0288 1.60413 68.0288 1.60413" stroke="#FF9100" stroke-miterlimit="10"/>
<path d="M50.3632 12.1656C50.3632 12.1656 53.5316 6.32297 58.3704 3.86151C63.2092 1.40005 68.0264 1.60417 68.0264 1.60417" stroke="#FF9100" stroke-miterlimit="10"/>
<path d="M80.9275 5.33836C80.9275 5.33836 76.809 2.57672 73.7506 1.8731C70.6923 1.16948 68.0288 1.60414 68.0288 1.60414" stroke="#FF9100" stroke-miterlimit="10"/>
<path d="M59.9882 1.87549C59.9882 1.87549 61.7686 1.29674 63.8578 1.15266C65.9469 1.00857 68.0289 1.60653 68.0289 1.60653" stroke="#FF9100" stroke-miterlimit="10"/>
<path d="M73.2218 0.876535C73.2218 0.876535 72.0228 0.686822 70.5559 0.862126C69.0889 1.03743 68.0288 1.60417 68.0288 1.60417" stroke="#FF9100" stroke-miterlimit="10"/>
<path d="M68.8831 0.144043C68.8831 0.144043 68.5457 0.44182 68.3447 0.804435C68.1724 1.11422 68.0288 1.60411 68.0288 1.60411" stroke="#FF9100" stroke-miterlimit="10"/>
<path d="M65.26 0.307373C65.26 0.307373 65.9731 0.384219 66.5786 0.681996C67.184 0.979773 68.0288 1.60414 68.0288 1.60414" stroke="#FF9100" stroke-miterlimit="10"/>
<path d="M49.1833 17.0117C50.2698 20.8348 58.2579 23.863 67.9259 23.863C77.5939 23.863 85.582 20.8372 86.6684 17.0117" stroke="#FF9100" stroke-miterlimit="10"/>
<path d="M51.6459 28.5602C54.6635 31.2498 60.8209 33.0917 67.926 33.0917C75.031 33.0917 81.2051 31.245 84.218 28.5482" stroke="#FF9100" stroke-miterlimit="10"/>
<path d="M54.4672 5.79464C54.0149 6.37579 53.6847 6.98335 53.6847 7.62693C53.6847 10.9337 60.7395 13.1742 67.8062 13.1742C75.3061 13.1742 82.1288 10.8737 82.1288 7.5669C82.1288 6.78403 81.8344 6.21009 81.3008 5.70819" stroke="#FF9100" stroke-miterlimit="10"/>
<path d="M67.9259 4.41381C70.9168 4.41381 73.3414 3.45262 73.3414 2.26693C73.3414 1.08124 70.9168 0.120056 67.9259 0.120056C64.935 0.120056 62.5104 1.08124 62.5104 2.26693C62.5104 3.45262 64.935 4.41381 67.9259 4.41381Z" stroke="#FF9100" stroke-miterlimit="10"/>
</g>
<defs>
<clipPath id="clip0_8_84">
<rect width="136" height="136" fill="white"/>
</clipPath>
</defs>
</svg>
