<svg width="136" height="138" viewBox="0 0 136 138" fill="none" xmlns="http://www.w3.org/2000/svg">
<path d="M25.3478 64.7083C35.7768 64.7083 44.2311 56.2245 44.2311 45.7592C44.2311 35.2938 35.7768 26.81 25.3478 26.81C14.9189 26.81 6.4646 35.2938 6.4646 45.7592C6.4646 56.2245 14.9189 64.7083 25.3478 64.7083Z" stroke="#FF9100" stroke-miterlimit="10"/>
<path d="M26.6399 64.6627C26.6399 64.6627 27.8146 64.1767 27.8146 52.3146C27.8146 39.2929 25.4485 28.2991 25.4485 28.2991" stroke="#FF9100" stroke-miterlimit="10"/>
<path d="M31.9235 63.5272C31.9235 63.5272 38.106 60.6958 37.5019 49.791C36.6557 34.5009 25.4485 28.2991 25.4485 28.2991" stroke="#FF9100" stroke-miterlimit="10"/>
<path d="M41.9968 54.7009C41.9968 54.7009 45.1516 47.4527 41.8458 40.6737C36.3584 29.4201 25.4485 28.2967 25.4485 28.2967" stroke="#FF9100" stroke-miterlimit="10"/>
<path d="M21.0038 64.2032C21.0038 64.2032 16.5233 62.3653 17.0004 50.6041C17.6692 34.075 25.4484 28.2967 25.4484 28.2967" stroke="#FF9100" stroke-miterlimit="10"/>
<path d="M14.4882 61.2611C14.4882 61.2611 6.83369 55.1436 9.92856 44.1955C13.709 30.8202 25.4484 28.2991 25.4484 28.2991" stroke="#FF9100" stroke-miterlimit="10"/>
<path d="M7.75415 38.879C7.75415 38.879 10.9281 33.0261 15.7754 30.5604C20.6227 28.0946 25.4484 28.2991 25.4484 28.2991" stroke="#FF9100" stroke-miterlimit="10"/>
<path d="M38.3697 32.0398C38.3697 32.0398 34.244 29.2734 31.1803 28.5685C28.1166 27.8637 25.4485 28.2991 25.4485 28.2991" stroke="#FF9100" stroke-miterlimit="10"/>
<path d="M17.3938 28.5685C17.3938 28.5685 19.1774 27.9887 21.2702 27.8444C23.363 27.7001 25.4486 28.2991 25.4486 28.2991" stroke="#FF9100" stroke-miterlimit="10"/>
<path d="M30.6505 27.5702C30.6505 27.5702 29.4495 27.3801 27.98 27.5557C26.5105 27.7313 25.4485 28.2991 25.4485 28.2991" stroke="#FF9100" stroke-miterlimit="10"/>
<path d="M26.3043 26.8365C26.3043 26.8365 25.9663 27.1348 25.7649 27.498C25.5923 27.8084 25.4485 28.2991 25.4485 28.2991" stroke="#FF9100" stroke-miterlimit="10"/>
<path d="M22.675 27.0001C22.675 27.0001 23.3894 27.077 23.9959 27.3753C24.6024 27.6736 25.4487 28.2991 25.4487 28.2991" stroke="#FF9100" stroke-miterlimit="10"/>
<path d="M6.57251 43.7313C7.66087 47.561 15.6629 50.5945 25.3479 50.5945C35.0328 50.5945 43.0349 47.5634 44.1232 43.7313" stroke="#FF9100" stroke-miterlimit="10"/>
<path d="M9.03687 55.2999C12.0598 57.9942 18.228 59.8393 25.3454 59.8393C32.4629 59.8393 38.6479 57.9894 41.666 55.2878" stroke="#FF9100" stroke-miterlimit="10"/>
<path d="M11.8633 32.4946C11.4102 33.0767 11.0793 33.6854 11.0793 34.3301C11.0793 37.6426 18.1465 39.8871 25.2256 39.8871C32.7386 39.8871 39.5732 37.5825 39.5732 34.2699C39.5732 33.4857 39.2783 32.9107 38.7438 32.408" stroke="#FF9100" stroke-miterlimit="10"/>
<path d="M25.3479 31.1113C28.344 31.1113 30.7729 30.1484 30.7729 28.9606C30.7729 27.7729 28.344 26.81 25.3479 26.81C22.3517 26.81 19.9229 27.7729 19.9229 28.9606C19.9229 30.1484 22.3517 31.1113 25.3479 31.1113Z" stroke="#FF9100" stroke-miterlimit="10"/>
<path d="M51.8064 64.819L36.3944 56.8227C36.3273 56.7866 36.0876 56.6495 36.0228 56.6062C35.0903 56.0024 34.7859 55.3144 35.0328 54.0923C35.3708 52.4204 37.0201 51.4028 38.5136 52.2231C42.6369 54.4868 53.3982 60.5971 53.5756 60.6525" stroke="#FF9100" stroke-miterlimit="10"/>
<path d="M110.652 113.078C121.081 113.078 129.536 104.595 129.536 94.1292C129.536 83.6639 121.081 75.1801 110.652 75.1801C100.223 75.1801 91.769 83.6639 91.769 94.1292C91.769 104.595 100.223 113.078 110.652 113.078Z" stroke="#FF9100" stroke-miterlimit="10"/>
<path d="M111.947 113.035C111.947 113.035 113.121 112.549 113.121 100.687C113.121 87.6653 110.755 76.6715 110.755 76.6715" stroke="#FF9100" stroke-miterlimit="10"/>
<path d="M117.228 111.897C117.228 111.897 123.41 109.066 122.806 98.161C121.96 82.8709 110.753 76.6691 110.753 76.6691" stroke="#FF9100" stroke-miterlimit="10"/>
<path d="M127.304 103.071C127.304 103.071 130.458 95.8227 127.153 89.0437C121.665 77.7901 110.755 76.6667 110.755 76.6667" stroke="#FF9100" stroke-miterlimit="10"/>
<path d="M106.311 112.573C106.311 112.573 101.83 110.735 102.307 98.9741C102.976 82.445 110.755 76.6667 110.755 76.6667" stroke="#FF9100" stroke-miterlimit="10"/>
<path d="M99.795 109.634C99.795 109.634 92.1406 103.514 95.2354 92.5655C99.0159 79.1902 110.755 76.6691 110.755 76.6691" stroke="#FF9100" stroke-miterlimit="10"/>
<path d="M93.0586 87.2491C93.0586 87.2491 96.2326 81.3962 101.08 78.9304C105.927 76.4622 110.753 76.6691 110.753 76.6691" stroke="#FF9100" stroke-miterlimit="10"/>
<path d="M123.677 80.4098C123.677 80.4098 119.551 77.6434 116.487 76.9385C113.424 76.2337 110.755 76.6691 110.755 76.6691" stroke="#FF9100" stroke-miterlimit="10"/>
<path d="M102.701 76.9385C102.701 76.9385 104.484 76.3587 106.577 76.2144C108.67 76.0701 110.755 76.6691 110.755 76.6691" stroke="#FF9100" stroke-miterlimit="10"/>
<path d="M115.957 75.9402C115.957 75.9402 114.756 75.7501 113.287 75.9257C111.817 76.1013 110.755 76.6691 110.755 76.6691" stroke="#FF9100" stroke-miterlimit="10"/>
<path d="M111.611 75.2065C111.611 75.2065 111.273 75.5048 111.072 75.8681C110.899 76.1784 110.755 76.6692 110.755 76.6692" stroke="#FF9100" stroke-miterlimit="10"/>
<path d="M107.979 75.37C107.979 75.37 108.694 75.447 109.3 75.7453C109.907 76.0436 110.753 76.669 110.753 76.669" stroke="#FF9100" stroke-miterlimit="10"/>
<path d="M91.877 92.1013C92.9653 95.931 100.967 98.9645 110.652 98.9645C120.337 98.9645 128.339 95.9334 129.428 92.1013" stroke="#FF9100" stroke-miterlimit="10"/>
<path d="M94.3438 103.67C97.3667 106.364 103.535 108.209 110.652 108.209C117.77 108.209 123.955 106.359 126.973 103.658" stroke="#FF9100" stroke-miterlimit="10"/>
<path d="M97.1701 80.8646C96.7171 81.4467 96.3862 82.0553 96.3862 82.7001C96.3862 86.0126 103.453 88.2571 110.532 88.2571C118.045 88.2571 124.88 85.9525 124.88 82.6399C124.88 81.8557 124.585 81.2807 124.051 80.778" stroke="#FF9100" stroke-miterlimit="10"/>
<path d="M110.652 79.4813C113.648 79.4813 116.077 78.5185 116.077 77.3307C116.077 76.1429 113.648 75.1801 110.652 75.1801C107.656 75.1801 105.227 76.1429 105.227 77.3307C105.227 78.5185 107.656 79.4813 110.652 79.4813Z" stroke="#FF9100" stroke-miterlimit="10"/>
<path d="M25.3478 113.078C35.7768 113.078 44.2311 104.595 44.2311 94.1292C44.2311 83.6639 35.7768 75.1801 25.3478 75.1801C14.9189 75.1801 6.4646 83.6639 6.4646 94.1292C6.4646 104.595 14.9189 113.078 25.3478 113.078Z" stroke="#FF9100" stroke-miterlimit="10"/>
<path d="M26.6399 113.035C26.6399 113.035 27.8146 112.549 27.8146 100.687C27.8146 87.6653 25.4485 76.6715 25.4485 76.6715" stroke="#FF9100" stroke-miterlimit="10"/>
<path d="M31.9235 111.897C31.9235 111.897 38.106 109.066 37.5019 98.161C36.6557 82.8709 25.4485 76.6691 25.4485 76.6691" stroke="#FF9100" stroke-miterlimit="10"/>
<path d="M41.9968 103.071C41.9968 103.071 45.1516 95.8227 41.8458 89.0437C36.3584 77.7901 25.4485 76.6667 25.4485 76.6667" stroke="#FF9100" stroke-miterlimit="10"/>
<path d="M21.0038 112.573C21.0038 112.573 16.5233 110.735 17.0004 98.9741C17.6692 82.445 25.4484 76.6667 25.4484 76.6667" stroke="#FF9100" stroke-miterlimit="10"/>
<path d="M14.4882 109.634C14.4882 109.634 6.83369 103.514 9.92856 92.5655C13.709 79.1902 25.4484 76.6691 25.4484 76.6691" stroke="#FF9100" stroke-miterlimit="10"/>
<path d="M7.75415 87.2491C7.75415 87.2491 10.9281 81.3962 15.7754 78.9304C20.6227 76.4622 25.4484 76.6691 25.4484 76.6691" stroke="#FF9100" stroke-miterlimit="10"/>
<path d="M38.3697 80.4098C38.3697 80.4098 34.244 77.6434 31.1803 76.9385C28.1166 76.2337 25.4485 76.6691 25.4485 76.6691" stroke="#FF9100" stroke-miterlimit="10"/>
<path d="M17.3938 76.9385C17.3938 76.9385 19.1774 76.3587 21.2702 76.2144C23.363 76.0701 25.4486 76.6691 25.4486 76.6691" stroke="#FF9100" stroke-miterlimit="10"/>
<path d="M30.6505 75.9402C30.6505 75.9402 29.4495 75.7501 27.98 75.9257C26.5105 76.1013 25.4485 76.6691 25.4485 76.6691" stroke="#FF9100" stroke-miterlimit="10"/>
<path d="M26.3043 75.2065C26.3043 75.2065 25.9663 75.5048 25.7649 75.8681C25.5923 76.1784 25.4485 76.6692 25.4485 76.6692" stroke="#FF9100" stroke-miterlimit="10"/>
<path d="M22.675 75.37C22.675 75.37 23.3894 75.447 23.9959 75.7453C24.6024 76.0436 25.4487 76.669 25.4487 76.669" stroke="#FF9100" stroke-miterlimit="10"/>
<path d="M6.57251 92.1013C7.66087 95.931 15.6629 98.9645 25.3479 98.9645C35.0328 98.9645 43.0349 95.9334 44.1232 92.1013" stroke="#FF9100" stroke-miterlimit="10"/>
<path d="M9.03687 103.67C12.0598 106.364 18.228 108.209 25.3454 108.209C32.4629 108.209 38.6479 106.359 41.666 103.658" stroke="#FF9100" stroke-miterlimit="10"/>
<path d="M11.8633 80.8646C11.4102 81.4467 11.0793 82.0553 11.0793 82.7001C11.0793 86.0126 18.1465 88.2571 25.2256 88.2571C32.7386 88.2571 39.5732 85.9525 39.5732 82.6399C39.5732 81.8557 39.2783 81.2807 38.7438 80.778" stroke="#FF9100" stroke-miterlimit="10"/>
<path d="M25.3479 79.4813C28.344 79.4813 30.7729 78.5185 30.7729 77.3307C30.7729 76.1429 28.344 75.1801 25.3479 75.1801C22.3517 75.1801 19.9229 76.1429 19.9229 77.3307C19.9229 78.5185 22.3517 79.4813 25.3479 79.4813Z" stroke="#FF9100" stroke-miterlimit="10"/>
<path d="M110.652 64.7083C121.081 64.7083 129.536 56.2245 129.536 45.7592C129.536 35.2938 121.081 26.81 110.652 26.81C100.223 26.81 91.769 35.2938 91.769 45.7592C91.769 56.2245 100.223 64.7083 110.652 64.7083Z" stroke="#FF9100" stroke-miterlimit="10"/>
<path d="M111.947 64.6627C111.947 64.6627 113.121 64.1767 113.121 52.3146C113.121 39.2929 110.755 28.2991 110.755 28.2991" stroke="#FF9100" stroke-miterlimit="10"/>
<path d="M117.228 63.5272C117.228 63.5272 123.41 60.6958 122.806 49.791C121.96 34.5009 110.753 28.2991 110.753 28.2991" stroke="#FF9100" stroke-miterlimit="10"/>
<path d="M127.304 54.7009C127.304 54.7009 130.458 47.4527 127.153 40.6737C121.665 29.4201 110.755 28.2967 110.755 28.2967" stroke="#FF9100" stroke-miterlimit="10"/>
<path d="M106.311 64.2032C106.311 64.2032 101.83 62.3653 102.307 50.6041C102.976 34.075 110.755 28.2967 110.755 28.2967" stroke="#FF9100" stroke-miterlimit="10"/>
<path d="M99.795 61.2611C99.795 61.2611 92.1406 55.1411 95.2354 44.1931C99.0159 30.8178 110.755 28.2967 110.755 28.2967" stroke="#FF9100" stroke-miterlimit="10"/>
<path d="M93.0586 38.879C93.0586 38.879 96.2326 33.0261 101.08 30.5604C105.927 28.0922 110.753 28.2991 110.753 28.2991" stroke="#FF9100" stroke-miterlimit="10"/>
<path d="M123.677 32.0398C123.677 32.0398 119.551 29.2734 116.487 28.5685C113.424 27.8637 110.755 28.2991 110.755 28.2991" stroke="#FF9100" stroke-miterlimit="10"/>
<path d="M102.701 28.5685C102.701 28.5685 104.484 27.9887 106.577 27.8444C108.67 27.7001 110.755 28.2991 110.755 28.2991" stroke="#FF9100" stroke-miterlimit="10"/>
<path d="M115.957 27.5702C115.957 27.5702 114.756 27.3801 113.287 27.5557C111.817 27.7313 110.755 28.2991 110.755 28.2991" stroke="#FF9100" stroke-miterlimit="10"/>
<path d="M111.611 26.8365C111.611 26.8365 111.273 27.1348 111.072 27.498C110.899 27.8084 110.755 28.2991 110.755 28.2991" stroke="#FF9100" stroke-miterlimit="10"/>
<path d="M107.979 27.0001C107.979 27.0001 108.694 27.077 109.3 27.3753C109.907 27.6736 110.753 28.2991 110.753 28.2991" stroke="#FF9100" stroke-miterlimit="10"/>
<path d="M91.877 43.7313C92.9653 47.561 100.967 50.5945 110.652 50.5945C120.337 50.5945 128.339 47.5634 129.428 43.7313" stroke="#FF9100" stroke-miterlimit="10"/>
<path d="M94.3438 55.2999C97.3667 57.9942 103.535 59.8393 110.652 59.8393C117.77 59.8393 123.955 57.9894 126.973 55.2878" stroke="#FF9100" stroke-miterlimit="10"/>
<path d="M97.1701 32.4946C96.7171 33.0767 96.3862 33.6854 96.3862 34.3301C96.3862 37.6426 103.453 39.8871 110.532 39.8871C118.045 39.8871 124.88 37.5825 124.88 34.2699C124.88 33.4857 124.585 32.9107 124.051 32.408" stroke="#FF9100" stroke-miterlimit="10"/>
<path d="M110.652 31.1113C113.648 31.1113 116.077 30.1484 116.077 28.9606C116.077 27.7729 113.648 26.81 110.652 26.81C107.656 26.81 105.227 27.7729 105.227 28.9606C105.227 30.1484 107.656 31.1113 110.652 31.1113Z" stroke="#FF9100" stroke-miterlimit="10"/>
<path d="M84.2799 64.819L99.6919 56.8227C99.7591 56.7866 99.9988 56.6495 100.064 56.6062C100.996 56.0024 101.3 55.3144 101.054 54.0923C100.716 52.4204 99.0662 51.4028 97.5727 52.2231C93.4495 54.4868 82.6881 60.5971 82.5107 60.6525" stroke="#FF9100" stroke-miterlimit="10"/>
<path d="M51.8064 113.3L36.3944 105.303C36.3273 105.267 36.0876 105.13 36.0228 105.087C35.0903 104.483 34.7859 103.795 35.0328 102.573C35.3708 100.901 37.0201 99.8835 38.5136 100.704C42.6369 102.967 53.3982 109.078 53.5756 109.133" stroke="#FF9100" stroke-miterlimit="10"/>
<path d="M84.2799 113.3L99.6919 105.303C99.7591 105.267 99.9988 105.13 100.064 105.087C100.996 104.483 101.3 103.795 101.054 102.573C100.716 100.901 99.0662 99.8835 97.5727 100.704C93.4495 102.967 82.6881 109.078 82.5107 109.133" stroke="#FF9100" stroke-miterlimit="10"/>
<path d="M67.9257 137C78.3547 137 86.809 128.516 86.809 118.051C86.809 107.586 78.3547 99.1017 67.9257 99.1017C57.4968 99.1017 49.0425 107.586 49.0425 118.051C49.0425 128.516 57.4968 137 67.9257 137Z" stroke="#FF9100" stroke-miterlimit="10"/>
<path d="M69.2202 136.954C69.2202 136.954 70.3949 136.468 70.3949 124.606C70.3949 111.585 68.0288 100.591 68.0288 100.591" stroke="#FF9100" stroke-miterlimit="10"/>
<path d="M74.5014 135.816C74.5014 135.816 80.6839 132.985 80.0798 122.08C79.2336 106.79 68.0264 100.588 68.0264 100.588" stroke="#FF9100" stroke-miterlimit="10"/>
<path d="M84.5771 126.993C84.5771 126.993 87.7319 119.744 84.4261 112.965C78.9388 101.712 68.0288 100.588 68.0288 100.588" stroke="#FF9100" stroke-miterlimit="10"/>
<path d="M63.5842 136.495C63.5842 136.495 59.1037 134.657 59.5807 122.896C60.2496 106.367 68.0287 100.588 68.0287 100.588" stroke="#FF9100" stroke-miterlimit="10"/>
<path d="M57.0685 133.553C57.0685 133.553 49.414 127.433 52.5089 116.485C56.2894 103.109 68.0288 100.588 68.0288 100.588" stroke="#FF9100" stroke-miterlimit="10"/>
<path d="M50.3323 111.171C50.3323 111.171 53.5063 105.318 58.3535 102.852C63.2008 100.384 68.0265 100.591 68.0265 100.591" stroke="#FF9100" stroke-miterlimit="10"/>
<path d="M80.9501 104.329C80.9501 104.329 76.8244 101.563 73.7607 100.858C70.697 100.153 68.0288 100.588 68.0288 100.588" stroke="#FF9100" stroke-miterlimit="10"/>
<path d="M59.9741 100.86C59.9741 100.86 61.7577 100.28 63.8505 100.136C65.9433 99.9918 68.0289 100.591 68.0289 100.591" stroke="#FF9100" stroke-miterlimit="10"/>
<path d="M73.2309 99.8594C73.2309 99.8594 72.0298 99.6694 70.5603 99.845C69.0908 100.021 68.0288 100.588 68.0288 100.588" stroke="#FF9100" stroke-miterlimit="10"/>
<path d="M68.8846 99.1258C68.8846 99.1258 68.5466 99.4241 68.3452 99.7873C68.1726 100.098 68.0288 100.588 68.0288 100.588" stroke="#FF9100" stroke-miterlimit="10"/>
<path d="M65.2551 99.2893C65.2551 99.2893 65.9695 99.3663 66.576 99.6646C67.1825 99.9629 68.0288 100.588 68.0288 100.588" stroke="#FF9100" stroke-miterlimit="10"/>
<path d="M49.1504 116.023C50.2387 119.853 58.2408 122.886 67.9258 122.886C77.6107 122.886 85.6128 119.855 86.7011 116.023" stroke="#FF9100" stroke-miterlimit="10"/>
<path d="M51.6172 127.592C54.6401 130.286 60.8083 132.131 67.9258 132.131C75.0432 132.131 81.2282 130.281 84.2463 127.58" stroke="#FF9100" stroke-miterlimit="10"/>
<path d="M54.4433 104.786C53.9902 105.368 53.6594 105.977 53.6594 106.622C53.6594 109.934 60.7266 112.179 67.8057 112.179C75.3187 112.179 82.1533 109.874 82.1533 106.562C82.1533 105.777 81.8584 105.202 81.3238 104.7" stroke="#FF9100" stroke-miterlimit="10"/>
<path d="M67.9257 103.403C70.9219 103.403 73.3507 102.44 73.3507 101.252C73.3507 100.065 70.9219 99.1017 67.9257 99.1017C64.9296 99.1017 62.5007 100.065 62.5007 101.252C62.5007 102.44 64.9296 103.403 67.9257 103.403Z" stroke="#FF9100" stroke-miterlimit="10"/>
<path d="M70.4307 84.9517V100.776C70.4307 101.281 69.4191 101.692 68.1725 101.692C66.926 101.692 65.9143 101.284 65.9143 100.776V84.918C65.9143 84.4128 66.926 84.0015 68.1725 84.0015C69.4191 84.0015 70.4307 84.4104 70.4307 84.918V84.9517V84.9517Z" stroke="#FF9100" stroke-miterlimit="10"/>
<path d="M67.9257 88.6348C78.3547 88.6348 86.809 80.1509 86.809 69.6856C86.809 59.2203 78.3547 50.7365 67.9257 50.7365C57.4968 50.7365 49.0425 59.2203 49.0425 69.6856C49.0425 80.1509 57.4968 88.6348 67.9257 88.6348Z" stroke="#FF9100" stroke-miterlimit="10"/>
<path d="M69.2202 88.5891C69.2202 88.5891 70.3949 88.1031 70.3949 76.2409C70.3949 63.2193 68.0288 52.2255 68.0288 52.2255" stroke="#FF9100" stroke-miterlimit="10"/>
<path d="M74.5014 87.4512C74.5014 87.4512 80.6839 84.6197 80.0798 73.715C79.2336 58.4248 68.0264 52.2231 68.0264 52.2231" stroke="#FF9100" stroke-miterlimit="10"/>
<path d="M84.5771 78.6273C84.5771 78.6273 87.7319 71.3791 84.4261 64.6001C78.9388 53.3465 68.0288 52.2231 68.0288 52.2231" stroke="#FF9100" stroke-miterlimit="10"/>
<path d="M63.5842 88.1296C63.5842 88.1296 59.1037 86.2916 59.5807 74.5305C60.2496 58.0014 68.0287 52.2231 68.0287 52.2231" stroke="#FF9100" stroke-miterlimit="10"/>
<path d="M57.0685 85.1875C57.0685 85.1875 49.414 79.0675 52.5089 68.1195C56.2894 54.7442 68.0288 52.2231 68.0288 52.2231" stroke="#FF9100" stroke-miterlimit="10"/>
<path d="M50.3323 62.8055C50.3323 62.8055 53.5063 56.9526 58.3535 54.4868C63.2008 52.021 68.0265 52.2255 68.0265 52.2255" stroke="#FF9100" stroke-miterlimit="10"/>
<path d="M80.9501 55.9662C80.9501 55.9662 76.8244 53.1997 73.7607 52.4949C70.697 51.79 68.0288 52.2255 68.0288 52.2255" stroke="#FF9100" stroke-miterlimit="10"/>
<path d="M59.9741 52.4949C59.9741 52.4949 61.7577 51.9151 63.8505 51.7708C65.9433 51.6265 68.0289 52.2255 68.0289 52.2255" stroke="#FF9100" stroke-miterlimit="10"/>
<path d="M73.2309 51.4942C73.2309 51.4942 72.0298 51.3041 70.5603 51.4797C69.0908 51.6554 68.0288 52.2231 68.0288 52.2231" stroke="#FF9100" stroke-miterlimit="10"/>
<path d="M68.8846 50.7604C68.8846 50.7604 68.5466 51.0587 68.3452 51.422C68.1726 51.7323 68.0288 52.2231 68.0288 52.2231" stroke="#FF9100" stroke-miterlimit="10"/>
<path d="M65.2551 50.9264C65.2551 50.9264 65.9695 51.0034 66.576 51.3017C67.1825 51.6 68.0288 52.2254 68.0288 52.2254" stroke="#FF9100" stroke-miterlimit="10"/>
<path d="M49.1504 67.6576C50.2387 71.4874 58.2408 74.5209 67.9258 74.5209C77.6107 74.5209 85.6128 71.4898 86.7011 67.6576" stroke="#FF9100" stroke-miterlimit="10"/>
<path d="M51.6172 79.2263C54.6401 81.9206 60.8083 83.7657 67.9258 83.7657C75.0432 83.7657 81.2282 81.9158 84.2463 79.2143" stroke="#FF9100" stroke-miterlimit="10"/>
<path d="M54.4433 56.421C53.9902 57.0031 53.6594 57.6117 53.6594 58.2564C53.6594 61.569 60.7266 63.8135 67.8057 63.8135C75.3187 63.8135 82.1533 61.5089 82.1533 58.1963C82.1533 57.4121 81.8584 56.8371 81.3238 56.3344" stroke="#FF9100" stroke-miterlimit="10"/>
<path d="M67.9257 55.0377C70.9219 55.0377 73.3507 54.0748 73.3507 52.8871C73.3507 51.6993 70.9219 50.7365 67.9257 50.7365C64.9296 50.7365 62.5007 51.6993 62.5007 52.8871C62.5007 54.0748 64.9296 55.0377 67.9257 55.0377Z" stroke="#FF9100" stroke-miterlimit="10"/>
<path d="M70.4307 36.3988V52.2231C70.4307 52.7283 69.4191 53.1396 68.1725 53.1396C66.926 53.1396 65.9143 52.7307 65.9143 52.2231V36.3652C65.9143 35.86 66.926 35.4486 68.1725 35.4486C69.4191 35.4486 70.4307 35.8576 70.4307 36.3652V36.3988V36.3988Z" stroke="#FF9100" stroke-miterlimit="10"/>
<path d="M67.9257 38.8983C78.3547 38.8983 86.809 30.4145 86.809 19.9492C86.809 9.48383 78.3547 1 67.9257 1C57.4968 1 49.0425 9.48383 49.0425 19.9492C49.0425 30.4145 57.4968 38.8983 67.9257 38.8983Z" stroke="#FF9100" stroke-miterlimit="10"/>
<path d="M69.2202 38.8526C69.2202 38.8526 70.3949 38.3667 70.3949 26.5045C70.3949 13.4828 68.0288 2.48907 68.0288 2.48907" stroke="#FF9100" stroke-miterlimit="10"/>
<path d="M74.5014 37.7148C74.5014 37.7148 80.6839 34.8833 80.0798 23.9786C79.2336 8.68841 68.0264 2.48669 68.0264 2.48669" stroke="#FF9100" stroke-miterlimit="10"/>
<path d="M84.5771 28.8909C84.5771 28.8909 87.7319 21.6427 84.4261 14.8637C78.9388 3.61012 68.0288 2.48669 68.0288 2.48669" stroke="#FF9100" stroke-miterlimit="10"/>
<path d="M63.5842 38.3932C63.5842 38.3932 59.1037 36.5553 59.5807 24.7941C60.2496 8.26502 68.0287 2.48669 68.0287 2.48669" stroke="#FF9100" stroke-miterlimit="10"/>
<path d="M57.0685 35.4511C57.0685 35.4511 49.414 29.3311 52.5089 18.3831C56.287 5.0078 68.0288 2.48669 68.0288 2.48669" stroke="#FF9100" stroke-miterlimit="10"/>
<path d="M50.3323 13.0667C50.3323 13.0667 53.5063 7.21381 58.3535 4.74804C63.2008 2.28226 68.0265 2.48674 68.0265 2.48674" stroke="#FF9100" stroke-miterlimit="10"/>
<path d="M80.9501 6.22745C80.9501 6.22745 76.8244 3.46098 73.7607 2.75613C70.697 2.05128 68.0288 2.4867 68.0288 2.4867" stroke="#FF9100" stroke-miterlimit="10"/>
<path d="M59.9741 2.7585C59.9741 2.7585 61.7577 2.17875 63.8505 2.03441C65.9433 1.89007 68.0289 2.48907 68.0289 2.48907" stroke="#FF9100" stroke-miterlimit="10"/>
<path d="M73.2309 1.75779C73.2309 1.75779 72.0298 1.56775 70.5603 1.74336C69.0908 1.91897 68.0288 2.4867 68.0288 2.4867" stroke="#FF9100" stroke-miterlimit="10"/>
<path d="M68.8846 1.02405C68.8846 1.02405 68.5466 1.32235 68.3452 1.6856C68.1726 1.99592 68.0288 2.48667 68.0288 2.48667" stroke="#FF9100" stroke-miterlimit="10"/>
<path d="M65.2551 1.18762C65.2551 1.18762 65.9695 1.2646 66.576 1.5629C67.1825 1.8612 68.0288 2.48666 68.0288 2.48666" stroke="#FF9100" stroke-miterlimit="10"/>
<path d="M49.1504 17.9213C50.2387 21.751 58.2408 24.7845 67.9258 24.7845C77.6107 24.7845 85.6128 21.7534 86.7011 17.9213" stroke="#FF9100" stroke-miterlimit="10"/>
<path d="M51.6172 29.4899C54.6401 32.1842 60.8083 34.0293 67.9258 34.0293C75.0432 34.0293 81.2282 32.1794 84.2463 29.4778" stroke="#FF9100" stroke-miterlimit="10"/>
<path d="M54.4433 6.68456C53.9902 7.26673 53.6594 7.87535 53.6594 8.52006C53.6594 11.8326 60.7266 14.0771 67.8057 14.0771C75.3187 14.0771 82.1533 11.7725 82.1533 8.45992C82.1533 7.67568 81.8584 7.10074 81.3238 6.59796" stroke="#FF9100" stroke-miterlimit="10"/>
<path d="M67.9257 5.30127C70.9219 5.30127 73.3507 4.3384 73.3507 3.15063C73.3507 1.96287 70.9219 1 67.9257 1C64.9296 1 62.5007 1.96287 62.5007 3.15063C62.5007 4.3384 64.9296 5.30127 67.9257 5.30127Z" stroke="#FF9100" stroke-miterlimit="10"/>
</svg>
