<svg width="196" height="197" viewBox="0 0 196 197" fill="none" xmlns="http://www.w3.org/2000/svg">
<path d="M30.9888 64.597C41.4761 64.597 49.9777 56.128 49.9777 45.6809C49.9777 35.2339 41.4761 26.7649 30.9888 26.7649C20.5016 26.7649 12 35.2339 12 45.6809C12 56.128 20.5016 64.597 30.9888 64.597Z" stroke="#FF9100" stroke-miterlimit="10"/>
<path d="M32.2884 64.5514C32.2884 64.5514 33.4697 64.0663 33.4697 52.2249C33.4697 39.226 31.0903 28.2515 31.0903 28.2515" stroke="#FF9100" stroke-miterlimit="10"/>
<path d="M37.6015 63.418C37.6015 63.418 43.8187 60.5915 43.2112 49.7058C42.3602 34.4423 31.0903 28.2515 31.0903 28.2515" stroke="#FF9100" stroke-miterlimit="10"/>
<path d="M47.7312 54.6071C47.7312 54.6071 50.9036 47.3716 47.5793 40.6044C42.0613 29.3705 31.0903 28.249 31.0903 28.249" stroke="#FF9100" stroke-miterlimit="10"/>
<path d="M26.6207 64.0927C26.6207 64.0927 22.1151 62.258 22.5948 50.5175C23.2674 34.0173 31.09 28.249 31.09 28.249" stroke="#FF9100" stroke-miterlimit="10"/>
<path d="M20.0683 61.1558C20.0683 61.1558 12.371 55.049 15.4832 44.1201C19.2848 30.7682 31.0899 28.2515 31.0899 28.2515" stroke="#FF9100" stroke-miterlimit="10"/>
<path d="M13.2969 38.8129C13.2969 38.8129 16.4886 32.9702 21.363 30.5088C26.2373 28.0473 31.09 28.2514 31.09 28.2514" stroke="#FF9100" stroke-miterlimit="10"/>
<path d="M44.0838 31.9856C44.0838 31.9856 39.9351 29.224 36.8542 28.5204C33.7734 27.8168 31.0903 28.2514 31.0903 28.2514" stroke="#FF9100" stroke-miterlimit="10"/>
<path d="M22.9902 28.5204C22.9902 28.5204 24.7838 27.9416 26.8883 27.7976C28.9928 27.6535 31.0901 28.2514 31.0901 28.2514" stroke="#FF9100" stroke-miterlimit="10"/>
<path d="M36.3215 27.5238C36.3215 27.5238 35.1137 27.3341 33.636 27.5094C32.1583 27.6847 31.0903 28.2514 31.0903 28.2514" stroke="#FF9100" stroke-miterlimit="10"/>
<path d="M31.9509 26.7913C31.9509 26.7913 31.611 27.089 31.4085 27.4517C31.235 27.7614 31.0903 28.2513 31.0903 28.2513" stroke="#FF9100" stroke-miterlimit="10"/>
<path d="M28.3008 26.9546C28.3008 26.9546 29.0192 27.0314 29.6291 27.3292C30.239 27.627 31.0899 28.2514 31.0899 28.2514" stroke="#FF9100" stroke-miterlimit="10"/>
<path d="M12.1084 43.6565C13.2028 47.4796 21.2497 50.5078 30.9888 50.5078C40.7279 50.5078 48.7747 47.482 49.8691 43.6565" stroke="#FF9100" stroke-miterlimit="10"/>
<path d="M14.5864 55.2049C17.6263 57.8945 23.8289 59.7364 30.9862 59.7364C38.1435 59.7364 44.363 57.8897 47.398 55.1929" stroke="#FF9100" stroke-miterlimit="10"/>
<path d="M17.4289 32.4395C16.9733 33.0206 16.6406 33.6282 16.6406 34.2718C16.6406 37.5785 23.7473 39.8191 30.866 39.8191C38.421 39.8191 45.2938 37.5185 45.2938 34.2117C45.2938 33.4289 44.9973 32.8549 44.4597 32.353" stroke="#FF9100" stroke-miterlimit="10"/>
<path d="M30.989 31.0586C34.0019 31.0586 36.4444 30.0975 36.4444 28.9118C36.4444 27.7261 34.0019 26.7649 30.989 26.7649C27.9761 26.7649 25.5337 27.7261 25.5337 28.9118C25.5337 30.0975 27.9761 31.0586 30.989 31.0586Z" stroke="#FF9100" stroke-miterlimit="10"/>
<path d="M57.5955 64.7075L42.0973 56.7252C42.0298 56.6892 41.7888 56.5523 41.7237 56.509C40.7859 55.9063 40.4798 55.2195 40.7281 53.9996C41.068 52.3306 42.7265 51.3148 44.2283 52.1336C48.3747 54.3934 59.1962 60.493 59.3746 60.5482" stroke="#FF9100" stroke-miterlimit="10"/>
<path d="M116.77 112.882C127.257 112.882 135.759 104.413 135.759 93.9663C135.759 83.5193 127.257 75.0503 116.77 75.0503C106.283 75.0503 97.7812 83.5193 97.7812 93.9663C97.7812 104.413 106.283 112.882 116.77 112.882Z" stroke="#FF9100" stroke-miterlimit="10"/>
<path d="M118.072 112.839C118.072 112.839 119.253 112.354 119.253 100.513C119.253 87.5138 116.874 76.5393 116.874 76.5393" stroke="#FF9100" stroke-miterlimit="10"/>
<path d="M123.382 111.703C123.382 111.703 129.599 108.877 128.992 97.9912C128.141 82.7277 116.871 76.5369 116.871 76.5369" stroke="#FF9100" stroke-miterlimit="10"/>
<path d="M133.515 102.892C133.515 102.892 136.687 95.657 133.363 88.8898C127.845 77.6559 116.874 76.5344 116.874 76.5344" stroke="#FF9100" stroke-miterlimit="10"/>
<path d="M112.404 112.378C112.404 112.378 107.899 110.543 108.379 98.8028C109.051 82.3026 116.874 76.5344 116.874 76.5344" stroke="#FF9100" stroke-miterlimit="10"/>
<path d="M105.852 109.444C105.852 109.444 98.1552 103.334 101.267 92.4055C105.069 79.0536 116.874 76.5369 116.874 76.5369" stroke="#FF9100" stroke-miterlimit="10"/>
<path d="M99.0781 87.0982C99.0781 87.0982 102.27 81.2555 107.144 78.7941C112.019 76.3302 116.871 76.5367 116.871 76.5367" stroke="#FF9100" stroke-miterlimit="10"/>
<path d="M129.868 80.271C129.868 80.271 125.719 77.5094 122.638 76.8058C119.557 76.1022 116.874 76.5368 116.874 76.5368" stroke="#FF9100" stroke-miterlimit="10"/>
<path d="M108.773 76.8058C108.773 76.8058 110.567 76.227 112.671 76.083C114.776 75.9389 116.873 76.5368 116.873 76.5368" stroke="#FF9100" stroke-miterlimit="10"/>
<path d="M122.105 75.8092C122.105 75.8092 120.897 75.6195 119.42 75.7948C117.942 75.9701 116.874 76.5368 116.874 76.5368" stroke="#FF9100" stroke-miterlimit="10"/>
<path d="M117.735 75.0767C117.735 75.0767 117.395 75.3744 117.192 75.7371C117.019 76.0468 116.874 76.5367 116.874 76.5367" stroke="#FF9100" stroke-miterlimit="10"/>
<path d="M114.082 75.24C114.082 75.24 114.8 75.3168 115.41 75.6146C116.02 75.9124 116.871 76.5368 116.871 76.5368" stroke="#FF9100" stroke-miterlimit="10"/>
<path d="M97.8896 91.9419C98.9841 95.765 107.031 98.7932 116.77 98.7932C126.509 98.7932 134.556 95.7674 135.65 91.9419" stroke="#FF9100" stroke-miterlimit="10"/>
<path d="M100.37 103.49C103.41 106.18 109.613 108.022 116.77 108.022C123.927 108.022 130.147 106.175 133.182 103.478" stroke="#FF9100" stroke-miterlimit="10"/>
<path d="M103.212 80.7249C102.756 81.306 102.424 81.9136 102.424 82.5572C102.424 85.8639 109.53 88.1045 116.649 88.1045C124.204 88.1045 131.077 85.8039 131.077 82.4971C131.077 81.7143 130.781 81.1403 130.243 80.6384" stroke="#FF9100" stroke-miterlimit="10"/>
<path d="M116.77 79.344C119.783 79.344 122.225 78.3829 122.225 77.1972C122.225 76.0115 119.783 75.0503 116.77 75.0503C113.757 75.0503 111.314 76.0115 111.314 77.1972C111.314 78.3829 113.757 79.344 116.77 79.344Z" stroke="#FF9100" stroke-miterlimit="10"/>
<path d="M30.9888 112.882C41.4761 112.882 49.9777 104.413 49.9777 93.9663C49.9777 83.5193 41.4761 75.0503 30.9888 75.0503C20.5016 75.0503 12 83.5193 12 93.9663C12 104.413 20.5016 112.882 30.9888 112.882Z" stroke="#FF9100" stroke-miterlimit="10"/>
<path d="M32.2884 112.839C32.2884 112.839 33.4697 112.354 33.4697 100.513C33.4697 87.5138 31.0903 76.5393 31.0903 76.5393" stroke="#FF9100" stroke-miterlimit="10"/>
<path d="M37.6015 111.703C37.6015 111.703 43.8187 108.877 43.2112 97.9912C42.3602 82.7277 31.0903 76.5369 31.0903 76.5369" stroke="#FF9100" stroke-miterlimit="10"/>
<path d="M47.7312 102.892C47.7312 102.892 50.9036 95.657 47.5793 88.8898C42.0613 77.6559 31.0903 76.5344 31.0903 76.5344" stroke="#FF9100" stroke-miterlimit="10"/>
<path d="M26.6207 112.378C26.6207 112.378 22.1151 110.543 22.5948 98.8028C23.2674 82.3026 31.09 76.5344 31.09 76.5344" stroke="#FF9100" stroke-miterlimit="10"/>
<path d="M20.0683 109.444C20.0683 109.444 12.371 103.334 15.4832 92.4055C19.2848 79.0536 31.0899 76.5369 31.0899 76.5369" stroke="#FF9100" stroke-miterlimit="10"/>
<path d="M13.2969 87.0982C13.2969 87.0982 16.4886 81.2555 21.363 78.7941C26.2373 76.3302 31.09 76.5367 31.09 76.5367" stroke="#FF9100" stroke-miterlimit="10"/>
<path d="M44.0838 80.271C44.0838 80.271 39.9351 77.5094 36.8542 76.8058C33.7734 76.1022 31.0903 76.5368 31.0903 76.5368" stroke="#FF9100" stroke-miterlimit="10"/>
<path d="M22.9902 76.8058C22.9902 76.8058 24.7838 76.227 26.8883 76.083C28.9928 75.9389 31.0901 76.5368 31.0901 76.5368" stroke="#FF9100" stroke-miterlimit="10"/>
<path d="M36.3215 75.8092C36.3215 75.8092 35.1137 75.6195 33.636 75.7948C32.1583 75.9701 31.0903 76.5368 31.0903 76.5368" stroke="#FF9100" stroke-miterlimit="10"/>
<path d="M31.9509 75.0767C31.9509 75.0767 31.611 75.3744 31.4085 75.7371C31.235 76.0468 31.0903 76.5367 31.0903 76.5367" stroke="#FF9100" stroke-miterlimit="10"/>
<path d="M28.3008 75.24C28.3008 75.24 29.0192 75.3168 29.6291 75.6146C30.239 75.9124 31.0899 76.5368 31.0899 76.5368" stroke="#FF9100" stroke-miterlimit="10"/>
<path d="M12.1084 91.9419C13.2028 95.765 21.2497 98.7932 30.9888 98.7932C40.7279 98.7932 48.7747 95.7674 49.8691 91.9419" stroke="#FF9100" stroke-miterlimit="10"/>
<path d="M14.5864 103.49C17.6263 106.18 23.8289 108.022 30.9862 108.022C38.1435 108.022 44.363 106.175 47.398 103.478" stroke="#FF9100" stroke-miterlimit="10"/>
<path d="M17.4289 80.7249C16.9733 81.306 16.6406 81.9136 16.6406 82.5572C16.6406 85.8639 23.7473 88.1045 30.866 88.1045C38.421 88.1045 45.2938 85.8039 45.2938 82.4971C45.2938 81.7143 44.9973 81.1403 44.4597 80.6384" stroke="#FF9100" stroke-miterlimit="10"/>
<path d="M30.989 79.344C34.0019 79.344 36.4444 78.3829 36.4444 77.1972C36.4444 76.0115 34.0019 75.0503 30.989 75.0503C27.9761 75.0503 25.5337 76.0115 25.5337 77.1972C25.5337 78.3829 27.9761 79.344 30.989 79.344Z" stroke="#FF9100" stroke-miterlimit="10"/>
<path d="M116.77 64.597C127.257 64.597 135.759 56.128 135.759 45.6809C135.759 35.2339 127.257 26.7649 116.77 26.7649C106.283 26.7649 97.7812 35.2339 97.7812 45.6809C97.7812 56.128 106.283 64.597 116.77 64.597Z" stroke="#FF9100" stroke-miterlimit="10"/>
<path d="M118.072 64.5514C118.072 64.5514 119.253 64.0663 119.253 52.2249C119.253 39.226 116.874 28.2515 116.874 28.2515" stroke="#FF9100" stroke-miterlimit="10"/>
<path d="M123.382 63.418C123.382 63.418 129.599 60.5915 128.992 49.7058C128.141 34.4423 116.871 28.2515 116.871 28.2515" stroke="#FF9100" stroke-miterlimit="10"/>
<path d="M133.515 54.6071C133.515 54.6071 136.687 47.3716 133.363 40.6044C127.845 29.3705 116.874 28.249 116.874 28.249" stroke="#FF9100" stroke-miterlimit="10"/>
<path d="M112.404 64.0927C112.404 64.0927 107.899 62.258 108.379 50.5175C109.051 34.0173 116.874 28.249 116.874 28.249" stroke="#FF9100" stroke-miterlimit="10"/>
<path d="M105.852 61.1558C105.852 61.1558 98.1552 55.0465 101.267 44.1177C105.069 30.7657 116.874 28.249 116.874 28.249" stroke="#FF9100" stroke-miterlimit="10"/>
<path d="M99.0781 38.8128C99.0781 38.8128 102.27 32.9701 107.144 30.5087C112.019 28.0448 116.871 28.2513 116.871 28.2513" stroke="#FF9100" stroke-miterlimit="10"/>
<path d="M129.868 31.9856C129.868 31.9856 125.719 29.224 122.638 28.5204C119.557 27.8168 116.874 28.2514 116.874 28.2514" stroke="#FF9100" stroke-miterlimit="10"/>
<path d="M108.773 28.5204C108.773 28.5204 110.567 27.9416 112.671 27.7976C114.776 27.6535 116.873 28.2514 116.873 28.2514" stroke="#FF9100" stroke-miterlimit="10"/>
<path d="M122.105 27.5238C122.105 27.5238 120.897 27.3341 119.42 27.5094C117.942 27.6847 116.874 28.2514 116.874 28.2514" stroke="#FF9100" stroke-miterlimit="10"/>
<path d="M117.735 26.7913C117.735 26.7913 117.395 27.089 117.192 27.4517C117.019 27.7614 116.874 28.2513 116.874 28.2513" stroke="#FF9100" stroke-miterlimit="10"/>
<path d="M114.082 26.9546C114.082 26.9546 114.8 27.0314 115.41 27.3292C116.02 27.627 116.871 28.2514 116.871 28.2514" stroke="#FF9100" stroke-miterlimit="10"/>
<path d="M97.8896 43.6565C98.9841 47.4796 107.031 50.5078 116.77 50.5078C126.509 50.5078 134.556 47.482 135.65 43.6565" stroke="#FF9100" stroke-miterlimit="10"/>
<path d="M100.37 55.2049C103.41 57.8945 109.613 59.7364 116.77 59.7364C123.927 59.7364 130.147 57.8897 133.182 55.1929" stroke="#FF9100" stroke-miterlimit="10"/>
<path d="M103.212 32.4395C102.756 33.0206 102.424 33.6282 102.424 34.2718C102.424 37.5785 109.53 39.8191 116.649 39.8191C124.204 39.8191 131.077 37.5185 131.077 34.2117C131.077 33.4289 130.781 32.8549 130.243 32.353" stroke="#FF9100" stroke-miterlimit="10"/>
<path d="M116.77 31.0586C119.783 31.0586 122.225 30.0975 122.225 28.9118C122.225 27.7261 119.783 26.7649 116.77 26.7649C113.757 26.7649 111.314 27.7261 111.314 28.9118C111.314 30.0975 113.757 31.0586 116.77 31.0586Z" stroke="#FF9100" stroke-miterlimit="10"/>
<path d="M90.2508 64.7075L105.749 56.7252C105.816 56.6892 106.058 56.5523 106.123 56.509C107.06 55.9063 107.367 55.2195 107.118 53.9996C106.778 52.3306 105.12 51.3148 103.618 52.1336C99.4716 54.3934 88.6501 60.493 88.4717 60.5482" stroke="#FF9100" stroke-miterlimit="10"/>
<path d="M57.5955 113.104L42.0973 105.121C42.0298 105.085 41.7888 104.948 41.7237 104.905C40.7859 104.302 40.4798 103.615 40.7281 102.396C41.068 100.727 42.7265 99.7108 44.2283 100.53C48.3747 102.789 59.1962 108.889 59.3746 108.944" stroke="#FF9100" stroke-miterlimit="10"/>
<path d="M90.2508 113.104L105.749 105.121C105.816 105.085 106.058 104.948 106.123 104.905C107.06 104.302 107.367 103.615 107.118 102.396C106.778 100.727 105.12 99.7108 103.618 100.53C99.4716 102.789 88.6501 108.889 88.4717 108.944" stroke="#FF9100" stroke-miterlimit="10"/>
<path d="M73.8043 136.762C84.2915 136.762 92.7931 128.293 92.7931 117.846C92.7931 107.399 84.2915 98.9302 73.8043 98.9302C63.317 98.9302 54.8154 107.399 54.8154 117.846C54.8154 128.293 63.317 136.762 73.8043 136.762Z" stroke="#FF9100" stroke-miterlimit="10"/>
<path d="M75.1063 136.717C75.1063 136.717 76.2875 136.232 76.2875 124.39C76.2875 111.391 73.9082 100.417 73.9082 100.417" stroke="#FF9100" stroke-miterlimit="10"/>
<path d="M80.4165 135.581C80.4165 135.581 86.6336 132.754 86.0261 121.869C85.1752 106.605 73.9053 100.414 73.9053 100.414" stroke="#FF9100" stroke-miterlimit="10"/>
<path d="M90.5491 126.772C90.5491 126.772 93.7215 119.537 90.3972 112.77C84.8792 101.536 73.9082 100.414 73.9082 100.414" stroke="#FF9100" stroke-miterlimit="10"/>
<path d="M69.4385 136.258C69.4385 136.258 64.933 134.423 65.4127 122.683C66.0853 106.183 73.9079 100.414 73.9079 100.414" stroke="#FF9100" stroke-miterlimit="10"/>
<path d="M62.8867 133.321C62.8867 133.321 55.1894 127.212 58.3016 116.283C62.1032 102.931 73.9082 100.414 73.9082 100.414" stroke="#FF9100" stroke-miterlimit="10"/>
<path d="M56.1123 110.978C56.1123 110.978 59.304 105.135 64.1784 102.674C69.0528 100.21 73.9054 100.417 73.9054 100.417" stroke="#FF9100" stroke-miterlimit="10"/>
<path d="M86.9017 104.148C86.9017 104.148 82.7529 101.387 79.6721 100.683C76.5913 99.9796 73.9082 100.414 73.9082 100.414" stroke="#FF9100" stroke-miterlimit="10"/>
<path d="M65.8076 100.686C65.8076 100.686 67.6012 100.107 69.7057 99.9628C71.8102 99.8188 73.9075 100.417 73.9075 100.417" stroke="#FF9100" stroke-miterlimit="10"/>
<path d="M79.1394 99.6867C79.1394 99.6867 77.9316 99.4969 76.4539 99.6722C74.9761 99.8475 73.9082 100.414 73.9082 100.414" stroke="#FF9100" stroke-miterlimit="10"/>
<path d="M74.7688 98.9541C74.7688 98.9541 74.4289 99.2519 74.2264 99.6145C74.0528 99.9243 73.9082 100.414 73.9082 100.414" stroke="#FF9100" stroke-miterlimit="10"/>
<path d="M71.1191 99.1174C71.1191 99.1174 71.8375 99.1943 72.4474 99.4921C73.0573 99.7898 73.9083 100.414 73.9083 100.414" stroke="#FF9100" stroke-miterlimit="10"/>
<path d="M54.9238 115.822C56.0183 119.645 64.0651 122.673 73.8042 122.673C83.5433 122.673 91.5901 119.647 92.6846 115.822" stroke="#FF9100" stroke-miterlimit="10"/>
<path d="M57.4043 127.37C60.4442 130.06 66.6468 131.902 73.8041 131.902C80.9614 131.902 87.1809 130.055 90.2159 127.358" stroke="#FF9100" stroke-miterlimit="10"/>
<path d="M60.2463 104.605C59.7907 105.186 59.458 105.793 59.458 106.437C59.458 109.744 66.5647 111.984 73.6834 111.984C81.2384 111.984 88.1112 109.684 88.1112 106.377C88.1112 105.594 87.8147 105.02 87.2771 104.518" stroke="#FF9100" stroke-miterlimit="10"/>
<path d="M73.804 103.224C76.8169 103.224 79.2593 102.263 79.2593 101.077C79.2593 99.8914 76.8169 98.9302 73.804 98.9302C70.7911 98.9302 68.3486 99.8914 68.3486 101.077C68.3486 102.263 70.7911 103.224 73.804 103.224Z" stroke="#FF9100" stroke-miterlimit="10"/>
<path d="M76.3239 84.805V100.602C76.3239 101.106 75.3066 101.517 74.0531 101.517C72.7995 101.517 71.7822 101.108 71.7822 100.602V84.7714C71.7822 84.2671 72.7995 83.8564 74.0531 83.8564C75.3066 83.8564 76.3239 84.2647 76.3239 84.7714V84.805V84.805Z" stroke="#FF9100" stroke-miterlimit="10"/>
<path d="M73.8043 88.4815C84.2915 88.4815 92.7931 80.0125 92.7931 69.5655C92.7931 59.1184 84.2915 50.6494 73.8043 50.6494C63.317 50.6494 54.8154 59.1184 54.8154 69.5655C54.8154 80.0125 63.317 88.4815 73.8043 88.4815Z" stroke="#FF9100" stroke-miterlimit="10"/>
<path d="M75.1063 88.436C75.1063 88.436 76.2875 87.9509 76.2875 76.1094C76.2875 63.1105 73.9082 52.136 73.9082 52.136" stroke="#FF9100" stroke-miterlimit="10"/>
<path d="M80.4165 87.3C80.4165 87.3 86.6336 84.4736 86.0261 73.5879C85.1752 58.3244 73.9053 52.1335 73.9053 52.1335" stroke="#FF9100" stroke-miterlimit="10"/>
<path d="M90.5491 78.4916C90.5491 78.4916 93.7215 71.2561 90.3972 64.4889C84.8792 53.255 73.9082 52.1335 73.9082 52.1335" stroke="#FF9100" stroke-miterlimit="10"/>
<path d="M69.4385 87.9772C69.4385 87.9772 64.933 86.1426 65.4127 74.402C66.0853 57.9018 73.9079 52.1335 73.9079 52.1335" stroke="#FF9100" stroke-miterlimit="10"/>
<path d="M62.8867 85.0403C62.8867 85.0403 55.1894 78.9311 58.3016 68.0022C62.1032 54.6502 73.9082 52.1335 73.9082 52.1335" stroke="#FF9100" stroke-miterlimit="10"/>
<path d="M56.1123 62.6974C56.1123 62.6974 59.304 56.8548 64.1784 54.3933C69.0528 51.9318 73.9054 52.136 73.9054 52.136" stroke="#FF9100" stroke-miterlimit="10"/>
<path d="M86.9017 55.8702C86.9017 55.8702 82.7529 53.1085 79.6721 52.4049C76.5913 51.7013 73.9082 52.1359 73.9082 52.1359" stroke="#FF9100" stroke-miterlimit="10"/>
<path d="M65.8076 52.4049C65.8076 52.4049 67.6012 51.8262 69.7057 51.6821C71.8102 51.538 73.9075 52.1359 73.9075 52.1359" stroke="#FF9100" stroke-miterlimit="10"/>
<path d="M79.1394 51.4059C79.1394 51.4059 77.9316 51.2162 76.4539 51.3915C74.9761 51.5668 73.9082 52.1335 73.9082 52.1335" stroke="#FF9100" stroke-miterlimit="10"/>
<path d="M74.7688 50.6733C74.7688 50.6733 74.4289 50.9711 74.2264 51.3337C74.0528 51.6435 73.9082 52.1334 73.9082 52.1334" stroke="#FF9100" stroke-miterlimit="10"/>
<path d="M71.1191 50.8391C71.1191 50.8391 71.8375 50.916 72.4474 51.2137C73.0573 51.5115 73.9083 52.1359 73.9083 52.1359" stroke="#FF9100" stroke-miterlimit="10"/>
<path d="M54.9238 67.541C56.0183 71.3641 64.0651 74.3923 73.8042 74.3923C83.5433 74.3923 91.5901 71.3665 92.6846 67.541" stroke="#FF9100" stroke-miterlimit="10"/>
<path d="M57.4043 79.0894C60.4442 81.779 66.6468 83.6209 73.8041 83.6209C80.9614 83.6209 87.1809 81.7742 90.2159 79.0774" stroke="#FF9100" stroke-miterlimit="10"/>
<path d="M60.2463 56.324C59.7907 56.9051 59.458 57.5127 59.458 58.1563C59.458 61.4631 66.5647 63.7036 73.6834 63.7036C81.2384 63.7036 88.1112 61.403 88.1112 58.0963C88.1112 57.3134 87.8147 56.7394 87.2771 56.2375" stroke="#FF9100" stroke-miterlimit="10"/>
<path d="M73.804 54.9432C76.8169 54.9432 79.2593 53.982 79.2593 52.7963C79.2593 51.6106 76.8169 50.6494 73.804 50.6494C70.7911 50.6494 68.3486 51.6106 68.3486 52.7963C68.3486 53.982 70.7911 54.9432 73.804 54.9432Z" stroke="#FF9100" stroke-miterlimit="10"/>
<path d="M76.3239 36.337V52.1336C76.3239 52.6379 75.3066 53.0485 74.0531 53.0485C72.7995 53.0485 71.7822 52.6403 71.7822 52.1336V36.3034C71.7822 35.7991 72.7995 35.3884 74.0531 35.3884C75.3066 35.3884 76.3239 35.7967 76.3239 36.3034V36.337V36.337Z" stroke="#FF9100" stroke-miterlimit="10"/>
<path d="M73.8043 38.8321C84.2915 38.8321 92.7931 30.3631 92.7931 19.916C92.7931 9.469 84.2915 1 73.8043 1C63.317 1 54.8154 9.469 54.8154 19.916C54.8154 30.3631 63.317 38.8321 73.8043 38.8321Z" stroke="#FF9100" stroke-miterlimit="10"/>
<path d="M75.1063 38.7865C75.1063 38.7865 76.2875 38.3015 76.2875 26.46C76.2875 13.4611 73.9082 2.48657 73.9082 2.48657" stroke="#FF9100" stroke-miterlimit="10"/>
<path d="M80.4165 37.6506C80.4165 37.6506 86.6336 34.8241 86.0261 23.9385C85.1752 8.67501 73.9053 2.48413 73.9053 2.48413" stroke="#FF9100" stroke-miterlimit="10"/>
<path d="M90.5491 28.8422C90.5491 28.8422 93.7215 21.6067 90.3972 14.8395C84.8792 3.6056 73.9082 2.48413 73.9082 2.48413" stroke="#FF9100" stroke-miterlimit="10"/>
<path d="M69.4385 38.3278C69.4385 38.3278 64.933 36.4931 65.4127 24.7526C66.0853 8.25236 73.9079 2.48413 73.9079 2.48413" stroke="#FF9100" stroke-miterlimit="10"/>
<path d="M62.8867 35.3909C62.8867 35.3909 55.1894 29.2817 58.3016 18.3528C62.1008 5.00083 73.9082 2.48413 73.9082 2.48413" stroke="#FF9100" stroke-miterlimit="10"/>
<path d="M56.1123 13.0456C56.1123 13.0456 59.304 7.20291 64.1784 4.74145C69.0528 2.27999 73.9054 2.48411 73.9054 2.48411" stroke="#FF9100" stroke-miterlimit="10"/>
<path d="M86.9017 6.2183C86.9017 6.2183 82.7529 3.45666 79.6721 2.75304C76.5913 2.04942 73.9082 2.48408 73.9082 2.48408" stroke="#FF9100" stroke-miterlimit="10"/>
<path d="M65.8076 2.75549C65.8076 2.75549 67.6012 2.17675 69.7057 2.03266C71.8102 1.88857 73.9075 2.48653 73.9075 2.48653" stroke="#FF9100" stroke-miterlimit="10"/>
<path d="M79.1394 1.75648C79.1394 1.75648 77.9316 1.56677 76.4539 1.74207C74.9761 1.91737 73.9082 2.48411 73.9082 2.48411" stroke="#FF9100" stroke-miterlimit="10"/>
<path d="M74.7688 1.02393C74.7688 1.02393 74.4289 1.3217 74.2264 1.68432C74.0528 1.9941 73.9082 2.48399 73.9082 2.48399" stroke="#FF9100" stroke-miterlimit="10"/>
<path d="M71.1191 1.18726C71.1191 1.18726 71.8375 1.2641 72.4474 1.56188C73.0573 1.85966 73.9083 2.48403 73.9083 2.48403" stroke="#FF9100" stroke-miterlimit="10"/>
<path d="M54.9238 17.8916C56.0183 21.7147 64.0651 24.7429 73.8042 24.7429C83.5433 24.7429 91.5901 21.7171 92.6846 17.8916" stroke="#FF9100" stroke-miterlimit="10"/>
<path d="M57.4043 29.44C60.4442 32.1296 66.6468 33.9715 73.8041 33.9715C80.9614 33.9715 87.1809 32.1248 90.2159 29.428" stroke="#FF9100" stroke-miterlimit="10"/>
<path d="M60.2463 6.67459C59.7907 7.25573 59.458 7.86329 59.458 8.50687C59.458 11.8136 66.5647 14.0542 73.6834 14.0542C81.2384 14.0542 88.1112 11.7536 88.1112 8.44684C88.1112 7.66397 87.8147 7.09003 87.2771 6.58813" stroke="#FF9100" stroke-miterlimit="10"/>
<path d="M73.804 5.29375C76.8169 5.29375 79.2593 4.33256 79.2593 3.14688C79.2593 1.96119 76.8169 1 73.804 1C70.7911 1 68.3486 1.96119 68.3486 3.14688C68.3486 4.33256 70.7911 5.29375 73.804 5.29375Z" stroke="#FF9100" stroke-miterlimit="10"/>
</svg>
