<svg width="136" height="138" viewBox="0 0 136 138" fill="none" xmlns="http://www.w3.org/2000/svg">
<g clip-path="url(#clip0_16_430)">
<path d="M79.8147 100.982C78.2496 100.832 76.1837 100.269 74.9077 99.7986L51.6531 91.1835L55.37 74.4419" stroke="#08FFD0" stroke-width="0.75" stroke-miterlimit="10"/>
<path d="M97.2782 90.5222C95.7823 86.039 93.1067 82.115 89.2515 78.7505C89.1635 78.6736 89.1866 78.5343 89.2913 78.5197C92.8176 77.9811 95.8305 76.5214 98.3342 74.1362C100.897 71.695 102.623 68.4781 103.507 64.4897C104.429 60.3391 104.318 56.1823 103.178 52.0172C102.036 47.8542 99.8532 44.1174 96.6308 40.8132C95.1139 39.2578 93.4105 37.877 91.5332 36.6585C91.0345 36.3362 90.7789 35.7103 90.9025 35.155L94.3366 19.684C94.4853 19.0144 94.0747 18.2783 93.4231 18.035L79.6597 12.9487C79.006 12.7075 78.3565 13.0527 78.2077 13.7222L74.9664 28.3241C74.8177 28.9937 74.1682 29.3388 73.5145 29.0976L69.4875 27.6088C68.8338 27.3675 68.4252 26.6293 68.574 25.9598L71.8152 11.3579C71.964 10.6883 71.5533 9.95222 70.9017 9.70893L57.1384 4.62262C56.4847 4.3814 55.8351 4.72659 55.6864 5.39617L52.4451 19.998C52.2963 20.6676 51.6468 21.0128 50.9931 20.7716L43.6013 18.0392C42.9475 17.798 42.298 18.1431 42.1493 18.8127L23.6088 102.342C23.4601 103.011 23.8707 103.747 24.5223 103.991L31.9142 106.723C32.5679 106.964 32.9765 107.703 32.8277 108.372L29.6283 122.789C29.4796 123.458 29.8902 124.195 30.5419 124.438L44.3052 129.524C44.9589 129.765 45.6085 129.42 45.7572 128.751L48.9566 114.334C49.1053 113.664 49.7549 113.319 50.4086 113.56L54.4355 115.049C55.0892 115.29 55.4978 116.029 55.349 116.698L52.1497 131.115C52.0009 131.785 52.4116 132.521 53.0632 132.764L66.8266 137.85C67.4803 138.091 68.1298 137.746 68.2785 137.077L71.5764 122.221C71.7063 121.631 72.2364 121.277 72.8251 121.394C75.8506 121.986 78.7147 122.057 81.4113 121.587C85.6163 120.853 89.1635 119.017 92.0549 116.076C94.9442 113.138 96.9032 109.347 97.934 104.71C99.0173 99.8277 98.7973 95.1012 97.274 90.5305L97.2782 90.5222ZM56.1159 37.8625L77.8243 45.885C81.3233 47.1784 83.8585 49.1289 85.4299 51.7344C87.0013 54.342 87.4266 57.2741 86.7058 60.5263C85.9641 63.8638 84.4032 66.147 82.0231 67.3822C79.6408 68.6153 76.7013 68.5862 73.2023 67.2928L51.3745 59.2266L56.1159 37.8625V37.8625ZM76.1942 104.394C73.5857 105.675 70.3737 105.613 66.5584 104.201L43.2995 95.6065L48.5564 71.9237L71.8152 80.518C75.6327 81.9279 78.3732 84.1092 80.0431 87.0579C81.7109 90.0086 82.1383 93.3149 81.3254 96.9768C80.5124 100.639 78.8027 103.111 76.1942 104.394Z" stroke="#08FFD0" stroke-width="0.75" stroke-miterlimit="10"/>
<path d="M51.3745 59.2266L59.8161 54.735" stroke="#08FFD0" stroke-width="0.75" stroke-miterlimit="10"/>
<path d="M51.6553 91.1835L43.3018 95.6064" stroke="#08FFD0" stroke-width="0.75" stroke-miterlimit="10"/>
<path d="M91.0073 36.0471L99.3085 31.6533" stroke="#08FFD0" stroke-width="0.75" stroke-miterlimit="10"/>
<path d="M91.4326 36.5607L99.7191 32.1731" stroke="#08FFD0" stroke-width="0.75" stroke-miterlimit="10"/>
<path d="M68.6851 26.8622L76.1691 22.9009" stroke="#08FFD0" stroke-width="0.75" stroke-miterlimit="10"/>
<path d="M69.1501 27.432L75.9637 23.8242" stroke="#08FFD0" stroke-width="0.75" stroke-miterlimit="10"/>
<path d="M68.551 26.097L76.3808 21.9506" stroke="#08FFD0" stroke-width="0.75" stroke-miterlimit="10"/>
<path d="M90.8711 35.3921L99.1681 31.0003" stroke="#08FFD0" stroke-width="0.75" stroke-miterlimit="10"/>
<path d="M94.1816 18.7004L102.485 14.3149" stroke="#08FFD0" stroke-width="0.75" stroke-miterlimit="10"/>
<path d="M94.345 19.4968L102.657 15.1071" stroke="#08FFD0" stroke-width="0.75" stroke-miterlimit="10"/>
<path d="M67.7673 137.784L76.2361 133.303L76.278 133.28C76.5399 133.14 76.7411 132.887 76.8144 132.552L79.1715 121.845" stroke="#08FFD0" stroke-width="0.75" stroke-miterlimit="10"/>
<path d="M93.6704 18.1577L101.986 13.768" stroke="#08FFD0" stroke-width="0.75" stroke-miterlimit="10"/>
<path d="M71.7209 10.5116L80.1227 6.06366" stroke="#08FFD0" stroke-width="0.75" stroke-miterlimit="10"/>
<path d="M71.8132 11.3642L80.2003 6.90793" stroke="#08FFD0" stroke-width="0.75" stroke-miterlimit="10"/>
<path d="M45.1748 129.499L53.4907 125.08" stroke="#08FFD0" stroke-width="0.75" stroke-miterlimit="10"/>
<path d="M45.8201 128.476L53.6624 124.309" stroke="#08FFD0" stroke-width="0.75" stroke-miterlimit="10"/>
<path d="M68.354 136.742L76.892 132.205" stroke="#08FFD0" stroke-width="0.75" stroke-miterlimit="10"/>
<path d="M71.2788 9.93143L79.6952 5.47726" stroke="#08FFD0" stroke-width="0.75" stroke-miterlimit="10"/>
<path d="M57.3333 4.70164L65.7602 0.241241" stroke="#08FFD0" stroke-width="0.75" stroke-miterlimit="10"/>
<path d="M43.8987 18.1577L52.3025 13.7098" stroke="#08FFD0" stroke-width="0.75" stroke-miterlimit="10"/>
<path d="M79.9446 13.0838L88.2835 8.66711" stroke="#08FFD0" stroke-width="0.75" stroke-miterlimit="10"/>
<path d="M42.6753 18.0953L51.054 13.6432L51.1064 13.6183C51.3641 13.4914 51.6763 13.4727 51.9906 13.5892L53.717 14.2546" stroke="#08FFD0" stroke-width="0.75" stroke-miterlimit="10"/>
<path d="M97.936 74.993C101.471 78.2348 103.855 81.8967 105.271 86.145C106.795 90.7156 107.015 95.4422 105.931 100.325C104.903 104.964 102.941 108.753 100.052 111.691C98.6065 113.161 96.9974 114.355 95.2227 115.274H95.2311L89.2451 118.441" stroke="#08FFD0" stroke-width="0.75" stroke-miterlimit="10"/>
<path d="M98.9731 112.221C97.5274 113.691 95.9183 114.885 94.1437 115.804H94.1521L89.4756 118.279" stroke="#08FFD0" stroke-width="0.75" stroke-miterlimit="10"/>
<path d="M96.8843 75.5482C100.35 78.763 102.793 82.4769 104.192 86.6732C105.716 91.2438 105.936 95.9703 104.852 100.853C103.824 105.492 101.862 109.281 98.9732 112.219" stroke="#08FFD0" stroke-width="0.75" stroke-miterlimit="10"/>
<path d="M95.8074 76.12C99.2498 79.3265 101.678 83.0258 103.071 87.2034C104.595 91.774 104.815 96.5006 103.731 101.383C102.703 106.022 100.742 109.811 97.8523 112.749C96.4066 114.22 94.7975 115.413 93.0229 116.332H93.0313L89.8088 118.033" stroke="#08FFD0" stroke-width="0.75" stroke-miterlimit="10"/>
<path d="M94.7703 76.7272C98.1729 79.9171 100.568 83.5873 101.953 87.7358C103.476 92.3064 103.696 97.0329 102.613 101.915C101.584 106.555 99.6228 110.343 96.7335 113.282C95.2878 114.752 93.6787 115.945 91.904 116.865L90.0645 117.844" stroke="#08FFD0" stroke-width="0.75" stroke-miterlimit="10"/>
<path d="M93.6619 77.2658C97.0603 80.4536 99.4509 84.1196 100.834 88.264C102.357 92.8346 102.577 97.5611 101.494 102.444C100.465 107.083 98.5039 110.872 95.6146 113.81C94.1689 115.28 92.5598 116.474 90.7852 117.393L90.3242 117.636" stroke="#08FFD0" stroke-width="0.75" stroke-miterlimit="10"/>
<path d="M92.4759 77.7336C95.9079 80.936 98.3216 84.6228 99.7128 88.7942C101.236 93.3648 101.456 98.0914 100.373 102.974C99.344 107.613 97.3829 111.402 94.4936 114.34C93.2847 115.569 92.0883 116.526 90.6489 117.37" stroke="#08FFD0" stroke-width="0.75" stroke-miterlimit="10"/>
<path d="M91.2043 78.1225C94.739 81.3644 97.1757 85.0762 98.5941 89.3224C100.117 93.893 100.337 98.6196 99.2541 103.502C98.2254 108.141 96.2643 111.93 93.375 114.868C92.891 115.361 92.4217 115.794 91.8999 116.226" stroke="#08FFD0" stroke-width="0.75" stroke-miterlimit="10"/>
<path d="M98.0452 32.3166C98.3175 32.5162 98.6758 32.695 98.9314 32.8614C100.809 34.08 102.512 35.4607 104.029 37.0161C107.251 40.3204 109.435 44.0571 110.577 48.2202C111.716 52.3853 111.827 56.5421 110.906 60.6926C110.019 64.681 108.295 67.8958 105.732 70.3392C105.156 70.8881 104.635 71.3248 104.006 71.774" stroke="#08FFD0" stroke-width="0.75" stroke-miterlimit="10"/>
<path d="M96.9871 32.876C97.1966 33.0943 97.6785 33.269 97.9425 33.4416C99.8198 34.6601 101.523 36.0409 103.04 37.5963C106.263 40.9005 108.446 44.6373 109.588 48.8003C110.727 52.9655 110.838 57.1223 109.917 61.2728C109.03 65.2612 107.306 68.476 104.744 70.9193C104.253 71.3851 103.809 71.7678 103.281 72.1629" stroke="#08FFD0" stroke-width="0.75" stroke-miterlimit="10"/>
<path d="M95.929 33.4374C96.0945 33.7452 96.5051 33.9115 96.7859 34.0924C98.6632 35.311 100.367 36.6917 101.884 38.2472C105.106 41.5514 107.289 45.2881 108.431 49.4512C109.571 53.6163 109.682 57.7731 108.76 61.9237C107.874 65.912 106.149 69.1268 103.587 71.5702C103.149 71.9882 102.757 72.3292 102.288 72.6889" stroke="#08FFD0" stroke-width="0.75" stroke-miterlimit="10"/>
<path d="M94.8708 33.9968C94.9714 34.3129 95.3276 34.4439 95.6146 34.631C97.4919 35.8496 99.1953 37.2303 100.712 38.7857C103.935 42.09 106.118 45.8267 107.26 49.9898C108.4 54.1549 108.511 58.3117 107.589 62.4623C106.702 66.4506 104.978 69.6654 102.416 72.1088C101.863 72.6349 101.372 73.057 100.769 73.4937" stroke="#08FFD0" stroke-width="0.75" stroke-miterlimit="10"/>
<path d="M93.8127 34.5562C93.9091 34.8826 94.2653 35.1654 94.5607 35.3567C96.438 36.5753 98.1414 37.956 99.6584 39.5115C102.881 42.8157 105.064 46.5524 106.206 50.7155C107.346 54.8806 107.457 59.0374 106.535 63.188C105.649 67.1763 103.924 70.3912 101.362 72.8345C101.029 73.1527 100.708 73.4271 100.356 73.712" stroke="#08FFD0" stroke-width="0.75" stroke-miterlimit="10"/>
<path d="M92.7546 35.1176C92.8426 35.467 93.1904 35.6707 93.5047 35.8745C95.382 37.0931 97.0854 38.4738 98.6023 40.0293C101.825 43.3335 104.008 47.0702 105.15 51.2333C106.29 55.3984 106.401 59.5552 105.479 63.7058C104.593 67.6941 102.868 70.9089 100.306 73.3523C99.8846 73.7536 99.6206 73.9907 99.1722 74.34" stroke="#08FFD0" stroke-width="0.75" stroke-miterlimit="10"/>
<path d="M91.6965 35.677C91.7552 36.0679 92.124 36.3777 92.4466 36.5878C94.3239 37.8063 96.0273 39.1871 97.5442 40.7425C100.767 44.0467 102.95 47.7835 104.092 51.9465C105.232 56.1116 105.343 60.2684 104.421 64.419C103.534 68.4074 101.81 71.6222 99.2476 74.0655C99.0318 74.2714 98.8579 74.4315 98.6338 74.6228" stroke="#08FFD0" stroke-width="0.75" stroke-miterlimit="10"/>
<path d="M56.2668 4.65172L64.5911 0.210036L64.6099 0.199639C64.8718 0.0603162 65.1987 0.0332835 65.5255 0.153891L79.2889 5.2402C79.9426 5.48142 80.3512 6.21962 80.2024 6.8892L78.8552 12.9445" stroke="#08FFD0" stroke-width="0.75" stroke-miterlimit="10"/>
<path d="M85.5619 63.7681C83.9842 63.5935 82.4505 63.0985 81.6418 62.8012L59.814 54.735L62.9945 40.4056" stroke="#08FFD0" stroke-width="0.75" stroke-miterlimit="10"/>
<path d="M58.7581 55.3194L62.1376 40.0875" stroke="#08FFD0" stroke-width="0.75" stroke-miterlimit="10"/>
<path d="M57.7 55.8787L61.2744 39.7693" stroke="#08FFD0" stroke-width="0.75" stroke-miterlimit="10"/>
<path d="M56.6418 56.4402L60.4111 39.4491" stroke="#08FFD0" stroke-width="0.75" stroke-miterlimit="10"/>
<path d="M55.5837 56.9996L59.5479 39.1309" stroke="#08FFD0" stroke-width="0.75" stroke-miterlimit="10"/>
<path d="M54.5256 57.5589L58.6867 38.8128" stroke="#08FFD0" stroke-width="0.75" stroke-miterlimit="10"/>
<path d="M53.4675 58.1204L57.8235 38.4926" stroke="#08FFD0" stroke-width="0.75" stroke-miterlimit="10"/>
<path d="M52.4094 58.6797L56.9602 38.1744" stroke="#08FFD0" stroke-width="0.75" stroke-miterlimit="10"/>
<path d="M50.593 91.7449L54.553 74.1404" stroke="#08FFD0" stroke-width="0.75" stroke-miterlimit="10"/>
<path d="M49.5349 92.3064L53.6897 73.8222" stroke="#08FFD0" stroke-width="0.75" stroke-miterlimit="10"/>
<path d="M48.4768 92.8657L52.8264 73.502" stroke="#08FFD0" stroke-width="0.75" stroke-miterlimit="10"/>
<path d="M47.4187 93.4272L51.9632 73.1838" stroke="#08FFD0" stroke-width="0.75" stroke-miterlimit="10"/>
<path d="M46.3606 93.9866L51.0999 72.8657" stroke="#08FFD0" stroke-width="0.75" stroke-miterlimit="10"/>
<path d="M45.3025 94.546L50.2388 72.5455" stroke="#08FFD0" stroke-width="0.75" stroke-miterlimit="10"/>
<path d="M44.2444 95.1074L49.3755 72.2273" stroke="#08FFD0" stroke-width="0.75" stroke-miterlimit="10"/>
<path d="M75.658 133.61L78.2141 121.884" stroke="#08FFD0" stroke-width="0.75" stroke-miterlimit="10"/>
<path d="M74.5999 134.17L77.2817 121.884" stroke="#08FFD0" stroke-width="0.75" stroke-miterlimit="10"/>
<path d="M73.5417 134.729L76.3577 121.845" stroke="#08FFD0" stroke-width="0.75" stroke-miterlimit="10"/>
<path d="M72.4836 135.288L75.4421 121.772" stroke="#08FFD0" stroke-width="0.75" stroke-miterlimit="10"/>
<path d="M71.4255 135.848L74.5306 121.668" stroke="#08FFD0" stroke-width="0.75" stroke-miterlimit="10"/>
<path d="M70.3674 136.407L73.6276 121.533" stroke="#08FFD0" stroke-width="0.75" stroke-miterlimit="10"/>
<path d="M69.3093 136.969L72.7266 121.385" stroke="#08FFD0" stroke-width="0.75" stroke-miterlimit="10"/>
<path d="M98.0452 32.3166L101.701 15.6104" stroke="#08FFD0" stroke-width="0.75" stroke-miterlimit="10"/>
<path d="M96.9871 32.876L100.647 16.1677" stroke="#08FFD0" stroke-width="0.75" stroke-miterlimit="10"/>
<path d="M95.929 33.4374L99.5956 16.7249" stroke="#08FFD0" stroke-width="0.75" stroke-miterlimit="10"/>
<path d="M94.8708 33.9968L98.5416 17.2822" stroke="#08FFD0" stroke-width="0.75" stroke-miterlimit="10"/>
<path d="M93.8127 34.5562L97.4877 17.8416" stroke="#08FFD0" stroke-width="0.75" stroke-miterlimit="10"/>
<path d="M92.7546 35.1176L96.4317 18.3989" stroke="#08FFD0" stroke-width="0.75" stroke-miterlimit="10"/>
<path d="M91.6965 35.677L95.3757 18.9583" stroke="#08FFD0" stroke-width="0.75" stroke-miterlimit="10"/>
<path d="M75.8442 22.2396L79.1337 7.47351" stroke="#08FFD0" stroke-width="0.75" stroke-miterlimit="10"/>
<path d="M74.7861 22.799L78.0819 8.0329" stroke="#08FFD0" stroke-width="0.75" stroke-miterlimit="10"/>
<path d="M73.7283 23.3604L77.0282 8.59433" stroke="#08FFD0" stroke-width="0.75" stroke-miterlimit="10"/>
<path d="M72.6702 23.9198L75.9722 9.15372" stroke="#08FFD0" stroke-width="0.75" stroke-miterlimit="10"/>
<path d="M71.6121 24.4792L74.9183 9.71515" stroke="#08FFD0" stroke-width="0.75" stroke-miterlimit="10"/>
<path d="M70.554 25.0406L73.8623 10.2745" stroke="#08FFD0" stroke-width="0.75" stroke-miterlimit="10"/>
<path d="M69.4958 25.6L72.8063 10.836" stroke="#08FFD0" stroke-width="0.75" stroke-miterlimit="10"/>
<path d="M52.9709 125.378L55.1101 115.571" stroke="#08FFD0" stroke-width="0.75" stroke-miterlimit="10"/>
<path d="M51.9128 125.937L54.3014 114.995" stroke="#08FFD0" stroke-width="0.75" stroke-miterlimit="10"/>
<path d="M50.8547 126.499L53.4381 114.675" stroke="#08FFD0" stroke-width="0.75" stroke-miterlimit="10"/>
<path d="M49.7969 127.058L52.5227 114.336" stroke="#08FFD0" stroke-width="0.75" stroke-miterlimit="10"/>
<path d="M48.7388 127.619L51.7119 114.037" stroke="#08FFD0" stroke-width="0.75" stroke-miterlimit="10"/>
<path d="M47.6807 128.179L50.8486 113.718" stroke="#08FFD0" stroke-width="0.75" stroke-miterlimit="10"/>
<path d="M46.6226 128.738L49.9686 113.481" stroke="#08FFD0" stroke-width="0.75" stroke-miterlimit="10"/>
<path d="M78.8699 12.9404L87.0831 8.57147L87.1187 8.55275C87.3659 8.4467 87.6592 8.4363 87.9547 8.54651L101.718 13.6328C102.372 13.874 102.78 14.6122 102.632 15.2818L99.1975 30.7529C99.0739 31.306 99.3316 31.9319 99.8282 32.2563C101.705 33.4748 103.409 34.8556 104.926 36.411C108.148 39.7152 110.331 43.452 111.473 47.615C112.613 51.7802 112.724 55.937 111.802 60.0875C110.916 64.0759 109.192 67.2907 106.629 69.7341C105.848 70.4785 105.016 71.1335 104.134 71.6991L103.943 71.8156L95.8159 76.1179" stroke="#08FFD0" stroke-width="0.75" stroke-miterlimit="10"/>
<path d="M45.0343 18.5757C39.6098 43.0964 31.1704 80.8591 25.8821 104.492" stroke="#08FFD0" stroke-width="0.75" stroke-miterlimit="10"/>
<path d="M48.1918 19.7297C42.7464 44.3462 34.3027 82.1233 29.0354 105.658" stroke="#08FFD0" stroke-width="0.75" stroke-miterlimit="10"/>
<path d="M51.3556 20.8547C45.885 45.5813 37.4288 83.4147 32.1824 106.858" stroke="#08FFD0" stroke-width="0.75" stroke-miterlimit="10"/>
<path d="M58.2467 5.04059C52.8663 29.7527 35.7003 106.417 31.5769 124.818" stroke="#08FFD0" stroke-width="0.75" stroke-miterlimit="10"/>
<path d="M61.4042 6.19675C55.9358 31.2977 38.7321 108.125 34.7302 125.983" stroke="#08FFD0" stroke-width="0.75" stroke-miterlimit="10"/>
<path d="M44.8206 96.1679C41.6967 110.142 39.1175 121.656 37.8855 127.147" stroke="#08FFD0" stroke-width="0.75" stroke-miterlimit="10"/>
<path d="M52.9395 59.8047C51.9967 64.0301 51.0475 68.2847 50.1089 72.4955" stroke="#08FFD0" stroke-width="0.75" stroke-miterlimit="10"/>
<path d="M64.5534 7.39035C63.0155 14.4459 60.4866 25.8807 57.6958 38.4447" stroke="#08FFD0" stroke-width="0.75" stroke-miterlimit="10"/>
<path d="M47.9739 97.3345C44.8248 111.416 42.2373 122.968 41.0388 128.314" stroke="#08FFD0" stroke-width="0.75" stroke-miterlimit="10"/>
<path d="M56.095 60.9713C55.1522 65.1988 54.2031 69.4533 53.2644 73.6621" stroke="#08FFD0" stroke-width="0.75" stroke-miterlimit="10"/>
<path d="M67.715 8.53821C66.1456 15.7372 63.6775 26.8934 60.8511 39.6113" stroke="#08FFD0" stroke-width="0.75" stroke-miterlimit="10"/>
<path d="M51.1292 98.499C47.955 112.697 45.359 124.286 44.1941 129.478" stroke="#08FFD0" stroke-width="0.75" stroke-miterlimit="10"/>
<path d="M59.2503 62.1358C58.3075 66.3654 57.3583 70.6178 56.4197 74.8266" stroke="#08FFD0" stroke-width="0.75" stroke-miterlimit="10"/>
<path d="M70.8683 9.70892C69.2843 16.9641 66.8203 28.1078 64.0044 40.7778" stroke="#08FFD0" stroke-width="0.75" stroke-miterlimit="10"/>
<path d="M54.2847 99.6635C53.1387 104.785 52.0701 109.564 51.1189 113.818" stroke="#08FFD0" stroke-width="0.75" stroke-miterlimit="10"/>
<path d="M62.4036 63.3023C61.465 67.5153 60.518 71.7532 59.5835 75.9453" stroke="#08FFD0" stroke-width="0.75" stroke-miterlimit="10"/>
<path d="M70.2752 27.904C69.3114 32.2604 68.2617 36.987 67.1597 41.9444" stroke="#08FFD0" stroke-width="0.75" stroke-miterlimit="10"/>
<path d="M57.4381 100.83C56.292 105.958 55.2213 110.736 54.2722 114.983" stroke="#08FFD0" stroke-width="0.75" stroke-miterlimit="10"/>
<path d="M65.5589 64.4689C64.6161 68.6985 63.6669 72.953 62.7283 77.1597" stroke="#08FFD0" stroke-width="0.75" stroke-miterlimit="10"/>
<path d="M73.4266 29.0831C72.4628 33.4395 71.4131 38.1619 70.3152 43.111" stroke="#08FFD0" stroke-width="0.75" stroke-miterlimit="10"/>
<path d="M60.5933 101.997C57.3269 116.6 54.6995 128.331 53.6582 132.976" stroke="#08FFD0" stroke-width="0.75" stroke-miterlimit="10"/>
<path d="M68.7144 65.6355C67.7716 69.8692 66.8224 74.1217 65.8838 78.3263" stroke="#08FFD0" stroke-width="0.75" stroke-miterlimit="10"/>
<path d="M80.3363 13.2045C78.7146 20.6218 76.257 31.7323 73.4683 44.2755" stroke="#08FFD0" stroke-width="0.75" stroke-miterlimit="10"/>
<path d="M63.7466 103.163C60.4383 117.958 57.792 129.763 56.8052 134.17" stroke="#08FFD0" stroke-width="0.75" stroke-miterlimit="10"/>
<path d="M71.8677 66.8C70.9228 71.0337 69.9737 75.2882 69.0371 79.4908" stroke="#08FFD0" stroke-width="0.75" stroke-miterlimit="10"/>
<path d="M83.4938 14.369C81.8616 21.8383 79.404 32.9363 76.6257 45.44" stroke="#08FFD0" stroke-width="0.75" stroke-miterlimit="10"/>
<path d="M66.9019 104.326C63.5601 119.273 60.9034 131.125 59.9668 135.309" stroke="#08FFD0" stroke-width="0.75" stroke-miterlimit="10"/>
<path d="M75.0438 67.8709C74.0926 72.14 73.1351 76.4278 72.1902 80.6615" stroke="#08FFD0" stroke-width="0.75" stroke-miterlimit="10"/>
<path d="M86.6493 15.5355C85.0004 23.0756 82.5364 34.2047 79.7561 46.7126" stroke="#08FFD0" stroke-width="0.75" stroke-miterlimit="10"/>
<path d="M70.1307 105.157C66.7071 120.464 64.0022 132.539 63.1201 136.474" stroke="#08FFD0" stroke-width="0.75" stroke-miterlimit="10"/>
<path d="M78.367 68.2847C77.332 72.9218 76.2928 77.586 75.2661 82.1795" stroke="#08FFD0" stroke-width="0.75" stroke-miterlimit="10"/>
<path d="M89.8047 16.7021C88.1118 24.4418 85.5829 35.8558 82.7439 48.6319" stroke="#08FFD0" stroke-width="0.75" stroke-miterlimit="10"/>
<path d="M73.5355 105.207C69.9422 121.279 67.1053 133.941 66.2756 137.64" stroke="#08FFD0" stroke-width="0.75" stroke-miterlimit="10"/>
<path d="M81.9832 67.3739C80.7093 73.0882 79.4207 78.8607 78.1594 84.5147" stroke="#08FFD0" stroke-width="0.75" stroke-miterlimit="10"/>
<path d="M92.9664 17.8416C91.175 26.0242 88.4764 38.2097 85.4656 51.7427" stroke="#08FFD0" stroke-width="0.75" stroke-miterlimit="10"/>
<path d="M77.2754 103.76C75.8171 110.279 74.4699 116.301 73.3113 121.477" stroke="#08FFD0" stroke-width="0.75" stroke-miterlimit="10"/>
<path d="M92.1386 37.064C88.803 52.1191 84.598 70.9776 80.7051 88.4054" stroke="#08FFD0" stroke-width="0.75" stroke-miterlimit="10"/>
<path d="M95.0531 39.3181C89.4065 64.785 81.4468 100.393 76.6362 121.884" stroke="#08FFD0" stroke-width="0.75" stroke-miterlimit="10"/>
<path d="M89.6183 79.0749C86.1172 94.7622 82.6664 110.194 80.0725 121.782" stroke="#08FFD0" stroke-width="0.75" stroke-miterlimit="10"/>
<path d="M97.8419 42.1336C95.4031 53.1318 92.5704 65.8434 89.7649 78.422" stroke="#08FFD0" stroke-width="0.75" stroke-miterlimit="10"/>
<path d="M92.3985 81.9237C89.2075 96.2178 86.0877 110.175 83.6489 121.067" stroke="#08FFD0" stroke-width="0.75" stroke-miterlimit="10"/>
<path d="M100.452 45.7477C98.2839 55.5148 95.8472 66.4589 93.4126 77.3718" stroke="#08FFD0" stroke-width="0.75" stroke-miterlimit="10"/>
<path d="M95.0028 85.5544C92.256 97.8585 89.5909 109.78 87.4014 119.562" stroke="#08FFD0" stroke-width="0.75" stroke-miterlimit="10"/>
<path d="M102.772 50.6822C101.062 58.372 99.2183 66.6544 97.3599 74.9909" stroke="#08FFD0" stroke-width="0.75" stroke-miterlimit="10"/>
<path d="M97.3055 90.5285C95.2292 99.8298 93.224 108.794 91.4683 116.644" stroke="#08FFD0" stroke-width="0.75" stroke-miterlimit="10"/>
</g>
<defs>
<clipPath id="clip0_16_430">
<rect width="89" height="138" fill="white" transform="translate(23.5)"/>
</clipPath>
</defs>
</svg>
