<svg width="195" height="196" viewBox="0 0 195 196" fill="none" xmlns="http://www.w3.org/2000/svg">
<path d="M69.2368 101.904C67.6717 101.755 65.6058 101.191 64.3298 100.721L41.0752 92.1061L44.7921 75.3645" stroke="#08FFD0" stroke-width="0.75" stroke-miterlimit="10"/>
<path d="M86.6999 91.4447C85.2039 86.9615 82.5283 83.0376 78.6732 79.673C78.5852 79.5961 78.6082 79.4568 78.713 79.4422C82.2392 78.9036 85.2521 77.4439 87.7559 75.0587C90.3183 72.6175 92.0447 69.4006 92.9289 65.4122C93.8508 61.2617 93.7397 57.1049 92.6 52.9397C91.4581 48.7767 89.2749 45.0399 86.0525 41.7357C84.5355 40.1803 82.8321 38.7995 80.9548 37.581C80.4562 37.2587 80.2006 36.6328 80.3242 36.0776L83.7582 20.6065C83.907 19.9369 83.4963 19.2008 82.8447 18.9575L69.0813 13.8712C68.4276 13.63 67.7781 13.9752 67.6293 14.6448L64.3881 29.2466C64.2393 29.9162 63.5898 30.2614 62.9361 30.0201L58.9091 28.5313C58.2554 28.2901 57.8468 27.5519 57.9956 26.8823L61.2369 12.2804C61.3856 11.6109 60.975 10.8747 60.3234 10.6314L46.56 5.54513C45.9063 5.30392 45.2568 5.6491 45.108 6.31868L41.8667 20.9205C41.718 21.5901 41.0685 21.9353 40.4148 21.6941L33.0229 18.9617C32.3692 18.7205 31.7197 19.0657 31.5709 19.7352L13.0305 103.264C12.8817 103.934 13.2924 104.67 13.944 104.913L21.3358 107.646C21.9895 107.887 22.3981 108.625 22.2494 109.295L19.05 123.711C18.9012 124.381 19.3119 125.117 19.9635 125.36L33.7269 130.447C34.3806 130.688 35.0301 130.343 35.1788 129.673L38.3782 115.256C38.527 114.587 39.1765 114.242 39.8302 114.483L43.8572 115.972C44.5109 116.213 44.9194 116.951 44.7707 117.621L41.5713 132.037C41.4225 132.707 41.8332 133.443 42.4848 133.686L56.2482 138.773C56.9019 139.014 57.5514 138.669 57.7002 137.999L60.998 123.144C61.1279 122.553 61.658 122.2 62.2468 122.316C65.2722 122.909 68.1364 122.979 70.8329 122.51C75.038 121.775 78.5852 119.939 81.4765 116.999C84.3658 114.061 86.3248 110.27 87.3557 105.633C88.4389 100.75 88.2189 96.0237 86.6957 91.4531L86.6999 91.4447ZM45.5375 38.785L67.2459 46.8075C70.7449 48.1009 73.2801 50.0514 74.8515 52.6569C76.4229 55.2646 76.8482 58.1966 76.1275 61.4488C75.3858 64.7863 73.8249 67.0695 71.4447 68.3047C69.0625 69.5378 66.1229 69.5087 62.6239 68.2153L40.7961 60.1492L45.5375 38.785V38.785ZM65.6158 105.317C63.0073 106.598 59.7954 106.535 55.98 105.123L32.7212 96.529L37.978 72.8462L61.2369 81.4406C65.0543 82.8504 67.7949 85.0317 69.4647 87.9804C71.1325 90.9311 71.5599 94.2374 70.747 97.8993C69.9341 101.561 68.2244 104.034 65.6158 105.317Z" stroke="#08FFD0" stroke-width="0.75" stroke-miterlimit="10"/>
<path d="M40.7959 60.1493L49.2375 55.6577" stroke="#08FFD0" stroke-width="0.75" stroke-miterlimit="10"/>
<path d="M41.0767 92.1062L32.7231 96.5292" stroke="#08FFD0" stroke-width="0.75" stroke-miterlimit="10"/>
<path d="M80.4287 36.9698L88.7299 32.5759" stroke="#08FFD0" stroke-width="0.75" stroke-miterlimit="10"/>
<path d="M80.8545 37.4833L89.141 33.0957" stroke="#08FFD0" stroke-width="0.75" stroke-miterlimit="10"/>
<path d="M58.1064 27.7848L65.5905 23.8235" stroke="#08FFD0" stroke-width="0.75" stroke-miterlimit="10"/>
<path d="M58.5723 28.3547L65.3859 24.7468" stroke="#08FFD0" stroke-width="0.75" stroke-miterlimit="10"/>
<path d="M57.9727 27.0197L65.8024 22.8733" stroke="#08FFD0" stroke-width="0.75" stroke-miterlimit="10"/>
<path d="M80.293 36.3146L88.59 31.9229" stroke="#08FFD0" stroke-width="0.75" stroke-miterlimit="10"/>
<path d="M83.6035 19.6231L91.9068 15.2375" stroke="#08FFD0" stroke-width="0.75" stroke-miterlimit="10"/>
<path d="M83.7666 20.4195L92.0783 16.0298" stroke="#08FFD0" stroke-width="0.75" stroke-miterlimit="10"/>
<path d="M57.1885 138.706L65.6573 134.225L65.6992 134.202C65.9611 134.063 66.1622 133.809 66.2356 133.474L68.5927 122.767" stroke="#08FFD0" stroke-width="0.75" stroke-miterlimit="10"/>
<path d="M83.0918 19.0804L91.4077 14.6907" stroke="#08FFD0" stroke-width="0.75" stroke-miterlimit="10"/>
<path d="M61.1426 11.4343L69.5443 6.98633" stroke="#08FFD0" stroke-width="0.75" stroke-miterlimit="10"/>
<path d="M61.2344 12.2868L69.6215 7.83057" stroke="#08FFD0" stroke-width="0.75" stroke-miterlimit="10"/>
<path d="M34.5962 130.422L42.9121 126.003" stroke="#08FFD0" stroke-width="0.75" stroke-miterlimit="10"/>
<path d="M35.2417 129.399L43.084 125.232" stroke="#08FFD0" stroke-width="0.75" stroke-miterlimit="10"/>
<path d="M57.7754 137.665L66.3133 133.127" stroke="#08FFD0" stroke-width="0.75" stroke-miterlimit="10"/>
<path d="M60.7002 10.8541L69.1166 6.3999" stroke="#08FFD0" stroke-width="0.75" stroke-miterlimit="10"/>
<path d="M46.7549 5.62422L55.1818 1.16382" stroke="#08FFD0" stroke-width="0.75" stroke-miterlimit="10"/>
<path d="M33.3203 19.0802L41.7242 14.6323" stroke="#08FFD0" stroke-width="0.75" stroke-miterlimit="10"/>
<path d="M69.3662 14.0066L77.7051 9.58984" stroke="#08FFD0" stroke-width="0.75" stroke-miterlimit="10"/>
<path d="M32.0967 19.018L40.4754 14.5659L40.5278 14.541C40.7855 14.4142 41.0977 14.3954 41.4119 14.5119L43.1384 15.1773" stroke="#08FFD0" stroke-width="0.75" stroke-miterlimit="10"/>
<path d="M87.3579 75.9155C90.8925 79.1574 93.2768 82.8193 94.6932 87.0676C96.2164 91.6382 96.4364 96.3647 95.3532 101.247C94.3244 105.886 92.3633 109.675 89.474 112.613C88.0284 114.084 86.4192 115.277 84.6446 116.196H84.653L78.667 119.363" stroke="#08FFD0" stroke-width="0.75" stroke-miterlimit="10"/>
<path d="M88.395 113.144C86.9493 114.614 85.3402 115.808 83.5656 116.727H83.5739L78.8975 119.201" stroke="#08FFD0" stroke-width="0.75" stroke-miterlimit="10"/>
<path d="M86.3057 76.4707C89.7711 79.6855 92.2141 83.3994 93.6137 87.5957C95.1369 92.1663 95.3569 96.8929 94.2737 101.775C93.245 106.415 91.2839 110.203 88.3946 113.142" stroke="#08FFD0" stroke-width="0.75" stroke-miterlimit="10"/>
<path d="M85.229 77.0427C88.6714 80.2492 91.0998 83.9485 92.4931 88.1261C94.0163 92.6968 94.2363 97.4233 93.1531 102.306C92.1243 106.945 90.1632 110.734 87.2739 113.672C85.8283 115.142 84.2191 116.336 82.4445 117.255H82.4529L79.2305 118.956" stroke="#08FFD0" stroke-width="0.75" stroke-miterlimit="10"/>
<path d="M84.1922 77.6499C87.5948 80.8398 89.9896 84.51 91.3745 88.6585C92.8977 93.2291 93.1177 97.9556 92.0345 102.838C91.0057 107.477 89.0446 111.266 86.1554 114.204C84.7097 115.675 83.1006 116.868 81.3259 117.787L79.4863 118.767" stroke="#08FFD0" stroke-width="0.75" stroke-miterlimit="10"/>
<path d="M83.0837 78.1885C86.4822 81.3763 88.8728 85.0423 90.2556 89.1866C91.7788 93.7572 91.9988 98.4838 90.9156 103.366C89.8869 108.006 87.9258 111.794 85.0365 114.733C83.5908 116.203 81.9817 117.396 80.207 118.315L79.7461 118.559" stroke="#08FFD0" stroke-width="0.75" stroke-miterlimit="10"/>
<path d="M81.8973 78.6562C85.3293 81.8586 87.7429 85.5454 89.1342 89.7168C90.6574 94.2874 90.8774 99.014 89.7941 103.897C88.7654 108.536 86.8043 112.324 83.915 115.263C82.7061 116.492 81.5097 117.448 80.0703 118.292" stroke="#08FFD0" stroke-width="0.75" stroke-miterlimit="10"/>
<path d="M80.626 79.0452C84.1606 82.287 86.5973 85.9988 88.0158 90.245C89.539 94.8156 89.759 99.5422 88.6757 104.425C87.647 109.064 85.6859 112.853 82.7966 115.791C82.3126 116.284 81.8433 116.716 81.3216 117.149" stroke="#08FFD0" stroke-width="0.75" stroke-miterlimit="10"/>
<path d="M87.4668 33.2393C87.7392 33.4389 88.0974 33.6177 88.3531 33.7841C90.2304 35.0026 91.9338 36.3834 93.4507 37.9388C96.6731 41.243 98.8563 44.9798 99.9982 49.1428C101.138 53.3079 101.249 57.4647 100.327 61.6153C99.4409 65.6037 97.7165 68.8185 95.1541 71.2618C94.5779 71.8108 94.0562 72.2475 93.4276 72.6966" stroke="#08FFD0" stroke-width="0.75" stroke-miterlimit="10"/>
<path d="M86.4082 33.7986C86.6177 34.0169 87.0996 34.1916 87.3636 34.3642C89.2409 35.5827 90.9443 36.9635 92.4612 38.5189C95.6837 41.8231 97.8669 45.5599 99.0088 49.7229C100.149 53.8881 100.26 58.0449 99.3377 62.1954C98.4514 66.1838 96.7271 69.3986 94.1646 71.8419C93.6744 72.3077 93.2302 72.6904 92.7022 73.0855" stroke="#08FFD0" stroke-width="0.75" stroke-miterlimit="10"/>
<path d="M85.3506 34.3601C85.5161 34.6679 85.9268 34.8342 86.2075 35.0151C88.0848 36.2337 89.7882 37.6144 91.3051 39.1699C94.5276 42.4741 96.7108 46.2108 97.8527 50.3739C98.9924 54.539 99.1035 58.6958 98.1816 62.8464C97.2953 66.8347 95.571 70.0495 93.0085 72.4929C92.5707 72.9109 92.1789 73.2519 91.7095 73.6116" stroke="#08FFD0" stroke-width="0.75" stroke-miterlimit="10"/>
<path d="M84.293 34.9194C84.3935 35.2355 84.7497 35.3665 85.0368 35.5537C86.9141 36.7722 88.6175 38.153 90.1344 39.7084C93.3568 43.0126 95.54 46.7494 96.6819 50.9124C97.8217 55.0775 97.9327 59.2343 97.0108 63.3849C96.1246 67.3733 94.4002 70.5881 91.8378 73.0314C91.2847 73.5575 90.7944 73.9796 90.191 74.4163" stroke="#08FFD0" stroke-width="0.75" stroke-miterlimit="10"/>
<path d="M83.2344 35.4788C83.3308 35.8052 83.6869 36.088 83.9824 36.2793C85.8597 37.4979 87.5631 38.8786 89.08 40.4341C92.3024 43.7383 94.4856 47.4751 95.6275 51.6381C96.7673 55.8032 96.8783 59.96 95.9564 64.1106C95.0702 68.0989 93.3458 71.3138 90.7834 73.7571C90.4503 74.0753 90.1297 74.3497 89.7777 74.6346" stroke="#08FFD0" stroke-width="0.75" stroke-miterlimit="10"/>
<path d="M82.1768 36.0403C82.2648 36.3896 82.6126 36.5934 82.9268 36.7972C84.8041 38.0158 86.5075 39.3965 88.0245 40.9519C91.2469 44.2562 93.4301 47.9929 94.572 52.1559C95.7118 56.3211 95.8228 60.4779 94.9009 64.6284C94.0146 68.6168 92.2903 71.8316 89.7279 74.275C89.3067 74.6763 89.0427 74.9133 88.5944 75.2627" stroke="#08FFD0" stroke-width="0.75" stroke-miterlimit="10"/>
<path d="M81.1182 36.5996C81.1768 36.9905 81.5456 37.3004 81.8683 37.5104C83.7456 38.729 85.4489 40.1097 86.9659 41.6651C90.1883 44.9694 92.3715 48.7061 93.5134 52.8692C94.6532 57.0343 94.7642 61.1911 93.8423 65.3416C92.9561 69.33 91.2317 72.5448 88.6693 74.9882C88.4535 75.194 88.2796 75.3541 88.0554 75.5454" stroke="#08FFD0" stroke-width="0.75" stroke-miterlimit="10"/>
<path d="M45.6885 5.57433L54.0127 1.13264L54.0316 1.12225C54.2935 0.982924 54.6203 0.955891 54.9472 1.0765L68.7106 6.16281C69.3643 6.40403 69.7728 7.14223 69.6241 7.81181L68.2769 13.8671" stroke="#08FFD0" stroke-width="0.75" stroke-miterlimit="10"/>
<path d="M74.9833 64.6906C73.4056 64.516 71.8719 64.0211 71.0632 63.7237L49.2354 55.6576L52.4159 41.3281" stroke="#08FFD0" stroke-width="0.75" stroke-miterlimit="10"/>
<path d="M48.1797 56.2419L51.5592 41.01" stroke="#08FFD0" stroke-width="0.75" stroke-miterlimit="10"/>
<path d="M47.1211 56.8013L50.6955 40.6919" stroke="#08FFD0" stroke-width="0.75" stroke-miterlimit="10"/>
<path d="M46.0635 57.3627L49.8327 40.3716" stroke="#08FFD0" stroke-width="0.75" stroke-miterlimit="10"/>
<path d="M45.0049 57.9221L48.969 40.0535" stroke="#08FFD0" stroke-width="0.75" stroke-miterlimit="10"/>
<path d="M43.9473 58.4815L48.1083 39.7354" stroke="#08FFD0" stroke-width="0.75" stroke-miterlimit="10"/>
<path d="M42.8896 59.0429L47.2456 39.415" stroke="#08FFD0" stroke-width="0.75" stroke-miterlimit="10"/>
<path d="M41.8311 59.6023L46.3818 39.0969" stroke="#08FFD0" stroke-width="0.75" stroke-miterlimit="10"/>
<path d="M40.0146 92.6675L43.9746 75.063" stroke="#08FFD0" stroke-width="0.75" stroke-miterlimit="10"/>
<path d="M38.9561 93.229L43.1108 74.7449" stroke="#08FFD0" stroke-width="0.75" stroke-miterlimit="10"/>
<path d="M37.8984 93.7883L42.2481 74.4246" stroke="#08FFD0" stroke-width="0.75" stroke-miterlimit="10"/>
<path d="M36.8408 94.3498L41.3853 74.1064" stroke="#08FFD0" stroke-width="0.75" stroke-miterlimit="10"/>
<path d="M35.7822 94.9092L40.5216 73.7883" stroke="#08FFD0" stroke-width="0.75" stroke-miterlimit="10"/>
<path d="M34.7241 95.4685L39.6604 73.468" stroke="#08FFD0" stroke-width="0.75" stroke-miterlimit="10"/>
<path d="M33.666 96.03L38.7972 73.1499" stroke="#08FFD0" stroke-width="0.75" stroke-miterlimit="10"/>
<path d="M65.0791 134.533L67.6353 122.807" stroke="#08FFD0" stroke-width="0.75" stroke-miterlimit="10"/>
<path d="M64.0215 135.092L66.7033 122.807" stroke="#08FFD0" stroke-width="0.75" stroke-miterlimit="10"/>
<path d="M62.9629 135.652L65.7788 122.767" stroke="#08FFD0" stroke-width="0.75" stroke-miterlimit="10"/>
<path d="M61.9053 136.211L64.8637 122.695" stroke="#08FFD0" stroke-width="0.75" stroke-miterlimit="10"/>
<path d="M60.8467 136.77L63.9518 122.591" stroke="#08FFD0" stroke-width="0.75" stroke-miterlimit="10"/>
<path d="M59.7891 137.33L63.0492 122.456" stroke="#08FFD0" stroke-width="0.75" stroke-miterlimit="10"/>
<path d="M58.7314 137.891L62.1487 122.308" stroke="#08FFD0" stroke-width="0.75" stroke-miterlimit="10"/>
<path d="M87.4668 33.2392L91.1229 16.533" stroke="#08FFD0" stroke-width="0.75" stroke-miterlimit="10"/>
<path d="M86.4082 33.7986L90.0685 17.0903" stroke="#08FFD0" stroke-width="0.75" stroke-miterlimit="10"/>
<path d="M85.3506 34.3599L89.0172 17.6475" stroke="#08FFD0" stroke-width="0.75" stroke-miterlimit="10"/>
<path d="M84.293 34.9194L87.9638 18.2048" stroke="#08FFD0" stroke-width="0.75" stroke-miterlimit="10"/>
<path d="M83.2344 35.4787L86.9094 18.7642" stroke="#08FFD0" stroke-width="0.75" stroke-miterlimit="10"/>
<path d="M82.1768 36.0402L85.8538 19.3215" stroke="#08FFD0" stroke-width="0.75" stroke-miterlimit="10"/>
<path d="M81.1182 36.5996L84.7973 19.8809" stroke="#08FFD0" stroke-width="0.75" stroke-miterlimit="10"/>
<path d="M65.2656 23.1623L68.5551 8.39624" stroke="#08FFD0" stroke-width="0.75" stroke-miterlimit="10"/>
<path d="M64.208 23.7217L67.5038 8.95557" stroke="#08FFD0" stroke-width="0.75" stroke-miterlimit="10"/>
<path d="M63.1494 24.283L66.4494 9.51685" stroke="#08FFD0" stroke-width="0.75" stroke-miterlimit="10"/>
<path d="M62.0918 24.8425L65.3938 10.0764" stroke="#08FFD0" stroke-width="0.75" stroke-miterlimit="10"/>
<path d="M61.0332 25.4017L64.3394 10.6377" stroke="#08FFD0" stroke-width="0.75" stroke-miterlimit="10"/>
<path d="M59.9756 25.9631L63.2839 11.197" stroke="#08FFD0" stroke-width="0.75" stroke-miterlimit="10"/>
<path d="M58.918 26.5226L62.2284 11.7585" stroke="#08FFD0" stroke-width="0.75" stroke-miterlimit="10"/>
<path d="M42.3926 126.301L44.5318 116.494" stroke="#08FFD0" stroke-width="0.75" stroke-miterlimit="10"/>
<path d="M41.335 126.86L43.7235 115.918" stroke="#08FFD0" stroke-width="0.75" stroke-miterlimit="10"/>
<path d="M40.2764 127.421L42.8598 115.597" stroke="#08FFD0" stroke-width="0.75" stroke-miterlimit="10"/>
<path d="M39.2188 127.981L41.9446 115.259" stroke="#08FFD0" stroke-width="0.75" stroke-miterlimit="10"/>
<path d="M38.1602 128.542L41.1332 114.959" stroke="#08FFD0" stroke-width="0.75" stroke-miterlimit="10"/>
<path d="M37.1025 129.102L40.2705 114.641" stroke="#08FFD0" stroke-width="0.75" stroke-miterlimit="10"/>
<path d="M36.0439 129.661L39.39 114.404" stroke="#08FFD0" stroke-width="0.75" stroke-miterlimit="10"/>
<path d="M68.291 13.8631L76.5042 9.49417L76.5398 9.47545C76.7871 9.3694 77.0804 9.359 77.3758 9.46921L91.1392 14.5555C91.7929 14.7967 92.2015 15.5349 92.0527 16.2045L88.6187 31.6756C88.4951 32.2287 88.7528 32.8546 89.2493 33.179C91.1266 34.3975 92.83 35.7783 94.347 37.3337C97.5694 40.6379 99.7526 44.3747 100.894 48.5377C102.034 52.7029 102.145 56.8597 101.223 61.0102C100.337 64.9986 98.6128 68.2134 96.0504 70.6568C95.2688 71.4012 94.437 72.0562 93.555 72.6218L93.3643 72.7383L85.237 77.0406" stroke="#08FFD0" stroke-width="0.75" stroke-miterlimit="10"/>
<path d="M34.456 19.4983C29.0315 44.0191 20.592 81.7817 15.3037 105.415" stroke="#08FFD0" stroke-width="0.75" stroke-miterlimit="10"/>
<path d="M37.6135 20.6523C32.168 45.2688 23.7244 83.0459 18.457 106.581" stroke="#08FFD0" stroke-width="0.75" stroke-miterlimit="10"/>
<path d="M40.7772 21.7773C35.3066 46.504 26.8504 84.3373 21.604 107.781" stroke="#08FFD0" stroke-width="0.75" stroke-miterlimit="10"/>
<path d="M47.6684 5.96313C42.2879 30.6752 25.1219 107.34 20.9985 125.741" stroke="#08FFD0" stroke-width="0.75" stroke-miterlimit="10"/>
<path d="M50.8259 7.11938C45.3574 32.2203 28.1537 109.047 24.1519 126.906" stroke="#08FFD0" stroke-width="0.75" stroke-miterlimit="10"/>
<path d="M34.2422 97.0906C31.1183 111.064 28.5391 122.578 27.3071 128.07" stroke="#08FFD0" stroke-width="0.75" stroke-miterlimit="10"/>
<path d="M42.3609 60.7273C41.418 64.9527 40.4689 69.2073 39.5303 73.4181" stroke="#08FFD0" stroke-width="0.75" stroke-miterlimit="10"/>
<path d="M53.9748 8.31299C52.4369 15.3685 49.908 26.8034 47.1172 39.3674" stroke="#08FFD0" stroke-width="0.75" stroke-miterlimit="10"/>
<path d="M37.3956 98.2571C34.2465 112.339 31.6589 123.89 30.4604 129.237" stroke="#08FFD0" stroke-width="0.75" stroke-miterlimit="10"/>
<path d="M45.5162 61.8938C44.5733 66.1213 43.6242 70.3758 42.6855 74.5846" stroke="#08FFD0" stroke-width="0.75" stroke-miterlimit="10"/>
<path d="M57.1363 9.46069C55.567 16.6597 53.0989 27.8159 50.2725 40.5338" stroke="#08FFD0" stroke-width="0.75" stroke-miterlimit="10"/>
<path d="M40.5508 99.4216C37.3766 113.62 34.7807 125.209 33.6157 130.401" stroke="#08FFD0" stroke-width="0.75" stroke-miterlimit="10"/>
<path d="M48.6724 63.0583C47.7296 67.2879 46.7804 71.5404 45.8418 75.7492" stroke="#08FFD0" stroke-width="0.75" stroke-miterlimit="10"/>
<path d="M60.2897 10.6316C58.7057 17.8868 56.2417 29.0305 53.4258 41.7005" stroke="#08FFD0" stroke-width="0.75" stroke-miterlimit="10"/>
<path d="M43.7059 100.586C42.5598 105.708 41.4913 110.486 40.54 114.741" stroke="#08FFD0" stroke-width="0.75" stroke-miterlimit="10"/>
<path d="M51.825 64.2249C50.8864 68.4378 49.9393 72.6757 49.0049 76.8679" stroke="#08FFD0" stroke-width="0.75" stroke-miterlimit="10"/>
<path d="M59.6966 28.8267C58.7328 33.1831 57.6831 37.9097 56.5811 42.867" stroke="#08FFD0" stroke-width="0.75" stroke-miterlimit="10"/>
<path d="M46.8592 101.753C45.7131 106.881 44.6425 111.659 43.6934 115.905" stroke="#08FFD0" stroke-width="0.75" stroke-miterlimit="10"/>
<path d="M54.981 65.3916C54.0382 69.6212 53.089 73.8757 52.1504 78.0824" stroke="#08FFD0" stroke-width="0.75" stroke-miterlimit="10"/>
<path d="M62.8477 30.0056C61.8839 34.362 60.8342 39.0845 59.7363 44.0335" stroke="#08FFD0" stroke-width="0.75" stroke-miterlimit="10"/>
<path d="M50.0152 102.919C46.7488 117.523 44.1214 129.253 43.0801 133.899" stroke="#08FFD0" stroke-width="0.75" stroke-miterlimit="10"/>
<path d="M58.1363 66.5581C57.1934 70.7918 56.2443 75.0443 55.3057 79.2489" stroke="#08FFD0" stroke-width="0.75" stroke-miterlimit="10"/>
<path d="M69.7577 14.127C68.136 21.5443 65.6784 32.6548 62.8896 45.198" stroke="#08FFD0" stroke-width="0.75" stroke-miterlimit="10"/>
<path d="M53.168 104.086C49.8596 118.881 47.2134 130.686 46.2266 135.092" stroke="#08FFD0" stroke-width="0.75" stroke-miterlimit="10"/>
<path d="M61.2896 67.7227C60.3447 71.9564 59.3955 76.2109 58.459 80.4135" stroke="#08FFD0" stroke-width="0.75" stroke-miterlimit="10"/>
<path d="M72.9159 15.2915C71.2838 22.7609 68.8261 33.8588 66.0479 46.3625" stroke="#08FFD0" stroke-width="0.75" stroke-miterlimit="10"/>
<path d="M56.3238 105.248C52.9819 120.195 50.3252 132.048 49.3887 136.232" stroke="#08FFD0" stroke-width="0.75" stroke-miterlimit="10"/>
<path d="M64.466 68.7935C63.5147 73.0625 62.5572 77.3504 61.6123 81.5841" stroke="#08FFD0" stroke-width="0.75" stroke-miterlimit="10"/>
<path d="M76.0709 16.458C74.422 23.9981 71.9581 35.1272 69.1777 47.6351" stroke="#08FFD0" stroke-width="0.75" stroke-miterlimit="10"/>
<path d="M59.5525 106.08C56.129 121.387 53.4241 133.462 52.542 137.396" stroke="#08FFD0" stroke-width="0.75" stroke-miterlimit="10"/>
<path d="M67.7884 69.2073C66.7534 73.8444 65.7141 78.5086 64.6875 83.1021" stroke="#08FFD0" stroke-width="0.75" stroke-miterlimit="10"/>
<path d="M79.2259 17.6248C77.5329 25.3644 75.004 36.7785 72.165 49.5546" stroke="#08FFD0" stroke-width="0.75" stroke-miterlimit="10"/>
<path d="M62.9571 106.13C59.3639 122.202 56.527 134.864 55.6973 138.563" stroke="#08FFD0" stroke-width="0.75" stroke-miterlimit="10"/>
<path d="M71.4048 68.2964C70.1309 74.0107 68.8424 79.7832 67.5811 85.4372" stroke="#08FFD0" stroke-width="0.75" stroke-miterlimit="10"/>
<path d="M82.3875 18.7642C80.5961 26.9468 77.8975 39.1323 74.8867 52.6653" stroke="#08FFD0" stroke-width="0.75" stroke-miterlimit="10"/>
<path d="M66.6965 104.683C65.2383 111.202 63.8911 117.224 62.7324 122.399" stroke="#08FFD0" stroke-width="0.75" stroke-miterlimit="10"/>
<path d="M81.5605 37.9866C78.2249 53.0417 74.0198 71.9002 70.127 89.328" stroke="#08FFD0" stroke-width="0.75" stroke-miterlimit="10"/>
<path d="M84.4744 40.2407C78.8279 65.7076 70.8682 101.316 66.0576 122.807" stroke="#08FFD0" stroke-width="0.75" stroke-miterlimit="10"/>
<path d="M79.0399 79.9976C75.5388 95.6849 72.088 111.116 69.4941 122.705" stroke="#08FFD0" stroke-width="0.75" stroke-miterlimit="10"/>
<path d="M87.2635 43.0562C84.8247 54.0543 81.992 66.7659 79.1865 79.3445" stroke="#08FFD0" stroke-width="0.75" stroke-miterlimit="10"/>
<path d="M81.8199 82.8464C78.6289 97.1405 75.5091 111.098 73.0703 121.99" stroke="#08FFD0" stroke-width="0.75" stroke-miterlimit="10"/>
<path d="M89.8739 46.6704C87.7053 56.4375 85.2686 67.3816 82.834 78.2945" stroke="#08FFD0" stroke-width="0.75" stroke-miterlimit="10"/>
<path d="M84.4246 86.4771C81.6778 98.7811 79.0127 110.703 76.8232 120.484" stroke="#08FFD0" stroke-width="0.75" stroke-miterlimit="10"/>
<path d="M92.1932 51.6047C90.4835 59.2945 88.6397 67.5769 86.7812 75.9134" stroke="#08FFD0" stroke-width="0.75" stroke-miterlimit="10"/>
<path d="M86.7269 91.4512C84.6505 100.753 82.6454 109.717 80.8896 117.567" stroke="#08FFD0" stroke-width="0.75" stroke-miterlimit="10"/>
</svg>
