<svg width="138" height="136" viewBox="0 0 138 136" fill="none" xmlns="http://www.w3.org/2000/svg">
<path d="M109.308 108.588L6.62631 89.6688C2.49124 88.9081 0.00647341 84.6223 1.38638 80.6362L19.4324 28.4769C20.5443 25.2656 23.8192 23.3509 27.1478 23.9642L129.832 42.8837C133.967 43.6444 136.452 47.9302 135.072 51.9163L117.024 104.076C115.912 107.285 112.637 109.202 109.308 108.588V108.588Z" stroke="#79C600" stroke-miterlimit="10"/>
<path d="M18.4272 51.8718L25.2872 31.9341C25.7534 30.5812 27.1309 29.7737 28.5341 30.0311L125.771 47.9465C127.508 48.2672 128.552 50.0648 127.976 51.7407L121.403 70.8452" stroke="#79C600" stroke-miterlimit="10"/>
<path d="M18.4016 51.8649L21.8863 41.7088C22.3502 40.3559 23.7301 39.5461 25.1333 39.8035L122.37 57.7189C124.107 58.0396 125.151 59.8349 124.575 61.5108L121.375 70.8383" stroke="#79C600" stroke-miterlimit="10"/>
<path d="M18.457 51.8834L18.8603 50.713C19.3265 49.3625 20.704 48.5549 22.1049 48.8124L119.342 66.7278C121.081 67.0485 122.125 68.8485 121.547 70.5244L121.433 70.8567" stroke="#79C600" stroke-miterlimit="10"/>
<path d="M76.5962 62.5943C75.8526 62.4585 75.123 62.8845 74.876 63.6008C73.6592 67.1235 70.0696 69.2324 66.4147 68.57C62.6456 67.8865 60.1165 64.5394 60.2191 60.9161C60.2401 60.1577 59.7366 59.4859 58.993 59.3502L15.8895 51.4106L6.02035 80.5214C5.33506 82.5437 6.59842 84.7065 8.6916 85.0927L109.528 103.671C111.227 103.984 112.9 102.999 113.457 101.356L123.658 71.2641L76.5985 62.5943H76.5962Z" stroke="#79C600" stroke-miterlimit="10"/>
<path d="M24.3525 39.7496L26.7767 32.7135C27.0401 31.9481 27.821 31.4894 28.6158 31.6368L125.121 49.4188C126.105 49.599 126.697 50.6172 126.37 51.5675L123.979 58.6059" stroke="#79C600" stroke-miterlimit="10"/>
<path d="M26.0891 39.9743L27.9865 34.0688C28.1333 33.6405 28.5692 33.3853 29.0121 33.4673L123.503 50.8771C124.051 50.9777 124.382 51.5465 124.2 52.0755L122.203 57.6814" stroke="#79C600" stroke-miterlimit="10"/>
<path d="M27.8352 40.2949L29.3433 35.9109C29.4435 35.6206 29.7396 35.4451 30.0426 35.5012L121.107 52.2791C121.48 52.347 121.706 52.7355 121.583 53.096L120.135 57.2998" stroke="#79C600" stroke-miterlimit="10"/>
<path d="M29.7275 40.6439L30.6156 38.0598C30.7112 37.7813 30.9979 37.6128 31.2869 37.6666L119.114 53.8499C119.277 53.8803 119.375 54.0489 119.321 54.208L118.368 56.977" stroke="#79C600" stroke-miterlimit="10"/>
<path d="M31.6531 40.9994L31.9911 40.0187C32.082 39.7519 32.3547 39.5927 32.6321 39.6442L116.517 55.0995C116.641 55.123 116.713 55.2494 116.674 55.3687L116.254 56.5859" stroke="#79C600" stroke-miterlimit="10"/>
<path d="M19.9744 52.1388C20.2378 51.3734 21.0186 50.9146 21.8135 51.0621L118.319 68.844C119.144 68.9962 119.691 69.7358 119.656 70.5317" stroke="#79C600" stroke-miterlimit="10"/>
<path d="M59.8274 59.8234L75.6311 62.7352" stroke="#79C600" stroke-miterlimit="10"/>
<path d="M60.2419 61.7446L74.5422 64.3802" stroke="#79C600" stroke-miterlimit="10"/>
<path d="M60.6921 63.7648L73.426 66.1102" stroke="#79C600" stroke-miterlimit="10"/>
<path d="M61.7407 65.6863L71.7567 67.5307" stroke="#79C600" stroke-miterlimit="10"/>
<path d="M134.823 46.7715L136.394 50.2801C137.084 51.8179 137.221 53.6202 136.617 55.364L118.569 107.523C117.457 110.732 114.182 112.649 110.854 112.036L8.16933 93.1165C5.95261 92.7092 4.21141 91.2885 3.2837 89.444L1.66138 85.8347" stroke="#79C600" stroke-miterlimit="10"/>
<path d="M113.213 108.16L114.756 111.608" stroke="#79C600" stroke-miterlimit="10"/>
<path d="M114.51 107.434L116.06 110.878" stroke="#79C600" stroke-miterlimit="10"/>
<path d="M115.189 106.882L116.74 110.325" stroke="#79C600" stroke-miterlimit="10"/>
<path d="M113.865 107.832L115.415 111.275" stroke="#79C600" stroke-miterlimit="10"/>
<path d="M112.437 108.436L113.987 111.879" stroke="#79C600" stroke-miterlimit="10"/>
<path d="M110.684 108.701L112.234 112.144" stroke="#79C600" stroke-miterlimit="10"/>
<path d="M111.699 108.602L113.254 112.048" stroke="#79C600" stroke-miterlimit="10"/>
<path d="M109.175 108.562L110.723 112.01" stroke="#79C600" stroke-miterlimit="10"/>
<path d="M106.136 108.01L107.684 111.458" stroke="#79C600" stroke-miterlimit="10"/>
<path d="M103.096 107.458L104.637 110.889" stroke="#79C600" stroke-miterlimit="10"/>
<path d="M100.046 106.882L101.594 110.329" stroke="#79C600" stroke-miterlimit="10"/>
<path d="M97.0056 106.32L98.5534 109.768" stroke="#79C600" stroke-miterlimit="10"/>
<path d="M93.9607 105.761L95.5108 109.209" stroke="#79C600" stroke-miterlimit="10"/>
<path d="M90.9192 105.199L92.4669 108.647" stroke="#79C600" stroke-miterlimit="10"/>
<path d="M87.8772 104.64L89.4249 108.087" stroke="#79C600" stroke-miterlimit="10"/>
<path d="M84.8352 104.078L86.3829 107.526" stroke="#79C600" stroke-miterlimit="10"/>
<path d="M81.7905 103.518L83.3406 106.966" stroke="#79C600" stroke-miterlimit="10"/>
<path d="M78.7495 102.957L80.2973 106.405" stroke="#79C600" stroke-miterlimit="10"/>
<path d="M75.7078 102.397L77.2555 105.845" stroke="#79C600" stroke-miterlimit="10"/>
<path d="M72.666 101.835L74.2137 105.283" stroke="#79C600" stroke-miterlimit="10"/>
<path d="M69.6213 101.276L71.1714 104.724" stroke="#79C600" stroke-miterlimit="10"/>
<path d="M66.5793 100.714L68.1271 104.162" stroke="#79C600" stroke-miterlimit="10"/>
<path d="M63.5376 100.155L65.0853 103.603" stroke="#79C600" stroke-miterlimit="10"/>
<path d="M60.4954 99.5934L62.0431 103.041" stroke="#79C600" stroke-miterlimit="10"/>
<path d="M57.4517 99.0336L59.0017 102.481" stroke="#79C600" stroke-miterlimit="10"/>
<path d="M54.4102 98.472L55.9602 101.922" stroke="#79C600" stroke-miterlimit="10"/>
<path d="M51.3682 97.9128L52.9159 101.361" stroke="#79C600" stroke-miterlimit="10"/>
<path d="M48.3262 97.3507L49.8739 100.801" stroke="#79C600" stroke-miterlimit="10"/>
<path d="M45.2815 96.7914L46.8316 100.239" stroke="#79C600" stroke-miterlimit="10"/>
<path d="M42.2397 96.2296L43.7875 99.6798" stroke="#79C600" stroke-miterlimit="10"/>
<path d="M39.199 95.67L40.7467 99.1178" stroke="#79C600" stroke-miterlimit="10"/>
<path d="M36.1562 95.1084L37.704 98.5585" stroke="#79C600" stroke-miterlimit="10"/>
<path d="M33.1121 94.549L34.6621 97.9968" stroke="#79C600" stroke-miterlimit="10"/>
<path d="M30.0706 93.9871L31.6183 97.4372" stroke="#79C600" stroke-miterlimit="10"/>
<path d="M27.0283 93.4279L28.5761 96.8757" stroke="#79C600" stroke-miterlimit="10"/>
<path d="M23.9866 92.8663L25.5343 96.3165" stroke="#79C600" stroke-miterlimit="10"/>
<path d="M20.9419 92.3065L22.492 95.7542" stroke="#79C600" stroke-miterlimit="10"/>
<path d="M17.9001 91.7448L19.4479 95.1949" stroke="#79C600" stroke-miterlimit="10"/>
<path d="M14.8584 91.1853L16.4061 94.6331" stroke="#79C600" stroke-miterlimit="10"/>
<path d="M11.8164 90.6237L13.3641 94.0738" stroke="#79C600" stroke-miterlimit="10"/>
<path d="M8.7627 90.0432L10.3221 93.512" stroke="#79C600" stroke-miterlimit="10"/>
<path d="M5.69824 89.4301L7.25297 92.8943" stroke="#79C600" stroke-miterlimit="10"/>
<path d="M3.63062 88.3367L5.15504 91.7517" stroke="#79C600" stroke-miterlimit="10"/>
<path d="M2.84448 87.5831L4.40154 91.0543" stroke="#79C600" stroke-miterlimit="10"/>
<path d="M115.886 106.137L117.432 109.59" stroke="#79C600" stroke-miterlimit="10"/>
<path d="M135.394 50.573L136.937 54.0161" stroke="#79C600" stroke-miterlimit="10"/>
<path d="M135.456 49.0609L136.999 52.504" stroke="#79C600" stroke-miterlimit="10"/>
<path d="M134.92 52.3563L136.468 55.7924" stroke="#79C600" stroke-miterlimit="10"/>
<path d="M133.866 55.4014L135.417 58.8328" stroke="#79C600" stroke-miterlimit="10"/>
<path d="M132.81 58.4488L134.362 61.8708" stroke="#79C600" stroke-miterlimit="10"/>
<path d="M131.761 61.4825L133.311 64.9115" stroke="#79C600" stroke-miterlimit="10"/>
<path d="M130.711 64.5183L132.258 67.9544" stroke="#79C600" stroke-miterlimit="10"/>
<path d="M129.659 67.561L131.207 70.9971" stroke="#79C600" stroke-miterlimit="10"/>
<path d="M128.607 70.5994L130.155 74.0355" stroke="#79C600" stroke-miterlimit="10"/>
<path d="M127.555 73.64L129.102 77.0784" stroke="#79C600" stroke-miterlimit="10"/>
<path d="M126.503 76.6805L128.051 80.1189" stroke="#79C600" stroke-miterlimit="10"/>
<path d="M125.45 79.7256L126.997 83.1594" stroke="#79C600" stroke-miterlimit="10"/>
<path d="M124.398 82.7638L125.946 86.1975" stroke="#79C600" stroke-miterlimit="10"/>
<path d="M123.348 85.8019L124.895 89.238" stroke="#79C600" stroke-miterlimit="10"/>
<path d="M122.293 88.8427L123.841 92.2787" stroke="#79C600" stroke-miterlimit="10"/>
<path d="M121.24 91.8878L122.788 95.3192" stroke="#79C600" stroke-miterlimit="10"/>
<path d="M120.192 94.9233L121.742 98.3664" stroke="#79C600" stroke-miterlimit="10"/>
<path d="M119.139 97.9594L120.684 101.4" stroke="#79C600" stroke-miterlimit="10"/>
<path d="M118.086 101.007L119.634 104.443" stroke="#79C600" stroke-miterlimit="10"/>
<path d="M117.035 104.043L118.58 107.484" stroke="#79C600" stroke-miterlimit="10"/>
</svg>
