<svg width="136" height="136" viewBox="0 0 136 136" fill="none" xmlns="http://www.w3.org/2000/svg">
<g clip-path="url(#clip0_7_313)">
<path d="M133.184 89.2342C133.705 85.2512 132.739 81.0202 130.752 77.3943C128.763 73.7711 125.69 70.6684 122.131 69.1257C117.363 67.0581 113.562 68.4869 111.432 70.2227C109.73 71.6077 106.706 74.1735 106.706 74.1735C106.424 74.1375 106.134 74.0589 105.844 73.9312C104.956 73.5461 104.21 72.7928 103.715 71.8935C103.22 70.9881 102.98 69.9381 103.109 68.9464L103.328 67.2772C103.76 63.9918 101.73 60.2903 98.7951 59.0127L83.6689 52.4268C81.7454 51.5875 80.5551 51.7545 78.7987 53.2099C77.0423 54.6653 72.5018 58.4392 72.5018 58.4392C72.1272 57.7247 71.9524 56.9012 72.0533 56.1261L72.7521 50.8051C72.9679 49.1667 71.9565 47.3242 70.4954 46.6886L50.0352 37.7783C49.1815 37.406 48.3634 37.5284 47.7882 38.0213C47.7882 38.0213 41.5736 43.2169 41.0948 43.5879C41.0504 43.2723 41.0454 42.9508 41.0866 42.6398L42.1724 34.3549L16.4222 23.1387L6.0454 31.754L2.26055 60.5928L28.0135 71.8098L34.1153 66.7429C34.1321 66.9842 34.1285 67.2254 34.0975 67.4614L33.6169 71.116C33.4011 72.7543 34.4125 74.5969 35.8736 75.2324L56.3338 84.1427C57.2081 84.5239 58.0457 84.3841 58.6233 83.863L64.7022 78.8154C65.0143 79.4857 65.1572 80.2395 65.0642 80.9477L64.9767 81.6171C64.5454 84.9025 66.5751 88.604 69.5099 89.8816L84.6362 96.4675C86.3445 97.2096 87.9816 96.9708 89.1358 95.9918L89.1435 95.9854L95.1729 90.9781L95.7696 91.3276C96.6417 91.9359 97.3481 92.9142 97.6698 94.0399C99.2305 99.5426 103.108 104.514 108.041 106.661C108.584 106.897 109.126 107.095 109.66 107.251C113.39 108.336 116.871 107.488 119.332 105.165C119.658 104.929 128.461 97.6201 128.758 97.3374C131.073 95.664 132.707 92.8667 133.184 89.2342V89.2342Z" fill="black"/>
<path d="M34.1346 66.6763C34.1514 66.9176 34.1479 67.1588 34.1169 67.3949L33.6362 71.0494C33.4204 72.6878 34.4318 74.5303 35.8929 75.1658L56.3531 84.0762C57.2275 84.4574 58.065 84.3176 58.6426 83.7965" stroke="#FF71E1" stroke-width="0.5" stroke-miterlimit="10"/>
<path d="M6.0647 31.6874L2.27985 60.5263L28.0328 71.7432" stroke="#FF71E1" stroke-width="0.5" stroke-miterlimit="10"/>
<path d="M89.1631 95.9188L89.1554 95.9252C88.0013 96.9042 86.3641 97.143 84.6558 96.401L69.5295 89.8151C66.5948 88.5375 64.5651 84.836 64.9964 81.5505L65.0839 80.8811C65.1769 80.1729 65.0339 79.4192 64.7218 78.7488" stroke="#FF71E1" stroke-width="0.5" stroke-miterlimit="10"/>
<path d="M64.6846 78.6662C64.6846 78.6662 64.6797 78.6531 64.675 78.6489" stroke="#FF71E1" stroke-width="0.5" stroke-miterlimit="10"/>
<path d="M95.1921 90.9116C96.3354 91.4344 97.2968 92.6022 97.689 93.9734C99.2498 99.476 103.127 104.447 108.06 106.595C108.603 106.83 109.145 107.029 109.68 107.184C113.409 108.269 116.89 107.422 119.351 105.099" stroke="#FF71E1" stroke-width="0.5" stroke-miterlimit="10"/>
<path d="M35.0787 65.8927C35.0981 66.1348 35.092 66.3752 35.061 66.6112L34.5795 70.2684C34.3645 71.9041 35.3759 73.7467 36.837 74.3822L57.2972 83.2925C57.9064 83.5591 58.4967 83.5723 58.9975 83.3748C59.1604 83.3127 59.3155 83.228 59.4564 83.122L59.4683 83.111C59.5077 83.085 59.5426 83.0548 59.5756 83.0212L59.5867 83.0128" stroke="#FF71E1" stroke-width="0.5" stroke-miterlimit="10"/>
<path d="M7.00879 30.9038L3.22394 59.7426L28.9742 70.9588" stroke="#FF71E1" stroke-width="0.5" stroke-miterlimit="10"/>
<path d="M96.1356 90.1279C97.2773 90.6561 98.2376 91.8177 98.6298 93.1889C100.193 98.6923 104.07 103.664 109.001 105.81C109.547 106.047 110.086 106.244 110.623 106.4C113.899 107.353 116.982 106.817 119.35 105.099C119.677 104.862 119.991 104.602 120.287 104.321" stroke="#FF71E1" stroke-width="0.5" stroke-miterlimit="10"/>
<path d="M65.6652 77.9653C65.9773 78.6356 66.1237 79.3875 66.0272 80.0975L65.9397 80.7669C65.5085 84.0524 67.5381 87.7539 70.4729 89.0315L85.5957 95.6193C87.0595 96.2556 88.4696 96.1699 89.5718 95.5189C89.7333 95.4217 89.8892 95.3142 90.0383 95.1904L90.0613 95.1711L90.0758 95.1609" stroke="#FF71E1" stroke-width="0.5" stroke-miterlimit="10"/>
<path d="M66.6094 77.1816C66.9223 77.8493 67.0652 78.603 66.9707 79.3165L66.8839 79.9833C66.4527 83.2687 68.4797 86.9694 71.4144 88.247L86.5399 94.8356C87.7672 95.3685 88.9591 95.3952 89.9599 95.003C90.1516 94.9319 90.3372 94.8417 90.516 94.7352C90.6871 94.635 90.8488 94.5177 91.0047 94.3901L91.02 94.3772" stroke="#FF71E1" stroke-width="0.5" stroke-miterlimit="10"/>
<path d="M97.0797 89.3444C98.2222 89.8699 99.1809 91.0368 99.5731 92.4081C101.137 97.9088 105.014 102.88 109.945 105.027C110.491 105.263 111.03 105.461 111.567 105.617C114.616 106.504 117.498 106.099 119.793 104.656C119.96 104.549 120.125 104.439 120.287 104.322C120.624 104.079 120.946 103.81 121.25 103.521" stroke="#FF71E1" stroke-width="0.5" stroke-miterlimit="10"/>
<path d="M66.1213 76.3649L66.1171 76.3637" stroke="#FF71E1" stroke-width="0.5" stroke-miterlimit="10"/>
<path d="M36.0184 65.1109C36.0386 65.3503 36.0324 65.5907 36.0014 65.8268L35.5227 69.4848C35.3076 71.1204 36.319 72.963 37.7801 73.5985L58.2403 82.5088C58.6031 82.6663 58.9597 82.7354 59.2937 82.723C59.5214 82.7172 59.7371 82.6732 59.9406 82.5912C60.1036 82.529 60.2586 82.4444 60.3996 82.3383L60.4114 82.3274C60.4509 82.3013 60.4858 82.2711 60.5187 82.2375L60.5298 82.2292" stroke="#FF71E1" stroke-width="0.5" stroke-miterlimit="10"/>
<path d="M29.9177 70.1752L4.16665 58.9616L7.95227 30.1202" stroke="#FF71E1" stroke-width="0.5" stroke-miterlimit="10"/>
<path d="M8.89514 29.3392L5.10762 58.1772L30.8613 69.3915" stroke="#FF71E1" stroke-width="0.5" stroke-miterlimit="10"/>
<path d="M61.4775 81.4437L61.4748 81.4429C61.4376 81.4811 61.3966 81.5125 61.3557 81.5438L61.3438 81.5547C61.2028 81.6608 61.0504 81.7462 60.8848 81.8076C60.6805 81.8923 60.4649 81.9363 60.2371 81.9421C59.9849 81.9523 59.7176 81.9149 59.4482 81.825C59.36 81.7994 59.2707 81.7676 59.1838 81.7279L38.7236 72.8176C37.2606 72.1786 36.2518 70.3369 36.4669 68.7012L36.9449 65.0459C36.9759 64.8098 36.9794 64.5686 36.9626 64.3273" stroke="#FF71E1" stroke-width="0.5" stroke-miterlimit="10"/>
<path d="M95.608 87.9992C95.5065 87.9697 95.4039 87.9341 95.302 87.8958C95.2135 87.8614 95.123 87.8235 95.03 87.7849L79.9037 81.199C76.9689 79.9214 74.9392 76.2199 75.3705 72.9345L75.4607 72.2658C75.5647 71.46 75.3702 70.6047 74.9666 69.8703C74.5657 69.1366 73.9557 68.5238 73.2355 68.2105C72.1704 67.7478 71.1629 68.0631 70.624 68.9097C70.4988 69.101 70.4029 69.3211 70.3317 69.5657C70.2923 69.7012 70.2627 69.8426 70.2443 69.9958L70.1807 70.4732L70.0253 71.6649L69.8299 73.1535L69.7636 73.6503C69.709 74.067 69.5802 74.4302 69.3942 74.7308C69.3612 74.7846 69.3255 74.8376 69.2878 74.8873C69.2602 74.9225 69.2318 74.9603 69.2023 74.9921C69.1401 75.0663 69.0742 75.1336 69.001 75.1959C68.9722 75.225 68.9389 75.25 68.9056 75.2749L68.8604 75.3107C68.8278 75.333 68.7953 75.3552 68.7635 75.3748C68.7352 75.3925 68.7103 75.4083 68.6827 75.4234C68.6544 75.4411 68.6268 75.4561 68.5973 75.4677C68.5526 75.4922 68.5059 75.5132 68.4573 75.5308C68.4462 75.5391 68.4393 75.5429 68.4313 75.5405C68.227 75.6253 68.0113 75.6692 67.7836 75.675C67.549 75.6846 67.3065 75.6516 67.058 75.5793" stroke="#FF71E1" stroke-width="0.5" stroke-miterlimit="10"/>
<path d="M67.552 76.4006C67.8668 77.0717 68.0105 77.8228 67.9141 78.5329L67.8273 79.1997C67.3953 82.4878 69.4231 86.1858 72.3578 87.4634L87.4833 94.052C88.4687 94.4799 89.4304 94.5809 90.291 94.4017C90.5005 94.3588 90.7059 94.3004 90.9033 94.2194C91.095 94.1483 91.2806 94.0581 91.4567 93.9508C91.621 93.8544 91.7768 93.7469 91.9259 93.6231L91.9412 93.6102L91.9439 93.611L91.9642 93.591L91.983 93.5762" stroke="#FF71E1" stroke-width="0.5" stroke-miterlimit="10"/>
<path d="M67.5134 76.3142C67.5134 76.3142 67.5104 76.3048 67.506 76.3007" stroke="#FF71E1" stroke-width="0.5" stroke-miterlimit="10"/>
<path d="M124.753 98.92C124.528 98.9555 124.3 98.9815 124.072 99.0014C123.837 99.0198 123.599 99.0313 123.358 99.0332C123.113 99.0397 122.865 99.034 122.615 99.0188C121.783 98.9699 120.927 98.822 120.056 98.5686C119.519 98.4124 118.98 98.2151 118.434 97.9785C113.501 95.8312 109.627 90.8607 108.063 85.3573C107.664 83.9582 106.668 82.7717 105.495 82.2604L104.798 81.9567C103.546 81.4107 102.353 81.7443 101.673 82.6882C101.543 82.8666 101.432 83.0679 101.344 83.2903C101.304 83.3882 101.268 83.493 101.237 83.5993C101.194 83.7482 101.16 83.9055 101.135 84.0685C101.13 84.0959 101.126 84.1206 101.124 84.1487C101.084 84.4658 101.019 84.767 100.936 85.0515C100.83 85.4183 100.694 85.7565 100.526 86.0651C100.342 86.4067 100.125 86.7155 99.8768 86.9806C99.6153 87.2621 99.3237 87.4973 99.0021 87.6863C98.9669 87.7078 98.9317 87.7292 98.8953 87.7446C98.7483 87.8316 98.5979 87.9003 98.4445 87.9595C98.2478 88.0378 98.0451 88.097 97.8356 88.1399C97.6418 88.1786 97.4457 88.2052 97.2428 88.2154" stroke="#FF71E1" stroke-width="0.5" stroke-miterlimit="10"/>
<path d="M122.175 102.754C121.883 103.03 121.574 103.286 121.251 103.521C121.084 103.645 120.912 103.759 120.737 103.87C120.567 103.976 120.393 104.078 120.214 104.173C118.012 105.369 115.33 105.653 112.506 104.832C111.972 104.676 111.431 104.481 110.888 104.246C105.959 102.096 102.081 97.1252 100.517 91.6244C100.128 90.2513 99.1663 89.0863 98.0238 88.5607" stroke="#FF71E1" stroke-width="0.5" stroke-miterlimit="10"/>
<path d="M31.8053 68.6079L6.05159 57.3936L9.83911 28.5556" stroke="#FF71E1" stroke-width="0.5" stroke-miterlimit="10"/>
<path d="M37.9059 63.5436C37.9253 63.7857 37.9191 64.0261 37.8881 64.2622L37.4101 67.9175C37.1951 69.5532 38.2038 71.395 39.6641 72.0331L60.127 80.9442C60.214 80.9839 60.3033 81.0157 60.3914 81.0413C60.6609 81.1313 60.9282 81.1687 61.1804 81.1584C61.4081 81.1526 61.6237 81.1086 61.8273 81.0266C61.9964 80.9633 62.1522 80.876 62.2947 80.7646L62.3058 80.7563C62.3426 80.7295 62.3774 80.6993 62.4096 80.6683" stroke="#FF71E1" stroke-width="0.5" stroke-miterlimit="10"/>
<path d="M41.1143 43.5216C41.1831 43.455 41.2564 43.3926 41.3361 43.3378L41.3377 43.3325" stroke="#FF71E1" stroke-width="0.5" stroke-miterlimit="10"/>
<path d="M72.5207 58.3729L72.693 58.2295" stroke="#FF71E1" stroke-width="0.5" stroke-miterlimit="10"/>
<path d="M92.9145 92.8036L92.9119 92.8028L92.8847 92.8266L92.8693 92.8395C92.7203 92.9633 92.5644 93.0708 92.4002 93.1672C92.224 93.2745 92.0358 93.3639 91.8433 93.4377C91.6467 93.516 91.444 93.5752 91.2345 93.6181C91.0146 93.6666 90.7868 93.6926 90.5522 93.7022C89.8789 93.7254 89.1596 93.5883 88.4268 93.2684L73.3005 86.6825C70.3665 85.4022 68.3361 81.7034 68.7673 78.4179L68.8575 77.7493C68.9521 77.0358 68.8083 76.2847 68.4962 75.6144" stroke="#FF71E1" stroke-width="0.5" stroke-miterlimit="10"/>
<path d="M123.118 101.971C122.822 102.253 122.505 102.516 122.175 102.754C122.012 102.874 121.843 102.987 121.673 103.093C121.503 103.199 121.329 103.301 121.153 103.397C120.978 103.493 120.791 103.586 120.604 103.67C118.515 104.628 116.043 104.805 113.454 104.052C112.917 103.896 112.378 103.699 111.832 103.462C106.899 101.315 103.025 96.3415 101.461 90.8407C101.07 89.4669 100.107 88.3018 98.9641 87.7789C98.9534 87.7758 98.9427 87.7727 98.9336 87.7643" stroke="#FF71E1" stroke-width="0.5" stroke-miterlimit="10"/>
<path d="M98.8957 87.7447C98.9321 87.7293 98.9673 87.7078 99.0025 87.6864C99.3241 87.4974 99.6156 87.2621 99.8772 86.9807C100.125 86.7155 100.343 86.4068 100.526 86.0652C100.694 85.7565 100.83 85.4184 100.937 85.0515C101.02 84.7671 101.084 84.4658 101.124 84.1488C101.127 84.1206 101.131 84.0959 101.136 84.0686C101.16 83.9055 101.194 83.7482 101.238 83.5994C101.269 83.493 101.305 83.3883 101.345 83.2904C101.433 83.068 101.543 82.8666 101.674 82.6882C102.354 81.7444 103.546 81.4108 104.799 81.9568L105.496 82.2605C106.668 82.7717 107.665 83.9583 108.063 85.3573C109.627 90.8607 113.501 95.8313 118.435 97.9786C118.98 98.2151 119.52 98.4125 120.057 98.5687C120.928 98.8221 121.783 98.97 122.615 99.0188C122.866 99.0341 123.113 99.0398 123.359 99.0333C123.6 99.0313 123.838 99.0198 124.072 99.0015C124.301 98.9816 124.529 98.9556 124.753 98.9201C124.975 98.8864 125.193 98.8433 125.407 98.7959" stroke="#FF71E1" stroke-width="0.5" stroke-miterlimit="10"/>
<path d="M32.7479 67.827L6.99495 56.6101L10.7825 27.772" stroke="#FF71E1" stroke-width="0.5" stroke-miterlimit="10"/>
<path d="M63.3613 79.8784C63.3207 79.9184 63.2789 79.9524 63.2318 79.9848C63.0927 80.0943 62.9369 80.1816 62.7713 80.243C62.5677 80.3251 62.3494 80.3682 62.1217 80.3741C61.8695 80.3843 61.6049 80.3477 61.3355 80.2578C61.2473 80.2321 40.6082 71.2496 40.6082 71.2496C39.1471 70.6141 38.1383 68.7723 38.3515 67.1332L38.8321 63.4786C38.9099 62.8727 38.8219 62.2387 38.6012 61.6526" stroke="#FF71E1" stroke-width="0.5" stroke-miterlimit="10"/>
<path d="M42.2614 42.5665L42.2812 42.549L42.2916 42.5433" stroke="#FF71E1" stroke-width="0.5" stroke-miterlimit="10"/>
<path d="M42.0576 42.7377L42.055 42.7369C41.9415 42.8481 41.839 42.9711 41.7522 43.1102C41.627 43.3015 41.5258 43.52 41.4554 43.7619C41.4136 43.9055 41.3802 44.0601 41.3594 44.2213L41.3367 44.3992" stroke="#FF71E1" stroke-width="0.5" stroke-miterlimit="10"/>
<path d="M93.8408 92.0321L93.8392 92.0374C93.6833 92.165 93.519 92.2816 93.3444 92.3836C93.1683 92.4909 92.9827 92.5811 92.7868 92.6568C92.5901 92.7351 92.384 92.7962 92.1718 92.8383C91.9527 92.8841 91.7276 92.9109 91.4964 92.9186C91.2477 92.9269 90.9936 92.9136 90.7351 92.8759C90.2917 92.8161 89.8341 92.6858 89.371 92.4848L74.2447 85.8989C71.31 84.6213 69.2803 80.9198 69.7115 77.6343L69.7991 76.9649C69.8975 76.218 69.739 75.428 69.3942 74.7308" stroke="#FF71E1" stroke-width="0.5" stroke-miterlimit="10"/>
<path d="M73.6252 57.4568C73.5807 57.4901 73.539 57.524 73.4991 57.5615C73.3612 57.677 73.2343 57.8044 73.1165 57.9403C72.975 58.0981 72.8429 58.273 72.7254 58.458C72.6954 58.5011 72.6682 58.5451 72.6409 58.5891" stroke="#FF71E1" stroke-width="0.5" stroke-miterlimit="10"/>
<path d="M108.931 73.2001C108.688 73.5247 108.383 73.7674 108.041 73.9186C107.863 73.9997 107.678 74.0583 107.483 74.091C107.349 74.1153 107.209 74.1266 107.068 74.1257C107.003 74.1272 106.94 74.1261 106.875 74.1188" stroke="#FF71E1" stroke-width="0.5" stroke-miterlimit="10"/>
<path d="M124.072 99.0014C124.3 98.9815 124.528 98.9555 124.753 98.92C124.974 98.8863 125.193 98.8431 125.406 98.7957C125.617 98.7476 125.825 98.6925 126.031 98.6314" stroke="#FF71E1" stroke-width="0.5" stroke-miterlimit="10"/>
<path d="M99.877 86.9807C101.033 87.4987 102.01 88.6738 102.404 90.0572C103.968 95.5606 107.842 100.531 112.776 102.678C113.321 102.915 113.861 103.112 114.398 103.269C116.751 103.953 119.007 103.869 120.97 103.13C121.163 103.054 121.357 102.975 121.544 102.888C121.734 102.802 121.917 102.711 122.1 102.612C122.283 102.512 122.447 102.415 122.617 102.309C122.787 102.203 122.956 102.091 123.118 101.971C123.456 101.726 123.78 101.457 124.086 101.165" stroke="#FF71E1" stroke-width="0.5" stroke-miterlimit="10"/>
<path d="M123.809 99.7037C123.585 99.7392 123.357 99.7652 123.128 99.7851C122.894 99.8035 122.658 99.8157 122.417 99.8177C121.352 99.8336 120.246 99.6819 119.113 99.3523C118.576 99.1961 118.036 98.9988 117.491 98.7622C112.56 96.6157 108.683 91.6444 107.12 86.141C106.721 84.742 105.724 83.5554 104.552 83.0441L103.857 82.7412C103.068 82.3963 102.302 82.4011 101.673 82.6883" stroke="#FF71E1" stroke-width="0.5" stroke-miterlimit="10"/>
<path d="M11.7235 26.9875L11.7227 26.9902L7.93866 55.8264L33.6916 67.0433" stroke="#FF71E1" stroke-width="0.5" stroke-miterlimit="10"/>
<path d="M64.2638 79.1288L64.2067 79.1756C64.0584 79.2968 63.8949 79.3905 63.7155 79.4594C63.512 79.5415 63.2937 79.5847 63.0659 79.5905C62.8137 79.6007 62.5491 79.5641 62.277 79.4734C62.1915 79.4486 41.5524 70.466 41.5524 70.466C40.0913 69.8305 39.0799 67.9879 39.2949 66.3522L39.7763 62.695C39.8831 61.8899 39.6866 61.0312 39.283 60.2968C39.1596 60.0735 39.0182 59.8623 38.8607 59.6665" stroke="#FF71E1" stroke-width="0.5" stroke-miterlimit="10"/>
<path d="M43.2365 41.7544L43.2349 41.7597C43.1518 41.8163 43.0717 41.8823 42.9989 41.9534L42.9974 41.9587C42.882 42.0665 42.7822 42.1902 42.6927 42.3286C42.5702 42.5207 42.4697 42.7365 42.3993 42.9784C42.3568 43.1246 42.0189 45.6011 42.0189 45.6011" stroke="#FF71E1" stroke-width="0.5" stroke-miterlimit="10"/>
<path d="M96.3936 88.176C96.1564 88.1445 95.9167 88.0921 95.6735 88.0213" stroke="#FF71E1" stroke-width="0.5" stroke-miterlimit="10"/>
<path d="M69.8296 73.1536C69.9863 73.352 70.1277 73.5632 70.2511 73.7865C70.652 74.5202 70.8492 75.3762 70.7425 76.1813L70.655 76.8507C70.2238 80.1362 72.2534 83.8377 75.1882 85.1153L90.3137 91.7038C90.5296 91.7984 90.7414 91.8773 90.9551 91.9395C91.1983 92.0102 91.4407 92.0634 91.6778 92.0949C91.9364 92.1326 92.1904 92.146 92.4365 92.1368C92.6703 92.1299 92.8954 92.1031 93.1153 92.0546C93.3248 92.0118 93.5302 91.9533 93.7268 91.875C93.9192 91.8013 94.1075 91.7119 94.2837 91.6045C94.4341 91.5157 94.5781 91.4191 94.7145 91.3089L94.844 91.2024" stroke="#FF71E1" stroke-width="0.5" stroke-miterlimit="10"/>
<path d="M74.5381 56.6989C74.5124 56.7174 74.4894 56.7366 74.4664 56.7559C74.3208 56.8779 74.1855 57.0144 74.0566 57.1586C73.9177 57.3171 73.7873 57.4867 73.6697 57.6717C73.5453 57.8604 73.4353 58.059 73.3383 58.273C73.2363 58.4942 73.148 58.728 73.0761 58.9752C73.0606 59.0284 73.0443 59.0842 73.0308 59.1408" stroke="#FF71E1" stroke-width="0.5" stroke-miterlimit="10"/>
<path d="M106.942 73.9306L106.726 74.1069L106.811 74.1143C106.833 74.1178 106.856 74.1187 106.876 74.1189C106.941 74.1261 107.004 74.1273 107.068 74.1258C107.21 74.1266 107.349 74.1153 107.484 74.091C107.679 74.0584 107.864 73.9998 108.041 73.9187C108.384 73.7675 108.689 73.5247 108.931 73.2002C108.996 73.118 109.056 73.0316 109.108 72.9403C109.172 72.8292 109.242 72.7197 109.312 72.6102" stroke="#FF71E1" stroke-width="0.5" stroke-miterlimit="10"/>
<path d="M124.071 99.0015C124.3 98.9816 124.528 98.9556 124.753 98.9201C124.974 98.8864 125.192 98.8433 125.406 98.7959C125.617 98.7477 125.825 98.6927 126.031 98.6315C126.231 98.5689 126.43 98.5027 126.628 98.4305" stroke="#FF71E1" stroke-width="0.5" stroke-miterlimit="10"/>
<path d="M100.526 86.0651L100.78 86.1766C101.953 86.6879 102.95 87.8745 103.348 89.2735C104.912 94.7769 108.786 99.7474 113.719 101.895C114.265 102.131 114.804 102.329 115.339 102.484C117.463 103.102 119.503 103.093 121.32 102.543C121.52 102.483 121.719 102.417 121.912 102.341C122.11 102.268 122.301 102.189 122.492 102.103C122.679 102.016 122.862 101.925 123.041 101.827C123.223 101.73 123.398 101.628 123.572 101.517C123.749 101.407 123.919 101.29 124.086 101.165C124.408 100.933 124.714 100.679 125.006 100.403" stroke="#FF71E1" stroke-width="0.5" stroke-miterlimit="10"/>
<path d="M12.6702 26.2047L12.6667 26.2066L8.88186 55.0454L34.6355 66.2597" stroke="#FF71E1" stroke-width="0.5" stroke-miterlimit="10"/>
<path d="M39.6541 55.4227C40.1438 55.2335 40.7253 55.247 41.3246 55.5078C42.0448 55.8212 42.6529 56.4305 43.0565 57.165C43.4574 57.8986 43.6519 58.7539 43.5471 59.5624L43.0691 63.2177C42.8533 64.8561 43.8621 66.6979 45.3258 67.3342C45.3258 67.3342 66.1111 76.3621 66.1165 76.3637L66.1191 76.3645C66.3676 76.4367 66.6082 76.4664 66.8394 76.4587C67.0671 76.4528 67.2862 76.407 67.4897 76.3249C67.4951 76.3265 67.5046 76.3235 67.5131 76.3144C67.6699 76.2534 67.8188 76.1698 67.9537 76.0649C67.9939 76.0362 68.0322 76.0041 68.0679 75.9712" stroke="#FF71E1" stroke-width="0.5" stroke-miterlimit="10"/>
<path d="M65.2224 78.3323L65.1569 78.3882C65.0128 78.5049 64.8555 78.5975 64.6849 78.6661C64.6745 78.6717 64.6676 78.6755 64.6588 78.6758C64.4553 78.7579 64.237 78.8011 64.0093 78.8069C63.7571 78.8172 63.4898 78.7798 63.2203 78.6898C63.1322 78.6642 42.4957 69.6824 42.4957 69.6824C41.0346 69.0469 40.0232 67.2043 40.2382 65.5687L40.7197 61.9115C40.8237 61.1056 40.6292 60.2503 40.2256 59.5159C39.9348 58.9815 39.5322 58.5126 39.0565 58.1753" stroke="#FF71E1" stroke-width="0.5" stroke-miterlimit="10"/>
<path d="M44.1563 40.9927L44.1759 40.9753" stroke="#FF71E1" stroke-width="0.5" stroke-miterlimit="10"/>
<path d="M42.7664 46.3087L43.2471 42.6542C43.2679 42.493 43.3005 42.341 43.3423 42.1975C43.4127 41.9556 43.5112 41.7363 43.6364 41.5449C43.7259 41.4066 43.8257 41.2828 43.9384 41.1744" stroke="#FF71E1" stroke-width="0.5" stroke-miterlimit="10"/>
<path d="M96.2111 89.0023C96.2401 89.0021 96.2665 89.0011 96.2936 88.9975C96.4992 88.9881 96.698 88.9623 96.8918 88.9236C97.1029 88.8754 97.3083 88.8169 97.5049 88.7386C97.6583 88.6794 97.8095 88.6081 97.9549 88.5264C97.9913 88.511 98.0265 88.4896 98.0591 88.4673" stroke="#FF71E1" stroke-width="0.5" stroke-miterlimit="10"/>
<path d="M95.9499 89.7019C96.1595 89.659 96.3648 89.6006 96.5622 89.5196C96.7149 89.4631 96.866 89.3917 97.0115 89.3101C97.0486 89.292 97.0839 89.2706 97.1191 89.2491C97.2626 89.164 97.4032 89.0694 97.5388 88.9618L97.6036 88.9085" stroke="#FF71E1" stroke-width="0.5" stroke-miterlimit="10"/>
<path d="M95.6737 88.0214C95.9168 88.0921 96.1566 88.1445 96.3937 88.176C96.6522 88.2138 96.9063 88.2271 97.155 88.2187" stroke="#FF71E1" stroke-width="0.5" stroke-miterlimit="10"/>
<path d="M70.0249 71.6649C70.4986 71.9988 70.9012 72.4677 71.192 73.0021C71.5956 73.7365 71.7902 74.5918 71.6854 75.4003L71.5986 76.067C71.1674 79.3525 73.1971 83.054 76.1318 84.3316L91.2573 90.9202C91.3477 90.958 91.4382 90.9958 91.5267 91.0302C91.6518 91.0782 91.7759 91.12 91.8988 91.1558C92.1419 91.2265 92.3816 91.2789 92.618 91.3131C92.8773 91.3482 93.1313 91.3615 93.3801 91.3532C93.6139 91.3462 93.8391 91.3194 94.0589 91.271C94.2711 91.2289 94.4772 91.1678 94.6739 91.0895C94.83 91.0311 94.9811 90.9597 95.1266 90.878C95.1603 90.8619 95.1947 90.8431 95.2273 90.8208C95.3777 90.732 95.5217 90.6355 95.6554 90.5244C95.706 90.4901 95.7493 90.4508 95.7926 90.4115" stroke="#FF71E1" stroke-width="0.5" stroke-miterlimit="10"/>
<path d="M73.7345 59.7983L73.822 59.1289C73.8268 59.0928 73.8322 59.054 73.837 59.0179C73.8807 58.7279 73.9409 58.4513 74.0194 58.1916C74.0913 57.9444 74.1796 57.7106 74.2843 57.4902C74.3786 57.2754 74.4894 57.0741 74.6165 56.8862C74.7306 56.7031 74.8611 56.5335 74.9992 56.3776C75.1338 56.2236 75.2829 56.0795 75.4362 55.9511L75.4515 55.9383" stroke="#FF71E1" stroke-width="0.5" stroke-miterlimit="10"/>
<path d="M109.68 72.0688C109.551 72.2445 109.426 72.4245 109.311 72.6102C109.242 72.7197 109.172 72.8292 109.108 72.9403C109.055 73.0317 108.995 73.118 108.931 73.2002C108.689 73.5247 108.383 73.7675 108.041 73.9187C107.864 73.9998 107.679 74.0584 107.484 74.0911C107.349 74.1153 107.21 74.1267 107.068 74.1258C107.004 74.1273 106.94 74.1261 106.876 74.1189C106.856 74.1188 106.833 74.1179 106.81 74.1143" stroke="#FF71E1" stroke-width="0.5" stroke-miterlimit="10"/>
<path d="M108.101 72.9873C108.101 72.9873 108.094 72.991 108.092 72.9962" stroke="#FF71E1" stroke-width="0.5" stroke-miterlimit="10"/>
<path d="M107.39 73.5562L107.366 73.5775" stroke="#FF71E1" stroke-width="0.5" stroke-miterlimit="10"/>
<path d="M107.889 73.1478L107.87 73.1625" stroke="#FF71E1" stroke-width="0.5" stroke-miterlimit="10"/>
<path d="M124.072 99.0014C124.301 98.9815 124.529 98.9555 124.753 98.92C124.975 98.8864 125.193 98.8432 125.407 98.7958C125.618 98.7477 125.825 98.6926 126.031 98.6315C126.232 98.5688 126.431 98.5027 126.629 98.4305C126.825 98.3548 127.016 98.275 127.207 98.1864" stroke="#FF71E1" stroke-width="0.5" stroke-miterlimit="10"/>
<path d="M100.937 85.0515C100.965 85.0627 100.996 85.0747 101.027 85.0893L101.724 85.393C102.897 85.9043 103.893 87.0909 104.291 88.4925C105.855 93.9933 109.73 98.9638 114.663 101.111C115.209 101.348 115.748 101.545 116.285 101.701C118.166 102.248 119.981 102.304 121.635 101.928C121.846 101.88 122.051 101.824 122.256 101.766C122.457 101.703 122.657 101.635 122.854 101.562C123.049 101.489 123.242 101.407 123.432 101.321C123.622 101.235 123.806 101.141 123.987 101.044C124.163 100.948 124.338 100.846 124.508 100.74C124.678 100.634 124.84 100.523 125.006 100.403C125.343 100.159 125.668 99.8897 125.973 99.5978" stroke="#FF71E1" stroke-width="0.5" stroke-miterlimit="10"/>
<path d="M39.2114 56.9862C39.2862 57.008 39.3606 57.0411 39.4385 57.0724C40.1587 57.3858 40.766 57.9978 41.1696 58.7322C41.5731 59.4666 41.7704 60.3227 41.6629 61.1305L41.1822 64.785C40.9672 66.4207 41.9786 68.2632 43.4389 68.9014C43.4389 68.9014 64.2109 77.9255 64.2322 77.9317C64.4807 78.004 64.7213 78.0336 64.9525 78.0259C65.1802 78.0201 65.3958 77.9761 65.5994 77.8941C65.6082 77.8937 65.6185 77.8881 65.6281 77.8851C65.783 77.8206 65.9319 77.7371 66.066 77.6348L66.2005 77.5211" stroke="#FF71E1" stroke-width="0.5" stroke-miterlimit="10"/>
<path d="M45.086 40.2169L45.1014 40.2039L45.1196 40.1917" stroke="#FF71E1" stroke-width="0.5" stroke-miterlimit="10"/>
<path d="M44.895 40.377L44.8831 40.388C44.7697 40.4991 44.6699 40.6229 44.5804 40.7612C44.4552 40.9526 44.3566 41.1719 44.2862 41.4138C44.2445 41.5573 44.2119 41.7093 44.1911 41.8705L43.555 46.7167" stroke="#FF71E1" stroke-width="0.5" stroke-miterlimit="10"/>
<path d="M95.6737 88.0214C95.9168 88.0921 96.1566 88.1445 96.3937 88.176C96.6522 88.2138 96.9063 88.2271 97.155 88.2187" stroke="#FF71E1" stroke-width="0.5" stroke-miterlimit="10"/>
<path d="M70.1803 70.4732C70.2543 70.4976 70.3295 70.5281 70.4046 70.5587C71.1241 70.8746 71.7322 71.484 72.1358 72.2184C72.5393 72.9529 72.7358 73.8116 72.6291 74.6167L72.5424 75.2834C72.1103 78.5715 74.1408 82.2704 77.0755 83.548L92.1984 90.1358C92.2888 90.1736 92.3792 90.2114 92.4704 90.2466C92.5749 90.2857 92.6776 90.3213 92.7791 90.3508C92.7997 90.3597 92.8211 90.3659 92.8424 90.3721C93.0856 90.4429 93.3253 90.4953 93.5625 90.5268C93.821 90.5646 94.075 90.5779 94.3238 90.5695C94.3528 90.5693 94.3792 90.5684 94.4063 90.5647C94.6119 90.5553 94.8114 90.5269 95.0053 90.4881C95.2156 90.4426 95.4209 90.3841 95.6184 90.3032C95.771 90.2467 95.9222 90.1753 96.0676 90.0936C96.1047 90.0756 96.1426 90.0549 96.1779 90.0335C96.318 89.9502 96.4516 89.8594 96.5796 89.7582L96.7355 89.6306" stroke="#FF71E1" stroke-width="0.5" stroke-miterlimit="10"/>
<path d="M97.2403 88.2146C97.2131 88.2182 97.1841 88.2184 97.155 88.2186" stroke="#FF71E1" stroke-width="0.5" stroke-miterlimit="10"/>
<path d="M97.8331 88.1391C97.6393 88.1779 97.4432 88.2045 97.2403 88.2146" stroke="#FF71E1" stroke-width="0.5" stroke-miterlimit="10"/>
<path d="M76.3957 55.1547L76.3804 55.1676C76.2271 55.296 76.078 55.44 75.9434 55.594C75.8018 55.7518 75.674 55.9222 75.5573 56.1045C75.4336 56.2905 75.3255 56.4926 75.2293 56.7039C75.1246 56.9243 75.0355 57.1608 74.9636 57.408C74.8851 57.6677 74.825 57.9443 74.7812 58.2343C74.7765 58.2704 74.771 58.3092 74.7663 58.3453L74.6529 59.2033L74.5214 60.203" stroke="#FF71E1" stroke-width="0.5" stroke-miterlimit="10"/>
<path d="M109.047 72.2045C109.047 72.2045 109.036 72.2102 109.036 72.2128L108.869 72.3376" stroke="#FF71E1" stroke-width="0.5" stroke-miterlimit="10"/>
<path d="M108.101 72.9873C108.101 72.9873 108.094 72.9911 108.092 72.9964C107.944 73.1351 107.798 73.2799 107.661 73.4332C107.515 73.5867 107.376 73.7453 107.241 73.9107C107.183 73.9803 107.124 74.0526 107.068 74.1257C107.21 74.1266 107.349 74.1153 107.484 74.091C107.679 74.0583 107.864 73.9997 108.041 73.9186C108.384 73.7674 108.689 73.5247 108.931 73.2001C108.996 73.118 109.056 73.0316 109.108 72.9402C109.172 72.8292 109.242 72.7196 109.311 72.6101C109.426 72.4244 109.551 72.2445 109.68 72.0687C109.804 71.8941 109.934 71.7245 110.068 71.5617" stroke="#FF71E1" stroke-width="0.5" stroke-miterlimit="10"/>
<path d="M124.072 99.0014C124.301 98.9815 124.529 98.9555 124.754 98.92C124.975 98.8864 125.193 98.8432 125.407 98.7958C125.618 98.7477 125.825 98.6926 126.031 98.6315C126.232 98.5688 126.431 98.5027 126.629 98.4305C126.825 98.3548 127.016 98.275 127.207 98.1864C127.394 98.1023 127.577 98.0113 127.753 97.9127" stroke="#FF71E1" stroke-width="0.5" stroke-miterlimit="10"/>
<path d="M126.89 98.838C126.601 99.1117 126.293 99.3651 125.973 99.5979C125.807 99.7224 125.633 99.8393 125.457 99.9493C125.289 100.056 125.115 100.158 124.935 100.256C124.754 100.353 124.567 100.446 124.38 100.533C124.189 100.621 123.998 100.701 123.802 100.774C123.604 100.849 123.405 100.915 123.204 100.978C122.998 101.039 122.788 101.093 122.577 101.141C122.363 101.191 122.145 101.232 121.926 101.266C120.448 101.497 118.859 101.392 117.221 100.915C116.687 100.76 116.146 100.565 115.603 100.329C110.673 98.1802 106.796 93.2089 105.232 87.7082C104.834 86.3065 103.84 85.1207 102.665 84.6086L101.971 84.3058C101.688 84.183 101.406 84.1041 101.136 84.0686" stroke="#FF71E1" stroke-width="0.5" stroke-miterlimit="10"/>
<path d="M14.5538 24.6393L10.769 53.4782L36.52 64.6917" stroke="#FF71E1" stroke-width="0.5" stroke-miterlimit="10"/>
<path d="M39.362 56.0786C39.6864 56.0692 40.0289 56.1371 40.381 56.2914C41.1012 56.6047 41.7119 57.2149 42.1128 57.9485C42.5138 58.6822 42.7102 59.5409 42.6035 60.346L42.1255 64.0013C41.9105 65.637 42.9219 67.4795 44.3822 68.1177C44.3822 68.1177 65.0187 77.0995 65.1068 77.1252C65.1274 77.134 65.1488 77.1402 65.1702 77.1465C65.4187 77.2187 65.6611 77.2518 65.8958 77.2422C66.1235 77.2364 66.3426 77.1905 66.5453 77.1111" stroke="#FF71E1" stroke-width="0.5" stroke-miterlimit="10"/>
<path d="M66.5717 77.1014C66.7102 77.0437 66.8411 76.9722 66.9652 76.8843L67.1142 76.7605" stroke="#FF71E1" stroke-width="0.5" stroke-miterlimit="10"/>
<path d="M67.5056 76.3006C67.5056 76.3006 67.4951 76.3172 67.4903 76.3242" stroke="#FF71E1" stroke-width="0.5" stroke-miterlimit="10"/>
<path d="M46.064 39.4082L46.0027 39.4575" stroke="#FF71E1" stroke-width="0.5" stroke-miterlimit="10"/>
<path d="M45.8803 39.5594L45.8267 39.6044C45.7132 39.7155 45.6135 39.8393 45.524 39.9776C45.3987 40.169 45.3002 40.3883 45.2298 40.6302C45.188 40.7737 45.1546 40.9284 45.1338 41.0895C45.1338 41.0895 44.3862 46.7078 44.3467 46.8433" stroke="#FF71E1" stroke-width="0.5" stroke-miterlimit="10"/>
<path d="M97.2403 88.2146C97.2131 88.2182 97.1841 88.2184 97.155 88.2186" stroke="#FF71E1" stroke-width="0.5" stroke-miterlimit="10"/>
<path d="M95.6737 88.0214C95.9168 88.0921 96.1566 88.1445 96.3937 88.176C96.6522 88.2138 96.9063 88.2271 97.155 88.2187" stroke="#FF71E1" stroke-width="0.5" stroke-miterlimit="10"/>
<path d="M95.9496 89.7018C95.755 89.7432 95.5555 89.7717 95.3499 89.781C95.3228 89.7847 95.2964 89.7857 95.2674 89.7859C95.0186 89.7942 94.7646 89.7809 94.5061 89.7432C94.2689 89.7117 94.0292 89.6592 93.786 89.5885C93.7647 89.5823 93.7433 89.576 93.7219 89.5698C93.6204 89.5403 93.5177 89.5047 93.4159 89.4664C93.3247 89.4312 93.2335 89.396 93.1412 89.3547L78.0149 82.7688C75.0809 81.4886 73.0531 77.7905 73.4844 74.5051L73.5719 73.8357C73.6767 73.0271 73.4821 72.1719 73.0786 71.4374C72.6776 70.7038 72.0669 70.0936 71.3467 69.7803C70.9972 69.6267 70.6521 69.5581 70.3304 69.5683" stroke="#FF71E1" stroke-width="0.5" stroke-miterlimit="10"/>
<path d="M97.2404 88.2147C97.4433 88.2045 97.6394 88.1779 97.8333 88.1392C98.0428 88.0963 98.2455 88.0371 98.4421 87.9588" stroke="#FF71E1" stroke-width="0.5" stroke-miterlimit="10"/>
<path d="M75.3133 60.3296C75.3528 60.194 75.3823 60.0527 75.4008 59.8995L75.4506 59.519L75.5966 58.4196L75.7099 57.5617C75.7154 57.5229 75.7201 57.4868 75.7256 57.448C75.7686 57.1607 75.828 56.8868 75.9065 56.627C75.9784 56.3798 76.0675 56.1433 76.1722 55.923C76.2658 55.7109 76.3765 55.5095 76.5002 55.3235C76.6177 55.1386 76.7455 54.9682 76.8871 54.8104C77.0259 54.6518 77.175 54.5078 77.3352 54.3756" stroke="#FF71E1" stroke-width="0.5" stroke-miterlimit="10"/>
<path d="M110.488 71.0869C110.342 71.2405 110.203 71.399 110.069 71.5618C109.934 71.7245 109.804 71.8942 109.681 72.0688C109.551 72.2445 109.426 72.4245 109.311 72.6102C109.242 72.7197 109.172 72.8292 109.108 72.9403C109.056 73.0316 108.996 73.118 108.931 73.2002C108.689 73.5247 108.384 73.7675 108.041 73.9187C107.864 73.9998 107.679 74.0584 107.484 74.091C107.582 73.9349 107.687 73.7811 107.797 73.6342C107.921 73.4569 108.051 73.2872 108.189 73.1226C108.32 72.959 108.458 72.8032 108.601 72.6515C108.741 72.499 108.885 72.3534 109.036 72.2128C109.037 72.2102 109.037 72.2075 109.047 72.2045C109.091 72.1626 109.134 72.1233 109.178 72.084" stroke="#FF71E1" stroke-width="0.5" stroke-miterlimit="10"/>
<path d="M109.978 71.4286C109.955 71.4454 109.933 71.4595 109.914 71.4771" stroke="#FF71E1" stroke-width="0.5" stroke-miterlimit="10"/>
<path d="M124.072 99.0014C124.301 98.9815 124.529 98.9555 124.753 98.92C124.975 98.8864 125.193 98.8432 125.407 98.7958C125.618 98.7477 125.825 98.6926 126.031 98.6315C126.232 98.5688 126.431 98.5027 126.629 98.4305C126.825 98.3548 127.016 98.275 127.207 98.1864C127.394 98.1023 127.577 98.0113 127.753 97.9127C127.934 97.8184 128.109 97.7163 128.279 97.6074" stroke="#FF71E1" stroke-width="0.5" stroke-miterlimit="10"/>
<path d="M101.345 83.2904C101.833 83.2162 102.367 83.2849 102.914 83.5249L103.608 83.8278C104.785 84.3372 105.778 85.523 106.176 86.9246C107.74 92.4254 111.617 97.3994 116.547 99.5459C117.093 99.7825 117.633 99.9798 118.17 100.136C119.556 100.539 120.91 100.677 122.187 100.57C122.416 100.55 122.641 100.523 122.866 100.487C123.088 100.454 123.306 100.411 123.52 100.363C123.731 100.315 123.938 100.26 124.144 100.199C124.345 100.136 124.544 100.07 124.742 99.9979C124.937 99.9222 125.129 99.8423 125.32 99.7537C125.506 99.6697 125.69 99.5761 125.872 99.479C126.05 99.3839 126.225 99.2818 126.396 99.1729C126.563 99.0659 126.728 98.9555 126.89 98.8381C127.22 98.5997 127.537 98.3373 127.834 98.0545" stroke="#FF71E1" stroke-width="0.5" stroke-miterlimit="10"/>
<path d="M37.4632 63.9107L11.7103 52.6937L15.4978 23.8557" stroke="#FF71E1" stroke-width="0.5" stroke-miterlimit="10"/>
<path d="M68.4313 75.5405C68.227 75.6252 68.0114 75.6692 67.7836 75.675C67.549 75.6846 67.3065 75.6515 67.058 75.5793C67.0367 75.573 67.0153 75.5668 66.9947 75.558C66.9065 75.5323 66.8172 75.5006 66.7303 75.4608L66.1954 75.2274L46.2701 66.5505C44.8063 65.9142 43.7976 64.0725 44.0134 62.4341L44.4914 58.7788C44.5981 57.9737 44.4016 57.115 43.998 56.3805C43.5944 55.6461 42.9864 55.0367 42.2662 54.7234C41.2037 54.2615 40.1963 54.5768 39.6547 55.4226C39.5329 55.6121 39.4335 55.8341 39.3624 56.0786C39.3237 56.2115 39.2953 56.359 39.2749 56.5087L38.4073 63.1272L12.6544 51.9102L16.4419 23.0721L42.1921 34.2883L41.1063 42.5732C41.0651 42.8842 41.0701 43.2057 41.1145 43.5213C41.126 43.6112 41.1429 43.7026 41.1624 43.7948C41.2041 44.0001 41.2642 44.2021 41.3372 44.3992C41.3777 44.509 41.4243 44.6177 41.4744 44.7246C41.5138 44.8081 41.5567 44.8898 41.5996 44.9715C41.7203 45.194 41.8617 45.4053 42.0192 45.601C42.2387 45.8725 42.4897 46.1156 42.7668 46.3086C42.9463 46.4387 43.1327 46.5448 43.3307 46.6313C43.4059 46.6618 43.481 46.6923 43.5551 46.7167C43.8264 46.8101 44.0929 46.8501 44.347 46.8433C44.5774 46.8382 44.795 46.7977 44.9977 46.7183C45.1668 46.6551 45.3226 46.5678 45.4625 46.4556C45.7513 46.2398 45.982 45.935 46.1384 45.5566C46.2239 45.3422 46.2874 45.1041 46.3219 44.846L47.0189 39.5215C47.0397 39.3603 47.0731 39.2057 47.1149 39.0621C47.1852 38.8202 47.2857 38.6044 47.4109 38.413C47.5235 38.2353 47.6574 38.0839 47.8079 37.9547C48.3831 37.4618 49.2012 37.3394 50.0549 37.7117L70.5151 46.622C71.9762 47.2576 72.9876 49.1001 72.7718 50.7385L72.073 56.0595C71.9721 56.8346 72.1469 57.6581 72.5215 58.3726C72.5359 58.4028 72.5511 58.4302 72.5663 58.4577C72.5758 58.4749 72.5872 58.4955 72.5974 58.51C72.6118 58.5402 72.6278 58.565 72.6411 58.589C72.7224 58.728 72.8121 58.8579 72.9053 58.9859C72.9479 59.0387 72.9878 59.0907 73.0312 59.1408C73.2393 59.3916 73.4788 59.6141 73.7353 59.7983C73.9129 59.9249 74.1021 60.0319 74.2974 60.1175C74.3725 60.148 74.4477 60.1785 74.5217 60.203C74.7931 60.2963 75.0596 60.3364 75.3137 60.3295C75.5433 60.3272 75.7616 60.284 75.9652 60.2019C76.1308 60.1405 76.2866 60.0532 76.4284 59.9445C76.7172 59.7287 76.9486 59.4212 77.105 59.0429C77.1906 58.8284 77.2541 58.5903 77.2886 58.3322L77.3385 57.9517L77.4809 56.8542L77.5943 55.9963C77.599 55.9602 77.6045 55.9214 77.6092 55.8853C77.653 55.5953 77.7124 55.3214 77.7917 55.059C77.8636 54.8118 77.9511 54.5806 78.0531 54.3594C78.1501 54.1455 78.2601 53.9468 78.3845 53.7581C78.5013 53.5758 78.6291 53.4054 78.7707 53.2476C79.9264 51.9346 81.7651 51.5209 83.6886 52.3602L98.8148 58.9461C101.75 60.2237 103.779 63.9252 103.348 67.2106L103.129 68.8798C103 69.8715 103.239 70.9215 103.735 71.8269C104.23 72.7262 104.976 73.4795 105.863 73.8646C106.154 73.9923 106.444 74.0709 106.726 74.1069L106.811 74.1143C106.833 74.1178 106.856 74.1187 106.876 74.1188C106.941 74.1261 107.004 74.1272 107.068 74.1257C107.21 74.1266 107.349 74.1153 107.484 74.091C107.679 74.0583 107.864 73.9997 108.041 73.9186C108.384 73.7674 108.689 73.5247 108.931 73.2001C108.996 73.118 109.056 73.0316 109.108 72.9402C109.173 72.8292 109.242 72.7196 109.312 72.6101C109.426 72.4244 109.551 72.2445 109.681 72.0687C109.804 71.8941 109.934 71.7245 110.069 71.5617C110.203 71.399 110.342 71.2404 110.488 71.0868C110.625 70.9336 110.772 70.7861 110.921 70.6448C113.739 67.9815 117.886 67.2506 122.22 69.1398C125.776 70.6905 128.783 73.7045 130.771 77.3277C132.759 80.9536 133.725 85.1847 133.204 89.1676C132.727 92.8001 131.093 95.5974 128.777 97.2708" stroke="#FF71E1" stroke-width="0.5" stroke-miterlimit="10"/>
<path d="M95.6737 88.0214C95.9168 88.0921 96.1566 88.1445 96.3937 88.176C96.6522 88.2138 96.9063 88.2271 97.155 88.2187" stroke="#FF71E1" stroke-width="0.5" stroke-miterlimit="10"/>
<path d="M70.6237 68.9097C71.1141 68.7179 71.6948 68.734 72.2915 68.9941C73.0117 69.3074 73.6197 69.9168 74.0233 70.6512C74.4269 71.3857 74.6234 72.2444 74.5167 73.0495L74.4291 73.7189C73.9979 77.0043 76.0249 80.705 78.9597 81.9826L94.0859 88.5685C94.1763 88.6064 94.2668 88.6442 94.358 88.6794C94.4625 88.7185 94.5652 88.7541 94.6693 88.7844C94.6907 88.7906 94.7121 88.7968 94.7308 88.8023C94.9739 88.873 95.2137 88.9255 95.4508 88.957C95.7094 88.9947 95.9634 89.008 96.2121 88.9997" stroke="#FF71E1" stroke-width="0.5" stroke-miterlimit="10"/>
<path d="M97.2403 88.2146C97.2131 88.2182 97.1841 88.2184 97.155 88.2186" stroke="#FF71E1" stroke-width="0.5" stroke-miterlimit="10"/>
<path d="M97.2405 88.2147C97.4434 88.2045 97.6395 88.178 97.8333 88.1392C98.0428 88.0964 98.2455 88.0371 98.4422 87.9588C98.5956 87.8996 98.746 87.8309 98.893 87.744C98.9293 87.7286 98.9646 87.7071 98.9998 87.6857" stroke="#FF71E1" stroke-width="0.5" stroke-miterlimit="10"/>
<path d="M98.0593 88.4673C98.2055 88.3829 98.3468 88.2857 98.4817 88.1807L98.6009 88.0799" stroke="#FF71E1" stroke-width="0.5" stroke-miterlimit="10"/>
<path d="M46.9481 38.6677L46.9251 38.687L46.8569 38.7421L46.8451 38.7531L46.8332 38.764C46.6964 38.8857 46.5728 39.0314 46.4668 39.1966C46.3416 39.388 46.2411 39.6038 46.1708 39.8457C46.129 39.9893 46.0956 40.1439 46.0748 40.3051L45.3778 45.6296C45.3433 45.8877 45.2798 46.1258 45.1943 46.3402C45.1372 46.4765 45.0719 46.6016 44.9973 46.7183" stroke="#FF71E1" stroke-width="0.5" stroke-miterlimit="10"/>
<path d="M78.2746 53.5965C78.1187 53.7241 77.9696 53.8682 77.8341 54.0248C77.6926 54.1826 77.5614 54.3549 77.4438 54.5398C77.3201 54.7259 77.2094 54.9272 77.1124 55.1412C77.0104 55.3623 76.9221 55.5962 76.8502 55.8434C76.7717 56.1031 76.7123 56.377 76.6685 56.667C76.6638 56.7032 76.6583 56.7419 76.6528 56.7807L76.5402 57.636L76.3943 58.7353L76.3444 59.1158C76.3099 59.3739 76.2464 59.6121 76.1609 59.8265C76.1046 59.96 76.0419 60.086 75.9647 60.2019C76.1304 60.1405 76.2862 60.0532 76.4279 59.9445C76.7167 59.7287 76.9482 59.4212 77.1046 59.0429C77.1902 58.8284 77.2537 58.5903 77.2882 58.3322L77.338 57.9517L77.4805 56.8542L77.5939 55.9963C77.5986 55.9602 77.6041 55.9214 77.6088 55.8853C77.6526 55.5953 77.712 55.3214 77.7912 55.059C77.8631 54.8118 77.9507 54.5806 78.0527 54.3594C78.1497 54.1455 78.2597 53.9468 78.3841 53.7581C78.5009 53.5758 78.6287 53.4054 78.7702 53.2476" stroke="#FF71E1" stroke-width="0.5" stroke-miterlimit="10"/>
<path d="M110.033 71.3755C110.016 71.3937 109.996 71.411 109.977 71.4284C109.828 71.5698 109.685 71.7154 109.545 71.8678C109.402 72.0195 109.263 72.1781 109.129 72.3408C108.994 72.5036 108.864 72.6732 108.741 72.8479C108.611 73.0236 108.488 73.207 108.37 73.3946C108.301 73.5041 108.231 73.6136 108.167 73.7247C108.127 73.791 108.085 73.8566 108.041 73.9187" stroke="#FF71E1" stroke-width="0.5" stroke-miterlimit="10"/>
<path d="M124.072 99.0015C124.301 98.9815 124.528 98.9556 124.753 98.92C124.974 98.8864 125.193 98.8432 125.406 98.7958C125.618 98.7477 125.825 98.6926 126.031 98.6315C126.232 98.5688 126.431 98.5027 126.628 98.4305C126.824 98.3548 127.016 98.275 127.207 98.1864C127.393 98.1023 127.576 98.0113 127.753 97.9128C127.934 97.8184 128.108 97.7164 128.279 97.6075C128.449 97.5012 128.615 97.3881 128.777 97.2708C128.48 97.5535 128.163 97.816 127.833 98.0544C127.671 98.1744 127.502 98.2867 127.332 98.3929C127.162 98.4992 126.991 98.5993 126.815 98.6953C126.633 98.7923 126.45 98.8859 126.263 98.97C126.072 99.0586 125.881 99.1385 125.685 99.2141C125.487 99.2863 125.288 99.3524 125.087 99.4151C124.881 99.4762 124.674 99.5313 124.463 99.5794C124.249 99.6268 124.031 99.67 123.809 99.7037" stroke="#FF71E1" stroke-width="0.5" stroke-miterlimit="10"/>
<path d="M95.6737 88.0214C95.9168 88.0921 96.1566 88.1445 96.3937 88.176C96.6522 88.2138 96.9063 88.2271 97.155 88.2187" stroke="#FF71E1" stroke-width="0.5" stroke-miterlimit="10"/>
<path d="M95.6748 88.0215C95.6532 88.0152 95.6315 88.0089 95.6072 88.0018" stroke="#FF71E1" stroke-width="0.5" stroke-miterlimit="10"/>
<path d="M97.2403 88.2146C97.2131 88.2182 97.1841 88.2184 97.155 88.2186" stroke="#FF71E1" stroke-width="0.5" stroke-miterlimit="10"/>
<path d="M35.5765 65.4753L9.8255 54.2618L13.6104 25.423" stroke="#FF71E1" stroke-width="0.5" stroke-miterlimit="10"/>
<path d="M6.06481 31.6874L7.00853 30.9038L7.95226 30.1202L8.89522 29.3392L9.83895 28.5556L10.7827 27.772L11.723 26.9902L11.7237 26.9876L12.6667 26.2066L12.6701 26.2047L13.6104 25.423L14.5541 24.6394L15.4979 23.8558L16.4416 23.0722" stroke="#FF71E1" stroke-width="0.5" stroke-miterlimit="10"/>
<path d="M12.6545 51.9102L2.28038 60.5262" stroke="#FF71E1" stroke-width="0.5" stroke-miterlimit="10"/>
<path d="M47.8073 37.9548L46.9479 38.6678L46.9249 38.687L46.8567 38.7421L46.8448 38.7531L46.8329 38.7641L46.0631 39.408L46.0026 39.4567L45.88 39.5594L45.8264 39.6044L45.1194 40.1916L45.1014 40.2037L45.0861 40.2165L44.8945 40.377L44.8826 40.388L44.1757 40.9752L44.1561 40.9926L43.9389 41.1716L43.9381 41.1743L43.2362 41.7543L43.232 41.7588" stroke="#FF71E1" stroke-width="0.5" stroke-miterlimit="10"/>
<path d="M58.6424 83.7964L59.4558 83.122L59.575 83.0211L60.3995 82.3383L60.5187 82.2375L61.3433 81.5547L61.4735 81.4456L62.2947 80.7647L62.4096 80.6684L63.2315 79.9848L63.361 79.8783L64.2059 79.1755L64.263 79.1287L64.7212 78.7488L65.1565 78.3882L65.222 78.3322L65.665 77.9652L66.0654 77.6348L66.1999 77.5211L66.6087 77.1816L66.9647 76.8843L67.1137 76.7605L67.5516 76.4006L67.9536 76.0649L68.0678 75.9712L68.4961 75.6143L68.8598 75.3107L68.905 75.2748L69.0004 75.1959" stroke="#FF71E1" stroke-width="0.5" stroke-miterlimit="10"/>
<path d="M42.9992 41.9533L42.995 41.9578L42.2915 42.5432L42.2812 42.5488L42.2616 42.5662L42.0582 42.7377L42.0547 42.7395L41.3401 43.3332L41.3359 43.3378" stroke="#FF71E1" stroke-width="0.5" stroke-miterlimit="10"/>
<path d="M38.4071 63.1272L37.9063 63.5437L37.4633 63.9108L36.9625 64.3273L36.5204 64.6917L36.0188 65.1109L35.0785 65.8927L34.6356 66.2598L34.1348 66.6763L33.6919 67.0434L32.7481 67.827L31.8052 68.608L30.8615 69.3916L29.9177 70.1752L28.974 70.9588L28.0329 71.7432" stroke="#FF71E1" stroke-width="0.5" stroke-miterlimit="10"/>
<path d="M79.1578 52.8616L72.521 58.3726" stroke="#FF71E1" stroke-width="0.5" stroke-miterlimit="10"/>
<path d="M106.726 74.1069L106.942 73.9306L107.367 73.5783L107.39 73.5563L107.87 73.1625L107.889 73.1478L108.27 72.8347L108.27 72.8321L108.869 72.3374L108.877 72.3309" stroke="#FF71E1" stroke-width="0.5" stroke-miterlimit="10"/>
<path d="M110.921 70.6448L110.033 71.3755L110.017 71.391L110.013 71.3928" stroke="#FF71E1" stroke-width="0.5" stroke-miterlimit="10"/>
<path d="M109.914 71.4764L109.178 72.084" stroke="#FF71E1" stroke-width="0.5" stroke-miterlimit="10"/>
<path d="M99.3805 87.433L98.964 87.779L98.6012 88.0799L98.482 88.1808L98.0237 88.5607L97.6038 88.9085L97.539 88.9617L97.08 89.3443L96.7359 89.6306L96.58 89.7582L96.1363 90.1279L95.793 90.4115L95.6558 90.5244L95.1925 90.9115L94.8442 91.2023L94.7147 91.3088L93.8408 92.032L93.8392 92.0373L92.915 92.8036L92.9116 92.8055L92.8851 92.8266L92.8698 92.8394L91.9832 93.5762L91.9644 93.591L91.9449 93.6083L91.9414 93.6102L91.0199 94.3772L91.0046 94.3901L90.0762 95.1609L90.0616 95.171L90.0386 95.1903L89.1631 95.9188L89.1554 95.9252" stroke="#FF71E1" stroke-width="0.5" stroke-miterlimit="10"/>
<path d="M132.113 88.6341C132.592 85.0137 131.728 81.1699 129.941 77.8792C128.153 74.5912 125.445 71.8572 122.24 70.4546C119.692 69.3415 116.642 69.0166 114.041 70.1195C112.157 70.9179 110.853 72.3205 110.01 74.0243C109.24 75.5736 107.418 76.2804 105.827 75.5813L105.727 75.5377C103.224 74.4377 101.742 71.8326 102.09 69.134L102.116 68.9253L102.316 67.4006C102.711 64.3987 100.855 61.016 98.1722 59.8491L84.3502 53.83C82.5943 53.0626 80.9134 53.4415 79.8571 54.6421C79.7282 54.7863 79.6104 54.9423 79.5043 55.1075C79.3907 55.2792 79.2915 55.4608 79.2025 55.6569C79.1086 55.8602 79.0299 56.0709 78.9642 56.2969C78.8946 56.5361 78.836 56.7872 78.7965 57.0525C78.7926 57.086 78.7879 57.1221 78.7813 57.1548L78.6781 57.9378L78.5485 58.941L78.5026 59.288C78.2358 61.321 76.0127 62.2687 74.124 61.4396L73.6411 61.227C71.5185 60.2953 70.331 58.3409 70.6262 56.051L71.2532 51.2857C71.4451 49.8192 70.54 48.169 69.2338 47.5987L50.9111 39.6187C50.1477 39.2842 49.4146 39.3939 48.898 39.8347C48.7628 39.951 48.6423 40.0861 48.544 40.2449C48.4303 40.4165 48.3421 40.61 48.2795 40.8253C48.2424 40.9529 48.2136 41.0916 48.1948 41.2361L47.7493 44.65C47.6535 45.3977 47.5634 46.1558 47.2275 46.8423C46.9427 47.4226 46.3906 47.8761 45.7949 48.1209C44.8943 48.4875 43.7974 48.3529 42.9227 47.9629C40.8467 47.0505 39.6217 44.8863 39.9164 42.6481L40.9053 35.1049L17.4515 24.8998L14.0031 51.1579L37.4518 61.3702C37.4518 61.3702 37.6276 60.0287 37.6284 60.026L37.8639 58.2204L38.2092 55.599C38.4693 53.619 40.5671 52.4445 42.4039 53.2527L43.1699 53.588C45.0766 54.4253 46.2013 56.4161 45.9283 58.4703C45.9252 58.4809 45.9237 58.4862 45.9237 58.4862L45.4963 61.7584C45.3044 63.2249 46.2068 64.8743 47.5157 65.4454C47.5157 65.4454 66.1109 73.5248 66.1296 73.5303C66.3513 73.5948 66.569 73.6235 66.7799 73.6157C66.9839 73.6116 67.1786 73.5702 67.3595 73.496C67.3675 73.4983 67.3718 73.4937 67.3821 73.4881C67.4246 73.4716 67.4678 73.4525 67.5084 73.4326C67.5344 73.4228 67.5585 73.4097 67.5834 73.3938C67.6075 73.3807 67.6289 73.3667 67.6565 73.3517C67.6848 73.334 67.7139 73.3136 67.7431 73.2932L67.784 73.2619C67.8139 73.2389 67.843 73.2185 67.8683 73.1913C67.9339 73.1354 67.9922 73.0745 68.0485 73.0102C68.0746 72.9803 68.1015 72.9477 68.1249 72.9171C68.1583 72.872 68.1898 72.8235 68.2205 72.7776C68.3857 72.5085 68.5038 72.1825 68.5513 71.8099L68.6109 71.366C68.6981 70.7772 68.8028 70.1185 68.9218 69.4006C69.0865 68.4163 69.1432 68.1416 69.3509 67.8359C69.7749 67.2153 70.4572 67.0015 70.751 66.9082C72.6301 66.316 74.4881 67.6292 74.7819 67.8444C75.1428 68.108 75.9507 68.7178 76.4445 69.8591C76.9782 71.0927 76.8231 72.2038 76.7409 72.6354C76.3458 75.6373 78.2016 79.0201 80.8846 80.1869L94.7066 86.206C94.7916 86.2423 94.8748 86.2751 94.9553 86.3072C95.0492 86.3432 95.1412 86.3757 95.2347 86.4029C95.256 86.4091 95.2774 86.4153 95.2961 86.4208C95.5179 86.4853 95.7381 86.5349 95.9531 86.5629C96.1895 86.597 96.4206 86.6095 96.6491 86.601C96.6755 86.6 96.7011 86.6017 96.7256 86.5973C96.917 86.5867 97.1035 86.5631 97.2886 86.5246C97.4212 86.4969 97.5509 86.4597 97.6794 86.4163C97.8695 86.3505 98.0566 86.2752 98.2388 86.1668C98.2718 86.1533 98.3035 86.1337 98.3353 86.1141C98.6293 85.9401 98.8945 85.7261 99.1341 85.47C99.3612 85.2275 99.5593 84.9449 99.7281 84.6336C99.8823 84.3527 100.007 84.043 100.105 83.708C100.18 83.4475 100.24 83.1736 100.275 82.8839C100.276 82.8584 100.28 82.8364 100.285 82.809C100.308 82.66 100.338 82.5161 100.378 82.3805C100.603 80.641 102.441 79.6102 104.052 80.3182L106.121 81.2257C107.689 81.9124 108.867 83.2729 109.297 84.9232C109.324 85.0264 109.352 85.1323 109.38 85.233C110.785 90.2058 114.307 94.7363 118.754 96.6703C119.245 96.8852 119.733 97.0617 120.216 97.2024C121.002 97.4309 121.775 97.5634 122.525 97.6057C122.75 97.6192 122.974 97.624 123.197 97.6166C123.415 97.6138 123.629 97.6041 123.84 97.5875C124.045 97.5693 124.252 97.5459 124.456 97.5129C124.656 97.4818 124.853 97.4411 125.045 97.3989C125.235 97.3533 125.423 97.3043 125.608 97.2483C125.789 97.1916 125.969 97.1315 126.148 97.0652C126.324 96.9955 126.497 96.9216 126.67 96.8424C126.841 96.7651 127.004 96.6828 127.163 96.5936C127.327 96.5086 127.485 96.4133 127.638 96.3139C127.791 96.217 127.943 96.1141 128.087 96.0062C130.18 94.4813 131.659 91.9361 132.098 88.6328L132.113 88.6341Z" stroke="#FF71E1" stroke-width="0.5" stroke-miterlimit="10"/>
<path d="M130.84 88.0793C131.265 84.8528 130.497 81.4287 128.904 78.4946C127.311 75.5631 124.899 73.1284 122.04 71.8786C119.77 70.8866 117.052 70.5976 114.731 71.5805C112.907 72.353 111.694 73.7646 110.951 75.4602C110.277 76.9999 108.439 77.6616 106.889 76.9829L104.437 75.9092C102.023 74.8524 100.596 72.3381 100.929 69.7364L101.012 69.083L101.194 67.6913C101.552 64.9555 99.8616 61.8717 97.4178 60.809L84.8196 55.3247C83.2178 54.6251 81.686 54.9696 80.724 56.065C80.6078 56.1956 80.5 56.3372 80.4032 56.4907C80.2995 56.6479 80.2076 56.8144 80.1267 56.9927C80.0417 57.1755 79.9676 57.3702 79.9081 57.5749C79.8447 57.7929 79.7923 58.0227 79.7571 58.2633C79.7539 58.2941 79.7481 58.3242 79.7449 58.3549L79.6504 59.0684L79.4621 60.1439C79.0452 62.1649 76.5523 63.7809 74.3573 62.8194L72.7608 62.1215C70.4063 61.0905 69.0157 58.6388 69.3416 56.1041L69.9015 51.8383C70.0749 50.525 69.264 49.0492 68.0913 48.538L51.6893 41.3964C51.0049 41.0993 50.3478 41.1965 49.8884 41.5905C49.7685 41.694 49.6607 41.8154 49.5696 41.959C49.4701 42.1118 49.3882 42.284 49.3317 42.478C49.2985 42.5923 49.2709 42.7169 49.254 42.8447L48.9726 44.9973C48.7493 47.1698 48.057 49.1309 45.8079 49.6702C43.0506 50.3328 40.2854 48.303 39.1777 46.1239C38.8843 45.5484 38.4089 44.3837 38.5106 42.7092L39.3873 36.0098L18.5704 26.941L15.5073 50.2607L36.3322 59.3319L36.8525 55.3717C37.1982 52.7389 39.9854 51.1768 42.4296 52.2483L44.2698 53.0547C46.3161 53.9498 47.5241 56.0831 47.2341 58.2851L46.8511 61.2156C46.6776 62.5289 47.4859 64.0038 48.6613 64.5159C48.6613 64.5159 65.309 71.7491 65.325 71.7538C65.5254 71.812 65.7175 71.8391 65.9055 71.8304C66.0866 71.8254 66.2621 71.7899 66.4239 71.7217C66.4293 71.7232 66.4362 71.7195 66.4438 71.7131C66.4828 71.6985 66.5192 71.6831 66.5571 71.6624C66.5804 71.6519 66.6038 71.6414 66.6252 71.6274C66.6459 71.6161 66.6673 71.6022 66.6888 71.5883C66.7137 71.5724 66.7393 71.5539 66.7677 71.5362L66.8052 71.5068C66.8316 71.4857 66.8573 71.4672 66.8818 71.4426C66.9397 71.3931 66.993 71.3394 67.0425 71.2788C67.067 71.2543 67.0878 71.2228 67.1104 71.1948C67.1396 71.1543 67.1688 71.1138 67.196 71.0698C67.3447 70.8276 67.4493 70.538 67.4913 70.2042L67.7612 68.1606C68.0675 65.8826 70.4822 64.535 72.5975 65.4618L74.8803 66.4603C77.0082 67.3937 78.2671 69.6109 77.965 71.9046L77.8897 72.4622C77.5314 75.198 79.222 78.2819 81.6658 79.3446L94.264 84.8289C94.3418 84.8602 94.4162 84.8934 94.4895 84.9204C94.5726 84.9533 94.66 84.9816 94.7455 85.0065C94.7642 85.0119 94.7829 85.0173 94.8016 85.0228C95.0047 85.0818 95.2036 85.1253 95.4018 85.1512C95.616 85.1818 95.8295 85.1949 96.0351 85.1855C96.0588 85.1838 96.0844 85.1855 96.1054 85.1829C96.282 85.1737 96.4509 85.1508 96.6203 85.1165C96.7407 85.091 96.8574 85.0586 96.9729 85.0201C97.1465 84.9611 97.318 84.8898 97.4822 84.7934C97.5124 84.7792 97.5408 84.7615 97.5718 84.7445C97.8409 84.5864 98.083 84.3916 98.299 84.1574C98.5049 83.9376 98.6872 83.6793 98.8395 83.3949C98.978 83.1382 99.0916 82.857 99.1806 82.5513C99.2494 82.3147 99.3026 82.062 99.336 81.7978C99.3369 81.775 99.3404 81.753 99.3466 81.7317C99.3657 81.596 99.3949 81.4661 99.4312 81.3411C99.6836 79.3876 101.748 78.2293 103.56 79.0218L107.341 80.6782C108.888 81.3561 110.03 82.7205 110.413 84.3629C110.467 84.5949 110.526 84.8224 110.588 85.0453C111.841 89.4751 114.977 93.5159 118.942 95.24C119.379 95.4306 119.814 95.5889 120.247 95.7148C120.946 95.9184 121.633 96.0375 122.304 96.0739C122.506 96.0866 122.705 96.0897 122.901 96.0833C123.095 96.0822 123.287 96.0716 123.474 96.0568C123.658 96.0412 123.841 96.0195 124.021 95.9882C124.2 95.9596 124.376 95.9242 124.546 95.8872C124.717 95.8475 124.883 95.8037 125.048 95.7537C125.211 95.703 125.369 95.648 125.53 95.5912C125.687 95.5301 125.842 95.4656 125.997 95.3924C126.147 95.3237 126.293 95.2508 126.436 95.1683C126.582 95.0928 126.723 95.0096 126.859 94.9195C126.997 94.8328 127.131 94.7419 127.26 94.6469C129.125 93.2864 130.445 91.0207 130.834 88.0777L130.84 88.0793Z" stroke="#FF71E1" stroke-width="0.5" stroke-miterlimit="10"/>
<path d="M34.5053 52.5524C34.3497 53.5653 34.2829 54.3128 34.1411 55.3383C31.9525 54.3845 20.8494 49.5485 18.4521 48.5051C19.1867 42.9119 20.03 36.4969 20.7579 30.9363L36.4469 37.7696C36.4469 37.7696 34.622 46.5228 37.365 48.6788C37.365 48.6788 34.9107 49.8937 34.5045 52.555L34.5053 52.5524Z" stroke="#FF71E1" stroke-width="0.5" stroke-miterlimit="10"/>
<path d="M40.9016 50.2583C40.1021 49.8585 38.7037 49.0077 37.8374 47.4034C37.0728 45.9873 36.9501 45.1241 37.0941 43.0353C37.2269 41.1046 37.6362 38.4125 38.0119 36.8322L19.595 28.8075L16.8858 49.4363L35.3088 57.4599C35.609 55.1829 35.576 51.7999 37.7628 50.4091C38.3214 50.0526 39.2596 49.7864 40.905 50.2564L40.9016 50.2583Z" stroke="#FF71E1" stroke-width="0.5" stroke-miterlimit="10"/>
<path d="M66.7896 67.4674C66.7689 67.6085 66.7466 67.7548 66.7316 67.9061L66.6857 68.2532C66.6472 68.5447 66.5581 68.8014 66.4274 69.0113C66.4052 69.0481 66.3794 69.0867 66.3518 69.1219C66.3334 69.1454 66.3142 69.1715 66.2931 69.1942C66.2494 69.2449 66.203 69.2949 66.1501 69.3372C66.1324 69.358 66.1075 69.3738 66.0846 69.3931L66.0539 69.4188C66.0298 69.4319 66.0076 69.4485 65.9861 69.4625C65.9655 69.4738 65.9475 69.4858 65.9268 69.4971C65.9088 69.5092 65.8881 69.5205 65.869 69.5264C65.8372 69.546 65.8043 69.5595 65.7714 69.573C65.7618 69.576 65.7576 69.5805 65.7523 69.579C65.6077 69.6378 65.4566 69.6688 65.2992 69.6721C65.1349 69.679 64.965 69.6556 64.7886 69.6043L50.2185 63.2782C49.1919 62.8325 48.4869 61.5404 48.638 60.3936L48.8817 58.5298C48.8817 58.5298 48.8821 58.5184 48.8837 58.5131C48.9769 57.8338 49.0694 56.4104 48.3986 54.8313C47.3841 52.4515 45.3509 51.4218 44.8073 51.1685C45.1595 51.1931 47.2448 51.3067 48.8501 49.7929C50.0084 48.6998 50.3544 47.3213 50.3945 47.0043C50.4278 46.7401 50.7816 44.1097 50.8102 44.0113C50.8597 43.8412 50.9301 43.6887 51.0181 43.5557C51.0976 43.4318 51.1927 43.3239 51.2973 43.2333C51.6989 42.8888 52.2746 42.8025 52.8713 43.0626L67.212 49.3104C68.2359 49.7553 68.9471 51.0463 68.7952 52.1958C68.7952 52.1958 68.3067 55.9173 68.3044 55.9252C68.1094 57.4024 68.0548 58.8253 68.7965 60.2001C69.5421 61.5819 71.5458 63.1912 73.074 63.8549C73.074 63.8549 67.635 61.9814 66.7904 67.4648L66.7896 67.4674Z" stroke="#FF71E1" stroke-width="0.5" stroke-miterlimit="10"/>
<path d="M98.5266 80.308C98.5011 80.3957 98.4824 80.4797 98.4824 80.4797C98.4708 80.5397 98.4591 80.5998 98.4493 80.6632C98.4439 80.6818 98.4412 80.7012 98.4403 80.7241C98.4085 80.9628 98.3596 81.1907 98.297 81.4061C98.2165 81.6825 98.1133 81.9379 97.9871 82.1723C97.8487 82.429 97.6848 82.6638 97.4965 82.8628C97.2982 83.0761 97.0783 83.2543 96.8367 83.3974C96.8084 83.4151 96.7808 83.4302 96.7514 83.4418C96.6422 83.5081 96.529 83.5588 96.4119 83.6025C96.2639 83.6633 96.109 83.7076 95.9518 83.7397C95.8043 83.7689 95.6563 83.7893 95.5035 83.7967C95.4825 83.7992 95.4588 83.801 95.4385 83.8009C95.2513 83.807 95.0572 83.7966 94.8625 83.7688C94.6837 83.7457 94.5016 83.7042 94.3173 83.6506C94.3013 83.6459 94.2852 83.6413 94.2673 83.6332C94.1925 83.6114 94.1131 83.5854 94.0372 83.5576C93.97 83.5294 93.9029 83.5012 93.8304 83.4715L82.3923 78.4919C81.088 77.925 80.0895 76.7753 79.5067 75.5015C78.512 73.3323 79.5353 71.0004 78.6847 68.824C78.1068 67.344 77.2283 66.2696 75.8794 65.4678C75.3753 65.1683 74.8315 64.8861 74.2697 64.7054C74.3739 64.7357 74.4735 64.7618 74.5739 64.7853C76.1036 65.1553 77.3519 64.789 78.5525 63.76C79.2579 63.1579 79.8493 62.39 80.2129 61.5386C80.5091 60.8491 80.5112 60.1549 80.6458 59.4329C80.6536 59.4063 80.6533 59.3774 80.6584 59.35C80.6901 59.1315 80.7362 58.9229 80.7969 58.7243C80.8511 58.5382 80.9162 58.364 80.994 58.1963C81.0675 58.0332 81.1487 57.8838 81.245 57.7417C81.3319 57.6026 81.4297 57.4754 81.5367 57.3566C82.4113 56.3625 83.8008 56.0488 85.2557 56.6855L96.6938 61.665C98.9137 62.6309 100.447 65.4296 100.121 67.9152L99.9566 69.1765C99.8176 70.2519 99.5827 71.2388 99.7718 72.3319C99.8651 72.878 99.9949 73.3482 100.173 73.7921C100.208 73.8802 100.51 74.6369 101.039 75.3587C102.104 76.8162 103.66 77.563 104.224 77.8077C104.046 77.7126 102.419 76.8676 100.701 77.6564C100.701 77.6564 99.0757 78.4005 98.5292 80.3088L98.5266 80.308Z" stroke="#FF71E1" stroke-width="0.5" stroke-miterlimit="10"/>
<path d="M126.451 93.3331C126.337 93.4153 126.218 93.496 126.097 93.5733C125.976 93.6505 125.853 93.7243 125.724 93.7905C125.598 93.8635 125.469 93.927 125.335 93.989C125.202 94.0509 125.066 94.1095 124.925 94.1638C124.786 94.2154 124.644 94.2636 124.503 94.3092C124.357 94.3532 124.21 94.3911 124.061 94.4255C123.909 94.4592 123.752 94.4914 123.597 94.5155C123.436 94.5408 123.274 94.56 123.114 94.5738C122.947 94.5888 122.777 94.5968 122.608 94.5996C122.433 94.6035 122.257 94.5986 122.08 94.5903C121.49 94.557 120.883 94.4525 120.266 94.2729C119.886 94.1626 119.504 94.0225 119.119 93.8528C115.622 92.334 112.856 88.7729 111.755 84.8686C111.271 83.1563 111.372 81.8308 109.89 80.6412C108.927 79.868 108.149 79.2062 107.002 78.7544C108.289 79.1922 109.402 78.9422 110.515 78.2224C111.861 77.3538 112.091 75.9822 113.031 74.8052C113.66 74.0166 114.473 73.3939 115.402 72.9982C117.446 72.1308 119.844 72.3844 121.843 73.2602C124.363 74.3622 126.488 76.5087 127.893 79.0913C129.297 81.6766 129.975 84.6964 129.599 87.5398C129.257 90.133 128.092 92.1326 126.448 93.3323L126.451 93.3331Z" stroke="#FF71E1" stroke-width="0.5" stroke-miterlimit="10"/>
<path d="M64.7895 65.8141L64.7522 66.0916C64.722 66.325 64.6483 66.5285 64.5442 66.6971C64.5261 66.7294 64.5062 66.7581 64.4835 66.7862C64.4693 66.8051 64.4544 66.8267 64.4375 66.8448C64.4022 66.8865 64.365 66.9247 64.3232 66.9587C64.3071 66.9742 64.2884 66.9889 64.2696 67.0036L64.2466 67.0229C64.2278 67.0376 64.2072 67.0489 64.1899 67.0583C64.1754 67.0685 64.1608 67.0786 64.147 67.0862C64.1298 67.0956 64.1153 67.1057 64.0988 67.1125C64.072 67.1249 64.0452 67.1373 64.0192 67.147C64.0123 67.1508 64.0089 67.1526 64.0035 67.1511C63.891 67.1991 63.7679 67.2238 63.6422 67.2276C63.5104 67.2325 63.2103 67.1683 63.1977 67.1618C63.1497 67.1478 51.5826 62.1134 51.5773 62.1118C50.4637 61.6264 50.2943 60.346 50.3683 59.2748C50.4697 57.8107 50.3226 56.3839 49.8162 54.9968C49.379 53.8 48.7793 52.8931 48.2924 52.2758C48.6628 52.0981 49.0575 51.8669 49.4468 51.5649C51.2596 50.1548 51.795 48.1048 51.9674 47.2035L52.0015 46.9568C52.0137 46.8652 52.0304 46.7778 52.0536 46.698C52.093 46.5625 52.1515 46.4411 52.2203 46.3342C52.2841 46.2346 52.3581 46.1494 52.4424 46.0788C52.7666 45.8012 53.2241 45.7324 53.7025 45.9408L65.1765 50.9366C65.9944 51.2927 66.5623 52.3287 66.4407 53.2448L66.1209 55.689C66.1162 55.7252 66.1087 55.7806 66.1016 55.8449C66.0091 56.6311 65.8426 58.0502 66.1877 59.5634C66.3205 60.1528 66.59 61.0096 67.1842 61.9754C66.6315 62.3711 65.644 63.2054 65.1077 64.6006C64.9389 65.0416 64.8446 65.4553 64.7948 65.8157L64.7895 65.8141Z" stroke="#FF71E1" stroke-width="0.5" stroke-miterlimit="10"/>
<path d="M100.239 76.4208C99.9106 76.2358 99.4284 75.911 98.9993 75.3739C98.7166 75.0206 98.4185 74.5014 98.1441 73.522C97.8215 72.37 97.7416 71.1502 97.9096 69.965C98.071 68.8327 98.5623 67.632 98.2713 66.4806C97.9053 65.0392 96.9191 63.6479 95.5251 63.0406L85.9567 58.876C84.7401 58.3462 83.5774 58.6076 82.8459 59.4386C82.7558 59.5392 82.6756 59.6456 82.601 59.7624C82.5231 59.881 82.4516 60.0072 82.3919 60.1427C82.328 60.2826 82.2713 60.4276 82.2257 60.5845C82.177 60.7519 82.1389 60.9225 82.1112 61.1076C82.1076 61.1297 82.106 61.1551 82.1025 61.1772C81.8929 62.7943 81.0347 64.4793 79.6191 65.3707C79.1298 65.6782 78.4754 65.8655 77.9122 65.6699C79.3367 66.2718 80.5522 68.0007 80.7816 69.5033C81.0169 71.0451 80.4203 72.5381 80.9304 74.0618C81.3634 75.3526 82.2922 76.5627 83.5652 77.1176C84.823 77.6651 90.8547 80.2905 92.6114 81.0553C93.2054 81.3146 93.8154 81.5786 94.4764 81.5575C94.494 81.5569 94.5142 81.557 94.5291 81.5555C94.6583 81.5499 94.7825 81.5312 94.9049 81.5092C95.0375 81.4814 95.1645 81.4434 95.2885 81.3959C95.3864 81.358 95.4798 81.316 95.5743 81.2599C95.5977 81.2494 95.6191 81.2354 95.6432 81.2223C96.3795 80.7733 96.6836 80.017 96.8365 79.6405C97.3341 78.3984 97.6516 77.6056 98.2307 77.0994C98.5725 76.8009 99.1651 76.4572 100.24 76.4269L100.239 76.4208Z" stroke="#FF71E1" stroke-width="0.5" stroke-miterlimit="10"/>
<path d="M125.602 91.95C125.502 92.0221 125.4 92.0933 125.297 92.1585C125.191 92.2256 125.086 92.2873 124.977 92.3449C124.869 92.4058 124.757 92.4626 124.644 92.5133C124.526 92.5685 124.41 92.6184 124.29 92.664C124.169 92.7097 124.048 92.7493 123.926 92.7889C123.799 92.8269 123.674 92.8596 123.545 92.8915C123.415 92.92 123.283 92.9477 123.147 92.9659C123.01 92.9894 122.871 93.0069 122.732 93.0182C122.59 93.0287 122.445 93.0385 122.297 93.0387C122.148 93.0416 121.998 93.0411 121.844 93.031C121.337 93.0016 120.819 92.9114 120.287 92.7567C119.961 92.6619 119.633 92.5434 119.302 92.398C116.3 91.0922 113.924 88.0338 112.976 84.6787C112.726 83.793 112.896 82.9312 112.302 81.8331C111.772 80.8483 111.02 80.2145 110.483 79.8391C110.795 79.8433 111.242 79.8004 111.692 79.568C112.562 79.1176 112.863 78.2422 113.162 77.6227C113.972 75.9527 115.373 74.7944 116.11 74.4813C117.866 73.735 119.924 73.953 121.643 74.7069C123.805 75.653 125.633 77.4968 126.839 79.716C128.045 81.9352 128.627 84.5291 128.304 86.9726C128.01 89.1994 127.011 90.9185 125.6 91.9466L125.602 91.95Z" stroke="#FF71E1" stroke-width="0.5" stroke-miterlimit="10"/>
</g>
<defs>
<clipPath id="clip0_7_313">
<rect width="136" height="136" fill="white"/>
</clipPath>
</defs>
</svg>
