<svg width="136" height="136" viewBox="0 0 136 136" fill="none" xmlns="http://www.w3.org/2000/svg">
<g clip-path="url(#clip0_16_212)">
<path d="M34.1348 66.6763C34.1515 66.9176 34.148 67.1588 34.117 67.3949L33.6363 71.0494C33.4205 72.6878 34.4319 74.5303 35.893 75.1658L56.3532 84.0762C57.2276 84.4574 58.0652 84.3176 58.6427 83.7965" stroke="#FF71E1" stroke-width="0.5" stroke-miterlimit="10"/>
<path d="M6.0647 31.6874L2.27985 60.5263L28.0328 71.7432" stroke="#FF71E1" stroke-width="0.5" stroke-miterlimit="10"/>
<path d="M89.1632 95.9188L89.1556 95.9252C88.0014 96.9042 86.3642 97.143 84.6559 96.401L69.5296 89.8151C66.5949 88.5375 64.5652 84.836 64.9965 81.5505L65.084 80.8811C65.177 80.1729 65.034 79.4192 64.7219 78.7488" stroke="#FF71E1" stroke-width="0.5" stroke-miterlimit="10"/>
<path d="M64.6849 78.6662C64.6849 78.6662 64.6799 78.6531 64.6753 78.6489" stroke="#FF71E1" stroke-width="0.5" stroke-miterlimit="10"/>
<path d="M95.1924 90.9116C96.3356 91.4344 97.297 92.6022 97.6892 93.9734C99.25 99.476 103.127 104.447 108.061 106.595C108.603 106.83 109.146 107.029 109.68 107.184C113.41 108.269 116.89 107.422 119.351 105.099" stroke="#FF71E1" stroke-width="0.5" stroke-miterlimit="10"/>
<path d="M35.0789 65.8927C35.0983 66.1348 35.0921 66.3752 35.0611 66.6112L34.5796 70.2684C34.3646 71.9041 35.376 73.7467 36.8371 74.3822L57.2973 83.2925C57.9065 83.5591 58.4968 83.5723 58.9976 83.3748C59.1605 83.3127 59.3156 83.228 59.4565 83.122L59.4684 83.111C59.5079 83.085 59.5427 83.0548 59.5757 83.0212L59.5868 83.0128" stroke="#FF71E1" stroke-width="0.5" stroke-miterlimit="10"/>
<path d="M7.00903 30.9038L3.22418 59.7426L28.9744 70.9588" stroke="#FF71E1" stroke-width="0.5" stroke-miterlimit="10"/>
<path d="M96.1357 90.1279C97.2774 90.6561 98.2377 91.8177 98.6299 93.1889C100.193 98.6923 104.07 103.664 109.001 105.81C109.547 106.047 110.086 106.244 110.623 106.4C113.899 107.353 116.982 106.817 119.351 105.099C119.677 104.862 119.991 104.602 120.287 104.321" stroke="#FF71E1" stroke-width="0.5" stroke-miterlimit="10"/>
<path d="M65.6653 77.9653C65.9774 78.6356 66.1238 79.3875 66.0274 80.0975L65.9398 80.7669C65.5086 84.0524 67.5382 87.7539 70.473 89.0315L85.5958 95.6193C87.0596 96.2556 88.4697 96.1699 89.5719 95.5189C89.7335 95.4217 89.8893 95.3142 90.0384 95.1904L90.0614 95.1711L90.0759 95.1609" stroke="#FF71E1" stroke-width="0.5" stroke-miterlimit="10"/>
<path d="M66.6094 77.1816C66.9223 77.8493 67.0652 78.603 66.9707 79.3165L66.8839 79.9833C66.4527 83.2687 68.4797 86.9694 71.4144 88.247L86.5399 94.8356C87.7672 95.3685 88.9591 95.3952 89.9599 95.003C90.1516 94.9319 90.3372 94.8417 90.516 94.7352C90.6871 94.635 90.8488 94.5177 91.0047 94.3901L91.02 94.3772" stroke="#FF71E1" stroke-width="0.5" stroke-miterlimit="10"/>
<path d="M97.0798 89.3444C98.2223 89.8699 99.181 91.0368 99.5733 92.4081C101.137 97.9088 105.015 102.88 109.945 105.027C110.491 105.263 111.03 105.461 111.567 105.617C114.616 106.504 117.498 106.099 119.793 104.656C119.96 104.549 120.125 104.439 120.287 104.322C120.624 104.079 120.946 103.81 121.25 103.521" stroke="#FF71E1" stroke-width="0.5" stroke-miterlimit="10"/>
<path d="M66.1214 76.3649L66.1172 76.3637" stroke="#FF71E1" stroke-width="0.5" stroke-miterlimit="10"/>
<path d="M36.0186 65.1109C36.0387 65.3503 36.0326 65.5907 36.0016 65.8268L35.5228 69.4848C35.3077 71.1204 36.3192 72.963 37.7803 73.5985L58.2405 82.5088C58.6032 82.6663 58.9598 82.7354 59.2938 82.723C59.5215 82.7172 59.7372 82.6732 59.9407 82.5912C60.1037 82.529 60.2587 82.4444 60.3997 82.3383L60.4116 82.3274C60.451 82.3013 60.4859 82.2711 60.5189 82.2375L60.53 82.2292" stroke="#FF71E1" stroke-width="0.5" stroke-miterlimit="10"/>
<path d="M29.9178 70.1752L4.16677 58.9616L7.95239 30.1202" stroke="#FF71E1" stroke-width="0.5" stroke-miterlimit="10"/>
<path d="M8.89526 29.3392L5.10775 58.1772L30.8614 69.3915" stroke="#FF71E1" stroke-width="0.5" stroke-miterlimit="10"/>
<path d="M61.4775 81.4437L61.4748 81.4429C61.4376 81.4811 61.3966 81.5125 61.3557 81.5438L61.3438 81.5547C61.2028 81.6608 61.0504 81.7462 60.8848 81.8076C60.6805 81.8923 60.4649 81.9363 60.2371 81.9421C59.9849 81.9523 59.7176 81.9149 59.4482 81.825C59.36 81.7994 59.2707 81.7676 59.1838 81.7279L38.7236 72.8176C37.2606 72.1786 36.2518 70.3369 36.4669 68.7012L36.9449 65.0459C36.9759 64.8098 36.9794 64.5686 36.9626 64.3273" stroke="#FF71E1" stroke-width="0.5" stroke-miterlimit="10"/>
<path d="M95.608 87.9992C95.5065 87.9697 95.4039 87.9341 95.302 87.8958C95.2135 87.8614 95.123 87.8235 95.03 87.7849L79.9037 81.199C76.9689 79.9214 74.9392 76.2199 75.3705 72.9345L75.4607 72.2658C75.5647 71.46 75.3702 70.6047 74.9666 69.8703C74.5657 69.1366 73.9557 68.5238 73.2355 68.2105C72.1704 67.7478 71.1629 68.0631 70.624 68.9097C70.4988 69.101 70.4029 69.3211 70.3317 69.5657C70.2923 69.7012 70.2627 69.8426 70.2443 69.9958L70.1807 70.4732L70.0253 71.6649L69.8299 73.1535L69.7636 73.6503C69.709 74.067 69.5802 74.4302 69.3942 74.7308C69.3612 74.7846 69.3255 74.8376 69.2878 74.8873C69.2602 74.9225 69.2318 74.9603 69.2023 74.9921C69.1401 75.0663 69.0742 75.1336 69.001 75.1959C68.9722 75.225 68.9389 75.25 68.9056 75.2749L68.8604 75.3107C68.8278 75.333 68.7953 75.3552 68.7635 75.3748C68.7352 75.3925 68.7103 75.4083 68.6827 75.4234C68.6544 75.4411 68.6268 75.4561 68.5973 75.4677C68.5526 75.4922 68.5059 75.5132 68.4573 75.5308C68.4462 75.5391 68.4393 75.5429 68.4313 75.5405C68.227 75.6253 68.0113 75.6692 67.7836 75.675C67.549 75.6846 67.3065 75.6516 67.058 75.5793" stroke="#FF71E1" stroke-width="0.5" stroke-miterlimit="10"/>
<path d="M67.5522 76.4006C67.867 77.0717 68.0108 77.8228 67.9143 78.5329L67.8276 79.1997C67.3955 82.4878 69.4233 86.1858 72.3581 87.4634L87.4836 94.052C88.469 94.4799 89.4306 94.5809 90.2913 94.4017C90.5008 94.3588 90.7062 94.3004 90.9036 94.2194C91.0952 94.1483 91.2808 94.0581 91.457 93.9508C91.6212 93.8544 91.7771 93.7469 91.9261 93.6231L91.9415 93.6102L91.9441 93.611L91.9644 93.591L91.9832 93.5762" stroke="#FF71E1" stroke-width="0.5" stroke-miterlimit="10"/>
<path d="M67.5135 76.3142C67.5135 76.3142 67.5106 76.3048 67.5061 76.3007" stroke="#FF71E1" stroke-width="0.5" stroke-miterlimit="10"/>
<path d="M124.753 98.92C124.529 98.9555 124.301 98.9815 124.072 99.0014C123.838 99.0198 123.599 99.0313 123.358 99.0332C123.113 99.0397 122.866 99.034 122.615 99.0188C121.783 98.9699 120.928 98.822 120.057 98.5686C119.52 98.4124 118.98 98.2151 118.435 97.9785C113.501 95.8312 109.627 90.8607 108.063 85.3573C107.665 83.9582 106.668 82.7717 105.496 82.2604L104.799 81.9567C103.546 81.4107 102.354 81.7443 101.673 82.6882C101.543 82.8666 101.433 83.0679 101.345 83.2903C101.305 83.3882 101.268 83.493 101.237 83.5993C101.194 83.7482 101.16 83.9055 101.136 84.0685C101.131 84.0959 101.126 84.1206 101.124 84.1487C101.084 84.4658 101.019 84.767 100.937 85.0515C100.83 85.4183 100.694 85.7565 100.526 86.0651C100.342 86.4067 100.125 86.7155 99.877 86.9806C99.6155 87.2621 99.3239 87.4973 99.0023 87.6863C98.9671 87.7078 98.9319 87.7292 98.8956 87.7446C98.7485 87.8316 98.5982 87.9003 98.4447 87.9595C98.2481 88.0378 98.0454 88.097 97.8359 88.1399C97.642 88.1786 97.446 88.2052 97.243 88.2154" stroke="#FF71E1" stroke-width="0.5" stroke-miterlimit="10"/>
<path d="M122.175 102.754C121.883 103.03 121.574 103.286 121.251 103.521C121.084 103.645 120.912 103.759 120.738 103.87C120.568 103.976 120.393 104.078 120.215 104.173C118.012 105.369 115.33 105.653 112.506 104.832C111.972 104.676 111.431 104.481 110.889 104.246C105.959 102.096 102.082 97.1252 100.517 91.6244C100.129 90.2513 99.1664 89.0863 98.0239 88.5607" stroke="#FF71E1" stroke-width="0.5" stroke-miterlimit="10"/>
<path d="M31.8053 68.6079L6.05159 57.3936L9.83911 28.5556" stroke="#FF71E1" stroke-width="0.5" stroke-miterlimit="10"/>
<path d="M37.906 63.5436C37.9254 63.7857 37.9192 64.0261 37.8882 64.2622L37.4102 67.9175C37.1952 69.5532 38.2039 71.395 39.6643 72.0331L60.1271 80.9442C60.2141 80.9839 60.3034 81.0157 60.3916 81.0413C60.661 81.1313 60.9283 81.1687 61.1805 81.1584C61.4082 81.1526 61.6239 81.1086 61.8274 81.0266C61.9965 80.9633 62.1523 80.876 62.2948 80.7646L62.3059 80.7563C62.3427 80.7295 62.3775 80.6993 62.4097 80.6683" stroke="#FF71E1" stroke-width="0.5" stroke-miterlimit="10"/>
<path d="M41.1145 43.5216C41.1832 43.455 41.2565 43.3926 41.3363 43.3378L41.3378 43.3325" stroke="#FF71E1" stroke-width="0.5" stroke-miterlimit="10"/>
<path d="M72.5209 58.3729L72.6932 58.2295" stroke="#FF71E1" stroke-width="0.5" stroke-miterlimit="10"/>
<path d="M92.9147 92.8036L92.912 92.8028L92.8848 92.8266L92.8694 92.8395C92.7204 92.9633 92.5645 93.0708 92.4003 93.1672C92.2242 93.2745 92.0359 93.3639 91.8435 93.4377C91.6468 93.516 91.4441 93.5752 91.2346 93.6181C91.0147 93.6666 90.7869 93.6926 90.5523 93.7022C89.879 93.7254 89.1597 93.5883 88.4269 93.2684L73.3006 86.6825C70.3666 85.4022 68.3362 81.7034 68.7674 78.4179L68.8576 77.7493C68.9522 77.0358 68.8085 76.2847 68.4963 75.6144" stroke="#FF71E1" stroke-width="0.5" stroke-miterlimit="10"/>
<path d="M123.118 101.971C122.822 102.253 122.505 102.516 122.175 102.754C122.012 102.874 121.843 102.987 121.673 103.093C121.503 103.199 121.329 103.301 121.153 103.397C120.978 103.493 120.791 103.586 120.604 103.67C118.515 104.628 116.043 104.805 113.454 104.052C112.917 103.896 112.378 103.699 111.832 103.462C106.899 101.315 103.025 96.3415 101.461 90.8407C101.07 89.4669 100.107 88.3018 98.9641 87.7789C98.9534 87.7758 98.9427 87.7727 98.9336 87.7643" stroke="#FF71E1" stroke-width="0.5" stroke-miterlimit="10"/>
<path d="M98.8959 87.7447C98.9323 87.7293 98.9675 87.7078 99.0027 87.6864C99.3243 87.4974 99.6159 87.2621 99.8774 86.9807C100.126 86.7155 100.343 86.4068 100.526 86.0652C100.694 85.7565 100.83 85.4184 100.937 85.0515C101.02 84.7671 101.084 84.4658 101.124 84.1488C101.127 84.1206 101.131 84.0959 101.136 84.0686C101.16 83.9055 101.195 83.7482 101.238 83.5994C101.269 83.493 101.305 83.3883 101.345 83.2904C101.433 83.068 101.544 82.8666 101.674 82.6882C102.354 81.7444 103.547 81.4108 104.799 81.9568L105.496 82.2605C106.669 82.7717 107.665 83.9583 108.064 85.3573C109.627 90.8607 113.502 95.8313 118.435 97.9786C118.981 98.2151 119.52 98.4125 120.057 98.5687C120.928 98.8221 121.783 98.97 122.615 99.0188C122.866 99.0341 123.113 99.0398 123.359 99.0333C123.6 99.0313 123.838 99.0198 124.072 99.0015C124.301 98.9816 124.529 98.9556 124.754 98.9201C124.975 98.8864 125.193 98.8433 125.407 98.7959" stroke="#FF71E1" stroke-width="0.5" stroke-miterlimit="10"/>
<path d="M32.7481 67.827L6.99519 56.6101L10.7827 27.772" stroke="#FF71E1" stroke-width="0.5" stroke-miterlimit="10"/>
<path d="M63.3614 79.8784C63.3208 79.9184 63.279 79.9524 63.2319 79.9848C63.0929 80.0943 62.9371 80.1816 62.7714 80.243C62.5679 80.3251 62.3496 80.3682 62.1218 80.3741C61.8696 80.3843 61.605 80.3477 61.3356 80.2578C61.2474 80.2321 40.6083 71.2496 40.6083 71.2496C39.1472 70.6141 38.1384 68.7723 38.3516 67.1332L38.8323 63.4786C38.91 62.8727 38.822 62.2387 38.6013 61.6526" stroke="#FF71E1" stroke-width="0.5" stroke-miterlimit="10"/>
<path d="M42.2617 42.5665L42.2814 42.549L42.2919 42.5433" stroke="#FF71E1" stroke-width="0.5" stroke-miterlimit="10"/>
<path d="M42.0579 42.7377L42.0552 42.7369C41.9417 42.8481 41.8393 42.9711 41.7525 43.1102C41.6272 43.3015 41.526 43.52 41.4556 43.7619C41.4139 43.9055 41.3805 44.0601 41.3597 44.2213L41.3369 44.3992" stroke="#FF71E1" stroke-width="0.5" stroke-miterlimit="10"/>
<path d="M93.8409 92.0321L93.8393 92.0374C93.6834 92.165 93.5191 92.2816 93.3445 92.3836C93.1684 92.4909 92.9828 92.5811 92.7869 92.6568C92.5902 92.7351 92.3841 92.7962 92.1719 92.8383C91.9528 92.8841 91.7277 92.9109 91.4965 92.9186C91.2478 92.9269 90.9938 92.9136 90.7352 92.8759C90.2919 92.8161 89.8342 92.6858 89.3711 92.4848L74.2448 85.8989C71.3101 84.6213 69.2804 80.9198 69.7117 77.6343L69.7992 76.9649C69.8977 76.218 69.7392 75.428 69.3943 74.7308" stroke="#FF71E1" stroke-width="0.5" stroke-miterlimit="10"/>
<path d="M73.6253 57.4568C73.5809 57.4901 73.5391 57.524 73.4992 57.5615C73.3613 57.677 73.2344 57.8044 73.1166 57.9403C72.9751 58.0981 72.8431 58.273 72.7255 58.458C72.6956 58.5011 72.6683 58.5451 72.641 58.5891" stroke="#FF71E1" stroke-width="0.5" stroke-miterlimit="10"/>
<path d="M108.931 73.2001C108.689 73.5247 108.383 73.7674 108.041 73.9186C107.864 73.9997 107.679 74.0583 107.484 74.091C107.349 74.1153 107.21 74.1266 107.068 74.1257C107.004 74.1272 106.94 74.1261 106.876 74.1188" stroke="#FF71E1" stroke-width="0.5" stroke-miterlimit="10"/>
<path d="M124.072 99.0014C124.301 98.9815 124.528 98.9555 124.753 98.92C124.974 98.8863 125.193 98.8431 125.406 98.7957C125.618 98.7476 125.825 98.6925 126.031 98.6314" stroke="#FF71E1" stroke-width="0.5" stroke-miterlimit="10"/>
<path d="M99.8772 86.9807C101.033 87.4987 102.01 88.6738 102.405 90.0572C103.968 95.5606 107.842 100.531 112.776 102.678C113.321 102.915 113.861 103.112 114.398 103.269C116.752 103.953 119.008 103.869 120.97 103.13C121.163 103.054 121.357 102.975 121.545 102.888C121.735 102.802 121.918 102.711 122.1 102.612C122.283 102.512 122.447 102.415 122.617 102.309C122.787 102.203 122.956 102.091 123.118 101.971C123.456 101.726 123.781 101.457 124.086 101.165" stroke="#FF71E1" stroke-width="0.5" stroke-miterlimit="10"/>
<path d="M123.81 99.7037C123.585 99.7392 123.357 99.7652 123.128 99.7851C122.894 99.8035 122.658 99.8157 122.417 99.8177C121.352 99.8336 120.246 99.6819 119.113 99.3523C118.576 99.1961 118.036 98.9988 117.491 98.7622C112.56 96.6157 108.683 91.6444 107.12 86.141C106.721 84.742 105.725 83.5554 104.552 83.0441L103.858 82.7412C103.068 82.3963 102.302 82.4011 101.674 82.6883" stroke="#FF71E1" stroke-width="0.5" stroke-miterlimit="10"/>
<path d="M11.7236 26.9875L11.7229 26.9902L7.93878 55.8264L33.6917 67.0433" stroke="#FF71E1" stroke-width="0.5" stroke-miterlimit="10"/>
<path d="M64.2639 79.1288L64.2068 79.1756C64.0585 79.2968 63.895 79.3905 63.7156 79.4594C63.5121 79.5415 63.2938 79.5847 63.066 79.5905C62.8138 79.6007 62.5492 79.5641 62.2771 79.4734C62.1916 79.4486 41.5525 70.466 41.5525 70.466C40.0914 69.8305 39.08 67.9879 39.295 66.3522L39.7765 62.695C39.8832 61.8899 39.6867 61.0312 39.2831 60.2968C39.1597 60.0735 39.0183 59.8623 38.8608 59.6665" stroke="#FF71E1" stroke-width="0.5" stroke-miterlimit="10"/>
<path d="M43.2365 41.7544L43.2349 41.7597C43.1518 41.8163 43.0717 41.8823 42.9989 41.9534L42.9974 41.9587C42.882 42.0665 42.7822 42.1902 42.6927 42.3286C42.5702 42.5207 42.4697 42.7365 42.3993 42.9784C42.3568 43.1246 42.0189 45.6011 42.0189 45.6011" stroke="#FF71E1" stroke-width="0.5" stroke-miterlimit="10"/>
<path d="M96.3936 88.176C96.1564 88.1445 95.9167 88.0921 95.6735 88.0213" stroke="#FF71E1" stroke-width="0.5" stroke-miterlimit="10"/>
<path d="M69.8296 73.1536C69.9863 73.352 70.1277 73.5632 70.2511 73.7865C70.652 74.5202 70.8492 75.3762 70.7425 76.1813L70.655 76.8507C70.2238 80.1362 72.2534 83.8377 75.1882 85.1153L90.3137 91.7038C90.5296 91.7984 90.7414 91.8773 90.9551 91.9395C91.1983 92.0102 91.4407 92.0634 91.6778 92.0949C91.9364 92.1326 92.1904 92.146 92.4365 92.1368C92.6703 92.1299 92.8954 92.1031 93.1153 92.0546C93.3248 92.0118 93.5302 91.9533 93.7268 91.875C93.9192 91.8013 94.1075 91.7119 94.2837 91.6045C94.4341 91.5157 94.5781 91.4191 94.7145 91.3089L94.844 91.2024" stroke="#FF71E1" stroke-width="0.5" stroke-miterlimit="10"/>
<path d="M74.5382 56.6989C74.5125 56.7174 74.4895 56.7366 74.4665 56.7559C74.3209 56.8779 74.1856 57.0144 74.0567 57.1586C73.9179 57.3171 73.7874 57.4867 73.6698 57.6717C73.5454 57.8604 73.4354 58.059 73.3384 58.273C73.2364 58.4942 73.1481 58.728 73.0762 58.9752C73.0607 59.0284 73.0445 59.0842 73.0309 59.1408" stroke="#FF71E1" stroke-width="0.5" stroke-miterlimit="10"/>
<path d="M106.942 73.9306L106.726 74.1069L106.811 74.1143C106.833 74.1178 106.856 74.1187 106.876 74.1189C106.941 74.1261 107.004 74.1273 107.068 74.1258C107.21 74.1266 107.349 74.1153 107.484 74.091C107.679 74.0584 107.864 73.9998 108.041 73.9187C108.384 73.7675 108.689 73.5247 108.931 73.2002C108.996 73.118 109.056 73.0316 109.108 72.9403C109.172 72.8292 109.242 72.7197 109.312 72.6102" stroke="#FF71E1" stroke-width="0.5" stroke-miterlimit="10"/>
<path d="M124.071 99.0015C124.3 98.9816 124.528 98.9556 124.753 98.9201C124.974 98.8864 125.193 98.8433 125.406 98.7959C125.617 98.7477 125.825 98.6927 126.031 98.6315C126.232 98.5689 126.43 98.5027 126.628 98.4305" stroke="#FF71E1" stroke-width="0.5" stroke-miterlimit="10"/>
<path d="M100.526 86.0651L100.78 86.1766C101.953 86.6879 102.95 87.8745 103.348 89.2735C104.912 94.7769 108.786 99.7474 113.719 101.895C114.265 102.131 114.804 102.329 115.339 102.484C117.463 103.102 119.503 103.093 121.32 102.543C121.52 102.483 121.719 102.417 121.912 102.341C122.11 102.268 122.301 102.189 122.492 102.103C122.679 102.016 122.862 101.925 123.041 101.827C123.223 101.73 123.398 101.628 123.572 101.517C123.749 101.407 123.919 101.29 124.086 101.165C124.408 100.933 124.714 100.679 125.006 100.403" stroke="#FF71E1" stroke-width="0.5" stroke-miterlimit="10"/>
<path d="M12.6704 26.2047L12.667 26.2066L8.8821 55.0454L34.6358 66.2597" stroke="#FF71E1" stroke-width="0.5" stroke-miterlimit="10"/>
<path d="M39.6543 55.4227C40.1439 55.2335 40.7254 55.247 41.3247 55.5078C42.045 55.8212 42.653 56.4305 43.0566 57.165C43.4575 57.8986 43.6521 58.7539 43.5472 59.5624L43.0692 63.2177C42.8534 64.8561 43.8622 66.6979 45.326 67.3342C45.326 67.3342 66.1112 76.3621 66.1166 76.3637L66.1193 76.3645C66.3677 76.4367 66.6083 76.4664 66.8395 76.4587C67.0672 76.4528 67.2863 76.407 67.4899 76.3249C67.4952 76.3265 67.5048 76.3235 67.5132 76.3144C67.6701 76.2534 67.819 76.1698 67.9538 76.0649C67.994 76.0362 68.0323 76.0041 68.068 75.9712" stroke="#FF71E1" stroke-width="0.5" stroke-miterlimit="10"/>
<path d="M65.2225 78.3323L65.157 78.3882C65.013 78.5049 64.8556 78.5975 64.685 78.6661C64.6746 78.6717 64.6677 78.6755 64.659 78.6758C64.4554 78.7579 64.2371 78.8011 64.0094 78.8069C63.7572 78.8172 63.4899 78.7798 63.2205 78.6898C63.1323 78.6642 42.4958 69.6824 42.4958 69.6824C41.0347 69.0469 40.0233 67.2043 40.2383 65.5687L40.7198 61.9115C40.8238 61.1056 40.6293 60.2503 40.2257 59.5159C39.9349 58.9815 39.5323 58.5126 39.0566 58.1753" stroke="#FF71E1" stroke-width="0.5" stroke-miterlimit="10"/>
<path d="M44.1564 40.9927L44.176 40.9753" stroke="#FF71E1" stroke-width="0.5" stroke-miterlimit="10"/>
<path d="M42.7665 46.3087L43.2472 42.6542C43.268 42.493 43.3006 42.341 43.3424 42.1975C43.4128 41.9556 43.5113 41.7363 43.6366 41.5449C43.7261 41.4066 43.8258 41.2828 43.9385 41.1744" stroke="#FF71E1" stroke-width="0.5" stroke-miterlimit="10"/>
<path d="M96.2113 89.0023C96.2404 89.0021 96.2667 89.0011 96.2939 88.9975C96.4995 88.9881 96.6982 88.9623 96.8921 88.9236C97.1031 88.8754 97.3085 88.8169 97.5052 88.7386C97.6586 88.6794 97.8097 88.6081 97.9552 88.5264C97.9915 88.511 98.0268 88.4896 98.0593 88.4673" stroke="#FF71E1" stroke-width="0.5" stroke-miterlimit="10"/>
<path d="M95.9499 89.7019C96.1595 89.659 96.3648 89.6006 96.5622 89.5196C96.7149 89.4631 96.866 89.3917 97.0115 89.3101C97.0486 89.292 97.0839 89.2706 97.1191 89.2491C97.2626 89.164 97.4032 89.0694 97.5388 88.9618L97.6036 88.9085" stroke="#FF71E1" stroke-width="0.5" stroke-miterlimit="10"/>
<path d="M95.6739 88.0214C95.9171 88.0921 96.1568 88.1445 96.394 88.176C96.6525 88.2138 96.9065 88.2271 97.1553 88.2187" stroke="#FF71E1" stroke-width="0.5" stroke-miterlimit="10"/>
<path d="M70.0249 71.6649C70.4986 71.9988 70.9012 72.4677 71.192 73.0021C71.5956 73.7365 71.7902 74.5918 71.6854 75.4003L71.5986 76.067C71.1674 79.3525 73.1971 83.054 76.1318 84.3316L91.2573 90.9202C91.3477 90.958 91.4382 90.9958 91.5267 91.0302C91.6518 91.0782 91.7759 91.12 91.8988 91.1558C92.1419 91.2265 92.3816 91.2789 92.618 91.3131C92.8773 91.3482 93.1313 91.3615 93.3801 91.3532C93.6139 91.3462 93.8391 91.3194 94.0589 91.271C94.2711 91.2289 94.4772 91.1678 94.6739 91.0895C94.83 91.0311 94.9811 90.9597 95.1266 90.878C95.1603 90.8619 95.1947 90.8431 95.2273 90.8208C95.3777 90.732 95.5217 90.6355 95.6554 90.5244C95.706 90.4901 95.7493 90.4508 95.7926 90.4115" stroke="#FF71E1" stroke-width="0.5" stroke-miterlimit="10"/>
<path d="M73.7347 59.7983L73.8222 59.1289C73.8269 59.0928 73.8324 59.054 73.8371 59.0179C73.8809 58.7279 73.941 58.4513 74.0195 58.1916C74.0914 57.9444 74.1797 57.7106 74.2844 57.4902C74.3788 57.2754 74.4895 57.0741 74.6166 56.8862C74.7307 56.7031 74.8612 56.5335 74.9993 56.3776C75.1339 56.2236 75.283 56.0795 75.4363 55.9511L75.4516 55.9383" stroke="#FF71E1" stroke-width="0.5" stroke-miterlimit="10"/>
<path d="M109.68 72.0688C109.551 72.2445 109.426 72.4245 109.311 72.6102C109.242 72.7197 109.172 72.8292 109.108 72.9403C109.055 73.0317 108.995 73.118 108.931 73.2002C108.689 73.5247 108.383 73.7675 108.041 73.9187C107.864 73.9998 107.679 74.0584 107.484 74.0911C107.349 74.1153 107.21 74.1267 107.068 74.1258C107.004 74.1273 106.94 74.1261 106.876 74.1189C106.856 74.1188 106.833 74.1179 106.81 74.1143" stroke="#FF71E1" stroke-width="0.5" stroke-miterlimit="10"/>
<path d="M108.101 72.9873C108.101 72.9873 108.094 72.991 108.092 72.9962" stroke="#FF71E1" stroke-width="0.5" stroke-miterlimit="10"/>
<path d="M107.39 73.5562L107.367 73.5775" stroke="#FF71E1" stroke-width="0.5" stroke-miterlimit="10"/>
<path d="M107.889 73.1478L107.87 73.1625" stroke="#FF71E1" stroke-width="0.5" stroke-miterlimit="10"/>
<path d="M124.072 99.0014C124.301 98.9815 124.529 98.9555 124.753 98.92C124.975 98.8864 125.193 98.8432 125.407 98.7958C125.618 98.7477 125.825 98.6926 126.031 98.6315C126.232 98.5688 126.431 98.5027 126.629 98.4305C126.825 98.3548 127.016 98.275 127.207 98.1864" stroke="#FF71E1" stroke-width="0.5" stroke-miterlimit="10"/>
<path d="M100.937 85.0515C100.965 85.0627 100.996 85.0747 101.027 85.0893L101.724 85.393C102.897 85.9043 103.893 87.0909 104.291 88.4925C105.855 93.9933 109.73 98.9638 114.663 101.111C115.209 101.348 115.748 101.545 116.285 101.701C118.166 102.248 119.981 102.304 121.635 101.928C121.846 101.88 122.051 101.824 122.256 101.766C122.457 101.703 122.657 101.635 122.854 101.562C123.049 101.489 123.242 101.407 123.432 101.321C123.622 101.235 123.806 101.141 123.987 101.044C124.163 100.948 124.338 100.846 124.508 100.74C124.678 100.634 124.84 100.523 125.006 100.403C125.343 100.159 125.668 99.8897 125.973 99.5978" stroke="#FF71E1" stroke-width="0.5" stroke-miterlimit="10"/>
<path d="M39.2114 56.9862C39.2862 57.008 39.3606 57.0411 39.4385 57.0724C40.1587 57.3858 40.766 57.9978 41.1696 58.7322C41.5731 59.4666 41.7704 60.3227 41.6629 61.1305L41.1822 64.785C40.9672 66.4207 41.9786 68.2632 43.4389 68.9014C43.4389 68.9014 64.2109 77.9255 64.2322 77.9317C64.4807 78.004 64.7213 78.0336 64.9525 78.0259C65.1802 78.0201 65.3958 77.9761 65.5994 77.8941C65.6082 77.8937 65.6185 77.8881 65.6281 77.8851C65.783 77.8206 65.9319 77.7371 66.066 77.6348L66.2005 77.5211" stroke="#FF71E1" stroke-width="0.5" stroke-miterlimit="10"/>
<path d="M45.0861 40.2169L45.1016 40.2039L45.1197 40.1917" stroke="#FF71E1" stroke-width="0.5" stroke-miterlimit="10"/>
<path d="M44.8953 40.377L44.8834 40.388C44.7699 40.4991 44.6701 40.6229 44.5806 40.7612C44.4554 40.9526 44.3569 41.1719 44.2865 41.4138C44.2447 41.5573 44.2121 41.7093 44.1913 41.8705L43.5552 46.7167" stroke="#FF71E1" stroke-width="0.5" stroke-miterlimit="10"/>
<path d="M95.6739 88.0214C95.9171 88.0921 96.1568 88.1445 96.394 88.176C96.6525 88.2138 96.9065 88.2271 97.1553 88.2187" stroke="#FF71E1" stroke-width="0.5" stroke-miterlimit="10"/>
<path d="M70.1804 70.4732C70.2545 70.4976 70.3296 70.5281 70.4048 70.5587C71.1242 70.8746 71.7323 71.484 72.1359 72.2184C72.5395 72.9529 72.7359 73.8116 72.6292 74.6167L72.5425 75.2834C72.1104 78.5715 74.1409 82.2704 77.0756 83.548L92.1985 90.1358C92.2889 90.1736 92.3793 90.2114 92.4705 90.2466C92.575 90.2857 92.6777 90.3213 92.7792 90.3508C92.7998 90.3597 92.8212 90.3659 92.8426 90.3721C93.0857 90.4429 93.3255 90.4953 93.5626 90.5268C93.8211 90.5646 94.0751 90.5779 94.3239 90.5695C94.3529 90.5693 94.3793 90.5684 94.4064 90.5647C94.612 90.5553 94.8116 90.5269 95.0054 90.4881C95.2157 90.4426 95.4211 90.3841 95.6185 90.3032C95.7711 90.2467 95.9223 90.1753 96.0677 90.0936C96.1049 90.0756 96.1428 90.0549 96.178 90.0335C96.3181 89.9502 96.4518 89.8594 96.5797 89.7582L96.7357 89.6306" stroke="#FF71E1" stroke-width="0.5" stroke-miterlimit="10"/>
<path d="M97.2404 88.2146C97.2133 88.2182 97.1842 88.2184 97.1551 88.2186" stroke="#FF71E1" stroke-width="0.5" stroke-miterlimit="10"/>
<path d="M97.8332 88.1391C97.6394 88.1779 97.4433 88.2045 97.2404 88.2146" stroke="#FF71E1" stroke-width="0.5" stroke-miterlimit="10"/>
<path d="M76.3957 55.1547L76.3804 55.1676C76.2271 55.296 76.078 55.44 75.9434 55.594C75.8018 55.7518 75.674 55.9222 75.5573 56.1045C75.4336 56.2905 75.3255 56.4926 75.2293 56.7039C75.1246 56.9243 75.0355 57.1608 74.9636 57.408C74.8851 57.6677 74.825 57.9443 74.7812 58.2343C74.7765 58.2704 74.771 58.3092 74.7663 58.3453L74.6529 59.2033L74.5214 60.203" stroke="#FF71E1" stroke-width="0.5" stroke-miterlimit="10"/>
<path d="M109.047 72.2045C109.047 72.2045 109.037 72.2102 109.036 72.2128L108.869 72.3376" stroke="#FF71E1" stroke-width="0.5" stroke-miterlimit="10"/>
<path d="M108.101 72.9873C108.101 72.9873 108.094 72.9911 108.092 72.9964C107.945 73.1351 107.798 73.2799 107.661 73.4332C107.515 73.5867 107.376 73.7453 107.241 73.9107C107.183 73.9803 107.124 74.0526 107.068 74.1257C107.21 74.1266 107.349 74.1153 107.484 74.091C107.679 74.0583 107.864 73.9997 108.041 73.9186C108.384 73.7674 108.689 73.5247 108.931 73.2001C108.996 73.118 109.056 73.0316 109.108 72.9402C109.172 72.8292 109.242 72.7196 109.312 72.6101C109.426 72.4244 109.551 72.2445 109.681 72.0687C109.804 71.8941 109.934 71.7245 110.069 71.5617" stroke="#FF71E1" stroke-width="0.5" stroke-miterlimit="10"/>
<path d="M124.072 99.0014C124.301 98.9815 124.529 98.9555 124.754 98.92C124.975 98.8864 125.193 98.8432 125.407 98.7958C125.618 98.7477 125.825 98.6926 126.031 98.6315C126.232 98.5688 126.431 98.5027 126.629 98.4305C126.825 98.3548 127.016 98.275 127.207 98.1864C127.394 98.1023 127.577 98.0113 127.753 97.9127" stroke="#FF71E1" stroke-width="0.5" stroke-miterlimit="10"/>
<path d="M126.89 98.838C126.602 99.1117 126.293 99.3651 125.973 99.5979C125.807 99.7224 125.634 99.8393 125.457 99.9493C125.289 100.056 125.115 100.158 124.936 100.256C124.754 100.353 124.567 100.446 124.38 100.533C124.189 100.621 123.998 100.701 123.803 100.774C123.604 100.849 123.405 100.915 123.204 100.978C122.998 101.039 122.788 101.093 122.577 101.141C122.363 101.191 122.145 101.232 121.926 101.266C120.448 101.497 118.859 101.392 117.221 100.915C116.687 100.76 116.146 100.565 115.604 100.329C110.674 98.1802 106.796 93.2089 105.232 87.7082C104.834 86.3065 103.841 85.1207 102.665 84.6086L101.971 84.3058C101.688 84.183 101.407 84.1041 101.136 84.0686" stroke="#FF71E1" stroke-width="0.5" stroke-miterlimit="10"/>
<path d="M14.554 24.6393L10.7691 53.4782L36.5201 64.6917" stroke="#FF71E1" stroke-width="0.5" stroke-miterlimit="10"/>
<path d="M39.3621 56.0786C39.6865 56.0692 40.029 56.1371 40.3811 56.2914C41.1013 56.6047 41.712 57.2149 42.113 57.9485C42.5139 58.6822 42.7103 59.5409 42.6036 60.346L42.1256 64.0013C41.9106 65.637 42.922 67.4795 44.3823 68.1177C44.3823 68.1177 65.0188 77.0995 65.107 77.1252C65.1276 77.134 65.1489 77.1402 65.1703 77.1465C65.4188 77.2187 65.6613 77.2518 65.8959 77.2422C66.1236 77.2364 66.3427 77.1905 66.5455 77.1111" stroke="#FF71E1" stroke-width="0.5" stroke-miterlimit="10"/>
<path d="M66.5718 77.1014C66.7103 77.0437 66.8412 76.9722 66.9653 76.8843L67.1143 76.7605" stroke="#FF71E1" stroke-width="0.5" stroke-miterlimit="10"/>
<path d="M67.5056 76.3006C67.5056 76.3006 67.4951 76.3172 67.4903 76.3242" stroke="#FF71E1" stroke-width="0.5" stroke-miterlimit="10"/>
<path d="M46.0643 39.4082L46.003 39.4575" stroke="#FF71E1" stroke-width="0.5" stroke-miterlimit="10"/>
<path d="M45.8805 39.5594L45.8268 39.6044C45.7133 39.7155 45.6136 39.8393 45.5241 39.9776C45.3989 40.169 45.3003 40.3883 45.2299 40.6302C45.1882 40.7737 45.1548 40.9284 45.134 41.0895C45.134 41.0895 44.3863 46.7078 44.3469 46.8433" stroke="#FF71E1" stroke-width="0.5" stroke-miterlimit="10"/>
<path d="M97.2404 88.2146C97.2133 88.2182 97.1842 88.2184 97.1551 88.2186" stroke="#FF71E1" stroke-width="0.5" stroke-miterlimit="10"/>
<path d="M95.6739 88.0214C95.9171 88.0921 96.1568 88.1445 96.394 88.176C96.6525 88.2138 96.9065 88.2271 97.1553 88.2187" stroke="#FF71E1" stroke-width="0.5" stroke-miterlimit="10"/>
<path d="M95.9496 89.7018C95.755 89.7432 95.5555 89.7717 95.3499 89.781C95.3228 89.7847 95.2964 89.7857 95.2674 89.7859C95.0186 89.7942 94.7646 89.7809 94.5061 89.7432C94.2689 89.7117 94.0292 89.6592 93.786 89.5885C93.7647 89.5823 93.7433 89.576 93.7219 89.5698C93.6204 89.5403 93.5177 89.5047 93.4159 89.4664C93.3247 89.4312 93.2335 89.396 93.1412 89.3547L78.0149 82.7688C75.0809 81.4886 73.0531 77.7905 73.4844 74.5051L73.5719 73.8357C73.6767 73.0271 73.4821 72.1719 73.0786 71.4374C72.6776 70.7038 72.0669 70.0936 71.3467 69.7803C70.9972 69.6267 70.6521 69.5581 70.3304 69.5683" stroke="#FF71E1" stroke-width="0.5" stroke-miterlimit="10"/>
<path d="M97.2407 88.2147C97.4436 88.2045 97.6397 88.1779 97.8335 88.1392C98.043 88.0963 98.2457 88.0371 98.4424 87.9588" stroke="#FF71E1" stroke-width="0.5" stroke-miterlimit="10"/>
<path d="M75.3133 60.3296C75.3528 60.194 75.3823 60.0527 75.4008 59.8995L75.4506 59.519L75.5966 58.4196L75.7099 57.5617C75.7154 57.5229 75.7201 57.4868 75.7256 57.448C75.7686 57.1607 75.828 56.8868 75.9065 56.627C75.9784 56.3798 76.0675 56.1433 76.1722 55.923C76.2658 55.7109 76.3765 55.5095 76.5002 55.3235C76.6177 55.1386 76.7455 54.9682 76.8871 54.8104C77.0259 54.6518 77.175 54.5078 77.3352 54.3756" stroke="#FF71E1" stroke-width="0.5" stroke-miterlimit="10"/>
<path d="M110.488 71.0869C110.342 71.2405 110.203 71.399 110.069 71.5618C109.934 71.7245 109.804 71.8942 109.681 72.0688C109.551 72.2445 109.426 72.4245 109.312 72.6102C109.242 72.7197 109.173 72.8292 109.108 72.9403C109.056 73.0316 108.996 73.118 108.931 73.2002C108.689 73.5247 108.384 73.7675 108.041 73.9187C107.864 73.9998 107.679 74.0584 107.484 74.091C107.582 73.9349 107.687 73.7811 107.797 73.6342C107.921 73.4569 108.051 73.2872 108.189 73.1226C108.32 72.959 108.459 72.8032 108.601 72.6515C108.741 72.499 108.885 72.3534 109.036 72.2128C109.037 72.2102 109.038 72.2075 109.047 72.2045C109.091 72.1626 109.134 72.1233 109.178 72.084" stroke="#FF71E1" stroke-width="0.5" stroke-miterlimit="10"/>
<path d="M109.978 71.4286C109.955 71.4454 109.933 71.4595 109.914 71.4771" stroke="#FF71E1" stroke-width="0.5" stroke-miterlimit="10"/>
<path d="M124.072 99.0014C124.301 98.9815 124.529 98.9555 124.753 98.92C124.975 98.8864 125.193 98.8432 125.407 98.7958C125.618 98.7477 125.825 98.6926 126.031 98.6315C126.232 98.5688 126.431 98.5027 126.629 98.4305C126.825 98.3548 127.016 98.275 127.207 98.1864C127.394 98.1023 127.577 98.0113 127.753 97.9127C127.934 97.8184 128.109 97.7163 128.279 97.6074" stroke="#FF71E1" stroke-width="0.5" stroke-miterlimit="10"/>
<path d="M101.345 83.2904C101.833 83.2162 102.367 83.2849 102.914 83.5249L103.608 83.8278C104.785 84.3372 105.778 85.523 106.176 86.9246C107.74 92.4254 111.617 97.3994 116.547 99.5459C117.093 99.7825 117.633 99.9798 118.17 100.136C119.556 100.539 120.91 100.677 122.187 100.57C122.416 100.55 122.641 100.523 122.866 100.487C123.088 100.454 123.306 100.411 123.52 100.363C123.731 100.315 123.938 100.26 124.144 100.199C124.345 100.136 124.544 100.07 124.742 99.9979C124.937 99.9222 125.129 99.8423 125.32 99.7537C125.506 99.6697 125.69 99.5761 125.872 99.479C126.05 99.3839 126.225 99.2818 126.396 99.1729C126.563 99.0659 126.728 98.9555 126.89 98.8381C127.22 98.5997 127.537 98.3373 127.834 98.0545" stroke="#FF71E1" stroke-width="0.5" stroke-miterlimit="10"/>
<path d="M37.4634 63.9107L11.7105 52.6937L15.498 23.8557" stroke="#FF71E1" stroke-width="0.5" stroke-miterlimit="10"/>
<path d="M68.4315 75.5405C68.2272 75.6252 68.0116 75.6692 67.7839 75.675C67.5493 75.6846 67.3068 75.6515 67.0583 75.5793C67.0369 75.573 67.0155 75.5668 66.9949 75.558C66.9068 75.5323 66.8175 75.5006 66.7305 75.4608L66.1957 75.2274L46.2703 66.5505C44.8066 65.9142 43.7978 64.0725 44.0136 62.4341L44.4916 58.7788C44.5983 57.9737 44.4019 57.115 43.9983 56.3805C43.5947 55.6461 42.9867 55.0367 42.2664 54.7234C41.204 54.2615 40.1965 54.5768 39.6549 55.4226C39.5331 55.6121 39.4338 55.8341 39.3626 56.0786C39.324 56.2115 39.2956 56.359 39.2752 56.5087L38.4075 63.1272L12.6546 51.9102L16.4421 23.0721L42.1924 34.2883L41.1065 42.5732C41.0653 42.8842 41.0703 43.2057 41.1147 43.5213C41.1262 43.6112 41.1431 43.7026 41.1627 43.7948C41.2044 44.0001 41.2644 44.2021 41.3375 44.3992C41.378 44.509 41.4246 44.6177 41.4746 44.7246C41.5141 44.8081 41.557 44.8898 41.5999 44.9715C41.7206 45.194 41.862 45.4053 42.0195 45.601C42.239 45.8725 42.4899 46.1156 42.767 46.3086C42.9465 46.4387 43.133 46.5448 43.331 46.6313C43.4061 46.6618 43.4813 46.6923 43.5553 46.7167C43.8266 46.8101 44.0932 46.8501 44.3473 46.8433C44.5777 46.8382 44.7952 46.7977 44.998 46.7183C45.1671 46.6551 45.3229 46.5678 45.4627 46.4556C45.7515 46.2398 45.9822 45.935 46.1386 45.5566C46.2242 45.3422 46.2877 45.1041 46.3222 44.846L47.0192 39.5215C47.04 39.3603 47.0734 39.2057 47.1151 39.0621C47.1855 38.8202 47.286 38.6044 47.4112 38.413C47.5237 38.2353 47.6576 38.0839 47.8082 37.9547C48.3834 37.4618 49.2014 37.3394 50.0552 37.7117L70.5154 46.622C71.9764 47.2576 72.9879 49.1001 72.7721 50.7385L72.0732 56.0595C71.9723 56.8346 72.1471 57.6581 72.5217 58.3726C72.5362 58.4028 72.5513 58.4302 72.5665 58.4577C72.576 58.4749 72.5874 58.4955 72.5977 58.51C72.6121 58.5402 72.6281 58.565 72.6413 58.589C72.7226 58.728 72.8123 58.8579 72.9055 58.9859C72.9481 59.0387 72.988 59.0907 73.0314 59.1408C73.2395 59.3916 73.4791 59.6141 73.7356 59.7983C73.9132 59.9249 74.1023 60.0319 74.2976 60.1175C74.3728 60.148 74.4479 60.1785 74.522 60.203C74.7933 60.2963 75.0599 60.3364 75.3139 60.3295C75.5436 60.3272 75.7619 60.284 75.9654 60.2019C76.1311 60.1405 76.2869 60.0532 76.4286 59.9445C76.7174 59.7287 76.9489 59.4212 77.1053 59.0429C77.1909 58.8284 77.2543 58.5903 77.2889 58.3322L77.3387 57.9517L77.4812 56.8542L77.5946 55.9963C77.5993 55.9602 77.6048 55.9214 77.6095 55.8853C77.6533 55.5953 77.7127 55.3214 77.7919 55.059C77.8638 54.8118 77.9513 54.5806 78.0534 54.3594C78.1504 54.1455 78.2603 53.9468 78.3848 53.7581C78.5016 53.5758 78.6294 53.4054 78.7709 53.2476C79.9266 51.9346 81.7654 51.5209 83.6888 52.3602L98.8151 58.9461C101.75 60.2237 103.78 63.9252 103.348 67.2106L103.129 68.8798C103 69.8715 103.24 70.9215 103.735 71.8269C104.23 72.7262 104.976 73.4795 105.864 73.8646C106.154 73.9923 106.444 74.0709 106.726 74.1069L106.811 74.1143C106.833 74.1178 106.856 74.1187 106.876 74.1188C106.941 74.1261 107.004 74.1272 107.068 74.1257C107.21 74.1266 107.35 74.1153 107.484 74.091C107.679 74.0583 107.864 73.9997 108.042 73.9186C108.384 73.7674 108.689 73.5247 108.932 73.2001C108.996 73.118 109.056 73.0316 109.109 72.9402C109.173 72.8292 109.242 72.7196 109.312 72.6101C109.427 72.4244 109.552 72.2445 109.681 72.0687C109.804 71.8941 109.935 71.7245 110.069 71.5617C110.203 71.399 110.342 71.2404 110.488 71.0868C110.625 70.9336 110.773 70.7861 110.921 70.6448C113.739 67.9815 117.887 67.2506 122.22 69.1398C125.777 70.6905 128.783 73.7045 130.772 77.3277C132.759 80.9536 133.725 85.1847 133.204 89.1676C132.727 92.8001 131.093 95.5974 128.778 97.2708" stroke="#FF71E1" stroke-width="0.5" stroke-miterlimit="10"/>
<path d="M95.6739 88.0214C95.9171 88.0921 96.1568 88.1445 96.394 88.176C96.6525 88.2138 96.9065 88.2271 97.1553 88.2187" stroke="#FF71E1" stroke-width="0.5" stroke-miterlimit="10"/>
<path d="M70.6237 68.9097C71.1141 68.7179 71.6948 68.734 72.2915 68.9941C73.0117 69.3074 73.6197 69.9168 74.0233 70.6512C74.4269 71.3857 74.6234 72.2444 74.5167 73.0495L74.4291 73.7189C73.9979 77.0043 76.0249 80.705 78.9597 81.9826L94.0859 88.5685C94.1763 88.6064 94.2668 88.6442 94.358 88.6794C94.4625 88.7185 94.5652 88.7541 94.6693 88.7844C94.6907 88.7906 94.7121 88.7968 94.7308 88.8023C94.9739 88.873 95.2137 88.9255 95.4508 88.957C95.7094 88.9947 95.9634 89.008 96.2121 88.9997" stroke="#FF71E1" stroke-width="0.5" stroke-miterlimit="10"/>
<path d="M97.2404 88.2146C97.2133 88.2182 97.1842 88.2184 97.1551 88.2186" stroke="#FF71E1" stroke-width="0.5" stroke-miterlimit="10"/>
<path d="M97.2406 88.2147C97.4435 88.2045 97.6396 88.178 97.8334 88.1392C98.043 88.0964 98.2457 88.0371 98.4423 87.9588C98.5957 87.8996 98.7461 87.8309 98.8931 87.744C98.9295 87.7286 98.9647 87.7071 98.9999 87.6857" stroke="#FF71E1" stroke-width="0.5" stroke-miterlimit="10"/>
<path d="M98.0594 88.4673C98.2056 88.3829 98.347 88.2857 98.4818 88.1807L98.601 88.0799" stroke="#FF71E1" stroke-width="0.5" stroke-miterlimit="10"/>
<path d="M46.9484 38.6677L46.9254 38.687L46.8572 38.7421L46.8453 38.7531L46.8334 38.764C46.6966 38.8857 46.5731 39.0314 46.4671 39.1966C46.3418 39.388 46.2414 39.6038 46.171 39.8457C46.1292 39.9893 46.0958 40.1439 46.075 40.3051L45.3781 45.6296C45.3435 45.8877 45.2801 46.1258 45.1945 46.3402C45.1375 46.4765 45.0721 46.6016 44.9976 46.7183" stroke="#FF71E1" stroke-width="0.5" stroke-miterlimit="10"/>
<path d="M78.2747 53.5965C78.1188 53.7241 77.9697 53.8682 77.8343 54.0248C77.6927 54.1826 77.5615 54.3549 77.4439 54.5398C77.3203 54.7259 77.2095 54.9272 77.1125 55.1412C77.0105 55.3623 76.9222 55.5962 76.8503 55.8434C76.7718 56.1031 76.7124 56.377 76.6686 56.667C76.6639 56.7032 76.6584 56.7419 76.6529 56.7807L76.5403 57.636L76.3944 58.7353L76.3446 59.1158C76.31 59.3739 76.2466 59.6121 76.161 59.8265C76.1048 59.96 76.042 60.086 75.9648 60.2019C76.1305 60.1405 76.2863 60.0532 76.428 59.9445C76.7169 59.7287 76.9483 59.4212 77.1047 59.0429C77.1903 58.8284 77.2538 58.5903 77.2883 58.3322L77.3381 57.9517L77.4806 56.8542L77.594 55.9963C77.5987 55.9602 77.6042 55.9214 77.6089 55.8853C77.6527 55.5953 77.7121 55.3214 77.7913 55.059C77.8633 54.8118 77.9508 54.5806 78.0528 54.3594C78.1498 54.1455 78.2598 53.9468 78.3842 53.7581C78.501 53.5758 78.6288 53.4054 78.7703 53.2476" stroke="#FF71E1" stroke-width="0.5" stroke-miterlimit="10"/>
<path d="M110.033 71.3755C110.016 71.3937 109.996 71.411 109.977 71.4284C109.829 71.5698 109.685 71.7154 109.545 71.8678C109.402 72.0195 109.263 72.1781 109.129 72.3408C108.995 72.5036 108.864 72.6732 108.741 72.8479C108.612 73.0236 108.489 73.207 108.37 73.3946C108.301 73.5041 108.231 73.6136 108.167 73.7247C108.128 73.791 108.085 73.8566 108.041 73.9187" stroke="#FF71E1" stroke-width="0.5" stroke-miterlimit="10"/>
<path d="M124.072 99.0015C124.301 98.9815 124.528 98.9556 124.753 98.92C124.975 98.8864 125.193 98.8432 125.407 98.7958C125.618 98.7477 125.825 98.6926 126.031 98.6315C126.232 98.5688 126.431 98.5027 126.629 98.4305C126.824 98.3548 127.016 98.275 127.207 98.1864C127.393 98.1023 127.576 98.0113 127.753 97.9128C127.934 97.8184 128.108 97.7164 128.279 97.6075C128.449 97.5012 128.615 97.3881 128.777 97.2708C128.48 97.5535 128.163 97.816 127.833 98.0544C127.671 98.1744 127.502 98.2867 127.332 98.3929C127.162 98.4992 126.991 98.5993 126.815 98.6953C126.633 98.7923 126.45 98.8859 126.263 98.97C126.072 99.0586 125.881 99.1385 125.685 99.2141C125.487 99.2863 125.288 99.3524 125.087 99.4151C124.881 99.4762 124.674 99.5313 124.463 99.5794C124.249 99.6268 124.031 99.67 123.809 99.7037" stroke="#FF71E1" stroke-width="0.5" stroke-miterlimit="10"/>
<path d="M95.6739 88.0214C95.9171 88.0921 96.1568 88.1445 96.394 88.176C96.6525 88.2138 96.9065 88.2271 97.1553 88.2187" stroke="#FF71E1" stroke-width="0.5" stroke-miterlimit="10"/>
<path d="M95.675 88.0215C95.6534 88.0152 95.6318 88.0089 95.6074 88.0018" stroke="#FF71E1" stroke-width="0.5" stroke-miterlimit="10"/>
<path d="M97.2404 88.2146C97.2133 88.2182 97.1842 88.2184 97.1551 88.2186" stroke="#FF71E1" stroke-width="0.5" stroke-miterlimit="10"/>
<path d="M35.5768 65.4753L9.82575 54.2618L13.6106 25.423" stroke="#FF71E1" stroke-width="0.5" stroke-miterlimit="10"/>
<path d="M6.06493 31.6874L7.00866 30.9038L7.95239 30.1202L8.89534 29.3392L9.83907 28.5556L10.7828 27.772L11.7231 26.9902L11.7239 26.9876L12.6668 26.2066L12.6703 26.2047L13.6105 25.423L14.5543 24.6394L15.498 23.8558L16.4417 23.0722" stroke="#FF71E1" stroke-width="0.5" stroke-miterlimit="10"/>
<path d="M12.6546 51.9102L2.2805 60.5262" stroke="#FF71E1" stroke-width="0.5" stroke-miterlimit="10"/>
<path d="M47.8074 37.9548L46.948 38.6678L46.925 38.687L46.8568 38.7421L46.8449 38.7531L46.8331 38.7641L46.0633 39.408L46.0027 39.4567L45.8801 39.5594L45.8265 39.6044L45.1195 40.1916L45.1015 40.2037L45.0862 40.2165L44.8946 40.377L44.8827 40.388L44.1758 40.9752L44.1563 40.9926L43.939 41.1716L43.9382 41.1743L43.2363 41.7543L43.2321 41.7588" stroke="#FF71E1" stroke-width="0.5" stroke-miterlimit="10"/>
<path d="M58.6426 83.7964L59.4561 83.122L59.5752 83.0211L60.3998 82.3383L60.519 82.2375L61.3435 81.5547L61.4738 81.4456L62.2949 80.7647L62.4099 80.6684L63.2317 79.9848L63.3613 79.8783L64.2061 79.1755L64.2632 79.1287L64.7215 78.7488L65.1567 78.3882L65.2223 78.3322L65.6652 77.9652L66.0656 77.6348L66.2001 77.5211L66.6089 77.1816L66.9649 76.8843L67.114 76.7605L67.5519 76.4006L67.9538 76.0649L68.068 75.9712L68.4964 75.6143L68.86 75.3107L68.9052 75.2748L69.0006 75.1959" stroke="#FF71E1" stroke-width="0.5" stroke-miterlimit="10"/>
<path d="M42.9994 41.9533L42.9951 41.9578L42.2917 42.5432L42.2813 42.5488L42.2618 42.5662L42.0583 42.7377L42.0549 42.7395L41.3403 43.3332L41.336 43.3378" stroke="#FF71E1" stroke-width="0.5" stroke-miterlimit="10"/>
<path d="M38.4073 63.1272L37.9065 63.5437L37.4636 63.9108L36.9628 64.3273L36.5206 64.6917L36.0191 65.1109L35.0788 65.8927L34.6358 66.2598L34.1351 66.6763L33.6921 67.0434L32.7484 67.827L31.8054 68.608L30.8617 69.3916L29.918 70.1752L28.9742 70.9588L28.0332 71.7432" stroke="#FF71E1" stroke-width="0.5" stroke-miterlimit="10"/>
<path d="M79.1579 52.8616L72.5211 58.3726" stroke="#FF71E1" stroke-width="0.5" stroke-miterlimit="10"/>
<path d="M106.726 74.1069L106.943 73.9306L107.367 73.5783L107.391 73.5563L107.87 73.1625L107.889 73.1478L108.27 72.8347L108.271 72.8321L108.87 72.3374L108.877 72.3309" stroke="#FF71E1" stroke-width="0.5" stroke-miterlimit="10"/>
<path d="M110.921 70.6448L110.033 71.3755L110.017 71.391L110.013 71.3928" stroke="#FF71E1" stroke-width="0.5" stroke-miterlimit="10"/>
<path d="M109.914 71.4764L109.178 72.084" stroke="#FF71E1" stroke-width="0.5" stroke-miterlimit="10"/>
<path d="M99.3805 87.433L98.964 87.779L98.6012 88.0799L98.482 88.1808L98.0237 88.5607L97.6038 88.9085L97.539 88.9617L97.08 89.3443L96.7359 89.6306L96.58 89.7582L96.1363 90.1279L95.793 90.4115L95.6558 90.5244L95.1925 90.9115L94.8442 91.2023L94.7147 91.3088L93.8408 92.032L93.8392 92.0373L92.915 92.8036L92.9116 92.8055L92.8851 92.8266L92.8698 92.8394L91.9832 93.5762L91.9644 93.591L91.9449 93.6083L91.9414 93.6102L91.0199 94.3772L91.0046 94.3901L90.0762 95.1609L90.0616 95.171L90.0386 95.1903L89.1631 95.9188L89.1554 95.9252" stroke="#FF71E1" stroke-width="0.5" stroke-miterlimit="10"/>
<path d="M132.113 88.6341C132.592 85.0137 131.728 81.1699 129.941 77.8792C128.154 74.5912 125.445 71.8572 122.24 70.4546C119.692 69.3415 116.642 69.0166 114.041 70.1195C112.157 70.9179 110.853 72.3205 110.01 74.0243C109.24 75.5736 107.418 76.2804 105.827 75.5813L105.727 75.5377C103.225 74.4377 101.742 71.8326 102.09 69.134L102.116 68.9253L102.316 67.4006C102.711 64.3987 100.855 61.016 98.1723 59.8491L84.3504 53.83C82.5944 53.0626 80.9135 53.4415 79.8572 54.6421C79.7283 54.7863 79.6105 54.9423 79.5045 55.1075C79.3908 55.2792 79.2916 55.4608 79.2026 55.6569C79.1087 55.8602 79.03 56.0709 78.9643 56.2969C78.8947 56.5361 78.8362 56.7872 78.7967 57.0525C78.7927 57.086 78.788 57.1221 78.7814 57.1548L78.6782 57.9378L78.5486 58.941L78.5027 59.288C78.2359 61.321 76.0129 62.2687 74.1241 61.4396L73.6412 61.227C71.5186 60.2953 70.3311 58.3409 70.6263 56.051L71.2534 51.2857C71.4453 49.8192 70.5401 48.169 69.2339 47.5987L50.9112 39.6187C50.1479 39.2842 49.4147 39.3939 48.8982 39.8347C48.7629 39.951 48.6424 40.0861 48.5441 40.2449C48.4304 40.4165 48.3422 40.61 48.2796 40.8253C48.2425 40.9529 48.2137 41.0916 48.1949 41.2361L47.7494 44.65C47.6536 45.3977 47.5635 46.1558 47.2276 46.8423C46.9428 47.4226 46.3907 47.8761 45.795 48.1209C44.8944 48.4875 43.7976 48.3529 42.9228 47.9629C40.8468 47.0505 39.6218 44.8863 39.9165 42.6481L40.9054 35.1049L17.4517 24.8998L14.0032 51.1579L37.4519 61.3702C37.4519 61.3702 37.6277 60.0287 37.6285 60.026L37.864 58.2204L38.2093 55.599C38.4694 53.619 40.5672 52.4445 42.404 53.2527L43.17 53.588C45.0767 54.4253 46.2015 56.4161 45.9284 58.4703C45.9253 58.4809 45.9238 58.4862 45.9238 58.4862L45.4964 61.7584C45.3045 63.2249 46.2069 64.8743 47.5158 65.4454C47.5158 65.4454 66.111 73.5248 66.1297 73.5303C66.3514 73.5948 66.5691 73.6235 66.78 73.6157C66.9841 73.6116 67.1787 73.5702 67.3596 73.496C67.3677 73.4983 67.3719 73.4937 67.3822 73.4881C67.4247 73.4716 67.4679 73.4525 67.5085 73.4326C67.5345 73.4228 67.5586 73.4097 67.5835 73.3938C67.6076 73.3807 67.6291 73.3667 67.6566 73.3517C67.685 73.334 67.7141 73.3136 67.7432 73.2932L67.7842 73.2619C67.814 73.2389 67.8432 73.2185 67.8685 73.1913C67.934 73.1354 67.9923 73.0745 68.0487 73.0102C68.0747 72.9803 68.1016 72.9477 68.125 72.9171C68.1584 72.872 68.1899 72.8235 68.2206 72.7776C68.3858 72.5085 68.5039 72.1825 68.5514 71.8099L68.611 71.366C68.6983 70.7772 68.8029 70.1185 68.9219 69.4006C69.0866 68.4163 69.1433 68.1416 69.3511 67.8359C69.775 67.2153 70.4573 67.0015 70.7511 66.9082C72.6302 66.316 74.4882 67.6292 74.782 67.8444C75.1429 68.108 75.9508 68.7178 76.4447 69.8591C76.9783 71.0927 76.8232 72.2038 76.7411 72.6354C76.3459 75.6373 78.2017 79.0201 80.8847 80.1869L94.7067 86.206C94.7918 86.2423 94.8749 86.2751 94.9554 86.3072C95.0493 86.3432 95.1413 86.3757 95.2348 86.4029C95.2562 86.4091 95.2775 86.4153 95.2962 86.4208C95.518 86.4853 95.7383 86.5349 95.9533 86.5629C96.1896 86.597 96.4207 86.6095 96.6492 86.601C96.6756 86.6 96.7012 86.6017 96.7257 86.5973C96.9171 86.5867 97.1036 86.5631 97.2887 86.5246C97.4214 86.4969 97.551 86.4597 97.6795 86.4163C97.8696 86.3505 98.0567 86.2752 98.239 86.1668C98.2719 86.1533 98.3037 86.1337 98.3354 86.1141C98.6295 85.9401 98.8946 85.7261 99.1343 85.47C99.3613 85.2275 99.5594 84.9449 99.7282 84.6336C99.8824 84.3527 100.007 84.043 100.105 83.708C100.18 83.4475 100.24 83.1736 100.275 82.8839C100.276 82.8584 100.28 82.8364 100.285 82.809C100.308 82.66 100.338 82.5161 100.378 82.3805C100.603 80.641 102.441 79.6102 104.052 80.3182L106.121 81.2257C107.689 81.9124 108.867 83.2729 109.297 84.9232C109.325 85.0264 109.352 85.1323 109.38 85.233C110.785 90.2058 114.307 94.7363 118.754 96.6703C119.245 96.8852 119.733 97.0617 120.217 97.2024C121.002 97.4309 121.775 97.5634 122.525 97.6057C122.75 97.6192 122.974 97.624 123.197 97.6166C123.415 97.6138 123.629 97.6041 123.84 97.5875C124.045 97.5693 124.252 97.5459 124.456 97.5129C124.656 97.4818 124.853 97.4411 125.045 97.3989C125.235 97.3533 125.423 97.3043 125.608 97.2483C125.789 97.1916 125.969 97.1315 126.148 97.0652C126.325 96.9955 126.497 96.9216 126.67 96.8424C126.841 96.7651 127.004 96.6828 127.163 96.5936C127.327 96.5086 127.485 96.4133 127.639 96.3139C127.791 96.217 127.943 96.1141 128.087 96.0062C130.18 94.4813 131.659 91.9361 132.099 88.6328L132.113 88.6341Z" stroke="#FF71E1" stroke-width="0.5" stroke-miterlimit="10"/>
<path d="M130.84 88.0793C131.265 84.8528 130.497 81.4287 128.905 78.4946C127.312 75.5631 124.899 73.1284 122.04 71.8786C119.77 70.8866 117.052 70.5976 114.732 71.5805C112.907 72.353 111.694 73.7646 110.951 75.4602C110.277 76.9999 108.439 77.6616 106.889 76.9829L104.437 75.9092C102.023 74.8524 100.596 72.3381 100.929 69.7364L101.012 69.083L101.194 67.6913C101.552 64.9555 99.8617 61.8717 97.4179 60.809L84.8197 55.3247C83.2179 54.6251 81.6862 54.9696 80.7242 56.065C80.6079 56.1956 80.5001 56.3372 80.4033 56.4907C80.2996 56.6479 80.2077 56.8144 80.1268 56.9927C80.0418 57.1755 79.9677 57.3702 79.9082 57.5749C79.8448 57.7929 79.7924 58.0227 79.7572 58.2633C79.754 58.2941 79.7482 58.3242 79.745 58.3549L79.6505 59.0684L79.4622 60.1439C79.0453 62.1649 76.5525 63.7809 74.3574 62.8194L72.7609 62.1215C70.4064 61.0905 69.0158 58.6388 69.3417 56.1041L69.9017 51.8383C70.0751 50.525 69.2641 49.0492 68.0914 48.538L51.6895 41.3964C51.0051 41.0993 50.348 41.1965 49.8885 41.5905C49.7686 41.694 49.6608 41.8154 49.5697 41.959C49.4703 42.1118 49.3883 42.284 49.3318 42.478C49.2986 42.5923 49.271 42.7169 49.2542 42.8447L48.9728 44.9973C48.7494 47.1698 48.0572 49.1309 45.808 49.6702C43.0507 50.3328 40.2855 48.303 39.1778 46.1239C38.8845 45.5484 38.409 44.3837 38.5107 42.7092L39.3874 36.0098L18.5706 26.941L15.5074 50.2607L36.3323 59.3319L36.8526 55.3717C37.1984 52.7389 39.9855 51.1768 42.4297 52.2483L44.27 53.0547C46.3162 53.9498 47.5242 56.0831 47.2342 58.2851L46.8512 61.2156C46.6778 62.5289 47.4861 64.0038 48.6614 64.5159C48.6614 64.5159 65.3091 71.7491 65.3251 71.7538C65.5255 71.812 65.7176 71.8391 65.9056 71.8304C66.0867 71.8254 66.2622 71.7899 66.424 71.7217C66.4294 71.7232 66.4363 71.7195 66.4439 71.7131C66.483 71.6985 66.5193 71.6831 66.5572 71.6624C66.5806 71.6519 66.6039 71.6414 66.6253 71.6274C66.646 71.6161 66.6674 71.6022 66.6889 71.5883C66.7138 71.5724 66.7394 71.5539 66.7678 71.5362L66.8053 71.5068C66.8318 71.4857 66.8574 71.4672 66.882 71.4426C66.9398 71.3931 66.9931 71.3394 67.0426 71.2788C67.0671 71.2543 67.0879 71.2228 67.1105 71.1948C67.1397 71.1543 67.1689 71.1138 67.1962 71.0698C67.3449 70.8276 67.4494 70.538 67.4914 70.2042L67.7614 68.1606C68.0676 65.8826 70.4823 64.535 72.5977 65.4618L74.8805 66.4603C77.0084 67.3937 78.2672 69.6109 77.9651 71.9046L77.8898 72.4622C77.5315 75.198 79.2221 78.2819 81.6659 79.3446L94.2641 84.8289C94.3419 84.8602 94.4163 84.8934 94.4896 84.9204C94.5728 84.9533 94.6601 84.9816 94.7456 85.0065C94.7643 85.0119 94.783 85.0173 94.8018 85.0228C95.0048 85.0818 95.2037 85.1253 95.4019 85.1512C95.6161 85.1818 95.8297 85.1949 96.0352 85.1855C96.0589 85.1838 96.0845 85.1855 96.1056 85.1829C96.2821 85.1737 96.451 85.1508 96.6204 85.1165C96.7409 85.091 96.8575 85.0586 96.973 85.0201C97.1467 84.9611 97.3181 84.8898 97.4823 84.7934C97.5126 84.7792 97.5409 84.7615 97.5719 84.7445C97.841 84.5864 98.0832 84.3916 98.2991 84.1574C98.505 83.9376 98.6874 83.6793 98.8397 83.3949C98.9781 83.1382 99.0918 82.857 99.1807 82.5513C99.2495 82.3147 99.3028 82.062 99.3361 81.7978C99.337 81.775 99.3405 81.753 99.3467 81.7317C99.3659 81.596 99.395 81.4661 99.4313 81.3411C99.6838 79.3876 101.748 78.2293 103.56 79.0218L107.341 80.6782C108.888 81.3561 110.03 82.7205 110.413 84.3629C110.467 84.5949 110.526 84.8224 110.588 85.0453C111.841 89.4751 114.978 93.5159 118.942 95.24C119.379 95.4306 119.814 95.5889 120.247 95.7148C120.947 95.9184 121.634 96.0375 122.304 96.0739C122.506 96.0866 122.705 96.0897 122.901 96.0833C123.096 96.0822 123.287 96.0716 123.474 96.0568C123.658 96.0412 123.841 96.0195 124.021 95.9882C124.2 95.9596 124.376 95.9242 124.546 95.8872C124.717 95.8475 124.883 95.8037 125.049 95.7537C125.211 95.703 125.369 95.648 125.531 95.5912C125.687 95.5301 125.842 95.4656 125.997 95.3924C126.147 95.3237 126.293 95.2508 126.436 95.1683C126.583 95.0928 126.723 95.0096 126.859 94.9195C126.997 94.8328 127.131 94.7419 127.26 94.6469C129.125 93.2864 130.445 91.0207 130.834 88.0777L130.84 88.0793Z" stroke="#FF71E1" stroke-width="0.5" stroke-miterlimit="10"/>
<path d="M34.5054 52.5524C34.3498 53.5653 34.283 54.3128 34.1412 55.3383C31.9526 54.3845 20.8495 49.5485 18.4522 48.5051C19.1868 42.9119 20.0301 36.4969 20.7581 30.9363L36.447 37.7696C36.447 37.7696 34.6222 46.5228 37.3651 48.6788C37.3651 48.6788 34.9108 49.8937 34.5046 52.555L34.5054 52.5524Z" stroke="#FF71E1" stroke-width="0.5" stroke-miterlimit="10"/>
<path d="M40.9016 50.2583C40.1021 49.8585 38.7037 49.0077 37.8374 47.4034C37.0728 45.9873 36.9501 45.1241 37.0941 43.0353C37.2269 41.1046 37.6362 38.4125 38.0119 36.8322L19.595 28.8075L16.8858 49.4363L35.3088 57.4599C35.609 55.1829 35.576 51.7999 37.7628 50.4091C38.3214 50.0526 39.2596 49.7864 40.905 50.2564L40.9016 50.2583Z" stroke="#FF71E1" stroke-width="0.5" stroke-miterlimit="10"/>
<path d="M66.7898 67.4674C66.769 67.6085 66.7467 67.7548 66.7317 67.9061L66.6858 68.2532C66.6473 68.5447 66.5582 68.8014 66.4276 69.0113C66.4053 69.0481 66.3795 69.0867 66.3519 69.1219C66.3335 69.1454 66.3143 69.1715 66.2932 69.1942C66.2495 69.2449 66.2031 69.2949 66.1502 69.3372C66.1326 69.358 66.1077 69.3738 66.0847 69.3931L66.054 69.4188C66.0299 69.4319 66.0077 69.4485 65.9862 69.4625C65.9656 69.4738 65.9476 69.4858 65.9269 69.4971C65.9089 69.5092 65.8882 69.5205 65.8691 69.5264C65.8373 69.546 65.8044 69.5595 65.7715 69.573C65.762 69.576 65.7577 69.5805 65.7524 69.579C65.6078 69.6378 65.4568 69.6688 65.2993 69.6721C65.135 69.679 64.9651 69.6556 64.7888 69.6043L50.2186 63.2782C49.1921 62.8325 48.487 61.5404 48.6381 60.3936L48.8818 58.5298C48.8818 58.5298 48.8822 58.5184 48.8838 58.5131C48.9771 57.8338 49.0695 56.4104 48.3987 54.8313C47.3842 52.4515 45.351 51.4218 44.8074 51.1685C45.1596 51.1931 47.2449 51.3067 48.8502 49.7929C50.0086 48.6998 50.3545 47.3213 50.3946 47.0043C50.428 46.7401 50.7817 44.1097 50.8103 44.0113C50.8598 43.8412 50.9303 43.6887 51.0182 43.5557C51.0977 43.4318 51.1928 43.3239 51.2975 43.2333C51.6991 42.8888 52.2747 42.8025 52.8714 43.0626L67.2122 49.3104C68.2361 49.7553 68.9472 51.0463 68.7954 52.1958C68.7954 52.1958 68.3068 55.9173 68.3045 55.9252C68.1095 57.4024 68.0549 58.8253 68.7967 60.2001C69.5423 61.5819 71.5459 63.1912 73.0742 63.8549C73.0742 63.8549 67.6351 61.9814 66.7905 67.4648L66.7898 67.4674Z" stroke="#FF71E1" stroke-width="0.5" stroke-miterlimit="10"/>
<path d="M98.5267 80.308C98.5012 80.3957 98.4825 80.4797 98.4825 80.4797C98.4709 80.5397 98.4592 80.5998 98.4494 80.6632C98.444 80.6818 98.4413 80.7012 98.4404 80.7241C98.4087 80.9628 98.3597 81.1907 98.2971 81.4061C98.2167 81.6825 98.1134 81.9379 97.9873 82.1723C97.8488 82.429 97.6849 82.6638 97.4966 82.8628C97.2983 83.0761 97.0784 83.2543 96.8368 83.3974C96.8085 83.4151 96.7809 83.4302 96.7515 83.4418C96.6424 83.5081 96.5291 83.5588 96.412 83.6025C96.264 83.6633 96.1091 83.7076 95.9519 83.7397C95.8044 83.7689 95.6564 83.7893 95.5036 83.7967C95.4826 83.7992 95.4589 83.801 95.4386 83.8009C95.2514 83.807 95.0573 83.7966 94.8626 83.7688C94.6839 83.7457 94.5018 83.7042 94.3174 83.6506C94.3014 83.6459 94.2854 83.6413 94.2674 83.6332C94.1926 83.6114 94.1132 83.5854 94.0373 83.5576C93.9702 83.5294 93.903 83.5012 93.8305 83.4715L82.3925 78.4919C81.0882 77.925 80.0896 76.7753 79.5068 75.5015C78.5122 73.3323 79.5354 71.0004 78.6848 68.824C78.1069 67.344 77.2284 66.2696 75.8795 65.4678C75.3754 65.1683 74.8316 64.8861 74.2698 64.7054C74.374 64.7357 74.4737 64.7618 74.5741 64.7853C76.1037 65.1553 77.352 64.789 78.5526 63.76C79.258 63.1579 79.8494 62.39 80.2131 61.5386C80.5093 60.8491 80.5113 60.1549 80.646 59.4329C80.6537 59.4063 80.6534 59.3774 80.6585 59.35C80.6902 59.1315 80.7364 58.9229 80.797 58.7243C80.8512 58.5382 80.9163 58.364 80.9941 58.1963C81.0676 58.0332 81.1488 57.8838 81.2452 57.7417C81.332 57.6026 81.4299 57.4754 81.5369 57.3566C82.4114 56.3625 83.8009 56.0488 85.2559 56.6855L96.6939 61.665C98.9138 62.6309 100.447 65.4296 100.121 67.9152L99.9567 69.1765C99.8177 70.2519 99.5828 71.2388 99.7719 72.3319C99.8652 72.878 99.995 73.3482 100.173 73.7921C100.208 73.8802 100.51 74.6369 101.039 75.3587C102.104 76.8162 103.66 77.563 104.224 77.8077C104.046 77.7126 102.42 76.8676 100.701 77.6564C100.701 77.6564 99.0758 78.4005 98.5294 80.3088L98.5267 80.308Z" stroke="#FF71E1" stroke-width="0.5" stroke-miterlimit="10"/>
<path d="M126.451 93.3331C126.337 93.4153 126.218 93.496 126.097 93.5733C125.976 93.6505 125.853 93.7243 125.724 93.7905C125.598 93.8635 125.47 93.927 125.336 93.989C125.202 94.0509 125.066 94.1095 124.925 94.1638C124.786 94.2154 124.644 94.2636 124.504 94.3092C124.357 94.3532 124.21 94.3911 124.061 94.4255C123.909 94.4592 123.752 94.4914 123.597 94.5155C123.436 94.5408 123.274 94.56 123.114 94.5738C122.947 94.5888 122.777 94.5968 122.608 94.5996C122.433 94.6035 122.258 94.5986 122.08 94.5903C121.49 94.557 120.883 94.4525 120.266 94.2729C119.886 94.1626 119.504 94.0225 119.119 93.8528C115.622 92.334 112.856 88.7729 111.755 84.8686C111.271 83.1563 111.373 81.8308 109.89 80.6412C108.927 79.868 108.149 79.2062 107.002 78.7544C108.289 79.1922 109.402 78.9422 110.515 78.2224C111.861 77.3538 112.092 75.9822 113.031 74.8052C113.66 74.0166 114.473 73.3939 115.403 72.9982C117.446 72.1308 119.844 72.3844 121.844 73.2602C124.363 74.3622 126.488 76.5087 127.893 79.0913C129.297 81.6766 129.975 84.6964 129.6 87.5398C129.257 90.133 128.092 92.1326 126.448 93.3323L126.451 93.3331Z" stroke="#FF71E1" stroke-width="0.5" stroke-miterlimit="10"/>
<path d="M64.7895 65.8141L64.7522 66.0916C64.722 66.325 64.6483 66.5285 64.5442 66.6971C64.5261 66.7294 64.5062 66.7581 64.4835 66.7862C64.4693 66.8051 64.4544 66.8267 64.4375 66.8448C64.4022 66.8865 64.365 66.9247 64.3232 66.9587C64.3071 66.9742 64.2884 66.9889 64.2696 67.0036L64.2466 67.0229C64.2278 67.0376 64.2072 67.0489 64.1899 67.0583C64.1754 67.0685 64.1608 67.0786 64.147 67.0862C64.1298 67.0956 64.1153 67.1057 64.0988 67.1125C64.072 67.1249 64.0452 67.1373 64.0192 67.147C64.0123 67.1508 64.0089 67.1526 64.0035 67.1511C63.891 67.1991 63.7679 67.2238 63.6422 67.2276C63.5104 67.2325 63.2103 67.1683 63.1977 67.1618C63.1497 67.1478 51.5826 62.1134 51.5773 62.1118C50.4637 61.6264 50.2943 60.346 50.3683 59.2748C50.4697 57.8107 50.3226 56.3839 49.8162 54.9968C49.379 53.8 48.7793 52.8931 48.2924 52.2758C48.6628 52.0981 49.0575 51.8669 49.4468 51.5649C51.2596 50.1548 51.795 48.1048 51.9674 47.2035L52.0015 46.9568C52.0137 46.8652 52.0304 46.7778 52.0536 46.698C52.093 46.5625 52.1515 46.4411 52.2203 46.3342C52.2841 46.2346 52.3581 46.1494 52.4424 46.0788C52.7666 45.8012 53.2241 45.7324 53.7025 45.9408L65.1765 50.9366C65.9944 51.2927 66.5623 52.3287 66.4407 53.2448L66.1209 55.689C66.1162 55.7252 66.1087 55.7806 66.1016 55.8449C66.0091 56.6311 65.8426 58.0502 66.1877 59.5634C66.3205 60.1528 66.59 61.0096 67.1842 61.9754C66.6315 62.3711 65.644 63.2054 65.1077 64.6006C64.9389 65.0416 64.8446 65.4553 64.7948 65.8157L64.7895 65.8141Z" stroke="#FF71E1" stroke-width="0.5" stroke-miterlimit="10"/>
<path d="M100.239 76.4208C99.9107 76.2358 99.4285 75.911 98.9994 75.3739C98.7167 75.0206 98.4186 74.5014 98.1442 73.522C97.8216 72.37 97.7417 71.1502 97.9098 69.965C98.0711 68.8327 98.5624 67.632 98.2714 66.4806C97.9054 65.0392 96.9192 63.6479 95.5252 63.0406L85.9568 58.876C84.7403 58.3462 83.5775 58.6076 82.846 59.4386C82.7559 59.5392 82.6757 59.6456 82.6012 59.7624C82.5232 59.881 82.4517 60.0072 82.392 60.1427C82.3281 60.2826 82.2714 60.4276 82.2258 60.5845C82.1771 60.7519 82.1391 60.9225 82.1113 61.1076C82.1078 61.1297 82.1062 61.1551 82.1026 61.1772C81.893 62.7943 81.0348 64.4793 79.6192 65.3707C79.1299 65.6782 78.4755 65.8655 77.9123 65.6699C79.3368 66.2718 80.5523 68.0007 80.7817 69.5033C81.017 71.0451 80.4204 72.5381 80.9306 74.0618C81.3636 75.3526 82.2923 76.5627 83.5654 77.1176C84.8231 77.6651 90.8548 80.2905 92.6115 81.0553C93.2055 81.3146 93.8155 81.5786 94.4765 81.5575C94.4941 81.5569 94.5144 81.557 94.5293 81.5555C94.6584 81.5499 94.7827 81.5312 94.905 81.5092C95.0377 81.4814 95.1646 81.4434 95.2886 81.3959C95.3865 81.358 95.4799 81.316 95.5745 81.2599C95.5978 81.2494 95.6192 81.2354 95.6434 81.2223C96.3796 80.7733 96.6837 80.017 96.8367 79.6405C97.3342 78.3984 97.6518 77.6056 98.2308 77.0994C98.5726 76.8009 99.1653 76.4572 100.24 76.4269L100.239 76.4208Z" stroke="#FF71E1" stroke-width="0.5" stroke-miterlimit="10"/>
<path d="M125.602 91.95C125.502 92.0221 125.401 92.0933 125.298 92.1585C125.191 92.2256 125.086 92.2873 124.977 92.3449C124.869 92.4058 124.757 92.4626 124.644 92.5133C124.526 92.5685 124.41 92.6184 124.29 92.664C124.169 92.7097 124.048 92.7493 123.926 92.7889C123.799 92.8269 123.674 92.8596 123.546 92.8915C123.416 92.92 123.283 92.9477 123.147 92.9659C123.01 92.9894 122.872 93.0069 122.732 93.0182C122.59 93.0287 122.445 93.0385 122.297 93.0387C122.149 93.0416 121.998 93.0411 121.845 93.031C121.337 93.0016 120.819 92.9114 120.287 92.7567C119.961 92.6619 119.633 92.5434 119.302 92.398C116.3 91.0922 113.924 88.0338 112.976 84.6787C112.726 83.793 112.896 82.9312 112.302 81.8331C111.772 80.8483 111.02 80.2145 110.483 79.8391C110.795 79.8433 111.242 79.8004 111.692 79.568C112.562 79.1176 112.863 78.2422 113.162 77.6227C113.972 75.9527 115.373 74.7944 116.11 74.4813C117.866 73.735 119.924 73.953 121.643 74.7069C123.805 75.653 125.633 77.4968 126.839 79.716C128.046 81.9352 128.627 84.5291 128.304 86.9726C128.01 89.1994 127.012 90.9185 125.6 91.9466L125.602 91.95Z" stroke="#FF71E1" stroke-width="0.5" stroke-miterlimit="10"/>
</g>
<defs>
<clipPath id="clip0_16_212">
<rect width="136" height="136" fill="white"/>
</clipPath>
</defs>
</svg>
