<svg width="217" height="167" viewBox="0 0 217 167" fill="none" xmlns="http://www.w3.org/2000/svg">
<path d="M58.749 66.7195C58.7735 67.0716 58.7683 67.4236 58.7231 67.7681L58.0216 73.1018C57.7066 75.4929 59.1827 78.1821 61.3151 79.1096L91.176 92.1139C92.4521 92.6702 93.6745 92.4662 94.5175 91.7057" stroke="#FF71E1" stroke-width="0.5" stroke-miterlimit="10"/>
<path d="M17.7817 15.6545L12.2579 57.7437L49.8433 74.1145" stroke="#FF71E1" stroke-width="0.5" stroke-miterlimit="10"/>
<path d="M139.061 109.398L139.05 109.407C137.365 110.836 134.976 111.184 132.483 110.101L110.406 100.49C106.123 98.625 103.161 93.2228 103.79 88.4278L103.918 87.4508C104.054 86.4173 103.845 85.3172 103.39 84.3389" stroke="#FF71E1" stroke-width="0.5" stroke-miterlimit="10"/>
<path d="M103.335 84.2182C103.335 84.2182 103.328 84.1991 103.321 84.1929" stroke="#FF71E1" stroke-width="0.5" stroke-miterlimit="10"/>
<path d="M147.86 102.09C149.529 102.853 150.932 104.557 151.504 106.558C153.782 114.589 159.441 121.845 166.641 124.979C167.433 125.323 168.225 125.612 169.004 125.839C174.448 127.422 179.527 126.186 183.119 122.795" stroke="#FF71E1" stroke-width="0.5" stroke-miterlimit="10"/>
<path d="M60.127 65.5759C60.1553 65.9292 60.1463 66.2801 60.101 66.6246L59.3984 71.9621C59.0845 74.3494 60.5607 77.0385 62.6931 77.966L92.5539 90.9703C93.4431 91.3594 94.3045 91.3786 95.0354 91.0904C95.2733 90.9997 95.4995 90.8762 95.7053 90.7214L95.7226 90.7054C95.7802 90.6675 95.8311 90.6234 95.8792 90.5743L95.8954 90.5621" stroke="#FF71E1" stroke-width="0.5" stroke-miterlimit="10"/>
<path d="M19.1597 14.5107L13.6358 56.5999L51.2173 72.9695" stroke="#FF71E1" stroke-width="0.5" stroke-miterlimit="10"/>
<path d="M149.237 100.946C150.904 101.717 152.305 103.413 152.877 105.414C155.159 113.446 160.818 120.701 168.014 123.834C168.81 124.179 169.598 124.467 170.381 124.695C175.162 126.086 179.661 125.303 183.119 122.796C183.595 122.45 184.053 122.07 184.485 121.661" stroke="#FF71E1" stroke-width="0.5" stroke-miterlimit="10"/>
<path d="M104.767 83.1953C105.222 84.1736 105.436 85.271 105.295 86.3073L105.167 87.2843C104.538 92.0792 107.5 97.4814 111.783 99.346L133.854 108.961C135.991 109.889 138.049 109.764 139.657 108.814C139.893 108.672 140.121 108.515 140.338 108.335L140.372 108.307L140.393 108.292" stroke="#FF71E1" stroke-width="0.5" stroke-miterlimit="10"/>
<path d="M106.145 82.0515C106.601 83.026 106.81 84.126 106.672 85.1674L106.545 86.1405C105.916 90.9354 108.874 96.3365 113.157 98.2011L135.232 107.817C137.024 108.595 138.763 108.634 140.224 108.061C140.504 107.957 140.774 107.826 141.035 107.67C141.285 107.524 141.521 107.353 141.749 107.167L141.771 107.148" stroke="#FF71E1" stroke-width="0.5" stroke-miterlimit="10"/>
<path d="M150.614 99.8027C152.282 100.57 153.681 102.273 154.253 104.274C156.536 112.302 162.195 119.558 169.391 122.69C170.187 123.036 170.975 123.324 171.758 123.552C176.207 124.846 180.414 124.256 183.763 122.15C184.007 121.994 184.248 121.833 184.484 121.661C184.976 121.308 185.446 120.914 185.89 120.492" stroke="#FF71E1" stroke-width="0.5" stroke-miterlimit="10"/>
<path d="M105.43 80.8592L105.426 80.8579" stroke="#FF71E1" stroke-width="0.5" stroke-miterlimit="10"/>
<path d="M61.498 64.4348C61.5275 64.7842 61.5185 65.1351 61.4732 65.4796L60.7745 70.8183C60.4606 73.2055 61.9368 75.8947 64.0692 76.8222L93.9301 89.8265C94.4596 90.0562 94.98 90.1571 95.4674 90.139C95.7998 90.1305 96.1145 90.0664 96.4115 89.9466C96.6494 89.8559 96.8757 89.7323 97.0814 89.5776L97.0987 89.5616C97.1563 89.5236 97.2072 89.4795 97.2553 89.4304L97.2715 89.4183" stroke="#FF71E1" stroke-width="0.5" stroke-miterlimit="10"/>
<path d="M52.5943 71.826L15.0116 55.4602L20.5366 13.3672" stroke="#FF71E1" stroke-width="0.5" stroke-miterlimit="10"/>
<path d="M21.9126 12.2273L16.3849 54.3153L53.9714 70.6822" stroke="#FF71E1" stroke-width="0.5" stroke-miterlimit="10"/>
<path d="M98.6545 88.272L98.6506 88.2708C98.5963 88.3266 98.5365 88.3723 98.4767 88.418L98.4593 88.434C98.2536 88.5888 98.0312 88.7135 97.7895 88.803C97.4913 88.9267 97.1766 88.9908 96.8442 88.9993C96.4761 89.0143 96.086 88.9597 95.6928 88.8285C95.5641 88.7911 95.4338 88.7447 95.3069 88.6868L65.446 75.6825C63.3108 74.75 61.8386 72.062 62.1524 69.6747L62.85 64.3399C62.8953 63.9954 62.9004 63.6434 62.876 63.2913" stroke="#FF71E1" stroke-width="0.5" stroke-miterlimit="10"/>
<path d="M148.467 97.8393C148.319 97.7962 148.169 97.7442 148.02 97.6883C147.891 97.6381 147.759 97.5829 147.623 97.5266L125.547 87.9147C121.264 86.0501 118.302 80.6479 118.931 75.8529L119.063 74.877C119.215 73.7009 118.931 72.4527 118.342 71.3808C117.756 70.31 116.866 69.4157 115.815 68.9584C114.261 68.2831 112.79 68.7433 112.004 69.9789C111.821 70.2581 111.681 70.5793 111.577 70.9362C111.52 71.1341 111.477 71.3404 111.45 71.564L111.357 72.2608L111.13 74L110.845 76.1726L110.748 76.8977C110.668 77.5057 110.48 78.0359 110.209 78.4745C110.161 78.5531 110.109 78.6305 110.054 78.7029C110.013 78.7543 109.972 78.8096 109.929 78.8559C109.838 78.9642 109.742 79.0624 109.635 79.1534C109.593 79.1959 109.544 79.2322 109.496 79.2686L109.43 79.3209C109.382 79.3534 109.335 79.3859 109.288 79.4145C109.247 79.4403 109.211 79.4634 109.171 79.4854C109.129 79.5112 109.089 79.5332 109.046 79.5501C108.981 79.5858 108.912 79.6165 108.842 79.6421C108.825 79.6543 108.815 79.6597 108.804 79.6563C108.505 79.78 108.191 79.8441 107.858 79.8527C107.516 79.8667 107.162 79.8184 106.799 79.7129" stroke="#FF71E1" stroke-width="0.5" stroke-miterlimit="10"/>
<path d="M107.521 80.9119C107.98 81.8913 108.19 82.9875 108.049 84.0238L107.922 84.9969C107.292 89.7958 110.251 95.193 114.534 97.0576L136.61 106.673C138.048 107.298 139.451 107.445 140.707 107.184C141.013 107.121 141.313 107.036 141.601 106.918C141.881 106.814 142.152 106.682 142.409 106.526C142.648 106.385 142.876 106.228 143.093 106.047L143.116 106.029L143.12 106.03L143.149 106L143.177 105.979" stroke="#FF71E1" stroke-width="0.5" stroke-miterlimit="10"/>
<path d="M107.464 80.7861C107.464 80.7861 107.46 80.7721 107.453 80.7659" stroke="#FF71E1" stroke-width="0.5" stroke-miterlimit="10"/>
<path d="M191.003 113.778C190.675 113.83 190.343 113.868 190.009 113.897C189.667 113.924 189.319 113.94 188.967 113.943C188.609 113.953 188.248 113.944 187.882 113.922C186.668 113.851 185.42 113.635 184.149 113.265C183.365 113.037 182.578 112.749 181.781 112.404C174.581 109.27 168.927 102.016 166.645 93.9837C166.063 91.9419 164.609 90.2101 162.897 89.4639L161.88 89.0207C160.052 88.2239 158.312 88.7107 157.319 90.0882C157.129 90.3486 156.968 90.6424 156.839 90.967C156.781 91.1099 156.728 91.2628 156.683 91.418C156.62 91.6353 156.57 91.8648 156.534 92.1028C156.527 92.1427 156.521 92.1788 156.517 92.2199C156.459 92.6826 156.365 93.1223 156.244 93.5374C156.088 94.0728 155.889 94.5663 155.644 95.0167C155.377 95.5154 155.059 95.9659 154.697 96.3529C154.316 96.7637 153.89 97.107 153.421 97.3828C153.369 97.4142 153.318 97.4455 153.265 97.4679C153.05 97.5949 152.831 97.6952 152.607 97.7815C152.32 97.8958 152.024 97.9823 151.718 98.0448C151.435 98.1014 151.149 98.1401 150.853 98.155" stroke="#FF71E1" stroke-width="0.5" stroke-miterlimit="10"/>
<path d="M187.24 119.374C186.814 119.776 186.363 120.15 185.891 120.492C185.648 120.674 185.396 120.841 185.142 121.002C184.894 121.157 184.639 121.306 184.379 121.445C181.164 123.191 177.25 123.605 173.128 122.406C172.349 122.179 171.56 121.895 170.768 121.551C163.573 118.414 157.914 111.158 155.631 103.13C155.064 101.126 153.66 99.4259 151.992 98.6589" stroke="#FF71E1" stroke-width="0.5" stroke-miterlimit="10"/>
<path d="M55.3493 69.5386L17.7628 53.1718L23.2905 11.0837" stroke="#FF71E1" stroke-width="0.5" stroke-miterlimit="10"/>
<path d="M64.2529 62.1475C64.2813 62.5008 64.2722 62.8516 64.227 63.1961L63.5294 68.5309C63.2155 70.9182 64.6878 73.6062 66.819 74.5376L96.6838 87.543C96.8108 87.6009 96.9411 87.6473 97.0698 87.6847C97.463 87.8159 97.8531 87.8705 98.2212 87.8555C98.5535 87.847 98.8682 87.7829 99.1653 87.6631C99.4121 87.5708 99.6395 87.4434 99.8475 87.2809L99.8637 87.2687C99.9173 87.2296 99.9682 87.1855 100.015 87.1403" stroke="#FF71E1" stroke-width="0.5" stroke-miterlimit="10"/>
<path d="M68.9357 32.9261C69.036 32.8289 69.143 32.7378 69.2594 32.6579L69.2616 32.6501" stroke="#FF71E1" stroke-width="0.5" stroke-miterlimit="10"/>
<path d="M114.772 54.6009L115.023 54.3917" stroke="#FF71E1" stroke-width="0.5" stroke-miterlimit="10"/>
<path d="M144.536 104.851L144.532 104.85L144.492 104.885L144.47 104.904C144.253 105.084 144.025 105.241 143.785 105.382C143.528 105.538 143.254 105.669 142.973 105.777C142.686 105.891 142.39 105.977 142.084 106.04C141.763 106.111 141.431 106.149 141.088 106.163C140.106 106.197 139.056 105.996 137.986 105.53L115.91 95.9176C111.628 94.0492 108.665 88.6508 109.294 83.8558L109.426 82.88C109.564 81.8387 109.354 80.7425 108.898 79.7642" stroke="#FF71E1" stroke-width="0.5" stroke-miterlimit="10"/>
<path d="M188.617 118.23C188.184 118.643 187.722 119.026 187.24 119.374C187.003 119.549 186.756 119.713 186.508 119.868C186.26 120.023 186.005 120.172 185.749 120.312C185.493 120.452 185.221 120.587 184.948 120.71C181.898 122.108 178.291 122.367 174.513 121.268C173.729 121.04 172.942 120.752 172.145 120.407C164.945 117.273 159.292 110.015 157.009 101.987C156.438 99.9815 155.033 98.2811 153.365 97.518C153.349 97.5134 153.334 97.5089 153.32 97.4966" stroke="#FF71E1" stroke-width="0.5" stroke-miterlimit="10"/>
<path d="M153.266 97.4679C153.319 97.4455 153.37 97.4142 153.421 97.3828C153.891 97.107 154.316 96.7637 154.698 96.3529C155.06 95.9659 155.377 95.5154 155.645 95.0167C155.89 94.5663 156.089 94.0728 156.245 93.5374C156.365 93.1223 156.459 92.6826 156.518 92.2199C156.521 92.1788 156.528 92.1427 156.535 92.1028C156.57 91.8648 156.62 91.6353 156.683 91.418C156.729 91.2628 156.782 91.1099 156.84 90.967C156.968 90.6424 157.13 90.3486 157.32 90.0882C158.313 88.7107 160.053 88.2239 161.881 89.0207L162.898 89.4639C164.609 90.2101 166.064 91.9419 166.646 93.9837C168.927 102.016 174.582 109.27 181.782 112.404C182.578 112.749 183.366 113.037 184.149 113.265C185.421 113.635 186.669 113.851 187.883 113.922C188.249 113.944 188.61 113.953 188.968 113.943C189.32 113.94 189.667 113.924 190.009 113.897C190.343 113.868 190.676 113.83 191.004 113.778C191.327 113.729 191.646 113.666 191.958 113.597" stroke="#FF71E1" stroke-width="0.5" stroke-miterlimit="10"/>
<path d="M56.7247 68.399L19.1392 52.0282L24.667 9.94019" stroke="#FF71E1" stroke-width="0.5" stroke-miterlimit="10"/>
<path d="M101.404 85.9874C101.345 86.0459 101.284 86.0955 101.215 86.1429C101.012 86.3026 100.785 86.43 100.543 86.5196C100.246 86.6394 99.9273 86.7024 99.5949 86.7109C99.2268 86.7259 98.8406 86.6724 98.4474 86.5412C98.3187 86.5038 68.1967 73.3941 68.1967 73.3941C66.0643 72.4666 64.592 69.7786 64.9031 67.3863L65.6046 62.0526C65.7181 61.1683 65.5897 60.2431 65.2676 59.3877" stroke="#FF71E1" stroke-width="0.5" stroke-miterlimit="10"/>
<path d="M70.6095 31.5324L70.6383 31.5067L70.6536 31.4984" stroke="#FF71E1" stroke-width="0.5" stroke-miterlimit="10"/>
<path d="M70.3118 31.7819L70.3079 31.7808C70.1423 31.943 69.9928 32.1226 69.866 32.3256C69.6833 32.6048 69.5355 32.9237 69.4328 33.2768C69.3719 33.4863 69.3231 33.712 69.2928 33.9472L69.2595 34.2068" stroke="#FF71E1" stroke-width="0.5" stroke-miterlimit="10"/>
<path d="M145.888 103.725L145.886 103.733C145.658 103.919 145.418 104.089 145.163 104.238C144.906 104.395 144.635 104.526 144.35 104.637C144.063 104.751 143.762 104.84 143.452 104.902C143.132 104.969 142.804 105.008 142.466 105.019C142.103 105.031 141.733 105.012 141.355 104.957C140.708 104.869 140.04 104.679 139.364 104.386L117.288 94.774C113.005 92.9094 110.043 87.5072 110.672 82.7122L110.8 81.7352C110.944 80.6451 110.712 79.4921 110.209 78.4746" stroke="#FF71E1" stroke-width="0.5" stroke-miterlimit="10"/>
<path d="M116.383 53.2639C116.318 53.3124 116.257 53.362 116.199 53.4166C115.998 53.5853 115.813 53.7712 115.641 53.9695C115.434 54.1998 115.242 54.4551 115.07 54.725C115.026 54.7881 114.986 54.8522 114.947 54.9164" stroke="#FF71E1" stroke-width="0.5" stroke-miterlimit="10"/>
<path d="M167.911 76.2407C167.557 76.7143 167.112 77.0686 166.612 77.2893C166.353 77.4076 166.083 77.4932 165.798 77.5408C165.602 77.5763 165.399 77.5928 165.192 77.5915C165.098 77.5937 165.005 77.5921 164.911 77.5815" stroke="#FF71E1" stroke-width="0.5" stroke-miterlimit="10"/>
<path d="M190.008 113.897C190.342 113.868 190.675 113.83 191.003 113.778C191.326 113.729 191.644 113.666 191.956 113.597C192.264 113.526 192.567 113.446 192.868 113.357" stroke="#FF71E1" stroke-width="0.5" stroke-miterlimit="10"/>
<path d="M154.697 96.353C156.385 97.109 157.81 98.824 158.386 100.843C160.668 108.875 166.322 116.129 173.522 119.263C174.319 119.609 175.106 119.897 175.89 120.125C179.325 121.124 182.618 121 185.481 119.923C185.763 119.811 186.046 119.696 186.32 119.569C186.598 119.444 186.864 119.311 187.131 119.166C187.397 119.02 187.637 118.879 187.885 118.724C188.133 118.569 188.38 118.405 188.617 118.23C189.11 117.873 189.584 117.481 190.029 117.055" stroke="#FF71E1" stroke-width="0.5" stroke-miterlimit="10"/>
<path d="M189.626 114.922C189.298 114.974 188.965 115.012 188.631 115.041C188.289 115.067 187.946 115.085 187.594 115.088C186.039 115.111 184.425 114.89 182.771 114.409C181.988 114.181 181.2 113.893 180.404 113.548C173.208 110.415 167.549 103.16 165.267 95.1275C164.686 93.0857 163.231 91.3539 161.52 90.6077L160.507 90.1657C159.355 89.6622 158.236 89.6692 157.319 90.0884" stroke="#FF71E1" stroke-width="0.5" stroke-miterlimit="10"/>
<path d="M26.0405 8.79541L26.0394 8.79929L20.5167 50.8846L58.1021 67.2553" stroke="#FF71E1" stroke-width="0.5" stroke-miterlimit="10"/>
<path d="M102.721 84.8935L102.638 84.9618C102.422 85.1387 102.183 85.2755 101.921 85.376C101.624 85.4958 101.305 85.5588 100.973 85.5673C100.605 85.5823 100.219 85.5288 99.8217 85.3965C99.6969 85.3602 69.5749 72.2505 69.5749 72.2505C67.4425 71.323 65.9663 68.6338 66.2801 66.2466L66.9828 60.9091C67.1385 59.734 66.8518 58.4808 66.2628 57.4089C66.0827 57.083 65.8763 56.7747 65.6465 56.489" stroke="#FF71E1" stroke-width="0.5" stroke-miterlimit="10"/>
<path d="M72.032 30.3467L72.0298 30.3545C71.9085 30.437 71.7916 30.5335 71.6853 30.6372L71.6831 30.645C71.5147 30.8022 71.3691 30.9829 71.2385 31.1847C71.0596 31.4651 70.913 31.7802 70.8103 32.1332C70.7482 32.3466 70.255 35.9609 70.255 35.9609" stroke="#FF71E1" stroke-width="0.5" stroke-miterlimit="10"/>
<path d="M149.613 98.0973C149.267 98.0513 148.917 97.9748 148.563 97.8716" stroke="#FF71E1" stroke-width="0.5" stroke-miterlimit="10"/>
<path d="M110.844 76.1729C111.072 76.4624 111.279 76.7707 111.459 77.0966C112.044 78.1674 112.332 79.4167 112.176 80.5917L112.048 81.5687C111.419 86.3637 114.381 91.7659 118.664 93.6305L140.74 103.246C141.055 103.384 141.364 103.499 141.676 103.59C142.031 103.693 142.384 103.771 142.73 103.817C143.108 103.872 143.478 103.892 143.838 103.878C144.179 103.868 144.507 103.829 144.828 103.758C145.134 103.696 145.434 103.61 145.721 103.496C146.002 103.388 146.276 103.258 146.534 103.101C146.753 102.972 146.963 102.831 147.162 102.67L147.351 102.514" stroke="#FF71E1" stroke-width="0.5" stroke-miterlimit="10"/>
<path d="M117.716 52.1578C117.678 52.1848 117.645 52.2129 117.611 52.241C117.399 52.419 117.201 52.6183 117.013 52.8287C116.811 53.0601 116.62 53.3076 116.449 53.5775C116.267 53.8529 116.106 54.1429 115.965 54.4552C115.816 54.778 115.687 55.1192 115.582 55.48C115.56 55.5576 115.536 55.6391 115.516 55.7217" stroke="#FF71E1" stroke-width="0.5" stroke-miterlimit="10"/>
<path d="M165.009 77.3069L164.693 77.5642L164.817 77.575C164.849 77.5802 164.882 77.5815 164.912 77.5817C165.006 77.5923 165.099 77.5939 165.192 77.5917C165.399 77.593 165.603 77.5765 165.799 77.541C166.084 77.4934 166.354 77.4078 166.613 77.2895C167.112 77.0688 167.558 76.7145 167.912 76.2409C168.006 76.121 168.093 75.9949 168.17 75.8616C168.264 75.6994 168.365 75.5396 168.467 75.3798" stroke="#FF71E1" stroke-width="0.5" stroke-miterlimit="10"/>
<path d="M190.008 113.897C190.342 113.868 190.674 113.83 191.002 113.778C191.325 113.729 191.644 113.666 191.956 113.597C192.264 113.526 192.567 113.446 192.867 113.357C193.16 113.265 193.451 113.169 193.739 113.064" stroke="#FF71E1" stroke-width="0.5" stroke-miterlimit="10"/>
<path d="M155.645 95.0168L156.016 95.1796C157.727 95.9257 159.182 97.6575 159.763 99.6993C162.045 107.731 167.7 114.986 174.9 118.12C175.696 118.465 176.484 118.753 177.263 118.98C180.363 119.882 183.34 119.868 185.993 119.066C186.285 118.978 186.575 118.882 186.857 118.77C187.146 118.665 187.425 118.548 187.703 118.423C187.976 118.296 188.243 118.164 188.505 118.021C188.77 117.879 189.025 117.73 189.279 117.569C189.537 117.408 189.786 117.236 190.029 117.055C190.5 116.716 190.946 116.345 191.372 115.943" stroke="#FF71E1" stroke-width="0.5" stroke-miterlimit="10"/>
<path d="M27.4224 7.65275L27.4173 7.65549L21.8935 49.7447L59.48 66.1115" stroke="#FF71E1" stroke-width="0.5" stroke-miterlimit="10"/>
<path d="M66.8046 50.2953C67.5193 50.0193 68.3679 50.039 69.2426 50.4197C70.2937 50.8769 71.1811 51.7663 71.7702 52.8382C72.3553 53.9089 72.6392 55.1571 72.4863 56.3372L71.7886 61.672C71.4737 64.0631 72.9459 66.7511 75.0822 67.6797C75.0822 67.6797 105.418 80.8557 105.425 80.858L105.429 80.8591C105.792 80.9646 106.143 81.0079 106.48 80.9966C106.813 80.9881 107.133 80.9212 107.43 80.8014C107.437 80.8037 107.451 80.7993 107.464 80.7861C107.693 80.697 107.91 80.575 108.107 80.4219C108.165 80.3801 108.221 80.3332 108.273 80.2852" stroke="#FF71E1" stroke-width="0.5" stroke-miterlimit="10"/>
<path d="M104.12 83.7309L104.024 83.8125C103.814 83.9828 103.584 84.118 103.335 84.2181C103.32 84.2263 103.31 84.2318 103.297 84.2323C103 84.352 102.682 84.4151 102.349 84.4236C101.981 84.4385 101.591 84.3839 101.198 84.2527C101.069 84.2153 70.951 71.1067 70.951 71.1067C68.8186 70.1792 67.3425 67.4901 67.6563 65.1028L68.359 59.7653C68.5108 58.5891 68.2268 57.3409 67.6378 56.269C67.2134 55.4891 66.6258 54.8048 65.9316 54.3125" stroke="#FF71E1" stroke-width="0.5" stroke-miterlimit="10"/>
<path d="M73.3747 29.2355L73.4035 29.2098" stroke="#FF71E1" stroke-width="0.5" stroke-miterlimit="10"/>
<path d="M71.3464 36.9938L72.048 31.6601C72.0783 31.4249 72.1259 31.2031 72.1869 30.9936C72.2896 30.6406 72.4334 30.3205 72.6162 30.0413C72.7468 29.8394 72.8924 29.6587 73.0569 29.5004" stroke="#FF71E1" stroke-width="0.5" stroke-miterlimit="10"/>
<path d="M149.347 99.3034C149.389 99.3031 149.428 99.3016 149.467 99.2963C149.767 99.2826 150.057 99.245 150.34 99.1884C150.648 99.1181 150.948 99.0328 151.235 98.9185C151.459 98.8321 151.68 98.728 151.892 98.6088C151.945 98.5864 151.996 98.555 152.044 98.5226" stroke="#FF71E1" stroke-width="0.5" stroke-miterlimit="10"/>
<path d="M148.966 100.324C149.272 100.262 149.571 100.177 149.86 100.058C150.082 99.9759 150.303 99.8718 150.515 99.7526C150.569 99.7263 150.621 99.695 150.672 99.6636C150.882 99.5394 151.087 99.4013 151.285 99.2443L151.379 99.1666" stroke="#FF71E1" stroke-width="0.5" stroke-miterlimit="10"/>
<path d="M148.563 97.8716C148.918 97.9749 149.268 98.0514 149.614 98.0974C149.991 98.1524 150.362 98.1719 150.725 98.1597" stroke="#FF71E1" stroke-width="0.5" stroke-miterlimit="10"/>
<path d="M111.129 74.0002C111.82 74.4875 112.408 75.1718 112.832 75.9518C113.421 77.0236 113.705 78.2719 113.552 79.4519L113.426 80.425C112.796 85.22 115.759 90.6222 120.042 92.4868L142.117 102.103C142.249 102.158 142.381 102.213 142.51 102.263C142.693 102.333 142.874 102.394 143.053 102.446C143.408 102.55 143.758 102.626 144.103 102.676C144.481 102.727 144.852 102.747 145.215 102.734C145.556 102.724 145.885 102.685 146.206 102.615C146.515 102.553 146.816 102.464 147.103 102.35C147.331 102.264 147.552 102.16 147.764 102.041C147.813 102.018 147.863 101.99 147.911 101.958C148.13 101.828 148.341 101.687 148.536 101.525C148.61 101.475 148.673 101.418 148.736 101.36" stroke="#FF71E1" stroke-width="0.5" stroke-miterlimit="10"/>
<path d="M116.543 56.6813L116.671 55.7043C116.678 55.6516 116.686 55.595 116.693 55.5423C116.757 55.1191 116.845 54.7154 116.959 54.3364C117.064 53.9755 117.193 53.6343 117.346 53.3127C117.483 52.9992 117.645 52.7054 117.831 52.4311C117.997 52.164 118.188 51.9164 118.389 51.6889C118.586 51.4641 118.803 51.2539 119.027 51.0665L119.049 51.0478" stroke="#FF71E1" stroke-width="0.5" stroke-miterlimit="10"/>
<path d="M169.005 74.5897C168.816 74.8461 168.634 75.1088 168.467 75.3798C168.365 75.5396 168.264 75.6995 168.17 75.8616C168.093 75.9949 168.006 76.121 167.912 76.2409C167.558 76.7146 167.113 77.0688 166.613 77.2895C166.354 77.4079 166.084 77.4934 165.799 77.5411C165.603 77.5765 165.399 77.593 165.193 77.5918C165.099 77.594 165.006 77.5923 164.912 77.5817C164.883 77.5815 164.849 77.5802 164.817 77.575" stroke="#FF71E1" stroke-width="0.5" stroke-miterlimit="10"/>
<path d="M166.699 75.9303C166.699 75.9303 166.689 75.9358 166.687 75.9437" stroke="#FF71E1" stroke-width="0.5" stroke-miterlimit="10"/>
<path d="M165.662 76.7605L165.627 76.7928" stroke="#FF71E1" stroke-width="0.5" stroke-miterlimit="10"/>
<path d="M166.39 76.1642L166.362 76.1859" stroke="#FF71E1" stroke-width="0.5" stroke-miterlimit="10"/>
<path d="M190.009 113.897C190.343 113.868 190.675 113.83 191.003 113.778C191.326 113.729 191.645 113.666 191.957 113.597C192.265 113.526 192.567 113.446 192.868 113.357C193.161 113.265 193.451 113.169 193.74 113.063C194.026 112.953 194.305 112.836 194.584 112.707" stroke="#FF71E1" stroke-width="0.5" stroke-miterlimit="10"/>
<path d="M156.243 93.5374C156.285 93.5537 156.331 93.5712 156.375 93.5926L157.392 94.0358C159.104 94.7819 160.558 96.5137 161.139 98.5594C163.422 106.588 169.076 113.842 176.276 116.976C177.073 117.321 177.86 117.609 178.644 117.837C181.389 118.636 184.038 118.716 186.452 118.169C186.76 118.098 187.059 118.017 187.358 117.932C187.651 117.84 187.943 117.74 188.231 117.634C188.516 117.528 188.796 117.407 189.074 117.282C189.352 117.156 189.62 117.02 189.885 116.878C190.141 116.738 190.396 116.589 190.644 116.434C190.892 116.279 191.13 116.117 191.371 115.943C191.864 115.586 192.338 115.193 192.783 114.767" stroke="#FF71E1" stroke-width="0.5" stroke-miterlimit="10"/>
<path d="M66.1582 52.5771C66.2674 52.6089 66.3759 52.6573 66.4895 52.703C67.5407 53.1603 68.427 54.0535 69.016 55.1254C69.605 56.1973 69.8929 57.4466 69.736 58.6255L69.0345 63.9592C68.7207 66.3464 70.1968 69.0356 72.3281 69.967C72.3281 69.967 102.644 83.1373 102.675 83.1463C103.038 83.2518 103.389 83.2951 103.726 83.2838C104.059 83.2753 104.373 83.2111 104.67 83.0914C104.683 83.0909 104.698 83.0827 104.712 83.0783C104.938 82.9842 105.156 82.8623 105.351 82.713L105.548 82.5471" stroke="#FF71E1" stroke-width="0.5" stroke-miterlimit="10"/>
<path d="M74.7314 28.1029L74.754 28.084L74.7806 28.0662" stroke="#FF71E1" stroke-width="0.5" stroke-miterlimit="10"/>
<path d="M74.4534 28.3368L74.436 28.3528C74.2704 28.515 74.1248 28.6957 73.9942 28.8975C73.8114 29.1768 73.6676 29.4969 73.5649 29.8499C73.5039 30.0594 73.4563 30.2812 73.426 30.5164L72.4976 37.5894" stroke="#FF71E1" stroke-width="0.5" stroke-miterlimit="10"/>
<path d="M148.563 97.8716C148.918 97.9749 149.268 98.0514 149.614 98.0974C149.991 98.1524 150.362 98.1719 150.725 98.1597" stroke="#FF71E1" stroke-width="0.5" stroke-miterlimit="10"/>
<path d="M111.356 72.261C111.464 72.2966 111.574 72.3412 111.684 72.3857C112.734 72.8469 113.621 73.7362 114.21 74.8081C114.799 75.88 115.086 77.1332 114.93 78.3082L114.804 79.2813C114.173 84.0802 117.137 89.4785 121.42 91.3431L143.491 100.958C143.623 101.013 143.755 101.068 143.888 101.12C144.041 101.177 144.19 101.229 144.339 101.272C144.369 101.285 144.4 101.294 144.431 101.303C144.786 101.406 145.136 101.483 145.482 101.528C145.859 101.584 146.23 101.603 146.593 101.591C146.635 101.591 146.674 101.589 146.713 101.584C147.013 101.57 147.305 101.529 147.588 101.472C147.894 101.406 148.194 101.32 148.482 101.202C148.705 101.12 148.926 101.015 149.138 100.896C149.192 100.87 149.248 100.84 149.299 100.808C149.503 100.687 149.698 100.554 149.885 100.407L150.113 100.22" stroke="#FF71E1" stroke-width="0.5" stroke-miterlimit="10"/>
<path d="M150.849 98.1538C150.809 98.1591 150.766 98.1594 150.724 98.1597" stroke="#FF71E1" stroke-width="0.5" stroke-miterlimit="10"/>
<path d="M151.714 98.0438C151.432 98.1003 151.145 98.1391 150.849 98.154" stroke="#FF71E1" stroke-width="0.5" stroke-miterlimit="10"/>
<path d="M120.427 49.9042L120.405 49.923C120.181 50.1104 119.964 50.3206 119.767 50.5453C119.56 50.7756 119.374 51.0243 119.204 51.2903C119.023 51.5619 118.865 51.8568 118.725 52.1652C118.572 52.4869 118.442 52.832 118.337 53.1928C118.223 53.5719 118.135 53.9755 118.071 54.3988C118.064 54.4515 118.056 54.5081 118.049 54.5608L117.884 55.8129L117.692 57.272" stroke="#FF71E1" stroke-width="0.5" stroke-miterlimit="10"/>
<path d="M168.08 74.7877C168.08 74.7877 168.065 74.7959 168.064 74.7998L167.82 74.9818" stroke="#FF71E1" stroke-width="0.5" stroke-miterlimit="10"/>
<path d="M166.7 75.9302C166.7 75.9302 166.69 75.9357 166.687 75.9434C166.472 76.1459 166.258 76.3572 166.058 76.5809C165.845 76.805 165.642 77.0364 165.445 77.2778C165.36 77.3794 165.275 77.485 165.193 77.5916C165.4 77.5929 165.603 77.5764 165.8 77.5409C166.084 77.4933 166.354 77.4077 166.613 77.2894C167.113 77.0687 167.558 76.7144 167.912 76.2408C168.006 76.1209 168.093 75.9948 168.17 75.8615C168.264 75.6993 168.365 75.5395 168.467 75.3797C168.635 75.1086 168.817 74.846 169.005 74.5895C169.185 74.3347 169.376 74.0871 169.572 73.8496" stroke="#FF71E1" stroke-width="0.5" stroke-miterlimit="10"/>
<path d="M190.009 113.897C190.343 113.868 190.676 113.83 191.004 113.778C191.327 113.729 191.645 113.666 191.957 113.597C192.265 113.526 192.568 113.446 192.869 113.357C193.162 113.265 193.452 113.169 193.741 113.064C194.027 112.953 194.306 112.837 194.584 112.707C194.857 112.585 195.124 112.452 195.382 112.308" stroke="#FF71E1" stroke-width="0.5" stroke-miterlimit="10"/>
<path d="M194.121 113.658C193.701 114.058 193.251 114.428 192.784 114.767C192.541 114.949 192.288 115.12 192.03 115.28C191.786 115.436 191.531 115.585 191.269 115.728C191.004 115.87 190.732 116.005 190.458 116.132C190.18 116.261 189.9 116.378 189.616 116.484C189.326 116.593 189.036 116.69 188.743 116.781C188.442 116.87 188.135 116.95 187.827 117.02C187.514 117.093 187.197 117.152 186.878 117.202C184.72 117.538 182.4 117.385 180.01 116.69C179.23 116.463 178.442 116.179 177.65 115.835C170.454 112.698 164.796 105.443 162.513 97.4147C161.932 95.369 160.482 93.6383 158.767 92.891L157.753 92.449C157.34 92.2699 156.93 92.1547 156.534 92.1028" stroke="#FF71E1" stroke-width="0.5" stroke-miterlimit="10"/>
<path d="M30.1714 5.36816L24.6475 47.4573L62.2302 63.8231" stroke="#FF71E1" stroke-width="0.5" stroke-miterlimit="10"/>
<path d="M66.3776 51.2524C66.851 51.2387 67.3509 51.3378 67.8648 51.563C68.9159 52.0203 69.8072 52.9108 70.3924 53.9815C70.9775 55.0523 71.2642 56.3055 71.1085 57.4805L70.4108 62.8154C70.097 65.2026 71.5731 67.8917 73.7044 68.8231C73.7044 68.8231 103.823 81.9317 103.951 81.9691C103.981 81.9821 104.012 81.9911 104.044 82.0002C104.406 82.1057 104.76 82.154 105.103 82.14C105.435 82.1315 105.755 82.0646 106.051 81.9487" stroke="#FF71E1" stroke-width="0.5" stroke-miterlimit="10"/>
<path d="M106.089 81.9346C106.291 81.8504 106.482 81.746 106.663 81.6178L106.881 81.437" stroke="#FF71E1" stroke-width="0.5" stroke-miterlimit="10"/>
<path d="M107.453 80.7659C107.453 80.7659 107.437 80.791 107.43 80.8016" stroke="#FF71E1" stroke-width="0.5" stroke-miterlimit="10"/>
<path d="M76.1587 26.9226L76.0695 26.9944" stroke="#FF71E1" stroke-width="0.5" stroke-miterlimit="10"/>
<path d="M75.8908 27.1435L75.8125 27.2091C75.6469 27.3713 75.5013 27.5519 75.3707 27.7538C75.1879 28.0331 75.0441 28.3531 74.9414 28.7062C74.8804 28.9157 74.8317 29.1413 74.8013 29.3766C74.8013 29.3766 73.7101 37.5762 73.6526 37.774" stroke="#FF71E1" stroke-width="0.5" stroke-miterlimit="10"/>
<path d="M150.849 98.1538C150.809 98.1591 150.766 98.1594 150.724 98.1597" stroke="#FF71E1" stroke-width="0.5" stroke-miterlimit="10"/>
<path d="M148.563 97.8716C148.918 97.9749 149.268 98.0514 149.614 98.0974C149.991 98.1524 150.362 98.1719 150.725 98.1597" stroke="#FF71E1" stroke-width="0.5" stroke-miterlimit="10"/>
<path d="M148.965 100.324C148.681 100.385 148.39 100.426 148.09 100.44C148.05 100.445 148.012 100.447 147.969 100.447C147.606 100.459 147.236 100.44 146.858 100.385C146.512 100.339 146.162 100.262 145.808 100.159C145.776 100.15 145.745 100.141 145.714 100.132C145.566 100.089 145.416 100.037 145.267 99.9807C145.134 99.9294 145.001 99.878 144.866 99.8178L122.79 90.2059C118.508 88.3374 115.549 82.9403 116.178 78.1453L116.306 77.1683C116.459 75.9883 116.175 74.74 115.586 73.6682C115.001 72.5974 114.109 71.7069 113.058 71.2496C112.548 71.0255 112.044 70.9253 111.575 70.9402" stroke="#FF71E1" stroke-width="0.5" stroke-miterlimit="10"/>
<path d="M150.849 98.1538C151.145 98.139 151.431 98.1002 151.714 98.0437C152.02 97.9811 152.316 97.8947 152.603 97.7804" stroke="#FF71E1" stroke-width="0.5" stroke-miterlimit="10"/>
<path d="M118.848 57.4567C118.905 57.2588 118.948 57.0525 118.975 56.8289L119.048 56.2736L119.261 54.6692L119.426 53.417C119.434 53.3605 119.441 53.3077 119.449 53.2512C119.512 52.8318 119.599 52.432 119.713 52.0529C119.818 51.6921 119.948 51.347 120.101 51.0254C120.238 50.7158 120.399 50.422 120.58 50.1505C120.751 49.8806 120.938 49.6319 121.144 49.4016C121.347 49.1702 121.565 48.96 121.798 48.7671" stroke="#FF71E1" stroke-width="0.5" stroke-miterlimit="10"/>
<path d="M170.183 73.1565C169.97 73.3806 169.767 73.612 169.572 73.8496C169.376 74.0871 169.185 74.3347 169.005 74.5895C168.816 74.846 168.634 75.1086 168.467 75.3797C168.365 75.5395 168.264 75.6993 168.17 75.8615C168.093 75.9948 168.006 76.1209 167.912 76.2408C167.558 76.7144 167.112 77.0687 166.613 77.2894C166.354 77.4077 166.084 77.4933 165.799 77.5409C165.942 77.3131 166.096 77.0886 166.256 76.8741C166.437 76.6154 166.627 76.3678 166.828 76.1275C167.02 75.8888 167.222 75.6613 167.43 75.4399C167.634 75.2174 167.844 75.005 168.064 74.7998C168.065 74.7959 168.067 74.792 168.081 74.7876C168.145 74.7264 168.208 74.6691 168.271 74.6117" stroke="#FF71E1" stroke-width="0.5" stroke-miterlimit="10"/>
<path d="M169.439 73.6552C169.406 73.6797 169.375 73.7003 169.346 73.7259" stroke="#FF71E1" stroke-width="0.5" stroke-miterlimit="10"/>
<path d="M190.008 113.897C190.343 113.868 190.675 113.83 191.003 113.778C191.326 113.729 191.645 113.666 191.957 113.597C192.265 113.526 192.567 113.446 192.868 113.357C193.161 113.265 193.451 113.169 193.74 113.063C194.026 112.953 194.305 112.837 194.584 112.707C194.856 112.584 195.123 112.452 195.381 112.308C195.645 112.17 195.9 112.021 196.149 111.862" stroke="#FF71E1" stroke-width="0.5" stroke-miterlimit="10"/>
<path d="M156.84 90.9672C157.552 90.8589 158.331 90.9591 159.13 91.3094L160.143 91.7515C161.86 92.4949 163.31 94.2255 163.891 96.2712C166.174 104.299 171.831 111.559 179.027 114.691C179.823 115.037 180.611 115.325 181.395 115.553C183.418 116.141 185.394 116.342 187.258 116.186C187.593 116.156 187.921 116.117 188.249 116.066C188.572 116.016 188.891 115.953 189.203 115.884C189.511 115.814 189.813 115.734 190.114 115.644C190.407 115.553 190.697 115.456 190.986 115.351C191.272 115.241 191.551 115.124 191.83 114.995C192.102 114.872 192.371 114.735 192.636 114.594C192.896 114.455 193.151 114.306 193.4 114.147C193.644 113.991 193.886 113.83 194.122 113.659C194.604 113.311 195.066 112.928 195.499 112.515" stroke="#FF71E1" stroke-width="0.5" stroke-miterlimit="10"/>
<path d="M63.607 62.6831L26.0216 46.3124L31.5493 4.22437" stroke="#FF71E1" stroke-width="0.5" stroke-miterlimit="10"/>
<path d="M108.803 79.6564C108.505 79.7801 108.19 79.8442 107.858 79.8527C107.516 79.8667 107.162 79.8185 106.799 79.713C106.768 79.7039 106.737 79.6948 106.707 79.6819C106.578 79.6445 106.448 79.5981 106.321 79.5402L105.54 79.1995L76.4599 66.5359C74.3236 65.6072 72.8513 62.9192 73.1663 60.5281L73.8639 55.1933C74.0197 54.0183 73.7329 52.765 73.1439 51.6932C72.5549 50.6213 71.6675 49.7319 70.6163 49.2747C69.0657 48.6006 67.5954 49.0607 66.8049 50.2951C66.6272 50.5717 66.4822 50.8956 66.3784 51.2525C66.3219 51.4465 66.2805 51.6617 66.2507 51.8803L64.9844 61.5396L27.399 45.1688L32.9268 3.08081L70.5083 19.4504L68.9235 31.5419C68.8634 31.9957 68.8707 32.465 68.9354 32.9256C68.9523 33.0568 68.9769 33.1902 69.0054 33.3247C69.0663 33.6244 69.1539 33.9192 69.2605 34.2069C69.3196 34.3671 69.3877 34.5258 69.4607 34.6817C69.5183 34.8037 69.5809 34.9229 69.6435 35.0421C69.8197 35.3668 70.0261 35.6751 70.2559 35.9608C70.5763 36.357 70.9425 36.7118 71.3469 36.9936C71.6089 37.1834 71.881 37.3383 72.17 37.4645C72.2797 37.509 72.3894 37.5535 72.4974 37.5892C72.8934 37.7254 73.2824 37.7839 73.6533 37.7739C73.9895 37.7665 74.307 37.7074 74.6029 37.5915C74.8497 37.4992 75.0771 37.3718 75.2812 37.2081C75.7027 36.8931 76.0394 36.4482 76.2677 35.8961C76.3925 35.5831 76.4852 35.2356 76.5356 34.8589L77.5528 27.088C77.5831 26.8528 77.6319 26.6271 77.6928 26.4176C77.7955 26.0645 77.9422 25.7495 78.1249 25.4702C78.2892 25.2108 78.4845 24.9899 78.7043 24.8014C79.5438 24.082 80.7377 23.9033 81.9837 24.4467L111.845 37.451C113.977 38.3785 115.453 41.0676 115.138 43.4588L114.118 51.2246C113.971 52.3558 114.226 53.5578 114.773 54.6005C114.794 54.6445 114.816 54.6846 114.838 54.7247C114.852 54.7498 114.869 54.7799 114.884 54.8011C114.905 54.8451 114.928 54.8813 114.947 54.9164C115.066 55.1192 115.197 55.3088 115.333 55.4956C115.395 55.5726 115.453 55.6485 115.517 55.7216C115.82 56.0877 116.17 56.4125 116.544 56.6813C116.804 56.8661 117.08 57.0221 117.365 57.1471C117.474 57.1917 117.584 57.2362 117.692 57.2718C118.088 57.4081 118.477 57.4665 118.848 57.4566C119.183 57.4531 119.502 57.3901 119.799 57.2703C120.04 57.1807 120.268 57.0533 120.475 56.8947C120.896 56.5797 121.234 56.1309 121.462 55.5787C121.587 55.2658 121.68 54.9182 121.73 54.5415L121.803 53.9862L122.011 52.3845L122.176 51.1324C122.183 51.0797 122.191 51.0231 122.198 50.9704C122.262 50.5471 122.349 50.1474 122.464 49.7644C122.569 49.4036 122.697 49.0662 122.846 48.7434C122.988 48.4312 123.148 48.1412 123.33 47.8658C123.5 47.5998 123.687 47.3511 123.893 47.1208C125.58 45.2045 128.264 44.6008 131.071 45.8256L153.147 55.4375C157.43 57.3021 160.392 62.7043 159.763 67.4993L159.443 69.9353C159.255 71.3827 159.604 72.9151 160.328 74.2365C161.05 75.5491 162.138 76.6484 163.434 77.2105C163.858 77.3969 164.281 77.5116 164.693 77.5641L164.817 77.5749C164.849 77.5801 164.883 77.5814 164.912 77.5816C165.006 77.5921 165.099 77.5938 165.193 77.5916C165.399 77.5929 165.603 77.5763 165.799 77.5409C166.084 77.4932 166.354 77.4077 166.613 77.2894C167.112 77.0687 167.558 76.7144 167.912 76.2407C168.006 76.1208 168.093 75.9948 168.17 75.8614C168.264 75.6993 168.365 75.5395 168.467 75.3796C168.634 75.1086 168.816 74.846 169.005 74.5895C169.185 74.3347 169.376 74.0871 169.572 73.8495C169.767 73.612 169.97 73.3806 170.183 73.1565C170.384 72.9328 170.599 72.7176 170.815 72.5113C174.928 68.6243 180.981 67.5576 187.305 70.3148C192.496 72.578 196.884 76.9768 199.786 82.2648C202.687 87.5567 204.097 93.7317 203.336 99.5447C202.64 104.846 200.255 108.929 196.876 111.371" stroke="#FF71E1" stroke-width="0.5" stroke-miterlimit="10"/>
<path d="M148.563 97.8716C148.918 97.9749 149.268 98.0514 149.614 98.0974C149.991 98.1524 150.362 98.1719 150.725 98.1597" stroke="#FF71E1" stroke-width="0.5" stroke-miterlimit="10"/>
<path d="M112.003 69.979C112.719 69.6991 113.566 69.7226 114.437 70.1022C115.488 70.5595 116.375 71.4488 116.964 72.5207C117.553 73.5926 117.84 74.8458 117.684 76.0208L117.557 76.9978C116.927 81.7928 119.886 87.1939 124.169 89.0585L146.245 98.6704C146.377 98.7256 146.509 98.7808 146.642 98.8321C146.795 98.8892 146.944 98.9412 147.097 98.9854C147.128 98.9945 147.159 99.0035 147.186 99.0115C147.541 99.1147 147.891 99.1913 148.237 99.2372C148.614 99.2923 148.985 99.3118 149.348 99.2996" stroke="#FF71E1" stroke-width="0.5" stroke-miterlimit="10"/>
<path d="M150.849 98.1538C150.809 98.1591 150.766 98.1594 150.724 98.1597" stroke="#FF71E1" stroke-width="0.5" stroke-miterlimit="10"/>
<path d="M150.849 98.154C151.146 98.1391 151.432 98.1004 151.715 98.0438C152.02 97.9813 152.316 97.8948 152.603 97.7805C152.827 97.6942 153.047 97.5939 153.261 97.4669C153.314 97.4445 153.366 97.4132 153.417 97.3818" stroke="#FF71E1" stroke-width="0.5" stroke-miterlimit="10"/>
<path d="M152.044 98.5226C152.258 98.3995 152.464 98.2575 152.661 98.1044L152.835 97.9572" stroke="#FF71E1" stroke-width="0.5" stroke-miterlimit="10"/>
<path d="M77.4492 25.842L77.4156 25.8701L77.3161 25.9506L77.2987 25.9666L77.2814 25.9826C77.0817 26.1601 76.9014 26.3728 76.7467 26.6139C76.5639 26.8932 76.4173 27.2082 76.3146 27.5613C76.2537 27.7708 76.2049 27.9965 76.1746 28.2317L75.1573 36.0026C75.107 36.3793 75.0143 36.7268 74.8895 37.0398C74.8062 37.2386 74.7108 37.4212 74.602 37.5916" stroke="#FF71E1" stroke-width="0.5" stroke-miterlimit="10"/>
<path d="M123.17 47.6301C122.942 47.8163 122.725 48.0265 122.527 48.2552C122.32 48.4855 122.129 48.7369 121.957 49.0068C121.777 49.2783 121.615 49.5722 121.474 49.8845C121.325 50.2072 121.196 50.5485 121.091 50.9093C120.976 51.2884 120.89 51.6881 120.826 52.1114C120.819 52.1641 120.811 52.2207 120.803 52.2773L120.638 53.5255L120.425 55.1299L120.353 55.6853C120.302 56.062 120.21 56.4095 120.085 56.7225C120.003 56.9174 119.911 57.1012 119.799 57.2704C120.04 57.1808 120.268 57.0534 120.475 56.8948C120.896 56.5798 121.234 56.131 121.462 55.5788C121.587 55.2659 121.68 54.9183 121.73 54.5416L121.803 53.9863L122.011 52.3846L122.176 51.1325C122.183 51.0798 122.191 51.0232 122.198 50.9705C122.262 50.5472 122.349 50.1474 122.464 49.7645C122.569 49.4037 122.697 49.0663 122.846 48.7435C122.987 48.4313 123.148 48.1413 123.33 47.8659C123.5 47.5999 123.687 47.3512 123.893 47.1209" stroke="#FF71E1" stroke-width="0.5" stroke-miterlimit="10"/>
<path d="M169.518 73.5779C169.494 73.6044 169.465 73.6298 169.437 73.6552C169.22 73.8615 169.01 74.074 168.806 74.2965C168.598 74.5178 168.395 74.7492 168.199 74.9868C168.003 75.2243 167.813 75.4719 167.633 75.7268C167.444 75.9832 167.265 76.2509 167.092 76.5247C166.991 76.6845 166.889 76.8443 166.796 77.0064C166.738 77.1033 166.676 77.1989 166.612 77.2896" stroke="#FF71E1" stroke-width="0.5" stroke-miterlimit="10"/>
<path d="M190.008 113.897C190.342 113.868 190.675 113.83 191.003 113.778C191.326 113.729 191.645 113.666 191.956 113.597C192.264 113.527 192.567 113.446 192.868 113.357C193.161 113.266 193.451 113.169 193.74 113.064C194.026 112.953 194.305 112.837 194.584 112.707C194.856 112.585 195.123 112.452 195.381 112.308C195.645 112.17 195.9 112.021 196.149 111.862C196.397 111.707 196.64 111.542 196.876 111.371C196.442 111.784 195.98 112.167 195.498 112.515C195.261 112.69 195.015 112.854 194.767 113.009C194.518 113.164 194.269 113.31 194.012 113.45C193.747 113.592 193.479 113.728 193.206 113.851C192.928 113.98 192.648 114.097 192.362 114.207C192.074 114.313 191.784 114.409 191.49 114.501C191.19 114.59 190.887 114.67 190.579 114.741C190.267 114.81 189.949 114.873 189.626 114.922" stroke="#FF71E1" stroke-width="0.5" stroke-miterlimit="10"/>
<path d="M148.563 97.8716C148.918 97.9749 149.268 98.0514 149.614 98.0974C149.991 98.1524 150.362 98.1719 150.725 98.1597" stroke="#FF71E1" stroke-width="0.5" stroke-miterlimit="10"/>
<path d="M148.564 97.8719C148.533 97.8627 148.501 97.8536 148.466 97.8433" stroke="#FF71E1" stroke-width="0.5" stroke-miterlimit="10"/>
<path d="M150.849 98.1538C150.809 98.1591 150.766 98.1594 150.724 98.1597" stroke="#FF71E1" stroke-width="0.5" stroke-miterlimit="10"/>
<path d="M60.8532 64.9666L23.2706 48.6009L28.7944 6.51172" stroke="#FF71E1" stroke-width="0.5" stroke-miterlimit="10"/>
<path d="M17.7819 15.6545L19.1592 14.5109L20.5365 13.3672L21.9127 12.2274L23.2901 11.0838L24.6674 9.94011L26.0397 8.79919L26.0409 8.79531L27.4171 7.65553L27.4221 7.65279L28.7944 6.51187L30.1717 5.36821L31.5491 4.22454L32.9264 3.08088" stroke="#FF71E1" stroke-width="0.5" stroke-miterlimit="10"/>
<path d="M27.3996 45.1689L12.2589 57.7437" stroke="#FF71E1" stroke-width="0.5" stroke-miterlimit="10"/>
<path d="M78.7036 24.8014L77.4493 25.842L77.4157 25.8701L77.3162 25.9506L77.2989 25.9666L77.2815 25.9826L76.158 26.9223L76.0697 26.9934L75.8907 27.1434L75.8124 27.2089L74.7807 28.066L74.7544 28.0836L74.7321 28.1024L74.4524 28.3366L74.4351 28.3526L73.4034 29.2097L73.3748 29.235L73.0578 29.4963L73.0566 29.5001L72.0322 30.3467L72.026 30.3533" stroke="#FF71E1" stroke-width="0.5" stroke-miterlimit="10"/>
<path d="M94.5163 91.7058L95.7035 90.7214L95.8775 90.5742L97.0809 89.5777L97.2548 89.4305L98.4582 88.4341L98.6483 88.2748L99.8467 87.281L100.014 87.1405L101.214 86.1429L101.403 85.9874L102.636 84.9617L102.719 84.8934L103.388 84.3389L104.023 83.8126L104.119 83.731L104.766 83.1953L105.35 82.713L105.546 82.5471L106.143 82.0516L106.662 81.6178L106.88 81.437L107.519 80.9118L108.106 80.4218L108.272 80.2851L108.898 79.7643L109.428 79.3211L109.494 79.2688L109.633 79.1536" stroke="#FF71E1" stroke-width="0.5" stroke-miterlimit="10"/>
<path d="M71.6864 30.6372L71.6803 30.6439L70.6536 31.4982L70.6385 31.5064L70.6099 31.5318L70.313 31.782L70.308 31.7848L69.265 32.6512L69.2589 32.6578" stroke="#FF71E1" stroke-width="0.5" stroke-miterlimit="10"/>
<path d="M64.984 61.5397L64.2531 62.1476L63.6067 62.6834L62.8758 63.2913L62.2305 63.8231L61.4985 64.435L60.1262 65.5759L59.4797 66.1116L58.7488 66.7196L58.1024 67.2553L56.725 68.3989L55.3488 69.5387L53.9715 70.6824L52.5942 71.826L51.2168 72.9697L49.8434 74.1145" stroke="#FF71E1" stroke-width="0.5" stroke-miterlimit="10"/>
<path d="M124.459 46.5575L114.773 54.6006" stroke="#FF71E1" stroke-width="0.5" stroke-miterlimit="10"/>
<path d="M164.694 77.5643L165.01 77.3069L165.629 76.7927L165.663 76.7607L166.363 76.1859L166.391 76.1644L166.947 75.7075L166.948 75.7037L167.822 74.9817L167.833 74.9723" stroke="#FF71E1" stroke-width="0.5" stroke-miterlimit="10"/>
<path d="M170.815 72.5112L169.519 73.5776L169.496 73.6002L169.491 73.603" stroke="#FF71E1" stroke-width="0.5" stroke-miterlimit="10"/>
<path d="M169.345 73.725L168.271 74.6118" stroke="#FF71E1" stroke-width="0.5" stroke-miterlimit="10"/>
<path d="M153.973 97.013L153.365 97.5179L152.835 97.9572L152.661 98.1044L151.992 98.6588L151.38 99.1664L151.285 99.2442L150.615 99.8025L150.113 100.22L149.885 100.407L149.238 100.946L148.737 101.36L148.537 101.525L147.86 102.09L147.352 102.514L147.163 102.67L145.888 103.725L145.885 103.733L144.536 104.851L144.531 104.854L144.493 104.885L144.47 104.903L143.176 105.979L143.149 106L143.121 106.026L143.116 106.028L141.771 107.148L141.748 107.167L140.393 108.292L140.372 108.306L140.338 108.334L139.061 109.398L139.049 109.407" stroke="#FF71E1" stroke-width="0.5" stroke-miterlimit="10"/>
<path d="M201.744 98.766C202.444 93.4823 201.183 87.8723 198.575 83.0697C195.966 78.271 192.013 74.2807 187.335 72.2338C183.616 70.6092 179.165 70.135 175.369 71.7446C172.619 72.9099 170.717 74.957 169.486 77.4436C168.363 79.7048 165.703 80.7362 163.382 79.7159L163.235 79.6523C159.583 78.047 157.42 74.2448 157.927 70.3064L157.965 70.0018L158.257 67.7765C158.833 63.3954 156.125 58.4584 152.209 56.7554L132.037 47.9708C129.474 46.8508 127.021 47.4037 125.479 49.156C125.291 49.3664 125.119 49.5941 124.964 49.8353C124.798 50.0858 124.653 50.3508 124.524 50.6371C124.387 50.9338 124.272 51.2413 124.176 51.5711C124.074 51.9202 123.989 52.2867 123.931 52.6739C123.925 52.7227 123.918 52.7754 123.909 52.8231L123.758 53.966L123.569 55.4301L123.502 55.9366C123.113 58.9036 119.868 60.2868 117.112 59.0767L116.407 58.7664C113.309 57.4066 111.576 54.5543 112.007 51.2122L112.922 44.2575C113.202 42.1171 111.881 39.7088 109.975 38.8765L83.2333 27.23C82.1193 26.7418 81.0492 26.9018 80.2954 27.5451C80.0979 27.7149 79.9222 27.9121 79.7786 28.1438C79.6127 28.3943 79.484 28.6767 79.3926 28.991C79.3384 29.1772 79.2965 29.3796 79.269 29.5904L78.6188 34.5729C78.479 35.6642 78.3475 36.7705 77.8572 37.7725C77.4417 38.6194 76.6359 39.2813 75.7665 39.6386C74.452 40.1735 72.8512 39.9772 71.5746 39.408C68.5448 38.0763 66.7569 34.9178 67.187 31.6512L68.6302 20.6421L34.4004 5.74829L29.3675 44.071L63.59 58.9753C63.59 58.9753 63.8466 57.0175 63.8477 57.0136L64.1914 54.3784L64.6954 50.5526C65.0751 47.6628 68.1367 45.9487 70.8174 47.1283L71.9354 47.6176C74.7181 48.8395 76.3596 51.7451 75.9612 54.7431C75.9566 54.7586 75.9544 54.7664 75.9544 54.7664L75.3306 59.542C75.0505 61.6823 76.3676 64.0895 78.2779 64.923C78.2779 64.923 105.417 76.7146 105.444 76.7226C105.768 76.8167 106.085 76.8586 106.393 76.8472C106.691 76.8412 106.975 76.7808 107.239 76.6725C107.251 76.6759 107.257 76.6693 107.272 76.661C107.334 76.637 107.397 76.609 107.456 76.58C107.494 76.5658 107.53 76.5466 107.566 76.5235C107.601 76.5042 107.632 76.4839 107.673 76.4619C107.714 76.4361 107.756 76.4064 107.799 76.3766L107.859 76.3309C107.902 76.2973 107.945 76.2676 107.982 76.2279C108.077 76.1463 108.163 76.0574 108.245 75.9635C108.283 75.9199 108.322 75.8724 108.356 75.8276C108.405 75.7618 108.451 75.691 108.496 75.6241C108.737 75.2314 108.909 74.7555 108.979 74.2118L109.066 73.5638C109.193 72.7046 109.346 71.7433 109.519 70.6955C109.76 69.259 109.842 68.858 110.146 68.4118C110.764 67.5062 111.76 67.1941 112.189 67.0579C114.931 66.1936 117.643 68.1102 118.072 68.4243C118.599 68.809 119.778 69.699 120.498 71.3647C121.277 73.165 121.051 74.7866 120.931 75.4166C120.354 79.7977 123.063 84.7347 126.979 86.4377L147.151 95.2223C147.275 95.2753 147.397 95.3232 147.514 95.37C147.651 95.4225 147.785 95.47 147.922 95.5097C147.953 95.5187 147.984 95.5278 148.012 95.5357C148.335 95.6299 148.657 95.7024 148.971 95.7432C149.316 95.793 149.653 95.8112 149.986 95.7988C150.025 95.7974 150.062 95.7998 150.098 95.7934C150.377 95.7779 150.649 95.7435 150.92 95.6874C151.113 95.6469 151.302 95.5926 151.49 95.5293C151.767 95.4333 152.04 95.3233 152.306 95.1651C152.354 95.1454 152.401 95.1168 152.447 95.0882C152.876 94.8343 153.263 94.5219 153.613 94.1481C153.944 93.7943 154.234 93.3818 154.48 92.9275C154.705 92.5174 154.887 92.0655 155.029 91.5766C155.14 91.1964 155.227 90.7967 155.278 90.3739C155.28 90.3367 155.285 90.3045 155.293 90.2646C155.326 90.0471 155.371 89.837 155.428 89.6391C155.756 87.1004 158.44 85.5961 160.791 86.6293L163.81 87.9537C166.099 88.956 167.817 90.9415 168.445 93.3501C168.485 93.5008 168.525 93.6554 168.567 93.8022C170.617 101.06 175.757 107.672 182.248 110.495C182.964 110.808 183.676 111.066 184.382 111.271C185.528 111.605 186.656 111.798 187.751 111.86C188.079 111.88 188.407 111.887 188.731 111.876C189.05 111.872 189.363 111.857 189.67 111.833C189.97 111.807 190.271 111.772 190.569 111.724C190.861 111.679 191.149 111.62 191.429 111.558C191.706 111.491 191.981 111.42 192.25 111.338C192.515 111.255 192.778 111.168 193.038 111.071C193.296 110.969 193.548 110.861 193.801 110.746C194.05 110.633 194.288 110.513 194.52 110.383C194.759 110.259 194.99 110.12 195.214 109.974C195.437 109.833 195.658 109.683 195.869 109.525C198.923 107.3 201.082 103.585 201.723 98.7642L201.744 98.766Z" stroke="#FF71E1" stroke-width="0.5" stroke-miterlimit="10"/>
<path d="M199.886 97.9564C200.507 93.2474 199.385 88.2501 197.062 83.9678C194.737 79.6894 191.215 76.1361 187.043 74.3121C183.73 72.8643 179.763 72.4425 176.376 73.877C173.714 75.0045 171.943 77.0646 170.859 79.5393C169.876 81.7864 167.193 82.7521 164.931 81.7616L161.352 80.1945C157.829 78.6522 155.746 74.9827 156.233 71.1857L156.354 70.232L156.619 68.2009C157.142 64.2081 154.675 59.7073 151.108 58.1564L132.721 50.1522C130.384 49.1313 128.148 49.634 126.744 51.2328C126.574 51.4233 126.417 51.63 126.276 51.854C126.124 52.0835 125.99 52.3264 125.872 52.5866C125.748 52.8535 125.64 53.1376 125.553 53.4364C125.461 53.7545 125.384 54.09 125.333 54.4411C125.328 54.486 125.32 54.5299 125.315 54.5748L125.177 55.6161L124.902 57.1857C124.294 60.1353 120.656 62.4938 117.452 61.0906L115.122 60.0719C111.686 58.5672 109.656 54.9891 110.132 51.2898L110.949 45.064C111.202 43.1472 110.019 40.9935 108.307 40.2473L84.369 29.8245C83.3702 29.3909 82.4111 29.5327 81.7406 30.1077C81.5655 30.2587 81.4082 30.436 81.2754 30.6456C81.1302 30.8685 81.0105 31.1198 80.9281 31.403C80.8796 31.5699 80.8394 31.7517 80.8148 31.9381L80.4041 35.0799C80.0781 38.2505 79.0678 41.1126 75.7853 41.8998C71.761 42.8668 67.7253 39.9043 66.1087 36.7241C65.6806 35.8842 64.9867 34.1842 65.1351 31.7405L66.4146 21.963L36.0332 8.72729L31.5627 42.7615L61.9558 56.0006L62.7152 50.2209C63.2198 46.3785 67.2876 44.0986 70.8547 45.6623L73.5405 46.8392C76.527 48.1456 78.2899 51.2591 77.8667 54.4729L77.3077 58.7498C77.0546 60.6665 78.2343 62.8191 79.9497 63.5664C79.9497 63.5664 104.246 74.1231 104.27 74.1299C104.562 74.2149 104.843 74.2544 105.117 74.2417C105.381 74.2344 105.637 74.1827 105.874 74.0831C105.881 74.0853 105.891 74.0798 105.903 74.0705C105.96 74.0492 106.013 74.0267 106.068 73.9965C106.102 73.9812 106.136 73.9658 106.167 73.9455C106.198 73.929 106.229 73.9087 106.26 73.8883C106.296 73.8652 106.334 73.8382 106.375 73.8124L106.43 73.7694C106.469 73.7386 106.506 73.7116 106.542 73.6757C106.626 73.6035 106.704 73.5251 106.776 73.4367C106.812 73.4009 106.842 73.355 106.875 73.3141C106.918 73.2549 106.961 73.1958 107 73.1316C107.217 72.7782 107.37 72.3555 107.431 71.8683L107.825 68.8859C108.272 65.5611 111.797 63.5944 114.884 64.947L118.215 66.4043C121.321 67.7665 123.158 71.0025 122.717 74.35L122.607 75.1639C122.084 79.1567 124.552 83.6575 128.119 85.2084L146.505 93.2125C146.619 93.2582 146.727 93.3066 146.834 93.3461C146.956 93.3941 147.083 93.4354 147.208 93.4717C147.235 93.4796 147.262 93.4876 147.29 93.4955C147.586 93.5817 147.876 93.6451 148.166 93.683C148.478 93.7276 148.79 93.7468 149.09 93.7331C149.125 93.7305 149.162 93.7329 149.193 93.7292C149.45 93.7158 149.697 93.6824 149.944 93.6322C150.12 93.595 150.29 93.5477 150.459 93.4916C150.712 93.4054 150.962 93.3015 151.202 93.1608C151.246 93.14 151.287 93.1141 151.333 93.0894C151.725 92.8586 152.079 92.5743 152.394 92.2325C152.695 91.9118 152.961 91.5347 153.183 91.1197C153.385 90.745 153.551 90.3346 153.681 89.8885C153.781 89.5432 153.859 89.1744 153.908 88.7888C153.909 88.7555 153.914 88.7233 153.923 88.6923C153.951 88.4943 153.993 88.3046 154.046 88.1223C154.415 85.2712 157.427 83.5807 160.072 84.7373L165.591 87.1547C167.849 88.1441 169.515 90.1354 170.074 92.5324C170.153 92.871 170.238 93.203 170.33 93.5284C172.158 99.9935 176.736 105.891 182.521 108.407C183.159 108.685 183.794 108.916 184.426 109.1C185.447 109.397 186.45 109.571 187.428 109.624C187.723 109.643 188.014 109.647 188.3 109.638C188.583 109.636 188.863 109.621 189.136 109.599C189.404 109.576 189.672 109.545 189.934 109.499C190.196 109.457 190.452 109.406 190.701 109.352C190.95 109.294 191.193 109.23 191.434 109.157C191.671 109.083 191.902 109.003 192.137 108.92C192.366 108.831 192.592 108.736 192.818 108.63C193.038 108.529 193.25 108.423 193.459 108.303C193.673 108.192 193.877 108.071 194.076 107.939C194.278 107.813 194.473 107.68 194.661 107.541C197.383 105.556 199.309 102.249 199.878 97.9541L199.886 97.9564Z" stroke="#FF71E1" stroke-width="0.5" stroke-miterlimit="10"/>
<path d="M59.2893 46.1061C59.0622 47.5844 58.9648 48.6754 58.7578 50.1721C55.5636 48.78 39.359 41.7221 35.8603 40.1993C36.9324 32.0362 38.1631 22.6737 39.2256 14.5583L62.123 24.5312C62.123 24.5312 59.4597 37.3062 63.463 40.4528C63.463 40.4528 59.881 42.2259 59.2882 46.11L59.2893 46.1061Z" stroke="#FF71E1" stroke-width="0.5" stroke-miterlimit="10"/>
<path d="M68.6245 42.7581C67.4578 42.1746 65.4168 40.9328 64.1524 38.5914C63.0366 36.5247 62.8575 35.2649 63.0677 32.2163C63.2614 29.3986 63.8588 25.4696 64.4072 23.1632L37.5283 11.4514L33.5744 41.5584L60.4621 53.2685C60.9002 49.9454 60.8521 45.008 64.0436 42.9782C64.8589 42.4579 66.228 42.0693 68.6295 42.7553L68.6245 42.7581Z" stroke="#FF71E1" stroke-width="0.5" stroke-miterlimit="10"/>
<path d="M106.407 67.8741C106.377 68.0799 106.345 68.2935 106.323 68.5143L106.256 69.0208C106.199 69.4464 106.069 69.8209 105.879 70.1273C105.846 70.181 105.809 70.2374 105.768 70.2888C105.741 70.323 105.713 70.3612 105.683 70.3943C105.619 70.4683 105.551 70.5412 105.474 70.6029C105.448 70.6333 105.412 70.6564 105.378 70.6845L105.334 70.722C105.298 70.7412 105.266 70.7654 105.235 70.7858C105.204 70.8022 105.178 70.8198 105.148 70.8363C105.122 70.8539 105.092 70.8704 105.064 70.8791C105.017 70.9077 104.969 70.9274 104.921 70.9471C104.907 70.9514 104.901 70.9581 104.893 70.9558C104.682 71.0417 104.462 71.087 104.232 71.0917C103.992 71.1019 103.744 71.0676 103.487 70.9927L82.2224 61.76C80.7242 61.1095 79.6952 59.2238 79.9157 57.55L80.2714 54.8299C80.2714 54.8299 80.272 54.8133 80.2743 54.8055C80.4104 53.8141 80.5453 51.7367 79.5663 49.4321C78.0856 45.959 75.1183 44.4561 74.325 44.0864C74.8389 44.1224 77.8823 44.2881 80.2252 42.0788C81.9158 40.4834 82.4207 38.4716 82.4792 38.0089C82.5279 37.6233 83.0442 33.7843 83.0859 33.6407C83.1582 33.3924 83.261 33.1699 83.3894 32.9758C83.5054 32.7949 83.6442 32.6375 83.7969 32.5052C84.383 32.0024 85.2232 31.8765 86.094 32.2561L107.024 41.3746C108.518 42.0239 109.556 43.9081 109.334 45.5857C109.334 45.5857 108.621 51.017 108.618 51.0287C108.333 53.1846 108.254 55.2612 109.336 57.2677C110.425 59.2843 113.349 61.6331 115.579 62.6018C115.579 62.6018 107.641 59.8675 106.408 67.8702L106.407 67.8741Z" stroke="#FF71E1" stroke-width="0.5" stroke-miterlimit="10"/>
<path d="M152.726 86.6145C152.689 86.7425 152.662 86.865 152.662 86.865C152.645 86.9527 152.628 87.0403 152.614 87.1329C152.606 87.1601 152.602 87.1884 152.601 87.2217C152.554 87.5701 152.483 87.9028 152.391 88.217C152.274 88.6205 152.123 88.9933 151.939 89.3353C151.737 89.7099 151.498 90.0527 151.223 90.3431C150.934 90.6544 150.613 90.9145 150.26 91.1234C150.219 91.1492 150.179 91.1712 150.136 91.1881C149.976 91.2849 149.811 91.3588 149.64 91.4227C149.424 91.5113 149.198 91.576 148.969 91.6229C148.753 91.6655 148.537 91.6953 148.314 91.7061C148.284 91.7098 148.249 91.7124 148.22 91.7122C147.946 91.7211 147.663 91.706 147.379 91.6654C147.118 91.6316 146.852 91.5711 146.583 91.4928C146.56 91.486 146.536 91.4792 146.51 91.4674C146.401 91.4356 146.285 91.3977 146.174 91.3571C146.076 91.3159 145.978 91.2748 145.873 91.2314L129.179 83.9639C127.276 83.1366 125.818 81.4587 124.968 79.5996C123.516 76.4336 125.009 73.0303 123.768 69.8541C122.925 67.694 121.642 66.126 119.674 64.9557C118.938 64.5187 118.144 64.1068 117.324 63.8431C117.477 63.8873 117.622 63.9254 117.768 63.9596C120.001 64.4997 121.823 63.965 123.575 62.4633C124.605 61.5846 125.468 60.4639 125.998 59.2212C126.431 58.215 126.434 57.2017 126.63 56.148C126.641 56.1092 126.641 56.067 126.648 56.0271C126.695 55.7081 126.762 55.4037 126.851 55.1138C126.93 54.8423 127.025 54.588 127.138 54.3433C127.246 54.1052 127.364 53.8872 127.505 53.6798C127.631 53.4768 127.774 53.2911 127.93 53.1177C129.207 51.667 131.235 51.2091 133.358 52.1383L150.052 59.4057C153.291 60.8153 155.529 64.9 155.053 68.5277L154.813 70.3685C154.611 71.938 154.268 73.3784 154.544 74.9736C154.68 75.7706 154.869 76.4569 155.129 77.1048C155.181 77.2334 155.621 78.3376 156.393 79.3912C157.948 81.5184 160.219 82.6083 161.041 82.9654C160.781 82.8266 158.408 81.5934 155.899 82.7445C155.899 82.7445 153.528 83.8305 152.73 86.6156L152.726 86.6145Z" stroke="#FF71E1" stroke-width="0.5" stroke-miterlimit="10"/>
<path d="M193.48 105.624C193.314 105.744 193.14 105.862 192.964 105.975C192.787 106.087 192.608 106.195 192.419 106.292C192.236 106.398 192.048 106.491 191.852 106.581C191.657 106.672 191.459 106.757 191.254 106.836C191.05 106.912 190.843 106.982 190.638 107.049C190.425 107.113 190.21 107.168 189.992 107.218C189.771 107.268 189.541 107.315 189.315 107.35C189.081 107.387 188.844 107.415 188.61 107.435C188.367 107.457 188.118 107.468 187.871 107.473C187.616 107.478 187.36 107.471 187.101 107.459C186.24 107.41 185.354 107.258 184.453 106.996C183.9 106.835 183.342 106.63 182.779 106.382C177.677 104.166 173.64 98.9686 172.032 93.2704C171.326 90.7715 171.474 88.8369 169.31 87.1007C167.905 85.9722 166.769 85.0064 165.095 84.3471C166.973 84.986 168.598 84.6212 170.223 83.5706C172.186 82.3028 172.523 80.3011 173.894 78.5833C174.813 77.4324 175.999 76.5235 177.355 75.946C180.337 74.6801 183.837 75.0502 186.756 76.3284C190.433 77.9367 193.535 81.0694 195.585 84.8387C197.634 88.6118 198.623 93.0191 198.076 97.1689C197.575 100.954 195.876 103.872 193.476 105.623L193.48 105.624Z" stroke="#FF71E1" stroke-width="0.5" stroke-miterlimit="10"/>
<path d="M103.488 65.4611L103.434 65.8661C103.39 66.2067 103.282 66.5036 103.13 66.7498C103.104 66.7968 103.075 66.8388 103.042 66.8797C103.021 66.9074 102.999 66.9389 102.975 66.9654C102.923 67.0261 102.869 67.0819 102.808 67.1315C102.784 67.1541 102.757 67.1756 102.73 67.1971L102.696 67.2252C102.669 67.2467 102.639 67.2631 102.613 67.2769C102.592 67.2917 102.571 67.3066 102.551 67.3176C102.526 67.3313 102.504 67.3462 102.48 67.356C102.441 67.3741 102.402 67.3922 102.364 67.4064C102.354 67.4119 102.349 67.4146 102.341 67.4123C102.177 67.4824 101.998 67.5185 101.814 67.524C101.622 67.5312 101.184 67.4375 101.165 67.4279C101.095 67.4075 84.2135 60.06 84.2057 60.0577C82.5806 59.3493 82.3333 57.4806 82.4413 55.9171C82.5892 53.7804 82.3745 51.6981 81.6355 49.6736C80.9975 47.9269 80.1222 46.6034 79.4116 45.7023C79.9522 45.443 80.5283 45.1057 81.0963 44.6649C83.742 42.6068 84.5236 39.615 84.7751 38.2996L84.8249 37.9395C84.8426 37.8058 84.8671 37.6783 84.9009 37.5619C84.9585 37.364 85.0438 37.1869 85.1442 37.0309C85.2373 36.8855 85.3453 36.7612 85.4683 36.6581C85.9415 36.2529 86.6093 36.1526 87.3075 36.4567L104.053 43.7479C105.247 44.2677 106.076 45.7796 105.898 47.1166L105.432 50.6839C105.425 50.7366 105.414 50.8176 105.403 50.9114C105.268 52.0588 105.025 54.1299 105.529 56.3384C105.723 57.1985 106.116 58.4491 106.983 59.8586C106.177 60.4361 104.736 61.6537 103.953 63.69C103.706 64.3336 103.569 64.9374 103.496 65.4633L103.488 65.4611Z" stroke="#FF71E1" stroke-width="0.5" stroke-miterlimit="10"/>
<path d="M155.227 80.9412C154.747 80.6712 154.043 80.1972 153.417 79.4133C153.004 78.8977 152.569 78.1399 152.169 76.7105C151.698 75.0292 151.581 73.249 151.827 71.5193C152.062 69.8667 152.779 68.1143 152.354 66.4338C151.82 64.3301 150.381 62.2997 148.346 61.4133L134.382 55.3352C132.606 54.562 130.909 54.9436 129.842 56.1563C129.71 56.3032 129.593 56.4585 129.484 56.6289C129.37 56.8019 129.266 56.9862 129.179 57.1839C129.086 57.3882 129.003 57.5998 128.936 57.8287C128.865 58.0731 128.81 58.3221 128.769 58.5922C128.764 58.6244 128.762 58.6616 128.757 58.6937C128.451 61.0538 127.198 63.513 125.132 64.814C124.418 65.2627 123.463 65.5362 122.641 65.2507C124.72 66.1291 126.494 68.6523 126.829 70.8453C127.172 73.0956 126.302 75.2745 127.046 77.4983C127.678 79.3822 129.034 81.1483 130.891 81.9581C132.727 82.7572 141.53 86.589 144.094 87.7051C144.961 88.0835 145.851 88.4688 146.816 88.438C146.842 88.4371 146.871 88.4373 146.893 88.4352C147.081 88.4269 147.263 88.3997 147.441 88.3675C147.635 88.327 147.82 88.2715 148.001 88.2021C148.144 88.1469 148.28 88.0856 148.418 88.0037C148.452 87.9883 148.484 87.968 148.519 87.9488C149.593 87.2935 150.037 86.1897 150.26 85.6402C150.987 83.8274 151.45 82.6704 152.295 81.9316C152.794 81.496 153.659 80.9944 155.228 80.9501L155.227 80.9412Z" stroke="#FF71E1" stroke-width="0.5" stroke-miterlimit="10"/>
<path d="M192.241 103.605C192.097 103.711 191.948 103.815 191.798 103.91C191.642 104.008 191.489 104.098 191.329 104.182C191.172 104.271 191.009 104.354 190.843 104.427C190.672 104.508 190.503 104.581 190.327 104.647C190.151 104.714 189.974 104.772 189.796 104.83C189.611 104.885 189.428 104.933 189.241 104.98C189.051 105.021 188.857 105.062 188.659 105.088C188.459 105.122 188.257 105.148 188.053 105.164C187.846 105.18 187.635 105.194 187.419 105.194C187.202 105.199 186.982 105.198 186.758 105.183C186.018 105.14 185.261 105.008 184.485 104.783C184.009 104.644 183.531 104.471 183.047 104.259C178.666 102.353 175.198 97.8898 173.814 92.9931C173.45 91.7006 173.698 90.4428 172.832 88.8401C172.057 87.4029 170.96 86.4778 170.176 85.93C170.631 85.9361 171.284 85.8735 171.941 85.5344C173.211 84.877 173.65 83.5993 174.086 82.6953C175.269 80.2579 177.313 78.5675 178.389 78.1105C180.952 77.0213 183.955 77.3395 186.464 78.4398C189.619 79.8205 192.288 82.5114 194.048 85.7503C195.808 88.9892 196.657 92.7749 196.186 96.3411C195.757 99.591 194.299 102.1 192.239 103.6L192.241 103.605Z" stroke="#FF71E1" stroke-width="0.5" stroke-miterlimit="10"/>
</svg>
