<svg width="25" height="23" viewBox="0 0 25 23" fill="none" xmlns="http://www.w3.org/2000/svg">
<path d="M17.1176 22.3638C16.3597 22.3638 15.6487 22.1579 14.9657 21.8679C14.133 21.5124 13.3845 21.0165 12.664 20.4645C12.5892 20.4083 12.5518 20.4177 12.4769 20.4645C11.7097 21.0539 10.9051 21.5778 10.0069 21.9427C9.2771 22.2328 8.5286 22.4199 7.74268 22.3638C6.85384 22.2983 6.1147 21.9334 5.53462 21.2504C4.97324 20.5674 4.71127 19.7721 4.57093 18.93C4.43058 18.0973 4.43994 17.2553 4.5335 16.4132C4.55221 16.2542 4.57093 16.1045 4.58964 15.9454C4.60835 15.8331 4.57093 15.777 4.45865 15.7302C3.57917 15.3747 2.74647 14.9443 1.99797 14.3642C1.41788 13.9058 0.893937 13.3912 0.547757 12.7269C0.0705906 11.838 0.0144534 10.9118 0.398058 9.97615C0.678744 9.29315 1.15591 8.74113 1.70793 8.26396C2.52192 7.56225 3.45754 7.06637 4.44929 6.66405C4.57093 6.61727 4.59899 6.55178 4.58028 6.43015C4.49608 5.81264 4.44929 5.21384 4.46801 4.60569C4.49608 3.70749 4.60835 2.81865 4.99195 1.9953C5.52526 0.853847 6.39539 0.161487 7.65847 0.0211442C8.34148 -0.0537055 9.01512 0.0772814 9.6607 0.30183C10.6899 0.666722 11.6068 1.23745 12.4676 1.90174C12.5518 1.96724 12.5986 1.95788 12.6734 1.90174C13.4313 1.3123 14.2359 0.797709 15.1341 0.432817C15.8732 0.133419 16.6311 -0.0443492 17.4264 0.011788C18.3994 0.0866377 19.176 0.526379 19.756 1.3123C20.2613 1.9953 20.4858 2.79058 20.5981 3.62328C20.7291 4.54955 20.6823 5.48517 20.5513 6.41143C20.5326 6.53306 20.57 6.59856 20.6917 6.64534C21.6086 7.01023 22.4787 7.46869 23.2459 8.09555C23.8541 8.59143 24.3874 9.16216 24.7055 9.89194C25.1639 10.9585 25.061 11.9784 24.4529 12.9514C23.9289 13.7841 23.1804 14.3829 22.3477 14.8975C21.8238 15.225 21.2624 15.4963 20.6917 15.7209C20.57 15.7676 20.542 15.8425 20.5607 15.9548C20.6542 16.5536 20.701 17.1524 20.6823 17.7605C20.6636 18.5932 20.5513 19.4259 20.2332 20.2025C19.887 21.0445 19.3444 21.6995 18.5023 22.0831C18.1187 22.2608 17.6415 22.3638 17.1176 22.3638ZM12.5798 6.27109C11.7097 6.28045 10.8302 6.32723 9.9601 6.41143C9.86654 6.42079 9.79169 6.45821 9.73555 6.54242C9.16482 7.32834 8.64088 8.15169 8.16371 9.0031C7.80817 9.62997 7.49006 10.2755 7.18131 10.9305C7.08774 11.1176 7.08774 11.2767 7.18131 11.4638C7.45264 12.0439 7.73332 12.6146 8.04208 13.176C8.55667 14.1022 9.11804 15.0004 9.74491 15.8612C9.80104 15.9361 9.85718 15.9735 9.94139 15.9828C10.6899 16.0577 11.4384 16.1045 12.1869 16.1138C13.1786 16.1325 14.1797 16.0764 15.1622 15.9828C15.2557 15.9735 15.3306 15.9361 15.3867 15.8612C15.7235 15.4027 16.0416 14.9349 16.341 14.4484C16.9585 13.466 17.5012 12.4462 17.9784 11.3889C18.0532 11.2299 18.0251 11.1082 17.9597 10.9679C17.6883 10.3785 17.4076 9.80774 17.0989 9.23701C16.5843 8.30139 16.0136 7.39384 15.3867 6.53306C15.3306 6.45821 15.2651 6.42079 15.1715 6.41143C14.3201 6.32723 13.45 6.28045 12.5798 6.27109ZM1.19334 11.2112C1.20269 11.4544 1.24947 11.707 1.34303 11.9503C1.59565 12.5959 2.05411 13.0731 2.57805 13.4847C3.19556 13.9806 3.88792 14.3455 4.60835 14.6543C4.78612 14.7291 4.79547 14.7291 4.84226 14.5326C5.10423 13.4099 5.45977 12.3246 5.90886 11.2579C5.93693 11.1831 5.92758 11.127 5.89951 11.0615C5.45976 9.9855 5.08552 8.88147 4.8329 7.74937C4.81419 7.64645 4.76741 7.62774 4.67384 7.67452C4.29024 7.84293 3.90664 8.0207 3.5511 8.22654C2.90552 8.59143 2.30672 9.02182 1.82956 9.6019C1.45531 10.0791 1.21205 10.5843 1.19334 11.2112ZM23.957 11.1831C23.957 11.024 23.9289 10.8556 23.8821 10.6779C23.7044 10.0136 23.2833 9.50834 22.7875 9.0686C22.1045 8.46044 21.2998 8.03941 20.4671 7.68388C20.3736 7.64645 20.3361 7.65581 20.3174 7.75873C20.0648 8.90018 19.6906 10.0136 19.2415 11.0989C19.2134 11.1644 19.2227 11.2205 19.2508 11.2954C19.4379 11.7445 19.6063 12.2029 19.7654 12.6614C19.9806 13.2976 20.1677 13.9432 20.3174 14.5981C20.3455 14.7104 20.3736 14.7478 20.4952 14.6917C20.8788 14.5233 21.253 14.3455 21.6086 14.1397C22.2635 13.7654 22.8717 13.3257 23.3488 12.7269C23.7137 12.2778 23.9383 11.7819 23.957 11.1831ZM5.5159 4.87702C5.50655 5.25126 5.54397 5.69101 5.60011 6.13075C5.60946 6.22431 5.63753 6.23367 5.72174 6.2056C5.93693 6.1401 6.14277 6.07461 6.35796 6.01847C7.25616 5.77521 8.16371 5.58809 9.08062 5.47581C9.19289 5.46646 9.2771 5.41968 9.35195 5.32611C10.0537 4.41856 10.8115 3.55779 11.6629 2.78123C11.7378 2.71573 11.7565 2.66895 11.6629 2.5941C11.3261 2.35084 10.9799 2.10758 10.6244 1.89239C9.96946 1.50878 9.28645 1.20003 8.53796 1.08775C7.95787 1.00355 7.40586 1.04097 6.89126 1.34037C6.38603 1.63041 6.07727 2.07951 5.87144 2.60346C5.59075 3.31453 5.50655 4.05367 5.5159 4.87702ZM19.6344 4.82088C19.6438 4.4747 19.6251 4.12852 19.5783 3.78234C19.4941 3.16483 19.335 2.57539 18.9982 2.04209C18.7082 1.59299 18.3058 1.27488 17.7819 1.13453C17.2205 0.984833 16.6685 1.04097 16.1165 1.20003C15.1341 1.48071 14.2827 2.00466 13.478 2.61281C13.4032 2.66895 13.4125 2.70638 13.4687 2.76251C13.5435 2.82801 13.6184 2.8935 13.6932 2.95899C14.4604 3.68878 15.1622 4.48406 15.8077 5.32611C15.8826 5.41968 15.9668 5.46646 16.0791 5.47581C17.2112 5.62551 18.3339 5.85942 19.4286 6.19624C19.5221 6.22431 19.5502 6.21495 19.5689 6.11203C19.6063 5.68165 19.6438 5.25126 19.6344 4.82088ZM19.6344 17.5453C19.6438 17.143 19.6063 16.722 19.5596 16.2916C19.5409 16.1512 19.4941 16.1606 19.3912 16.1887C18.2965 16.5255 17.1831 16.7594 16.051 16.9091C15.92 16.9278 15.8358 16.9839 15.7609 17.0869C15.3493 17.6202 14.9189 18.1348 14.4604 18.6213C14.1423 18.9581 13.8336 19.2856 13.4874 19.5943C13.4032 19.6692 13.3938 19.716 13.4967 19.7908C13.7213 19.9499 13.9365 20.1183 14.1704 20.2586C15.0031 20.7826 15.8826 21.2223 16.893 21.3159C17.2954 21.3533 17.6977 21.3065 18.0719 21.1381C18.7643 20.8293 19.1292 20.2586 19.3631 19.5756C19.5783 18.9207 19.6438 18.2564 19.6344 17.5453ZM5.5159 17.4237C5.5159 17.8354 5.5159 18.116 5.54397 18.3967C5.60946 18.9862 5.73109 19.5663 6.01178 20.0902C6.32054 20.6796 6.77899 21.0913 7.43393 21.2504C7.93916 21.372 8.43504 21.3252 8.93092 21.1942C9.9601 20.9229 10.8489 20.3803 11.691 19.7534C11.7471 19.716 11.7471 19.6785 11.7004 19.6318C11.5974 19.5382 11.4852 19.4353 11.3822 19.3417C10.6618 18.6306 9.98817 17.8821 9.38002 17.0775C9.31452 16.9839 9.23032 16.9372 9.11804 16.9185C8.71572 16.8623 8.31341 16.7968 7.92045 16.722C7.18131 16.591 6.46088 16.4039 5.74045 16.1887C5.64689 16.1606 5.61882 16.17 5.60011 16.2729C5.54397 16.7033 5.50655 17.1336 5.5159 17.4237ZM14.4137 17.1149C14.4043 17.1056 14.4043 17.0869 14.3949 17.0775C13.1786 17.1617 11.9623 17.1617 10.7554 17.0775C10.746 17.1243 10.7647 17.143 10.7741 17.1524C11.3074 17.7792 11.8688 18.378 12.4676 18.93C12.5424 19.0049 12.5986 18.9955 12.6734 18.93C13.0757 18.5558 13.4687 18.1722 13.8336 17.7605C14.0394 17.5547 14.2172 17.3395 14.4137 17.1149ZM8.27598 15.7302C8.31341 15.7302 8.35083 15.7396 8.36019 15.7021C8.3789 15.6554 8.33212 15.6273 8.31341 15.5992C7.68654 14.6636 7.12517 13.6906 6.62929 12.6707C6.61993 12.6427 6.61058 12.624 6.59187 12.5959C6.5638 12.5491 6.53573 12.5585 6.51702 12.6052C6.50766 12.6333 6.48895 12.6614 6.47959 12.6894C6.21762 13.4286 6.00243 14.1771 5.82466 14.9443C5.79659 15.0753 5.83401 15.1221 5.95564 15.1501C6.4983 15.3092 7.04096 15.4589 7.59298 15.5805C7.81753 15.6367 8.05143 15.6834 8.27598 15.7302ZM16.865 15.7302C16.8743 15.7302 16.893 15.7302 16.9024 15.7209C17.6883 15.5712 18.4742 15.384 19.2321 15.1501C19.335 15.1127 19.3444 15.0659 19.3257 14.9724C19.1573 14.1958 18.9327 13.4379 18.6614 12.6894C18.6427 12.652 18.6427 12.5865 18.5959 12.5772C18.5397 12.5772 18.5304 12.6427 18.5117 12.6894C18.2123 13.2976 17.8848 13.887 17.5386 14.4671C17.3047 14.8507 17.0708 15.2343 16.8182 15.6086C16.7995 15.6367 16.7621 15.6647 16.7808 15.7021C16.7995 15.7396 16.8369 15.7209 16.865 15.7302ZM14.4043 5.27933C13.871 4.61504 13.2909 4.00689 12.6734 3.43616C12.5892 3.36131 12.5331 3.39874 12.4676 3.45487C11.9904 3.90397 11.5319 4.36242 11.1016 4.8583C10.9799 4.99865 10.8489 5.12028 10.7367 5.29804C11.9623 5.21384 13.1786 5.21384 14.4043 5.27933ZM6.53573 9.80774C6.57315 9.79838 6.58251 9.77031 6.59187 9.7516C7.0971 8.72242 7.67719 7.73066 8.30405 6.76697C8.32276 6.7389 8.36019 6.71083 8.34148 6.67341C8.31341 6.62663 8.26663 6.65469 8.2292 6.65469C7.46199 6.79504 6.70414 6.97281 5.965 7.20671C5.77788 7.26285 5.78723 7.26285 5.82466 7.44997C5.98371 8.18911 6.19891 8.90954 6.45152 9.62997C6.47959 9.69546 6.48895 9.76096 6.53573 9.80774ZM18.6146 9.81709C18.6333 9.77967 18.652 9.7516 18.6614 9.72353C18.9327 8.95632 19.1666 8.17976 19.335 7.39384C19.3631 7.28156 19.3069 7.25349 19.2227 7.22542C18.493 6.99152 17.7445 6.81375 16.996 6.67341C16.9305 6.66405 16.8463 6.60791 16.8088 6.67341C16.7714 6.72954 16.8556 6.79504 16.8837 6.84182C17.4918 7.76808 18.0439 8.72242 18.5304 9.72353C18.5491 9.7516 18.5585 9.78902 18.6146 9.81709Z" fill="#00B43C"/>
<path d="M11.0545 11.3795C11.0545 10.9397 11.0545 10.5 11.0545 10.0509C11.0545 9.817 10.9516 9.71408 10.7177 9.70472C10.596 9.70472 10.4744 9.69537 10.3528 9.70472C10.2592 9.70472 10.2124 9.67666 10.2124 9.57374C10.2124 9.43339 10.2124 9.29305 10.2124 9.15271C10.2124 9.04979 10.2592 9.02172 10.3528 9.02172C10.6896 9.02172 11.0264 9.00301 11.3632 9.00301C11.4755 9.00301 11.5129 8.96558 11.5129 8.85331C11.5129 8.61005 11.5316 8.35743 11.5316 8.11417C11.5316 8.01125 11.5691 7.96447 11.672 7.97383C11.7936 7.98318 11.9246 7.98318 12.0462 7.97383C12.1492 7.97383 12.1866 8.01125 12.1772 8.11417C12.1772 8.35743 12.1772 8.59134 12.1772 8.8346C12.1772 8.95623 12.224 8.99365 12.3363 8.99365C12.7199 8.9843 12.6637 9.03108 12.6637 8.65683C12.6637 8.47906 12.6637 8.29194 12.6637 8.11417C12.6637 8.02061 12.7012 7.97383 12.8041 7.98318C12.9257 7.98318 13.0567 7.99254 13.1783 7.98318C13.2906 7.97383 13.3374 8.02061 13.3374 8.14224C13.328 8.3855 13.3468 8.6194 13.328 8.86267C13.3187 9.01236 13.3842 9.04043 13.4965 9.04979C13.7304 9.0685 13.9456 9.11528 14.1701 9.19949C14.7876 9.43339 14.9747 9.92927 14.8531 10.5374C14.8063 10.7713 14.6566 10.9491 14.4601 11.0801C14.4321 11.0988 14.3946 11.1082 14.3946 11.1456C14.3946 11.183 14.4414 11.183 14.4695 11.1924C15.1993 11.4076 15.3396 12.0064 15.218 12.6239C15.1151 13.1572 14.7876 13.4753 14.2824 13.6437C14.0017 13.7279 13.721 13.7653 13.431 13.8027C13.3374 13.8121 13.3 13.8495 13.3 13.9524C13.3 14.2051 13.3 14.4577 13.3 14.7103C13.3 14.8226 13.2625 14.8787 13.1409 14.8693C13.0193 14.86 12.8977 14.86 12.776 14.8693C12.6544 14.8787 12.617 14.8226 12.6263 14.7103C12.6357 14.467 12.6263 14.2331 12.6263 13.9899C12.6263 13.8682 12.5889 13.8308 12.4673 13.8308C12.0837 13.8402 12.1398 13.7934 12.1398 14.1583C12.1398 14.3454 12.1398 14.5325 12.1398 14.729C12.1398 14.8226 12.1024 14.8693 11.9995 14.86C11.8685 14.8506 11.7281 14.86 11.5971 14.86C11.5036 14.86 11.4662 14.8319 11.4662 14.7384C11.4662 14.4951 11.4662 14.2425 11.4755 13.9992C11.4849 13.8121 11.4849 13.8121 11.2977 13.8121C10.989 13.8121 10.6802 13.8121 10.3621 13.8121C10.1844 13.8121 10.1844 13.8027 10.2124 13.6343C10.2311 13.494 10.2686 13.363 10.2779 13.2227C10.2873 13.0917 10.3434 13.0262 10.4838 13.0449C10.5586 13.0542 10.6241 13.0449 10.6989 13.0449C10.9422 13.0449 11.0264 12.97 11.0264 12.7268C11.0545 12.259 11.0545 11.8192 11.0545 11.3795ZM12.1492 12.3245C12.1492 12.5022 12.1492 12.6894 12.1398 12.8671C12.1398 12.97 12.1772 13.0075 12.2708 13.0075C12.4579 12.9981 12.645 13.0075 12.8228 12.9981C13.0848 12.9794 13.3561 12.9513 13.5994 12.8297C13.8052 12.7268 13.9643 12.5864 13.9736 12.3338C13.983 12.0344 13.8613 11.8473 13.5619 11.7444C13.1596 11.604 12.7386 11.5947 12.3082 11.6227C12.1772 11.6321 12.1398 11.6976 12.1398 11.8099C12.1492 11.9783 12.1492 12.1467 12.1492 12.3245ZM12.1398 10.4064C12.1492 10.4064 12.1492 10.4064 12.1398 10.4064C12.1398 10.5749 12.1398 10.7526 12.1398 10.921C12.1398 10.9865 12.1585 11.052 12.2427 11.052C12.5608 11.0614 12.8696 11.052 13.1783 10.9491C13.4497 10.8555 13.5713 10.6965 13.5713 10.4439C13.5713 10.1632 13.459 9.99477 13.1877 9.88249C12.8789 9.76086 12.5515 9.77957 12.2334 9.77957C12.1492 9.77957 12.1398 9.83571 12.1398 9.9012C12.1492 10.0696 12.1398 10.238 12.1398 10.4064Z" fill="#00B43C"/>
</svg>
