<svg width="64" height="64" viewBox="0 0 64 64" fill="none" xmlns="http://www.w3.org/2000/svg">
<path fill-rule="evenodd" clip-rule="evenodd" d="M13.4366 13.437C14.9573 11.9164 17.0197 11.0621 19.1702 11.0621L53.1987 11.0618V17.2833C53.1987 18.8291 52.5846 20.3115 51.4916 21.4045C50.3986 22.4975 48.9162 23.1115 47.3705 23.1115H31.3715C29.221 23.1115 27.1586 23.9657 25.638 25.4863C24.1174 27.007 23.2631 29.0694 23.2631 31.2199V33.2834C23.2631 35.4338 24.1174 37.4962 25.638 39.0168C27.1586 40.5374 29.221 41.3917 31.3715 41.3917H47.3705C48.9162 41.3917 50.3986 42.0058 51.4916 43.0987C52.5846 44.1917 53.1987 45.6742 53.1987 47.2199V53.1991H19.1702C17.0197 53.1991 14.9573 52.3448 13.4366 50.8242C11.916 49.3035 11.0618 47.2411 11.0618 45.0906V19.1705C11.0618 17.02 11.916 14.9576 13.4366 13.437ZM31.7218 26.5026H48.131C50.9298 26.5026 53.1987 28.7714 53.1987 31.5703V32.9336C53.1987 35.7324 50.9298 38.0013 48.131 38.0013H31.7218C28.9231 38.0013 26.6541 35.7324 26.6541 32.9336V31.5703C26.6541 28.7714 28.9231 26.5026 31.7218 26.5026Z" fill="url(#paint0_linear_55_1889)"/>
<defs>
<linearGradient id="paint0_linear_55_1889" x1="15.297" y1="11.0618" x2="44.855" y2="55.1511" gradientUnits="userSpaceOnUse">
<stop stop-color="#C549FF"/>
<stop offset="1" stop-color="#654BFF"/>
</linearGradient>
</defs>
</svg>
