<svg width="64" height="64" viewBox="0 0 64 64" fill="none" xmlns="http://www.w3.org/2000/svg">
<path fill-rule="evenodd" clip-rule="evenodd" d="M3.60709 3.60767C5.91677 1.298 9.04923 0.000479537 12.3155 0.000479537L64 0V9.44951C64 11.7973 63.0672 14.0489 61.4071 15.709C59.747 17.369 57.4954 18.3016 55.1477 18.3016H30.8476C27.5813 18.3016 24.4488 19.5991 22.1392 21.9087C19.8296 24.2184 18.5321 27.3508 18.5321 30.617V33.7511C18.5321 37.0174 19.8296 40.1498 22.1392 42.4594C24.4488 44.7689 27.5813 46.0664 30.8476 46.0664H55.1477C57.4954 46.0664 59.747 46.9991 61.4071 48.6592C63.0672 50.3193 64 52.5708 64 54.9185V64H12.3155C9.04923 64 5.91677 62.7025 3.60709 60.3929C1.29753 58.0833 0 54.9508 0 51.6846V12.3159C0 9.04964 1.29753 5.91721 3.60709 3.60767ZM31.3797 23.4522H56.3028C60.5538 23.4522 63.9999 26.8982 63.9999 31.1493V33.22C63.9999 37.4709 60.5538 40.917 56.3028 40.917H31.3797C27.1287 40.917 23.6826 37.4709 23.6826 33.22V31.1493C23.6826 26.8982 27.1287 23.4522 31.3797 23.4522Z" fill="white"/>
</svg>
