<svg width="64" height="64" viewBox="0 0 64 64" fill="none" xmlns="http://www.w3.org/2000/svg">
<g clip-path="url(#clip0_4_1910)">
<path d="M41.2324 23.4213C46.9242 22.5134 55.1558 16.3404 55.1558 11.5291C55.1558 10.0766 54.0175 9.07802 52.3537 9.07802C49.2011 9.07802 43.8593 13.9801 41.2324 23.4213ZM14.8739 47.2965C7.43057 47.2965 6.81757 54.922 14.261 54.922C17.5886 54.922 21.6168 53.5604 23.7184 51.1092C20.6535 48.3859 18.114 47.2965 14.8739 47.2965ZM62.2489 44.0284C62.6868 56.8284 56.3819 64 45.6983 64C39.3934 64 36.2409 61.549 29.498 57.0099C25.9952 61.0042 19.3399 64 13.8231 64C-5.1794 64 -4.39129 39.0354 14.9615 39.0354C18.9896 39.0354 22.405 40.1248 26.7834 42.9391L29.6732 32.4993C17.7637 29.1404 11.809 19.6993 17.6762 6.17305H27.1337C21.8796 15.1603 25.4699 22.6042 32.125 23.4213C35.7155 10.2581 43.4216 0 53.6671 0C59.4467 0 64.0003 3.90354 64.0003 10.9844C64.0003 22.3319 49.639 31.5916 38.7804 32.4993L34.3143 48.749C39.3934 54.8312 53.4919 60.7319 53.4919 44.0284H62.2489Z" fill="black"/>
</g>
<defs>
<clipPath id="clip0_4_1910">
<rect width="64" height="64" fill="white"/>
</clipPath>
</defs>
</svg>
