<svg width="64" height="64" viewBox="0 0 64 64" fill="none" xmlns="http://www.w3.org/2000/svg">
<g clip-path="url(#clip0_4_1921)">
<path d="M24.2818 19.7424C24.2818 13.7012 24.3117 7.66011 24.2579 1.61897C24.2459 0.40479 24.5929 -0.00588823 25.8489 6.36297e-05C35.2088 0.0417267 44.5684 6.36315e-05 53.9283 0.029823C59.4425 0.0476785 63.9281 4.46397 63.9581 9.93969C64.0059 19.296 63.9522 28.6582 63.9998 38.0147C64.006 39.3004 63.5395 39.574 62.3491 39.5681C50.2024 39.5323 38.0555 39.5264 25.9027 39.574C24.5271 39.5799 24.2459 39.1037 24.2579 37.854C24.3117 31.8246 24.2818 25.7836 24.2818 19.7424Z" fill="white"/>
<path d="M39.6331 56.0185C39.6331 58.1492 39.6034 60.274 39.6451 62.4046C39.6631 63.3273 39.4119 63.7558 38.3951 63.7499C34.113 63.7141 29.8368 63.7141 25.5546 63.7499C24.5857 63.7558 24.2567 63.4225 24.2627 62.4523C24.3046 58.1968 24.3046 53.9351 24.2627 49.6796C24.2508 48.6203 24.6514 48.3167 25.6683 48.3226C29.8967 48.3643 34.1309 48.3584 38.3592 48.3226C39.3461 48.3167 39.6692 48.6856 39.651 49.632C39.6034 51.7568 39.6331 53.8875 39.6331 56.0185Z" fill="white"/>
<path d="M0.0121265 24.1286C1.87214 24.1286 3.54675 24.1286 5.22734 24.1286C8.11602 24.1286 10.9987 24.1644 13.8874 24.1108C14.946 24.0929 15.4006 24.3608 15.3886 25.5155C15.3348 29.7234 15.3407 33.9315 15.3826 38.1335C15.3946 39.2404 14.9939 39.5858 13.8994 39.5679C9.71886 39.5143 5.53833 39.544 1.35779 39.5499C0.628142 39.5499 -0.0117964 39.5976 0.000165044 38.5203C0.0300687 33.8301 0.0121265 29.1341 0.0121265 24.1286Z" fill="white"/>
<path d="M0.0139156 48.4784C0.558164 48.419 0.899064 48.3476 1.23399 48.3415C5.46236 48.3356 9.69076 48.3653 13.9191 48.3177C15.0256 48.3059 15.3964 48.6809 15.3844 49.782C15.3366 53.9898 15.3904 58.1918 15.3306 62.4C15.3246 62.8462 14.8342 63.6615 14.577 63.6615C12.2505 63.6377 9.85222 63.7985 7.61545 63.2809C2.96841 62.2095 0.0617616 58.2453 0.0198963 53.5078C0.00195408 51.8768 0.0139156 50.2461 0.0139156 48.4784Z" fill="white"/>
<path d="M0.0569224 15.0642C0.0569224 13.0107 -0.068673 11.0228 0.0808453 9.05872C0.457633 4.19009 4.68003 0.220193 9.57229 0.0297334C11.0615 -0.0238333 12.5567 0.0594929 14.0459 0.0118779C14.9849 -0.0178814 15.3856 0.303518 15.3796 1.29153C15.3437 5.54712 15.3616 9.80271 15.3736 14.0583C15.3736 14.7963 15.242 15.3022 14.3329 15.2963C9.75769 15.2725 5.1824 15.2725 0.607149 15.2606C0.463613 15.2546 0.326056 15.1653 0.0569224 15.0642Z" fill="white"/>
<path d="M56.3156 48.3366C58.403 48.3366 60.4961 48.3724 62.5835 48.3187C63.5883 48.2949 64.0547 48.5926 63.9889 49.6578C63.8632 51.6756 64.0547 53.7469 63.6779 55.7109C62.8106 60.1927 59.031 63.3292 54.4496 63.627C52.9126 63.7281 51.3694 63.6746 49.8265 63.734C48.9413 63.7698 48.5765 63.4306 48.5826 62.5259C48.6064 58.2226 48.6123 53.9194 48.5826 49.6163C48.5765 48.6581 48.9354 48.301 49.9043 48.3187C52.0335 48.3663 54.1744 48.3366 56.3156 48.3366Z" fill="white"/>
</g>
<defs>
<clipPath id="clip0_4_1921">
<rect width="64" height="64" fill="white"/>
</clipPath>
</defs>
</svg>
