<svg width="71" height="26" viewBox="0 0 71 26" fill="none" xmlns="http://www.w3.org/2000/svg">
<path d="M11.4237 0.00474567H13.4183C13.5072 0.0362077 13.5988 0.0600141 13.6918 0.0759047C15.8849 0.289382 17.9659 0.922223 19.7705 2.16324C21.4802 3.34068 23.0711 4.6965 24.6972 5.99349C26.6737 7.57037 28.6759 9.10646 30.9934 10.1682C32.3231 10.7792 33.706 11.1853 35.1868 11.2393C37.453 11.3228 39.4713 10.5619 41.3928 9.47459C44.0323 7.9793 46.3422 6.03618 48.6265 4.07125C50.848 2.15944 53.3109 0.762826 56.2249 0.226762C56.6893 0.141371 57.1566 0.0749542 57.623 0H59.6176C59.7382 0.0339185 59.8606 0.0614709 59.9842 0.082544C64.662 0.65656 67.9502 3.15662 69.9106 7.36354C70.4472 8.51537 70.6457 9.82279 71 11.0591V14.0838C70.9696 14.2223 70.9326 14.3589 70.9107 14.4975C70.4748 17.211 69.3093 19.5735 67.3575 21.5062C64.662 24.177 61.3965 25.3715 57.5888 25.0802C55.1355 24.8905 52.8645 24.1419 50.8746 22.7254C49.2334 21.5564 47.7156 20.2149 46.138 18.9549C44.075 17.3068 41.9664 15.729 39.5027 14.7024C38.1891 14.154 36.8176 13.8181 35.4014 13.8485C33.2682 13.8959 31.3249 14.6388 29.4984 15.7053C26.7839 17.2898 24.4151 19.3296 22.0311 21.3506C18.9442 23.9664 15.4413 25.4047 11.3249 25.0679C7.82677 24.7833 4.99257 23.2216 2.80232 20.5137C0.450615 17.6095 -0.346272 14.2726 0.133378 10.5961C0.784942 5.61113 4.90329 1.2135 9.84795 0.254274C10.3646 0.165088 10.8956 0.0920341 11.4237 0.00474567Z" fill="url(#paint0_linear_5_2)"/>
<defs>
<linearGradient id="paint0_linear_5_2" x1="3.49538" y1="8.08308" x2="70.1262" y2="13.3262" gradientUnits="userSpaceOnUse">
<stop stop-color="#65C400"/>
<stop offset="0.260417" stop-color="#07A319"/>
<stop offset="0.494792" stop-color="#0E721A"/>
<stop offset="0.760417" stop-color="#1D873B"/>
<stop offset="1" stop-color="#29AA38"/>
</linearGradient>
</defs>
</svg>
