<svg width="64" height="64" viewBox="0 0 64 64" fill="none" xmlns="http://www.w3.org/2000/svg">
<path fill-rule="evenodd" clip-rule="evenodd" d="M3.35651 39.7427C3.33681 39.7227 3.32698 39.7127 3.30728 39.6927C1.56505 37.8942 0.501998 35.656 0.147647 33.3379C0.0492156 32.7484 0 32.1589 0 31.5494V31.4795C0 30.9099 0.0492156 30.3304 0.127961 29.7609C0.383881 27.9923 1.05321 26.2737 2.11627 24.7649C2.46077 24.2654 2.86434 23.7857 3.30728 23.3261C3.32698 23.3062 3.33681 23.2961 3.35651 23.2762C4.31129 22.307 5.37434 21.5576 6.50631 21.028C10.6699 19.0696 15.7391 19.9689 19.5288 23.2462C19.5386 23.2562 19.5484 23.2663 19.5584 23.2663C23.8401 26.9832 27.7675 30.3504 31.9999 30.3504C36.2226 30.3504 40.1599 26.9832 44.4318 23.2663C45.5932 22.2571 46.8729 21.4677 48.2214 20.9282C49.9734 20.2088 51.824 19.8989 53.6449 20.0289C56.1944 20.2088 58.6551 21.2578 60.6435 23.2762C60.6631 23.2961 60.6729 23.3062 60.6927 23.3261C61.1356 23.7758 61.5292 24.2554 61.8837 24.7649C62.9468 26.2837 63.6161 28.0023 63.8719 29.7609C64.0491 30.9399 64.0393 32.1489 63.8621 33.328C63.5078 35.656 62.4447 37.8842 60.7025 39.6827C60.6829 39.7027 60.6729 39.7127 60.6533 39.7327C58.6749 41.741 56.214 42.7902 53.6547 42.97C51.8338 43.0899 49.9734 42.7802 48.2116 42.0608C46.8729 41.5212 45.5834 40.7319 44.4318 39.7327C40.1303 36.0357 36.2424 32.6485 31.9999 32.6485C27.7575 32.6485 23.8401 36.0457 19.5484 39.7427C19.5386 39.7527 19.5288 39.7627 19.5288 39.7627C17.068 41.8709 14.0658 43 11.1227 43C9.52813 43 7.95324 42.6703 6.49646 41.9808C5.37434 41.4513 4.30144 40.7119 3.35651 39.7427Z" fill="url(#paint0_radial_3_1907)"/>
<defs>
<radialGradient id="paint0_radial_3_1907" cx="0" cy="0" r="1" gradientUnits="userSpaceOnUse" gradientTransform="translate(-4.27266 31.5059) scale(73.2532 40.3785)">
<stop stop-color="#1CE5C3"/>
<stop offset="0.1025" stop-color="#1CE5C3"/>
<stop offset="0.4747" stop-color="#5440D7"/>
<stop offset="0.6308" stop-color="#8B2CE4"/>
<stop offset="0.7957" stop-color="#D421EB"/>
<stop offset="1" stop-color="#AC39FD"/>
</radialGradient>
</defs>
</svg>
