<svg width="59" height="38" viewBox="0 0 59 38" fill="none" xmlns="http://www.w3.org/2000/svg">
<path d="M21.7368 11.6052C21.7368 5.60276 26.6028 0.736816 32.6052 0.736816H48.1316C54.134 0.736816 59 5.60276 59 11.6052V27.1316C59 33.134 54.134 38 48.1316 38H32.6052C26.6028 38 21.7368 33.134 21.7368 27.1316V11.6052Z" fill="#202020"/>
<path d="M36.3438 26.3552L41.7919 11.6052H43.3911L37.9437 26.3552H36.3438Z" fill="white"/>
<path d="M0 10.8289C0 5.25497 4.51816 0.736816 10.0921 0.736816C15.6661 0.736816 20.1842 5.25497 20.1842 10.8289V27.9079C20.1842 33.4818 15.6661 38 10.0921 38C4.51816 38 0 33.4818 0 27.9079V10.8289Z" fill="#202020"/>
<path d="M9.12158 24.0255V22.0847H11.0624V24.0255H9.12158Z" fill="white"/>
</svg>
