<svg width="59" height="38" viewBox="0 0 59 38" fill="none" xmlns="http://www.w3.org/2000/svg">
<path d="M21.7368 10.8684C21.7368 4.86595 26.6028 0 32.6052 0H48.1316C54.134 0 59 4.86595 59 10.8684V26.3947C59 32.3972 54.134 37.2632 48.1316 37.2632H32.6052C26.6028 37.2632 21.7368 32.3972 21.7368 26.3947V10.8684Z" fill="white"/>
<path d="M36.3438 25.6184L41.7919 10.8684H43.3911L37.9437 25.6184H36.3438Z" fill="black"/>
<path d="M0 10.0921C0 4.51816 4.51816 0 10.0921 0C15.6661 0 20.1842 4.51816 20.1842 10.0921V27.1711C20.1842 32.745 15.6661 37.2632 10.0921 37.2632C4.51816 37.2632 0 32.745 0 27.1711V10.0921Z" fill="white"/>
<path d="M9.12158 23.2887V21.3479H11.0624V23.2887H9.12158Z" fill="black"/>
</svg>
