<svg width="64" height="64" viewBox="0 0 64 64" fill="none" xmlns="http://www.w3.org/2000/svg">
<g clip-path="url(#clip0_129_1946)">
<path d="M32.1237 64.0024C30.7897 63.5009 29.4558 62.9976 28.121 62.4979C22.7842 60.5005 17.4458 58.5068 12.1108 56.5044C11.2699 56.1885 11.0104 55.7773 11.0104 54.8693C11.0104 44.735 11.0138 34.601 11 24.4667C10.9991 23.9545 11.1696 23.6332 11.59 23.3953C12.6644 22.7855 13.853 22.544 15.0261 22.2547C15.5434 22.1268 16.0677 22.0177 16.5937 21.944C16.9319 21.8961 17.0366 21.7611 17.0331 21.407C17.015 19.59 17.0184 17.7729 17.0253 15.9559C17.0461 10.8476 19.0098 6.66587 22.8699 3.47388C26.2792 0.653844 30.2274 -0.429968 34.5641 0.156765C41.1283 1.0453 46.2592 5.93355 47.6398 12.6006C47.8803 13.7617 47.941 14.9724 47.98 16.1636C48.0351 17.8608 48.0162 19.5615 47.98 21.2596C47.9696 21.7585 48.1381 21.8907 48.5802 21.9848C49.8181 22.2476 51.0467 22.5591 52.2689 22.8876C52.6531 22.9905 53.0148 23.1947 53.3719 23.3828C53.8037 23.6101 54.0061 23.9625 54 24.4924C53.9767 26.4426 53.9906 28.3928 53.9906 30.3419C53.9906 38.5109 53.9906 46.6809 53.9906 54.8499C53.9906 55.7604 53.7015 56.2151 52.8676 56.5249C47.0403 58.6924 41.2098 60.8513 35.3834 63.0196C34.5503 63.3296 33.7293 63.6739 32.9023 64.0031C32.6419 64.0024 32.3832 64.0024 32.1237 64.0024ZM19.5972 39.9373C19.5972 43.0549 19.6076 46.1715 19.586 49.2888C19.5825 49.769 19.7331 49.9953 20.1691 50.1561C23.9728 51.5567 27.7749 52.9619 31.5631 54.4077C32.2595 54.6732 32.8694 54.6635 33.552 54.406C37.3314 52.9813 41.119 51.5771 44.9098 50.1853C45.3163 50.036 45.4564 49.8356 45.4556 49.3909C45.4417 43.3043 45.446 37.2186 45.446 31.132C45.446 29.93 45.3828 29.8458 44.2479 29.544C44.2064 29.5325 44.1631 29.5271 44.1206 29.5174C42.1431 29.0709 40.131 28.9191 38.1171 28.8339C33.1895 28.6252 28.2619 28.5942 23.3474 29.094C22.3076 29.1997 21.2773 29.4436 20.2564 29.6897C19.6388 29.8379 19.5964 29.9718 19.5955 30.5869C19.5972 33.7035 19.5972 36.8208 19.5972 39.9373ZM24.4322 21.0821C29.839 20.6533 35.2017 20.6676 40.5574 21.0741C40.585 20.9977 40.6136 20.9569 40.6128 20.917C40.5792 18.7174 40.6457 16.5098 40.4778 14.3218C40.3194 12.2669 39.4346 10.4978 37.7832 9.21606C36.0754 7.88991 34.0978 7.53929 32.0242 7.62008C30.2802 7.68843 28.6279 8.1145 27.223 9.24092C25.2272 10.8404 24.4928 13.0498 24.4339 15.5476C24.3985 17.0389 24.4305 18.5319 24.4322 20.0231C24.4331 20.3604 24.4322 20.6968 24.4322 21.0821Z" fill="white"/>
</g>
<defs>
<clipPath id="clip0_129_1946">
<rect width="43" height="64" fill="white" transform="translate(11)"/>
</clipPath>
</defs>
</svg>
