<svg width="17" height="25" viewBox="0 0 17 25" fill="none" xmlns="http://www.w3.org/2000/svg">
<path d="M8.35123 25.0009C7.82385 24.805 7.29647 24.6084 6.76875 24.4132C4.65888 23.633 2.54833 22.8542 0.439144 22.072C0.106709 21.9486 0.00410543 21.788 0.00410543 21.4333C0.00410543 17.4746 0.00547348 13.516 1.295e-06 9.55727C-0.000340716 9.3572 0.0670355 9.23168 0.233253 9.13876C0.658031 8.90055 1.12795 8.80624 1.59172 8.6932C1.79624 8.64327 2.0035 8.60062 2.21145 8.57184C2.34517 8.55312 2.38656 8.50042 2.38519 8.36207C2.37801 7.6523 2.37937 6.94253 2.38211 6.23276C2.39032 4.2373 3.16668 2.60383 4.69274 1.35696C6.04061 0.255383 7.60154 -0.167981 9.31605 0.0612114C11.9112 0.408294 13.9397 2.31777 14.4855 4.9221C14.5806 5.37563 14.6046 5.84858 14.62 6.3139C14.6418 6.97686 14.6343 7.6412 14.62 8.30451C14.6159 8.49938 14.6825 8.55104 14.8573 8.58779C15.3467 8.69043 15.8324 8.81213 16.3156 8.94043C16.4675 8.98065 16.6105 9.06039 16.7517 9.1339C16.9224 9.22267 17.0024 9.36032 17 9.56732C16.9908 10.3291 16.9963 11.0909 16.9963 11.8523C16.9963 15.0433 16.9963 18.2347 16.9963 21.4257C16.9963 21.7814 16.882 21.959 16.5523 22.08C14.2485 22.9267 11.9434 23.77 9.63993 24.617C9.31057 24.7381 8.98601 24.8726 8.65904 25.0012C8.5561 25.0009 8.45384 25.0009 8.35123 25.0009ZM3.39891 15.6005C3.39891 16.8183 3.40301 18.0357 3.39446 19.2534C3.3931 19.441 3.45261 19.5294 3.62498 19.5922C5.1288 20.1393 6.63194 20.6882 8.12961 21.253C8.40493 21.3567 8.64605 21.3529 8.91589 21.2523C10.4101 20.6958 11.9075 20.1473 13.4062 19.6036C13.5669 19.5453 13.6223 19.467 13.622 19.2933C13.6165 16.9157 13.6182 14.5385 13.6182 12.1609C13.6182 11.6914 13.5932 11.6585 13.1445 11.5406C13.1281 11.5361 13.111 11.534 13.0942 11.5302C12.3124 11.3558 11.5169 11.2965 10.7207 11.2632C8.77259 11.1817 6.82449 11.1696 4.88153 11.3648C4.47043 11.4061 4.0631 11.5014 3.65952 11.5975C3.41533 11.6554 3.39857 11.7077 3.39823 11.948C3.39891 13.1654 3.39891 14.3831 3.39891 15.6005ZM5.31041 8.23516C7.44798 8.06769 9.56811 8.07324 11.6855 8.23204C11.6964 8.20222 11.7077 8.18627 11.7074 8.17067C11.6941 7.31146 11.7204 6.44913 11.654 5.59442C11.5914 4.79173 11.2416 4.10068 10.5887 3.6C9.91354 3.08197 9.1317 2.94501 8.3119 2.97657C7.62241 3.00327 6.96917 3.1697 6.41374 3.60971C5.62472 4.23452 5.33435 5.09755 5.31109 6.07327C5.29707 6.65578 5.30973 7.23899 5.31041 7.82151C5.31075 7.95327 5.31041 8.08468 5.31041 8.23516Z" fill="black"/>
</svg>
