<svg width="64" height="64" viewBox="0 0 64 64" fill="none" xmlns="http://www.w3.org/2000/svg">
<g clip-path="url(#clip0_4_1913)">
<path d="M21.1237 64.0024C19.7897 63.5009 18.4558 62.9976 17.121 62.4979C11.7842 60.5005 6.44578 58.5068 1.11078 56.5044C0.269911 56.1885 0.0103843 55.7773 0.0103843 54.8693C0.0103843 44.735 0.0138447 34.601 3.27557e-06 24.4667C-0.000861811 23.9545 0.16956 23.6332 0.589993 23.3953C1.66443 22.7855 2.85305 22.544 4.02612 22.2547C4.54343 22.1268 5.06768 22.0177 5.59367 21.944C5.9319 21.8961 6.03659 21.7611 6.03313 21.407C6.01497 19.59 6.01841 17.7729 6.02534 15.9559C6.0461 10.8476 8.00984 6.66587 11.8699 3.47388C15.2792 0.653844 19.2274 -0.429968 23.5641 0.156765C30.1283 1.0453 35.2592 5.93355 36.6398 12.6006C36.8803 13.7617 36.941 14.9724 36.98 16.1636C37.0351 17.8608 37.0162 19.5615 36.98 21.2596C36.9696 21.7585 37.1381 21.8907 37.5802 21.9848C38.8181 22.2476 40.0467 22.5591 41.2689 22.8876C41.6531 22.9905 42.0148 23.1947 42.3719 23.3828C42.8037 23.6101 43.0061 23.9625 43 24.4924C42.9767 26.4426 42.9906 28.3928 42.9906 30.342C42.9906 38.5109 42.9906 46.6809 42.9906 54.8499C42.9906 55.7604 42.7015 56.2151 41.8676 56.5249C36.0403 58.6924 30.2098 60.8513 24.3834 63.0196C23.5503 63.3296 22.7293 63.6739 21.9023 64.0031C21.6419 64.0024 21.3832 64.0024 21.1237 64.0024ZM8.59724 39.9373C8.59724 43.0549 8.60761 46.1715 8.58599 49.2888C8.58255 49.769 8.73307 49.9953 9.16907 50.1561C12.9728 51.5567 16.7749 52.9619 20.5631 54.4077C21.2595 54.6732 21.8694 54.6635 22.552 54.406C26.3314 52.9813 30.119 51.5771 33.9098 50.1853C34.3163 50.036 34.4564 49.8356 34.4556 49.3909C34.4417 43.3043 34.446 37.2186 34.446 31.132C34.446 29.93 34.3828 29.8458 33.2479 29.544C33.2064 29.5325 33.1631 29.5271 33.1206 29.5174C31.1431 29.0709 29.131 28.9191 27.1171 28.8339C22.1895 28.6252 17.2619 28.5942 12.3474 29.094C11.3076 29.1997 10.2773 29.4436 9.25643 29.6897C8.63878 29.8379 8.59638 29.9718 8.59552 30.5869C8.59724 33.7035 8.59724 36.8208 8.59724 39.9373ZM13.4322 21.0821C18.839 20.6533 24.2017 20.6676 29.5574 21.0741C29.585 20.9977 29.6136 20.9569 29.6128 20.917C29.5792 18.7174 29.6457 16.5098 29.4778 14.3218C29.3194 12.2669 28.4346 10.4978 26.7832 9.21606C25.0754 7.88991 23.0978 7.53929 21.0242 7.62008C19.2802 7.68843 17.6279 8.1145 16.223 9.24092C14.2272 10.8404 13.4928 13.0498 13.4339 15.5476C13.3985 17.0389 13.4305 18.5319 13.4322 20.0231C13.4331 20.3604 13.4322 20.6968 13.4322 21.0821Z" fill="black"/>
</g>
<defs>
<clipPath id="clip0_4_1913">
<rect width="43" height="64" fill="white"/>
</clipPath>
</defs>
</svg>
