<svg width="17" height="25" viewBox="0 0 17 25" fill="none" xmlns="http://www.w3.org/2000/svg">
<path d="M8.35123 24.9999C7.82385 24.804 7.29647 24.6074 6.76875 24.4122C4.65888 23.632 2.54833 22.8533 0.439144 22.071C0.106709 21.9476 0.00410543 21.7871 0.00410543 21.4323C0.00410543 17.4737 0.00547348 13.515 1.295e-06 9.55629C-0.000340716 9.35622 0.0670355 9.23071 0.233253 9.13778C0.658031 8.89957 1.12795 8.80526 1.59172 8.69223C1.79624 8.6423 2.0035 8.59965 2.21145 8.57087C2.34517 8.55214 2.38656 8.49944 2.38519 8.36109C2.37801 7.65132 2.37937 6.94156 2.38211 6.23179C2.39032 4.23632 3.16668 2.60285 4.69274 1.35599C6.04061 0.254407 7.60154 -0.168958 9.31605 0.0602348C11.9112 0.407318 13.9397 2.31679 14.4855 4.92113C14.5806 5.37466 14.6046 5.8476 14.62 6.31292C14.6418 6.97588 14.6343 7.64023 14.62 8.30353C14.6159 8.4984 14.6825 8.55006 14.8573 8.58682C15.3467 8.68945 15.8324 8.81116 16.3156 8.93945C16.4675 8.97967 16.6105 9.05942 16.7517 9.13293C16.9224 9.22169 17.0024 9.35935 17 9.56635C16.9908 10.3281 16.9963 11.0899 16.9963 11.8513C16.9963 15.0423 16.9963 18.2337 16.9963 21.4247C16.9963 21.7805 16.882 21.958 16.5523 22.079C14.2485 22.9257 11.9434 23.769 9.63993 24.6161C9.31057 24.7371 8.98601 24.8716 8.65904 25.0003C8.5561 24.9999 8.45384 24.9999 8.35123 24.9999ZM3.39891 15.5996C3.39891 16.8173 3.40301 18.0347 3.39446 19.2524C3.3931 19.44 3.45261 19.5284 3.62498 19.5912C5.1288 20.1383 6.63194 20.6872 8.12961 21.252C8.40493 21.3557 8.64605 21.3519 8.91589 21.2513C10.4101 20.6948 11.9075 20.1463 13.4062 19.6026C13.5669 19.5444 13.6223 19.466 13.622 19.2923C13.6165 16.9147 13.6182 14.5375 13.6182 12.1599C13.6182 11.6905 13.5932 11.6575 13.1445 11.5396C13.1281 11.5351 13.111 11.533 13.0942 11.5292C12.3124 11.3548 11.5169 11.2955 10.7207 11.2622C8.77259 11.1807 6.82449 11.1686 4.88153 11.3638C4.47043 11.4051 4.0631 11.5004 3.65952 11.5965C3.41533 11.6544 3.39857 11.7067 3.39823 11.947C3.39891 13.1644 3.39891 14.3822 3.39891 15.5996ZM5.31041 8.23419C7.44798 8.06671 9.56811 8.07226 11.6855 8.23107C11.6964 8.20125 11.7077 8.1853 11.7074 8.16969C11.6941 7.31048 11.7204 6.44815 11.654 5.59345C11.5914 4.79075 11.2416 4.09971 10.5887 3.59902C9.91354 3.081 9.1317 2.94404 8.3119 2.97559C7.62241 3.00229 6.96917 3.16872 6.41374 3.60873C5.62472 4.23355 5.33435 5.09657 5.31109 6.07229C5.29707 6.65481 5.30973 7.23802 5.31041 7.82053C5.31075 7.95229 5.31041 8.0837 5.31041 8.23419Z" fill="white"/>
</svg>
