<svg width="64" height="64" viewBox="0 0 64 64" fill="none" xmlns="http://www.w3.org/2000/svg">
<path d="M64 32C64 49.6732 49.6732 64 32 64C14.3268 64 0 49.6732 0 32C0 14.3268 14.3268 0 32 0C49.6732 0 64 14.3268 64 32ZM45.7225 27.4413C46.3595 23.1834 43.1172 20.8943 38.6837 19.3674L40.1219 13.5994L36.6106 12.7244L35.2105 18.3404C34.2874 18.1103 33.3392 17.8934 32.3972 17.6785L33.8074 12.0255L30.2979 11.1506L28.8588 16.9165C28.0947 16.7425 27.3446 16.5705 26.6166 16.3895L26.6206 16.3715L21.7781 15.1625L20.844 18.9124C20.844 18.9124 23.4493 19.5094 23.3943 19.5463C24.8165 19.9013 25.0735 20.8423 25.0304 21.5883L23.3923 28.1592C23.4903 28.1843 23.6173 28.2203 23.7573 28.2763C23.6403 28.2472 23.5152 28.2152 23.3862 28.1843L21.0899 37.3892C20.9159 37.8212 20.4748 38.4692 19.4808 38.2232C19.5157 38.2742 16.9285 37.5862 16.9285 37.5862L15.1853 41.6052L19.7548 42.7441C20.6049 42.9572 21.4381 43.1801 22.2581 43.3901L20.8049 49.224L24.3123 50.099L25.7514 44.327C26.6815 44.579 27.6143 44.8211 28.5497 45.053L27.1155 50.7979L30.6268 51.6729L32.08 45.8499C38.0676 46.983 42.5702 46.5259 44.4653 41.111C45.9925 36.751 44.3893 34.236 41.239 32.596C43.5332 32.0672 45.2614 30.5583 45.7225 27.4413V27.4413ZM37.6996 38.6902C36.6145 43.0502 29.2728 40.6932 26.8925 40.1022L28.8208 32.3733C31.2009 32.9672 38.8337 34.1432 37.6996 38.6902ZM38.7857 27.3783C37.7956 31.3443 31.6849 29.3293 29.7027 28.8354L31.4508 21.8254C33.4332 22.3194 39.8168 23.2413 38.7857 27.3783Z" fill="#FF9100"/>
</svg>
