<svg width="24" height="24" viewBox="0 0 24 24" fill="none" xmlns="http://www.w3.org/2000/svg">
<path d="M23.9992 11.9994C23.9992 15.0562 24.0023 18.1131 23.9977 21.1699C23.9954 22.4949 23.1886 23.5657 21.9389 23.8977C21.6823 23.9655 21.408 23.994 21.1422 23.994C15.0474 23.9994 8.95338 23.9994 2.85861 23.9971C1.20277 23.9971 0.00308206 22.7969 0.00231154 21.1406C-0.000770515 15.0462 -0.000770515 8.95108 0.00231154 2.85671C0.00308206 1.20119 1.202 0.00250369 2.85784 0.00173332C8.95261 -0.000577775 15.0466 -0.000577775 21.1414 0.00173332C22.7988 0.00173332 23.9954 1.19965 23.9977 2.85748C24.0015 5.90505 23.9992 8.95185 23.9985 11.9994H23.9992ZM22.1531 12.0287C22.1531 9.00038 22.1531 5.97207 22.1531 2.94299C22.1531 2.19574 21.8063 1.84676 21.0636 1.84676C15.0258 1.84676 8.98806 1.84676 2.9503 1.84676C2.18364 1.84676 1.84692 2.18572 1.84692 2.95686C1.84692 8.98498 1.84692 15.0131 1.84692 21.0412C1.84692 21.8085 2.18903 22.1529 2.9503 22.1529C8.98806 22.1529 15.0258 22.1529 21.0636 22.1529C21.8087 22.1529 22.1531 21.8062 22.1531 21.0566C22.1531 18.0476 22.1531 15.0377 22.1531 12.0287Z" fill="#7D7C7A"/>
<path d="M15.3129 9.22965C14.386 8.3029 13.5191 7.43238 12.6461 6.56726C12.4211 6.34462 12.2871 6.09117 12.3156 5.77301C12.3479 5.40709 12.5367 5.139 12.8773 4.99879C13.2271 4.85474 13.5553 4.91559 13.8458 5.1598C13.9044 5.2091 13.956 5.26688 14.0107 5.32081C15.3922 6.69899 16.773 8.07718 18.1545 9.45614C18.4643 9.76505 18.5521 10.1425 18.3996 10.5069C18.2447 10.8775 17.928 11.0762 17.4857 11.0762C13.8327 11.0762 10.1805 11.077 6.52747 11.0762C5.99582 11.0762 5.59592 10.7365 5.54353 10.2542C5.49267 9.78739 5.80319 9.35291 6.26935 9.25353C6.38955 9.22811 6.51746 9.23196 6.64228 9.23196C9.40072 9.23119 12.1599 9.23119 14.9184 9.23119H15.3121L15.3129 9.22965Z" fill="#7D7C7A"/>
<path d="M8.68792 14.77C9.61716 15.6983 10.4848 16.5688 11.357 17.4347C11.5812 17.6573 11.7145 17.9108 11.6845 18.2305C11.6498 18.5964 11.461 18.8645 11.1204 19.0024C10.7706 19.1441 10.4416 19.0848 10.1534 18.8375C10.081 18.7751 10.0155 18.7035 9.94772 18.6357C8.58005 17.2714 7.21316 15.9063 5.84549 14.5412C5.53883 14.2346 5.44174 13.8502 5.60432 13.4912C5.77384 13.1175 6.06355 12.9219 6.4881 12.9219C10.1504 12.925 13.8118 12.9226 17.4741 12.9242C18.0058 12.9242 18.4041 13.2631 18.4573 13.7462C18.5081 14.2099 18.1953 14.6475 17.7299 14.7461C17.6097 14.7715 17.4818 14.7684 17.357 14.7684C14.5985 14.7692 11.8401 14.7692 9.08166 14.7692H8.68792V14.77Z" fill="#7D7C7A"/>
</svg>
