<svg width="64" height="64" viewBox="0 0 64 64" fill="none" xmlns="http://www.w3.org/2000/svg">
<g filter="url(#filter0_i_6001_791)">
<path d="M37.2008 1.77084L44.7688 7.59479C45.363 8.05193 46.0133 8.42793 46.7047 8.71478L55.5218 12.3707C59.0955 13.853 61.2303 17.557 60.7229 21.3992L59.4738 30.8792C59.3755 31.6231 59.3755 32.3763 59.4738 33.1203L60.7229 42.6002C61.2292 46.4424 59.0955 50.1464 55.5218 51.6287L46.7047 55.2847C46.0133 55.5715 45.3619 55.9486 44.7688 56.4046L37.2008 62.2286C34.1334 64.5897 29.8649 64.5897 26.7975 62.2286L19.2296 56.4046C18.6353 55.9475 17.985 55.5715 17.2936 55.2847L8.47652 51.6287C4.90283 50.1464 2.768 46.4424 3.27542 42.6002L4.52455 33.1203C4.62284 32.3763 4.62284 31.6231 4.52455 30.8792L3.27542 21.3992C2.76914 17.557 4.90283 13.853 8.47652 12.3707L17.2936 8.71478C17.985 8.42793 18.6364 8.05079 19.2296 7.59479L26.7986 1.77084C29.866 -0.59028 34.1346 -0.59028 37.202 1.77084H37.2008Z" fill="#FF9100"/>
<path d="M43.7493 25.2484C43.3618 21.229 39.8956 19.8815 35.5196 19.4964V13.9193H32.1597V19.5193H29.4397V13.9193H26.0797V19.5193C25.2797 19.5193 24.5791 19.5204 23.8763 19.5215L19.1998 19.501L19.2021 23.1249C19.2021 23.1249 21.706 23.0781 21.6637 23.1249C23.0363 23.1249 23.4843 23.9238 23.6146 24.6118L23.618 39.8837C23.5586 40.3156 23.3037 41.0059 22.3449 41.0071C22.3883 41.0459 19.8809 41.0071 19.8809 41.0071L19.2009 45.1213C19.2009 45.1213 25.282 45.1225 26.0808 45.1225V50.7213H29.4408V45.1213C30.4008 45.1213 31.2819 45.1213 32.1608 45.1213V50.7213H35.5208V45.1213C41.2201 44.7956 45.2167 43.3316 45.7104 37.974C46.1092 33.6608 44.0818 31.7352 40.8464 30.9569C42.8121 29.9557 44.0407 28.1912 43.7515 25.2495H43.7504L43.7493 25.2484ZM39.0099 37.3031C39.0122 41.5168 31.7379 41.0356 29.4397 41.0368V33.5671C31.7368 33.5683 39.0087 32.9089 39.0099 37.3031ZM37.4305 26.7638C37.4305 30.5969 31.3539 30.1489 29.4397 30.1477V23.3729C31.3517 23.3729 37.4293 22.7661 37.4305 26.7638Z" fill="white"/>
</g>
<defs>
<filter id="filter0_i_6001_791" x="0" y="0" width="64" height="64" filterUnits="userSpaceOnUse" color-interpolation-filters="sRGB">
<feFlood flood-opacity="0" result="BackgroundImageFix"/>
<feBlend mode="normal" in="SourceGraphic" in2="BackgroundImageFix" result="shape"/>
<feColorMatrix in="SourceAlpha" type="matrix" values="0 0 0 0 0 0 0 0 0 0 0 0 0 0 0 0 0 0 127 0" result="hardAlpha"/>
<feMorphology radius="0.5" operator="erode" in="SourceAlpha" result="effect1_innerShadow_6001_791"/>
<feOffset/>
<feComposite in2="hardAlpha" operator="arithmetic" k2="-1" k3="1"/>
<feColorMatrix type="matrix" values="0 0 0 0 0.0941176 0 0 0 0 0.0705882 0 0 0 0 0.141176 0 0 0 0.1 0"/>
<feBlend mode="normal" in2="shape" result="effect1_innerShadow_6001_791"/>
</filter>
</defs>
</svg>
