<svg width="15" height="15" viewBox="0 0 15 15" fill="none" xmlns="http://www.w3.org/2000/svg">
<path d="M8.59514 0.133273C6.12322 2.09493 6.4535 5.2431 8.01737 6.86194C9.63835 8.53983 12.8261 8.93501 14.8649 6.43152C14.8896 6.50104 14.9172 6.55246 14.9258 6.60579C15.0848 7.61613 14.981 8.60648 14.6936 9.58255C14.2376 11.1338 13.3734 12.4146 12.1065 13.4087C11.1946 14.1239 10.1571 14.581 9.01585 14.8314C7.48434 15.1685 6.00804 14.9876 4.58219 14.4134C3.39049 13.9334 2.40058 13.1535 1.60675 12.1308C0.347469 10.5072 -0.191271 8.65124 0.0600139 6.63816C0.395061 3.95946 1.80759 1.96447 4.24715 0.760813C5.55687 0.114228 6.94941 -0.145739 8.41143 0.0799468C8.46283 0.0875649 8.51233 0.109467 8.59514 0.133273Z" fill="white"/>
</svg>
