<svg width="19" height="19" viewBox="0 0 19 19" fill="none" xmlns="http://www.w3.org/2000/svg">
<g clip-path="url(#clip0_1328_172)">
<path d="M10.0938 1.1875H8.90625V4.15625H10.0938V1.1875Z" fill="white"/>
<path d="M14.958 3.20259L12.8764 5.28418L13.716 6.12379L15.7976 4.0422L14.958 3.20259Z" fill="white"/>
<path d="M17.8125 8.90625H14.8438V10.0938H17.8125V8.90625Z" fill="white"/>
<path d="M13.716 12.8762L12.8764 13.7158L14.958 15.7974L15.7976 14.9578L13.716 12.8762Z" fill="white"/>
<path d="M10.0938 14.8438H8.90625V17.8125H10.0938V14.8438Z" fill="white"/>
<path d="M5.28404 12.8764L3.20245 14.958L4.04206 15.7976L6.12365 13.716L5.28404 12.8764Z" fill="white"/>
<path d="M4.15625 8.90625H1.1875V10.0938H4.15625V8.90625Z" fill="white"/>
<path d="M4.04206 3.20239L3.20245 4.04199L5.28404 6.12358L6.12365 5.28398L4.04206 3.20239Z" fill="white"/>
<path d="M9.5 5.9375C8.79541 5.9375 8.10663 6.14644 7.52078 6.53789C6.93493 6.92934 6.47832 7.48573 6.20868 8.13669C5.93904 8.78765 5.86849 9.50395 6.00595 10.195C6.14341 10.8861 6.48271 11.5208 6.98093 12.0191C7.47916 12.5173 8.11393 12.8566 8.80499 12.994C9.49605 13.1315 10.2123 13.061 10.8633 12.7913C11.5143 12.5217 12.0707 12.0651 12.4621 11.4792C12.8536 10.8934 13.0625 10.2046 13.0625 9.5C13.0625 8.55517 12.6872 7.64903 12.0191 6.98093C11.351 6.31283 10.4448 5.9375 9.5 5.9375Z" fill="white"/>
</g>
<defs>
<clipPath id="clip0_1328_172">
<rect width="19" height="19" fill="white"/>
</clipPath>
</defs>
</svg>
