<svg xmlns="http://www.w3.org/2000/svg" width="107" height="97" viewBox="0 0 107 97" fill="none">
  <g clip-path="url(#clip0_22_2106)">
    <path d="M37.4144 96.8203L36.7598 84.4206L0.925806 75.4041L0.163692 64.2934L12.5096 43.2542L43.9492 51.1611L46.5923 51.8281L55.258 54.0053L60.4632 45.134L63.1059 45.7975L80.3543 72.3906L81.1133 83.5048L37.4144 96.8203Z" fill="none"/>
    <path d="M106.892 32.6685L106.133 33.9647L104.869 36.1139L103.532 38.3952L95.2592 52.4881L94.5454 53.708L51.7967 42.9532L45.5404 53.6147L26.701 24.5677L25.9415 13.4536L69.6408 0.141564L70.4032 11.2525L69.7313 12.3997L106.133 21.5544L106.892 32.6685Z" fill="none"/>
    <path d="M81.1133 83.5048L37.4144 96.8203L43.6708 86.1589L0.925856 75.4041L13.2723 54.3646L56.0171 65.1194L62.2738 54.458L81.1133 83.5048Z" stroke="#FF9100" stroke-miterlimit="10"/>
    <path d="M81.1133 83.5048L61.4346 75.9571C60.7278 75.6841 59.9897 75.4525 59.2307 75.2624L8.49868 62.4998" stroke="#FF9100" stroke-miterlimit="10"/>
    <path d="M2.94464 71.9587L49.8888 83.7674C50.4773 83.9161 50.6792 84.507 50.3346 85.091L50.3168 85.1187C49.8851 85.8548 50.3309 86.5529 51.1807 86.47L81.1162 83.5048" stroke="#FF9100" stroke-miterlimit="10"/>
    <path d="M4.28587 69.6812L53.6811 82.1051C53.8756 82.1535 53.9423 82.3505 53.8305 82.544C53.6984 82.7687 53.8132 82.9898 54.0639 82.9933L81.1133 83.5048" stroke="#FF9100" stroke-miterlimit="10"/>
    <path d="M81.1133 83.5047L45.5752 91.0593C45.0046 91.1803 44.66 90.7345 44.9453 90.2472L46.6096 87.4133C47.1734 86.4492 46.843 85.4711 45.8716 85.2258L1.68478 74.1116" stroke="#FF9100" stroke-miterlimit="10"/>
    <path d="M7.09882 64.8844L58.8094 77.8958L81.1133 83.5082L58.6041 80.4462C57.8067 80.3391 57.0268 80.1871 56.2748 79.997L5.69943 67.2724" stroke="#FF9100" stroke-miterlimit="10"/>
    <path d="M10.0376 59.8768L59.4362 72.3042C59.6311 72.3525 59.8818 72.235 59.9932 72.0415L60.0489 71.9482C60.1813 71.7201 60.4946 71.6095 60.6861 71.7201L81.1133 83.5082" stroke="#FF9100" stroke-miterlimit="10"/>
    <path d="M81.1133 83.5048L62.6045 62.4515C62.2389 62.0368 61.3719 62.2545 61.0238 62.8524L59.5267 65.4028C58.9626 66.367 57.7162 66.9476 56.7412 66.7022L12.5547 55.5846" stroke="#FF9100" stroke-miterlimit="10"/>
    <path d="M11.3504 57.6374L58.2907 69.4463C58.879 69.5948 59.6346 69.2423 59.9758 68.6583C60.411 67.9187 61.459 67.5973 62.0021 68.0362L81.1133 83.5013L80.3543 72.3872L63.1059 45.7941" stroke="#FF9100" stroke-miterlimit="10"/>
    <path d="M26.7005 24.5677L70.4033 11.2525L64.1466 21.9136L106.892 32.6685L94.5455 53.708L51.7967 42.9532L45.5404 53.6147L26.7005 24.5677Z" stroke="#FF9100" stroke-miterlimit="10"/>
    <path d="M46.592 51.828L55.2578 54.0052L60.4629 45.1339" stroke="#FF9100" stroke-miterlimit="10"/>
    <path d="M70.4032 11.2526L69.6443 0.138489L25.9415 13.4537L26.701 24.5678L45.8121 40.0333C46.3549 40.4721 47.4029 40.1507 47.8382 39.4109C48.1797 38.8268 48.935 38.4745 49.5235 38.6234L96.4639 50.4319" stroke="#FF9100" stroke-miterlimit="10"/>
    <path d="M69.7313 12.3998L106.133 21.5545L106.892 32.6686" stroke="#FF9100" stroke-miterlimit="10"/>
    <path d="M26.7006 24.5678L46.3796 32.1154C47.0862 32.3886 47.8241 32.6203 48.5836 32.8101L99.3154 45.5729" stroke="#FF9100" stroke-miterlimit="10"/>
    <path d="M104.869 36.1139L57.9287 24.3051C57.3403 24.1567 57.1384 23.5658 57.483 22.9817L57.5004 22.9539C57.9321 22.2177 57.4865 21.5198 56.637 21.6027L26.7009 24.5677" stroke="#FF9100" stroke-miterlimit="10"/>
    <path d="M103.531 38.3953L54.1329 25.9677C53.9378 25.9195 53.8717 25.7223 53.9829 25.5289C54.1151 25.3039 54.0002 25.0827 53.7495 25.0795L26.7 24.5678" stroke="#FF9100" stroke-miterlimit="10"/>
    <path d="M26.7003 24.5678L62.2384 17.0133C62.8094 16.8922 63.1541 17.3384 62.8686 17.8255L61.2044 20.6595C60.6403 21.6237 60.9711 22.6016 61.9425 22.847L106.129 33.9611" stroke="#FF9100" stroke-miterlimit="10"/>
    <path d="M100.719 43.1881L49.0088 30.1801L26.7045 24.5678L49.2139 27.6298C50.0111 27.7368 50.7911 27.8888 51.5432 28.0792L102.122 40.804" stroke="#FF9100" stroke-miterlimit="10"/>
    <path d="M97.7764 48.1993L48.3779 35.772C48.1828 35.7238 47.932 35.8412 47.8208 36.0347L47.7653 36.128C47.6326 36.3561 47.3194 36.4667 47.128 36.3561L26.7004 24.5677" stroke="#FF9100" stroke-miterlimit="10"/>
    <path d="M26.7001 24.5677L45.209 45.6212C45.5746 46.0359 46.4416 45.8182 46.7899 45.2203L48.2868 42.67C48.8512 41.7058 50.0975 41.1253 51.0725 41.3702L95.2588 52.4846" stroke="#FF9100" stroke-miterlimit="10"/>
    <path d="M62.2734 54.458L61.7129 45.4485" stroke="#FF9100" stroke-miterlimit="10"/>
    <path d="M0.925778 75.4042L0.163665 64.2935L12.5096 43.2542L43.9492 51.1611" stroke="#FF9100" stroke-miterlimit="10"/>
    <path d="M37.4141 96.8203L36.7595 84.4206" stroke="#FF9100" stroke-miterlimit="10"/>
    <path d="M26.645 23.3099L70.3477 10.0047" stroke="#FF9100" stroke-miterlimit="10"/>
    <path d="M26.5298 21.8759L70.2324 8.5706" stroke="#FF9100" stroke-miterlimit="10"/>
    <path d="M26.4187 20.4382L70.1211 7.13298" stroke="#FF9100" stroke-miterlimit="10"/>
    <path d="M26.3044 19.0041L70.0068 5.6989" stroke="#FF9100" stroke-miterlimit="10"/>
    <path d="M26.1929 17.5664L69.8916 4.26429" stroke="#FF9100" stroke-miterlimit="10"/>
    <path d="M26.0781 16.132L69.7803 2.82723" stroke="#FF9100" stroke-miterlimit="10"/>
    <path d="M25.9661 14.6979L69.665 1.39263" stroke="#FF9100" stroke-miterlimit="10"/>
    <path d="M81.0508 82.3195L62.1904 52.7093L55.8989 63.3915" stroke="#FF9100" stroke-miterlimit="10"/>
    <path d="M80.8936 80.1007L62.0331 50.4872L55.7521 61.2315" stroke="#FF9100" stroke-miterlimit="10"/>
    <path d="M80.7334 77.8785L61.873 48.265L55.5954 58.9679" stroke="#FF9100" stroke-miterlimit="10"/>
    <path d="M80.5771 75.6565L61.7619 46.1189L55.4496 56.8426" stroke="#FF9100" stroke-miterlimit="10"/>
    <path d="M80.417 73.4342L62.5349 45.6558" stroke="#FF9100" stroke-miterlimit="10"/>
    <path d="M106.847 31.2791L64.7597 20.7249" stroke="#FF9100" stroke-miterlimit="10"/>
    <path d="M106.696 29.8074L65.5668 19.495" stroke="#FF9100" stroke-miterlimit="10"/>
    <path d="M106.609 28.3523L66.3016 18.2438" stroke="#FF9100" stroke-miterlimit="10"/>
    <path d="M106.494 26.8868L67.0359 16.9928" stroke="#FF9100" stroke-miterlimit="10"/>
    <path d="M106.397 25.425L67.7713 15.7418" stroke="#FF9100" stroke-miterlimit="10"/>
    <path d="M106.296 23.9669L68.5054 14.4871" stroke="#FF9100" stroke-miterlimit="10"/>
    <path d="M106.195 22.5045L69.2369 13.236" stroke="#FF9100" stroke-miterlimit="10"/>
    <path d="M55.2576 54.0052L56.0166 65.1194" stroke="#FF9100" stroke-miterlimit="10"/>
    <path d="M44.7988 52.4709L12.6002 44.5257L0.232804 65.2922" stroke="#FF9100" stroke-miterlimit="10"/>
    <path d="M61.0586 45.1339L55.258 55.0524L46.0352 52.7749" stroke="#FF9100" stroke-miterlimit="10"/>
    <path d="M55.4492 56.8426L12.7427 46.3816L0.340646 66.8854" stroke="#FF9100" stroke-miterlimit="10"/>
    <path d="M55.5957 58.9679L12.9171 48.5001L0.459449 69.2596" stroke="#FF9100" stroke-miterlimit="10"/>
    <path d="M55.752 61.2315L13.0451 50.4872L0.639921 71.2329" stroke="#FF9100" stroke-miterlimit="10"/>
    <path d="M55.8984 63.3914L13.1571 52.7092L0.789715 73.4342" stroke="#FF9100" stroke-miterlimit="10"/>
    <path d="M37.3204 95.0785L42.6992 85.9134" stroke="#FF9100" stroke-miterlimit="10"/>
    <path d="M37.1915 92.8806L41.46 85.6025" stroke="#FF9100" stroke-miterlimit="10"/>
    <path d="M37.0595 90.6826L40.2207 85.2914" stroke="#FF9100" stroke-miterlimit="10"/>
    <path d="M36.965 88.2981L38.9424 84.9701" stroke="#FF9100" stroke-miterlimit="10"/>
    <path d="M36.8535 86.1865L37.7451 84.6694" stroke="#FF9100" stroke-miterlimit="10"/>
  </g>
  <defs>
    <clipPath id="clip0_22_2106">
      <rect width="107" height="97" fill="white" transform="translate(107 97) rotate(-180)"/>
    </clipPath>
  </defs>
</svg>