<svg xmlns="http://www.w3.org/2000/svg" width="107" height="97" viewBox="0 0 107 97" fill="none">
  <g clip-path="url(#clip0_22_2035)">
    <path d="M69.5856 0.179688L70.2402 12.5794L106.074 21.5958L106.836 32.7065L94.4904 53.7458L63.0508 45.8389L60.4077 45.1719L51.742 42.9947L46.5368 51.866L43.8941 51.2025L26.6457 24.6094L25.8867 13.4952L69.5856 0.179688Z" fill="none"/>
    <path d="M0.108398 64.3315L0.867407 63.0353L2.13127 60.8861L3.46824 58.6048L11.7408 44.5119L12.4546 43.292L55.2033 54.0468L61.4596 43.3853L80.299 72.4323L81.0585 83.5464L37.3592 96.8584L36.5968 85.7475L37.2687 84.6003L0.867407 75.4456L0.108398 64.3315Z" fill="none"/>
    <path d="M25.8867 13.4952L69.5856 0.179688L63.3292 10.8411L106.074 21.5958L93.7277 42.6354L50.9829 31.8806L44.7262 42.542L25.8867 13.4952Z" stroke="#74BD01" stroke-miterlimit="10"/>
    <path d="M25.8867 13.4952L45.5654 21.0429C46.2722 21.3159 47.0103 21.5475 47.7693 21.7376L98.5013 34.5001" stroke="#74BD01" stroke-miterlimit="10"/>
    <path d="M104.055 25.0414L57.1112 13.2326C56.5227 13.084 56.3208 12.4931 56.6654 11.909L56.6832 11.8813C57.1149 11.1452 56.6691 10.4472 55.8193 10.5301L25.8838 13.4953" stroke="#74BD01" stroke-miterlimit="10"/>
    <path d="M102.714 27.3188L53.3189 14.8949C53.1244 14.8465 53.0577 14.6495 53.1695 14.456C53.3016 14.2313 53.1868 14.0102 52.9361 14.0067L25.8867 13.4952" stroke="#74BD01" stroke-miterlimit="10"/>
    <path d="M25.8867 13.4953L61.4248 5.94071C61.9954 5.81975 62.34 6.26553 62.0547 6.75283L60.3904 9.58665C59.8266 10.5508 60.157 11.5289 61.1284 11.7742L105.315 22.8884" stroke="#74BD01" stroke-miterlimit="10"/>
    <path d="M99.9012 32.1156L48.1906 19.1041L25.8867 13.4918L48.3959 16.5537C49.1933 16.6608 49.9732 16.8129 50.7252 17.0029L101.301 29.7276" stroke="#74BD01" stroke-miterlimit="10"/>
    <path d="M96.9624 37.1232L47.5638 24.6958C47.3689 24.6474 47.1182 24.7649 47.0068 24.9584L46.9511 25.0517C46.8187 25.2798 46.5054 25.3904 46.3139 25.2798L25.8867 13.4918" stroke="#74BD01" stroke-miterlimit="10"/>
    <path d="M25.8867 13.4952L44.3955 34.5485C44.7611 34.9632 45.6281 34.7455 45.9762 34.1476L47.4733 31.5972C48.0374 30.633 49.2838 30.0524 50.2588 30.2978L94.4453 41.4154" stroke="#74BD01" stroke-miterlimit="10"/>
    <path d="M95.6496 39.3626L48.7093 27.5538C48.121 27.4052 47.3654 27.7577 47.0242 28.3418C46.589 29.0813 45.541 29.4027 44.9979 28.9638L25.8867 13.4987L26.6457 24.6129L43.8941 51.206" stroke="#74BD01" stroke-miterlimit="10"/>
    <path d="M80.2995 72.4323L36.5967 85.7475L42.8534 75.0864L0.108398 64.3315L12.4545 43.292L55.2033 54.0468L61.4596 43.3853L80.2995 72.4323Z" stroke="#74BD01" stroke-miterlimit="10"/>
    <path d="M60.408 45.172L51.7422 42.9948L46.5371 51.8661" stroke="#74BD01" stroke-miterlimit="10"/>
    <path d="M36.5968 85.7475L37.3557 96.8616L81.0585 83.5464L80.299 72.4323L61.1879 56.9668C60.6451 56.5279 59.5971 56.8493 59.1618 57.5892C58.8203 58.1733 58.065 58.5256 57.4765 58.3767L10.5361 46.5682" stroke="#74BD01" stroke-miterlimit="10"/>
    <path d="M37.2687 84.6002L0.867411 75.4455L0.108398 64.3314" stroke="#74BD01" stroke-miterlimit="10"/>
    <path d="M80.2994 72.4322L60.6204 64.8846C59.9138 64.6114 59.1759 64.3797 58.4164 64.1899L7.68457 51.4271" stroke="#74BD01" stroke-miterlimit="10"/>
    <path d="M2.13086 60.8861L49.0713 72.6949C49.6597 72.8433 49.8616 73.4342 49.517 74.0183L49.4996 74.0461C49.0679 74.7823 49.5135 75.4801 50.363 75.3973L80.2991 72.4323" stroke="#74BD01" stroke-miterlimit="10"/>
    <path d="M3.46875 58.6047L52.8671 71.0323C53.0622 71.0805 53.1283 71.2777 53.0171 71.4711C52.8849 71.6961 52.9998 71.9173 53.2505 71.9205L80.3 72.4322" stroke="#74BD01" stroke-miterlimit="10"/>
    <path d="M80.2997 72.4322L44.7616 79.9867C44.1906 80.1078 43.8459 79.6616 44.1314 79.1745L45.7956 76.3405C46.3597 75.3763 46.0289 74.3984 45.0575 74.153L0.871094 63.0389" stroke="#74BD01" stroke-miterlimit="10"/>
    <path d="M6.28106 53.8119L57.9912 66.8199L80.2955 72.4322L57.7861 69.3702C56.9889 69.2632 56.2089 69.1112 55.4568 68.9208L4.87793 56.196" stroke="#74BD01" stroke-miterlimit="10"/>
    <path d="M9.22363 48.8007L58.6221 61.228C58.8172 61.2762 59.068 61.1588 59.1792 60.9653L59.2347 60.872C59.3674 60.6439 59.6806 60.5333 59.872 60.6439L80.2996 72.4323" stroke="#74BD01" stroke-miterlimit="10"/>
    <path d="M80.2999 72.4322L61.791 51.3787C61.4254 50.964 60.5584 51.1817 60.2101 51.7796L58.7132 54.3299C58.1488 55.2942 56.9026 55.8746 55.9275 55.6297L11.7412 44.5153" stroke="#74BD01" stroke-miterlimit="10"/>
    <path d="M44.7266 42.5421L45.2871 51.5516" stroke="#74BD01" stroke-miterlimit="10"/>
    <path d="M106.074 21.5958L106.836 32.7065L94.4904 53.7458L63.0508 45.8389" stroke="#74BD01" stroke-miterlimit="10"/>
    <path d="M69.5859 0.179688L70.2405 12.5794" stroke="#74BD01" stroke-miterlimit="10"/>
    <path d="M80.355 73.6901L36.6523 86.9953" stroke="#74BD01" stroke-miterlimit="10"/>
    <path d="M80.4702 75.1241L36.7676 88.4294" stroke="#74BD01" stroke-miterlimit="10"/>
    <path d="M80.5813 76.5618L36.8789 89.8671" stroke="#74BD01" stroke-miterlimit="10"/>
    <path d="M80.6956 77.9958L36.9932 91.3011" stroke="#74BD01" stroke-miterlimit="10"/>
    <path d="M80.8071 79.4335L37.1084 92.7356" stroke="#74BD01" stroke-miterlimit="10"/>
    <path d="M80.9219 80.8681L37.2197 94.1728" stroke="#74BD01" stroke-miterlimit="10"/>
    <path d="M81.0339 82.3021L37.335 95.6074" stroke="#74BD01" stroke-miterlimit="10"/>
    <path d="M25.9492 14.6806L44.8096 44.2907L51.1011 33.6086" stroke="#74BD01" stroke-miterlimit="10"/>
    <path d="M26.1064 16.8993L44.9669 46.5128L51.2479 35.7685" stroke="#74BD01" stroke-miterlimit="10"/>
    <path d="M26.2666 19.1215L45.127 48.735L51.4046 38.0321" stroke="#74BD01" stroke-miterlimit="10"/>
    <path d="M26.4229 21.3436L45.2381 50.8811L51.5504 40.1575" stroke="#74BD01" stroke-miterlimit="10"/>
    <path d="M26.583 23.5657L44.4651 51.3442" stroke="#74BD01" stroke-miterlimit="10"/>
    <path d="M0.15332 65.7209L42.2403 76.275" stroke="#74BD01" stroke-miterlimit="10"/>
    <path d="M0.303711 67.1927L41.4332 77.5051" stroke="#74BD01" stroke-miterlimit="10"/>
    <path d="M0.390625 68.6476L40.6984 78.7561" stroke="#74BD01" stroke-miterlimit="10"/>
    <path d="M0.505859 70.1132L39.9641 80.0072" stroke="#74BD01" stroke-miterlimit="10"/>
    <path d="M0.602539 71.575L39.2287 81.2582" stroke="#74BD01" stroke-miterlimit="10"/>
    <path d="M0.704102 73.0331L38.4946 82.5129" stroke="#74BD01" stroke-miterlimit="10"/>
    <path d="M0.804688 74.4955L37.7631 83.764" stroke="#74BD01" stroke-miterlimit="10"/>
    <path d="M51.7424 42.9947L50.9834 31.8806" stroke="#74BD01" stroke-miterlimit="10"/>
    <path d="M62.2012 44.5292L94.3998 52.4744L106.767 31.7078" stroke="#74BD01" stroke-miterlimit="10"/>
    <path d="M45.9414 51.8661L51.742 41.9476L60.9648 44.2251" stroke="#74BD01" stroke-miterlimit="10"/>
    <path d="M51.5508 40.1574L94.2573 50.6184L106.659 30.1146" stroke="#74BD01" stroke-miterlimit="10"/>
    <path d="M51.4043 38.0321L94.0829 48.5L106.541 27.7404" stroke="#74BD01" stroke-miterlimit="10"/>
    <path d="M51.248 35.7685L93.9549 46.5128L106.36 25.7671" stroke="#74BD01" stroke-miterlimit="10"/>
    <path d="M51.1016 33.6085L93.8429 44.2907L106.21 23.5657" stroke="#74BD01" stroke-miterlimit="10"/>
    <path d="M69.6796 1.92145L64.3008 11.0865" stroke="#74BD01" stroke-miterlimit="10"/>
    <path d="M69.8085 4.11938L65.54 11.3975" stroke="#74BD01" stroke-miterlimit="10"/>
    <path d="M69.9405 6.31738L66.7793 11.7086" stroke="#74BD01" stroke-miterlimit="10"/>
    <path d="M70.035 8.7019L68.0576 12.0299" stroke="#74BD01" stroke-miterlimit="10"/>
    <path d="M70.1465 10.8135L69.2549 12.3306" stroke="#74BD01" stroke-miterlimit="10"/>
  </g>
  <defs>
    <clipPath id="clip0_22_2035">
      <rect width="107" height="97" fill="white"/>
    </clipPath>
  </defs>
</svg>