<svg width="1792" height="197" viewBox="0 0 1792 197" fill="none" xmlns="http://www.w3.org/2000/svg">
<path d="M0.470703 5.95739H90.775C109.43 5.95739 124.045 10.7102 134.603 20.216C145.162 29.7217 150.441 42.6643 150.441 59.0284C150.441 66.7692 149.156 73.643 146.617 79.6189C144.063 85.6103 140.363 90.6728 135.532 94.8064C130.687 98.94 124.835 102.238 117.976 104.715C123.426 107.176 127.884 110.923 131.306 115.939C134.743 120.955 137.777 128.045 140.409 137.195L156.247 191.861H117.961L104.755 146.438C102.82 139.394 100.745 134.021 98.5468 130.321C96.3484 126.621 93.314 123.896 89.4436 122.131C85.5732 120.367 80.3714 119.484 73.8691 119.484H36.1094V191.845H0.470703V5.94189V5.95739ZM85.759 90.4561C94.9086 90.4561 102.046 88.2112 107.155 83.7216C112.264 79.2319 114.818 72.3271 114.818 62.9917C114.818 53.6563 112.264 47.1075 107.155 42.7881C102.046 38.4688 94.9241 36.3168 85.759 36.3168H36.1249V90.4561H85.7744H85.759Z" fill="black"/>
<path d="M235.746 196.072C221.657 196.072 209.071 193.037 197.986 186.968C186.901 180.9 178.309 172.493 172.24 161.749C166.171 151.02 163.137 138.681 163.137 124.779C163.137 110.876 166.218 98.5064 172.379 87.6847C178.541 76.8631 187.118 68.3637 198.125 62.202C209.117 56.0403 221.766 52.9595 236.024 52.9595C250.283 52.9595 262.343 56.0403 273.257 62.202C284.172 68.3637 292.671 76.8631 298.74 87.6847C304.809 98.5064 307.843 110.783 307.843 124.516C307.843 138.248 304.809 150.788 298.74 161.61C292.671 172.431 284.126 180.884 273.134 186.968C262.126 193.037 249.679 196.072 235.777 196.072H235.746ZM235.746 166.765C242.96 166.765 249.338 165.046 254.896 161.61C260.439 158.173 264.758 153.296 267.839 146.948C270.92 140.616 272.452 133.123 272.452 124.5C272.452 115.877 270.904 108.662 267.839 102.315C264.758 95.9829 260.439 91.0443 254.896 87.53C249.354 84.0156 242.975 82.2507 235.746 82.2507C228.516 82.2507 221.843 84.0156 216.208 87.53C210.572 91.0598 206.222 95.9829 203.141 102.315C200.06 108.647 198.528 116.047 198.528 124.5C198.528 132.953 200.06 140.601 203.141 146.948C206.222 153.28 210.572 158.173 216.208 161.61C221.843 165.046 228.361 166.765 235.746 166.765Z" fill="black"/>
<path d="M392.08 196.072C377.991 196.072 365.405 193.037 354.32 186.968C343.235 180.9 334.643 172.493 328.574 161.749C322.505 151.02 319.471 138.681 319.471 124.779C319.471 110.876 322.552 98.5064 328.713 87.6847C334.875 76.8631 343.452 68.3637 354.459 62.202C365.451 56.0403 378.1 52.9595 392.358 52.9595C406.617 52.9595 418.677 56.0403 429.591 62.202C440.506 68.3637 449.005 76.8631 455.074 87.6847C461.143 98.5064 464.177 110.783 464.177 124.516C464.177 138.248 461.143 150.788 455.074 161.61C449.005 172.431 440.46 180.884 429.468 186.968C418.46 193.037 406.013 196.072 392.11 196.072H392.08ZM392.08 166.765C399.294 166.765 405.672 165.046 411.23 161.61C416.773 158.173 421.092 153.296 424.173 146.948C427.254 140.616 428.786 133.123 428.786 124.5C428.786 115.877 427.238 108.662 424.173 102.315C421.092 95.9829 416.773 91.0443 411.23 87.53C405.688 84.0156 399.309 82.2507 392.08 82.2507C384.85 82.2507 378.177 84.0156 372.542 87.53C366.906 91.0598 362.556 95.9829 359.475 102.315C356.394 108.647 354.862 116.047 354.862 124.5C354.862 132.953 356.394 140.601 359.475 146.948C362.556 153.28 366.906 158.173 372.542 161.61C378.177 165.046 384.695 166.765 392.08 166.765Z" fill="black"/>
<path d="M533.083 195.282C518.112 195.282 507.43 191.846 501.005 184.987C494.58 178.129 491.36 168.267 491.36 155.417V85.1772H470.77V57.1864H491.36V21.7954H526.209V57.1864H553.41V85.1772H526.209V153.575C526.209 157.972 527.525 161.146 530.173 163.081C532.82 165.016 536.597 165.991 541.521 165.991C544.338 165.991 548.209 165.635 553.132 164.939V192.403C546.258 194.338 539.57 195.313 533.068 195.313L533.083 195.282Z" fill="black"/>
<path d="M621.811 196.072C604.905 196.072 591.266 192.248 580.878 184.584C570.489 176.921 563.972 166.239 561.34 152.506L593.82 146.438C595.229 154.008 598.434 159.814 603.465 163.87C608.481 167.926 614.782 169.939 622.353 169.939C629.397 169.939 634.986 168.452 639.12 165.449C643.253 162.461 645.328 158.761 645.328 154.364C645.328 150.323 643.702 147.413 640.435 145.648C637.169 143.883 631.239 141.948 622.616 139.842C621.037 139.486 619.535 139.177 618.126 138.913C616.718 138.65 615.216 138.341 613.637 137.985C602.552 135.337 593.65 132.489 586.962 129.408C580.274 126.327 575.072 122.147 571.387 116.868C567.703 111.588 565.845 104.715 565.845 96.2771C565.845 87.8396 568.09 80.0833 572.58 73.5655C577.069 67.0477 583.494 61.9853 591.854 58.378C600.214 54.7708 609.859 52.9595 620.774 52.9595C636.085 52.9595 648.408 56.3964 657.744 63.2547C667.079 70.1131 673.226 79.8046 676.229 92.2983L645.064 98.8935C643.3 92.7318 640.451 87.886 636.488 84.3717C632.524 80.8574 627.292 79.0925 620.774 79.0925C614.968 79.0925 610.03 80.4084 605.989 83.0558C601.933 85.7031 599.92 89.1245 599.92 93.351C599.92 97.5775 601.809 100.256 605.602 101.928C609.379 103.6 616.3 105.489 626.332 107.61C626.858 107.78 627.338 107.919 627.787 108.012C628.22 108.105 628.716 108.229 629.242 108.415C641.395 111.062 651.025 113.88 658.162 116.868C665.299 119.856 670.748 124.036 674.541 129.408C678.319 134.78 680.223 141.87 680.223 150.664C680.223 159.458 677.855 167.833 673.102 174.692C668.349 181.55 661.614 186.845 652.898 190.529C644.182 194.229 633.84 196.072 621.873 196.072H621.811Z" fill="black"/>
<path d="M748.293 195.282C733.322 195.282 722.64 191.846 716.215 184.987C709.79 178.129 706.57 168.267 706.57 155.417V85.1772H685.979V57.1864H706.57V21.7954H741.419V57.1864H768.62V85.1772H741.419V153.575C741.419 157.972 742.735 161.146 745.382 163.081C748.03 165.016 751.807 165.991 756.73 165.991C759.548 165.991 763.419 165.635 768.342 164.939V192.403C761.468 194.338 754.78 195.313 748.278 195.313L748.293 195.282Z" fill="black"/>
<path d="M849.685 196.072C835.597 196.072 823.01 193.037 811.925 186.968C800.84 180.9 792.248 172.493 786.179 161.749C780.111 151.02 777.076 138.681 777.076 124.779C777.076 110.876 780.157 98.5064 786.319 87.6847C792.48 76.8631 801.057 68.3637 812.065 62.202C823.057 56.0403 835.705 52.9595 849.964 52.9595C864.222 52.9595 876.282 56.0403 887.197 62.202C898.112 68.3637 906.611 76.8631 912.68 87.6847C918.748 98.5064 921.783 110.783 921.783 124.516C921.783 138.248 918.748 150.788 912.68 161.61C906.611 172.431 898.065 180.884 887.073 186.968C876.066 193.037 863.618 196.072 849.716 196.072H849.685ZM849.685 166.765C856.899 166.765 863.278 165.046 868.836 161.61C874.378 158.173 878.698 153.296 881.778 146.948C884.859 140.616 886.392 133.123 886.392 124.5C886.392 115.877 884.844 108.662 881.778 102.315C878.698 95.9829 874.378 91.0443 868.836 87.53C863.293 84.0156 856.915 82.2507 849.685 82.2507C842.455 82.2507 835.782 84.0156 830.147 87.53C824.512 91.0598 820.161 95.9829 817.081 102.315C814 108.647 812.467 116.047 812.467 124.5C812.467 132.953 814 140.601 817.081 146.948C820.161 153.28 824.512 158.173 830.147 161.61C835.782 165.046 842.3 166.765 849.685 166.765Z" fill="black"/>
<path d="M1005.75 195.808C991.665 195.808 979.078 192.774 967.993 186.705C956.908 180.636 948.362 172.23 942.387 161.485C936.395 150.757 933.407 138.511 933.407 124.779C933.407 111.046 936.442 98.9862 942.51 88.0716C948.579 77.1571 957.079 68.5803 967.993 62.3257C978.908 56.0711 991.494 52.9438 1005.75 52.9438C1017.02 52.9438 1027.15 54.9719 1036.11 59.0126C1045.09 63.0688 1052.4 68.828 1058.03 76.3056C1063.67 83.7832 1067.37 92.5458 1069.12 102.578L1036.38 107.068C1034.27 99.6674 1030.65 93.7844 1025.55 89.3721C1020.44 84.9753 1013.85 82.7769 1005.75 82.7769C998.353 82.7769 991.804 84.6192 986.076 88.3193C980.348 92.0194 976.044 97.0355 973.133 103.367C970.223 109.699 968.783 116.666 968.783 124.221C968.783 131.776 970.269 139.006 973.272 145.354C976.26 151.686 980.533 156.702 986.076 160.402C991.618 164.102 998.182 165.944 1005.75 165.944C1013.85 165.944 1020.49 163.792 1025.69 159.473C1030.88 155.154 1034.46 149.394 1036.39 142.18L1069.66 146.933C1067.73 156.438 1064.07 164.799 1058.7 172.013C1053.33 179.227 1046.16 185.002 1037.18 189.306C1028.2 193.625 1017.72 195.777 1005.75 195.777V195.808Z" fill="black"/>
<path d="M1087.34 0.398798H1121.4V104.962L1170.53 57.1699H1213.83L1157.32 113.151L1214.88 191.845H1173.95L1133.8 136.389L1121.39 148.264V191.829H1087.33V0.383301L1087.34 0.398798Z" fill="black"/>
<path d="M1237.79 5.95703H1273.44V160.433L1362.94 160.433V191.86L1237.79 191.86V5.95703Z" fill="black"/>
<path d="M1416.99 194.755C1408.18 194.755 1400.48 193.207 1393.89 190.142C1387.29 187.077 1382.14 182.618 1378.44 176.812C1374.74 171.007 1372.89 164.319 1372.89 156.748C1372.89 144.951 1377.17 135.538 1385.7 128.494C1394.23 121.45 1406.52 116.79 1422.53 114.499L1451.31 109.746C1455.53 108.863 1458.48 107.64 1460.15 106.046C1461.82 104.467 1462.66 102.439 1462.66 99.977H1466.62V150.679C1463.62 164.768 1457.69 175.636 1448.8 183.299C1439.91 190.962 1429.29 194.786 1416.99 194.786V194.755ZM1437.58 52.9593C1449.54 52.9593 1460.02 55.0338 1469 59.1674C1477.98 63.301 1484.79 69.0757 1489.47 76.4604C1494.13 83.8606 1496.47 92.391 1496.47 102.067V191.845H1462.67V99.946C1462.67 94.6668 1460.47 90.301 1456.08 86.8795C1451.68 83.4426 1445.6 81.7242 1437.85 81.7242C1430.11 81.7242 1424.22 83.5665 1419.63 87.2666C1415.05 90.9667 1412.15 96.0756 1410.92 102.578L1376.33 98.6146C1378.44 88.9386 1382.18 80.7488 1387.55 74.0608C1392.93 67.3727 1399.88 62.1709 1408.41 58.4862C1416.94 54.7861 1426.68 52.9438 1437.59 52.9438L1437.58 52.9593ZM1428.6 167.57C1435.45 167.57 1441.49 165.82 1446.68 162.291C1451.87 158.776 1455.83 154.07 1458.57 148.171C1461.29 142.273 1462.66 136.158 1462.66 129.826V126.652C1461.25 127.534 1459.48 128.231 1457.38 128.757C1455.27 129.284 1452.89 129.733 1450.24 130.073L1432.81 132.984C1425.95 134.222 1420.22 136.204 1415.64 138.929C1411.06 141.654 1408.78 145.926 1408.78 151.732C1408.78 156.655 1410.58 160.541 1414.2 163.343C1417.81 166.161 1422.61 167.57 1428.6 167.57Z" fill="black"/>
<path d="M1599.71 196.072C1590.2 196.072 1581.62 194.044 1573.96 190.003C1566.3 185.962 1559.56 180.404 1553.76 173.36V191.845H1519.7V0.399414H1553.76V76.1819C1559.56 68.6114 1566.3 62.8523 1573.96 58.889C1581.62 54.9257 1590.29 52.9441 1599.97 52.9441C1612.29 52.9441 1623.25 56.0249 1632.85 62.1865C1642.45 68.3482 1649.93 76.8477 1655.3 87.6693C1660.67 98.491 1663.35 110.861 1663.35 124.763C1663.35 138.666 1660.67 151.005 1655.3 161.733C1649.93 172.478 1642.45 180.884 1632.85 186.953C1623.25 193.022 1612.22 196.056 1599.71 196.056V196.072ZM1590.99 165.96C1598.39 165.96 1604.85 164.288 1610.4 160.944C1615.95 157.6 1620.27 152.801 1623.35 146.546C1626.43 140.291 1627.96 133.03 1627.96 124.763C1627.96 112.27 1624.62 102.238 1617.93 94.667C1611.24 87.0965 1602.26 83.319 1590.99 83.319C1579.72 83.319 1570.69 87.112 1563.93 94.667C1557.15 102.238 1553.76 112.27 1553.76 124.763C1553.76 133.046 1555.29 140.307 1558.37 146.546C1561.45 152.801 1565.8 157.6 1571.44 160.944C1577.07 164.288 1583.59 165.96 1590.97 165.96H1590.99Z" fill="black"/>
<path d="M1733.59 196.072C1716.68 196.072 1703.04 192.248 1692.65 184.584C1682.27 176.921 1675.75 166.239 1673.12 152.506L1705.6 146.438C1707.01 154.008 1710.21 159.814 1715.24 163.87C1720.26 167.926 1726.56 169.939 1734.13 169.939C1741.17 169.939 1746.76 168.452 1750.9 165.449C1755.03 162.461 1757.1 158.761 1757.1 154.364C1757.1 150.323 1755.48 147.413 1752.21 145.648C1748.95 143.883 1743.02 141.948 1734.39 139.842C1732.81 139.486 1731.31 139.177 1729.9 138.913C1728.5 138.65 1726.99 138.341 1725.41 137.985C1714.33 135.337 1705.43 132.489 1698.74 129.408C1692.05 126.327 1686.85 122.147 1683.16 116.868C1679.48 111.588 1677.62 104.715 1677.62 96.2771C1677.62 87.8396 1679.87 80.0833 1684.36 73.5655C1688.85 67.0477 1695.27 61.9853 1703.63 58.378C1711.99 54.7708 1721.64 52.9595 1732.55 52.9595C1747.86 52.9595 1760.19 56.3964 1769.52 63.2547C1778.86 70.1131 1785 79.8046 1788.01 92.2983L1756.84 98.8935C1755.08 92.7318 1752.23 87.886 1748.27 84.3717C1744.3 80.8574 1739.07 79.0925 1732.55 79.0925C1726.75 79.0925 1721.81 80.4084 1717.77 83.0558C1713.71 85.7031 1711.7 89.1245 1711.7 93.351C1711.7 97.5775 1713.59 100.256 1717.38 101.928C1721.16 103.6 1728.08 105.489 1738.11 107.61C1738.64 107.78 1739.12 107.919 1739.56 108.012C1740 108.105 1740.49 108.229 1741.02 108.415C1753.17 111.062 1762.8 113.88 1769.94 116.868C1777.08 119.856 1782.53 124.036 1786.32 129.408C1790.1 134.78 1792 141.87 1792 150.664C1792 159.458 1789.63 167.833 1784.88 174.692C1780.13 181.55 1773.39 186.845 1764.68 190.529C1755.96 194.229 1745.62 196.072 1733.65 196.072H1733.59Z" fill="black"/>
</svg>
