<svg width="139" height="60" viewBox="0 0 139 60" fill="none" xmlns="http://www.w3.org/2000/svg">
<g clip-path="url(#clip0)">
<path d="M14.8771 2.50986H14.8807C18.4713 5.75813 20.4064 8.94963 20.5274 11.946C20.5417 14.7348 19.0125 17.4367 15.9434 20.0551V12.5793C15.9434 11.9992 15.4664 11.5291 14.8789 11.5291L14.8771 2.50986Z" fill="#1AB343"/>
<path d="M14.8783 11.5291C14.2909 11.5291 13.8138 12.001 13.8138 12.5793V20.0551C10.7465 17.4367 9.21737 14.7348 9.23161 11.946C9.35266 8.94963 11.2859 5.75813 14.8783 2.50986V11.5291Z" fill="#0B6D3E"/>
<path d="M34.6797 29.2932C34.5373 29.0643 34.2988 28.9011 34.0531 28.8496C33.7167 28.7805 33.4995 28.8159 33.2431 28.9721L32.3335 29.5327C33.4514 26.3518 36.5578 27.1537 37.8413 27.4535L34.6797 29.2932Z" fill="#0B6D3E"/>
<path d="M37.8399 27.4515C37.4856 28.704 36.6952 31.7731 33.3324 31.2036L34.2688 30.6874C34.5323 30.5402 34.664 30.3698 34.769 30.047C34.8616 29.7649 34.81 29.5023 34.6783 29.293L37.8399 27.4515Z" fill="#1AB343"/>
<path d="M33.3286 31.2036L34.2649 30.6874C34.5284 30.5401 34.6601 30.3698 34.7652 30.047C34.9592 29.458 34.5177 28.9453 34.0478 28.8495C33.7113 28.7803 33.4941 28.8158 33.2378 28.9719L32.3281 29.5325C33.4461 26.3516 36.5525 27.1535 37.836 27.4533C37.4817 28.7058 36.6913 31.7731 33.3286 31.2036ZM26.2595 35.7062C25.3925 35.7062 24.6876 35.0107 24.6876 34.1574C24.6876 33.3023 25.3925 32.6069 26.2595 32.6069C27.1246 32.6069 27.8296 33.3041 27.8296 34.1574C27.8296 35.0125 27.1246 35.7062 26.2595 35.7062ZM27.8225 47.1239C27.8225 47.979 27.1175 48.6744 26.2523 48.6744C25.3854 48.6744 24.6804 47.979 24.6804 47.1239C24.6804 46.2688 25.3854 45.5734 26.2523 45.5734C27.1175 45.5734 27.8225 46.2688 27.8225 47.1239ZM18.286 41.3033C18.3394 41.0655 18.3679 40.819 18.3679 40.5653C18.3679 40.3169 18.3412 40.0756 18.2896 39.8415L23.8598 36.6677C24.2318 37.0136 24.6804 37.2797 25.1789 37.4376V43.8437C24.7214 43.9892 24.3048 44.2251 23.9506 44.532L18.286 41.3033ZM22.8237 47.7856L17.2055 50.986C16.8441 50.6667 16.4151 50.4201 15.9415 50.2693V43.8472C16.4204 43.6965 16.8548 43.4463 17.2179 43.1217L22.8522 46.3309C22.7917 46.5864 22.7578 46.8507 22.7578 47.1239C22.7578 47.351 22.781 47.571 22.8237 47.7856ZM14.8734 55.1035C14.0082 55.1035 13.3033 54.4081 13.3033 53.553C13.3033 52.6979 14.0082 52.0025 14.8734 52.0025C15.7404 52.0025 16.4453 52.6979 16.4453 53.553C16.4435 54.4063 15.7404 55.1035 14.8734 55.1035ZM6.92313 47.7838C6.96585 47.571 6.98721 47.3492 6.98721 47.1257C6.98721 46.8543 6.95339 46.5899 6.89464 46.3362L12.5307 43.1252C12.8956 43.4516 13.33 43.7018 13.8106 43.8508V50.2693C13.3353 50.4183 12.9045 50.6649 12.5432 50.986L6.92313 47.7838ZM5.79805 44.5338C5.44558 44.2287 5.03079 43.9909 4.57329 43.8455V37.4376C5.06996 37.2797 5.51678 37.0136 5.88706 36.6695L11.4572 39.8432C11.4074 40.0756 11.3789 40.3187 11.3789 40.5688C11.3789 40.8225 11.4074 41.0709 11.4608 41.3104L5.79805 44.5338ZM3.4945 48.6744C2.62755 48.6744 1.9226 47.979 1.9226 47.1239C1.9226 46.2688 2.62755 45.5734 3.4945 45.5734C4.35966 45.5734 5.06462 46.2688 5.06462 47.1239C5.06462 47.979 4.35966 48.6744 3.4945 48.6744ZM1.9226 34.1574C1.9226 33.3023 2.62755 32.6069 3.4945 32.6069C4.35966 32.6069 5.06462 33.3041 5.06462 34.1574C5.06462 35.0125 4.35966 35.7062 3.4945 35.7062C2.62755 35.7062 1.9226 35.0125 1.9226 34.1574ZM12.5574 30.157C12.917 30.4727 13.3425 30.714 13.8106 30.8613V37.278C13.3247 37.4305 12.885 37.686 12.5165 38.0177L6.91957 34.8298C6.96407 34.6134 6.98721 34.3863 6.98721 34.1574C6.98721 33.8895 6.95517 33.6305 6.8982 33.3804L12.5574 30.157ZM14.8734 26.027C15.7404 26.027 16.4453 26.7224 16.4453 27.5775C16.4453 28.4326 15.7404 29.128 14.8734 29.128C14.0082 29.128 13.3033 28.4326 13.3033 27.5775C13.3015 26.7224 14.0065 26.027 14.8734 26.027ZM9.22846 11.9464C9.34951 8.95005 11.2828 5.75854 14.8752 2.51027H14.8788C18.4694 5.75854 20.4044 8.95005 20.5255 11.9464C20.5397 14.7352 19.0106 17.4371 15.9415 20.0556V12.5797C15.9415 11.9996 15.4644 11.5295 14.877 11.5295C14.2895 11.5295 13.8124 12.0014 13.8124 12.5797V20.0556C10.7434 17.4371 9.21422 14.7352 9.22846 11.9464ZM16.4435 40.5653C16.4435 41.4186 15.7386 42.1158 14.8716 42.1158C14.0065 42.1158 13.3015 41.4204 13.3015 40.5653C13.3015 39.7084 14.0065 39.0148 14.8716 39.0148C15.7404 39.0148 16.4435 39.7084 16.4435 40.5653ZM22.8486 33.3786C22.7899 33.6288 22.7578 33.8895 22.7578 34.1574C22.7578 34.3881 22.781 34.6134 22.8255 34.8316L17.2304 38.0195C16.8637 37.6895 16.4257 37.4359 15.9415 37.2833V30.863C16.4097 30.7158 16.8334 30.4727 17.1912 30.1587L22.8486 33.3786ZM39.3634 25.697C39.3634 25.697 35.431 24.2334 32.8016 25.6473C31.2707 26.4705 30.1776 28.1612 29.8536 30.8311L28.5612 31.5655C27.9471 31.0333 27.1424 30.7105 26.2612 30.7105C25.3729 30.7105 24.5647 31.0369 23.9488 31.5744H23.9417L18.2807 28.3492C18.3377 28.1026 18.3697 27.8436 18.3697 27.5775C18.3697 26.0412 17.3496 24.739 15.9433 24.2937V22.8106L16.4578 22.4328H16.456C20.7623 19.0763 22.8468 15.5655 22.7027 11.8985C22.6528 8.1535 20.2852 4.27722 15.6015 0.273203C15.4039 0.111765 15.1992 0.0212885 14.9784 0H14.7737C14.553 0.0212885 14.3465 0.111765 14.156 0.273203C9.47056 4.27899 7.10292 8.1535 7.05308 11.8985C6.90888 15.5655 8.99348 19.0763 13.2997 22.4328L13.8106 22.8106V24.2937C12.4007 24.7373 11.3789 26.0412 11.3789 27.5793C11.3789 27.8454 11.411 28.1044 11.4679 28.3528L5.80873 31.578C5.19279 31.0387 4.38281 30.7105 3.4945 30.7105C1.56478 30.7087 0 32.2539 0 34.1574C0 35.6991 1.02716 37.0048 2.44419 37.4447V43.8348C1.02716 44.2766 0 45.5823 0 47.1239C0 49.0275 1.56478 50.5709 3.4945 50.5709C4.42553 50.5709 5.27112 50.2107 5.89774 49.6253L11.4644 52.7955C11.4092 53.0403 11.3789 53.2923 11.3789 53.553C11.3789 55.4566 12.9437 57 14.8734 57C16.8031 57 18.3679 55.4566 18.3679 53.553C18.3679 53.294 18.3377 53.0403 18.2825 52.7973L23.8509 49.6253C24.4775 50.2107 25.3213 50.5709 26.2523 50.5709C28.1821 50.5709 29.7468 49.0275 29.7468 47.1239C29.7468 45.584 28.7232 44.2783 27.308 43.8366V37.4447C28.725 37.0065 29.7522 35.6991 29.7522 34.1574C29.7522 33.8842 29.7184 33.6199 29.6578 33.3644L30.863 32.6708C33.4425 33.7334 35.5111 33.6128 37.0029 32.6743C39.5289 31.0866 40.1289 26.9814 40.1289 26.9814C40.2588 26.4723 39.8191 25.8159 39.3634 25.697Z" fill="black"/>
<path d="M82.1413 18.3059C83.9678 17.9618 85.7088 17.6336 87.5211 17.293C87.5211 22.8173 87.5211 28.2903 87.5211 34.0382C87.9269 33.6638 88.1762 33.4492 88.4058 33.2168C91.0209 30.577 93.6164 27.9177 96.2689 25.3152C96.6356 24.9551 97.2711 24.712 97.7927 24.689C99.5569 24.6127 101.325 24.6606 103.345 24.6606C100.135 27.978 97.1056 31.1092 94.0098 34.3078C97.2961 38.5407 100.581 42.7735 104 47.1785C101.743 47.1785 99.7153 47.2033 97.6877 47.1501C97.4171 47.143 97.1002 46.7846 96.8991 46.5185C94.7931 43.7067 92.7067 40.8806 90.5403 37.9588C89.5754 38.97 88.6301 39.9191 87.7454 40.9214C87.5638 41.1272 87.5656 41.5335 87.562 41.8475C87.546 43.5825 87.5549 45.3157 87.5549 47.1164C85.7177 47.1164 83.9589 47.1164 82.1396 47.1164C82.1413 37.5188 82.1413 27.9496 82.1413 18.3059Z" fill="black"/>
<path d="M62.3244 41.9092C65.0534 43.0659 67.7059 43.9015 70.5791 43.6868C72.2524 43.5608 73.3384 42.7572 73.5004 41.5402C73.6463 40.4456 73.285 39.5551 72.2916 39.0672C71.0259 38.4463 69.7032 37.9407 68.4108 37.3748C67.2982 36.8869 66.1589 36.4452 65.0943 35.8686C62.6662 34.5576 61.6052 32.4819 61.8847 29.7464C62.1748 26.8902 63.8945 25.2439 66.5612 24.5679C70.4901 23.5727 74.3103 24.0198 78.095 25.6732C77.6339 26.9469 77.2067 28.1338 76.8097 29.2319C75.1915 28.8079 73.6908 28.2828 72.1456 28.0557C71.001 27.8872 69.7851 28.0131 68.628 28.187C67.7789 28.3147 67.1487 28.9019 67.0472 29.8528C66.9439 30.8285 67.4015 31.5382 68.2542 31.9107C69.8189 32.5937 71.4407 33.1508 73.0019 33.8426C74.1377 34.3465 75.3072 34.8574 76.3024 35.583C79.9802 38.2671 79.5886 44.0061 75.6312 46.2875C73.4505 47.5453 71.0419 47.7724 68.6405 47.5294C66.6324 47.3271 64.66 46.7488 62.6786 46.3053C61.9594 46.1438 61.6978 45.711 61.8829 44.9251C62.1036 43.9777 62.1731 42.9932 62.3244 41.9092Z" fill="black"/>
<path d="M46.2044 47.1323C46.2044 39.8002 46.2044 32.5532 46.2044 25.2069C47.6766 25.0295 49.131 24.8556 50.7083 24.6658C50.9486 25.7551 51.1765 26.7876 51.456 28.0542C53.4088 25.1217 56.0916 24.2383 59.3493 24.6055C59.3493 26.0904 59.3493 27.5433 59.3493 29.0512C58.5162 29.0512 57.7649 29.014 57.0173 29.0583C53.5886 29.2623 51.7177 31.173 51.6749 34.6129C51.6269 38.42 51.6607 42.2288 51.6589 46.0359C51.6589 46.3872 51.6589 46.7367 51.6589 47.1323C49.7844 47.1323 48.0505 47.1323 46.2044 47.1323Z" fill="black"/>
</g>
<path d="M50.5234 55.9C50.6834 55.9 50.8168 55.9533 50.9234 56.06C51.0301 56.1667 51.0834 56.3 51.0834 56.46C51.0834 56.6133 51.0301 56.7433 50.9234 56.85C50.8168 56.95 50.6834 57 50.5234 57H47.1234C46.9501 57 46.8134 56.9467 46.7134 56.84C46.6134 56.7333 46.5634 56.5967 46.5634 56.43C46.5634 56.2633 46.6234 56.1167 46.7434 55.99L48.9234 53.66C49.1701 53.3933 49.3634 53.1267 49.5034 52.86C49.6501 52.5867 49.7234 52.3367 49.7234 52.11C49.7234 51.81 49.6168 51.55 49.4034 51.33C49.1901 51.11 48.9434 51 48.6634 51C48.4701 51 48.2734 51.0667 48.0734 51.2C47.8801 51.3267 47.7034 51.4967 47.5434 51.71C47.4234 51.87 47.2701 51.95 47.0834 51.95C46.9368 51.95 46.8001 51.8933 46.6734 51.78C46.5534 51.6667 46.4934 51.54 46.4934 51.4C46.4934 51.3 46.5268 51.2 46.5934 51.1C46.6601 50.9933 46.7601 50.8733 46.8934 50.74C47.1468 50.4867 47.4401 50.2833 47.7734 50.13C48.1068 49.9767 48.4268 49.9 48.7334 49.9C49.1734 49.9 49.5601 49.9933 49.8934 50.18C50.2268 50.3667 50.4834 50.6233 50.6634 50.95C50.8434 51.2767 50.9334 51.6467 50.9334 52.06C50.9334 52.4667 50.8234 52.8867 50.6034 53.32C50.3901 53.7467 50.1001 54.1567 49.7334 54.55L48.4634 55.9H50.5234ZM62.8075 49.97C62.9675 49.97 63.1142 50.0333 63.2475 50.16C63.3875 50.28 63.4575 50.4333 63.4575 50.62C63.4575 50.68 63.4475 50.7467 63.4275 50.82L61.4575 56.62C61.4175 56.7333 61.3475 56.8233 61.2475 56.89C61.1475 56.9567 61.0375 56.9933 60.9175 57C60.7975 57 60.6842 56.9667 60.5775 56.9C60.4708 56.8333 60.3875 56.7367 60.3275 56.61L58.9075 53.38L57.4775 56.61C57.4175 56.7367 57.3342 56.8333 57.2275 56.9C57.1208 56.9667 57.0075 57 56.8875 57C56.7675 56.9933 56.6575 56.9567 56.5575 56.89C56.4575 56.8233 56.3875 56.7333 56.3475 56.62L54.3775 50.82C54.3575 50.7467 54.3475 50.68 54.3475 50.62C54.3475 50.4333 54.4142 50.28 54.5475 50.16C54.6875 50.0333 54.8408 49.97 55.0075 49.97C55.1408 49.97 55.2608 50.0067 55.3675 50.08C55.4742 50.1467 55.5475 50.24 55.5875 50.36L57.0775 54.88L58.3775 51.76C58.4308 51.64 58.5075 51.5467 58.6075 51.48C58.7075 51.4067 58.8208 51.3733 58.9475 51.38C59.0742 51.3733 59.1842 51.4067 59.2775 51.48C59.3775 51.5467 59.4542 51.64 59.5075 51.76L60.7375 54.85L62.2175 50.36C62.2575 50.24 62.3308 50.1467 62.4375 50.08C62.5508 50.0067 62.6742 49.97 62.8075 49.97ZM68.5132 51.55C68.6865 51.55 68.8299 51.6067 68.9432 51.72C69.0565 51.8333 69.1132 51.98 69.1132 52.16V56.39C69.1132 56.5633 69.0565 56.71 68.9432 56.83C68.8299 56.9433 68.6865 57 68.5132 57C68.3399 57 68.1965 56.9433 68.0832 56.83C67.9765 56.7167 67.9199 56.5733 67.9132 56.4C67.7465 56.5933 67.5199 56.76 67.2332 56.9C66.9532 57.0333 66.6565 57.1 66.3432 57.1C65.8832 57.1 65.4665 56.9833 65.0932 56.75C64.7199 56.51 64.4232 56.18 64.2032 55.76C63.9899 55.34 63.8832 54.8633 63.8832 54.33C63.8832 53.7967 63.9899 53.32 64.2032 52.9C64.4165 52.4733 64.7065 52.1433 65.0732 51.91C65.4465 51.67 65.8565 51.55 66.3032 51.55C66.6232 51.55 66.9232 51.61 67.2032 51.73C67.4832 51.8433 67.7199 51.99 67.9132 52.17V52.16C67.9132 51.9867 67.9699 51.8433 68.0832 51.73C68.1965 51.61 68.3399 51.55 68.5132 51.55ZM66.4932 56C66.9265 56 67.2799 55.8433 67.5532 55.53C67.8265 55.21 67.9632 54.81 67.9632 54.33C67.9632 53.85 67.8265 53.45 67.5532 53.13C67.2799 52.81 66.9265 52.65 66.4932 52.65C66.0665 52.65 65.7165 52.81 65.4432 53.13C65.1699 53.45 65.0332 53.85 65.0332 54.33C65.0332 54.81 65.1665 55.21 65.4332 55.53C65.7065 55.8433 66.0599 56 66.4932 56ZM74.2665 51.65C74.4398 51.65 74.5832 51.71 74.6965 51.83C74.8098 51.9433 74.8665 52.0867 74.8665 52.26V56.51C74.8665 57.3767 74.6332 58.0067 74.1665 58.4C73.6998 58.8 73.0765 59 72.2965 59C72.0698 59 71.8365 58.98 71.5965 58.94C71.3632 58.9067 71.1732 58.86 71.0265 58.8C70.6998 58.66 70.5365 58.4667 70.5365 58.22C70.5365 58.1733 70.5465 58.12 70.5665 58.06C70.6065 57.9133 70.6732 57.8 70.7665 57.72C70.8665 57.6467 70.9732 57.61 71.0865 57.61C71.1532 57.61 71.2165 57.62 71.2765 57.64C71.3232 57.66 71.4032 57.6933 71.5165 57.74C71.6365 57.7867 71.7598 57.8233 71.8865 57.85C72.0198 57.8833 72.1565 57.9 72.2965 57.9C72.7698 57.9 73.1165 57.7967 73.3365 57.59C73.5632 57.39 73.6765 57.0433 73.6765 56.55V56.45C73.3298 56.8833 72.7898 57.1 72.0565 57.1C71.7098 57.1 71.4032 57.02 71.1365 56.86C70.8698 56.6933 70.6632 56.4667 70.5165 56.18C70.3698 55.8867 70.2965 55.5533 70.2965 55.18V52.26C70.2965 52.0867 70.3532 51.9433 70.4665 51.83C70.5798 51.71 70.7232 51.65 70.8965 51.65C71.0698 51.65 71.2132 51.71 71.3265 51.83C71.4398 51.9433 71.4965 52.0867 71.4965 52.26V54.82C71.4965 55.24 71.5865 55.5433 71.7665 55.73C71.9532 55.91 72.2232 56 72.5765 56C72.9232 56 73.1898 55.9 73.3765 55.7C73.5698 55.4933 73.6665 55.2 73.6665 54.82V52.26C73.6665 52.0867 73.7232 51.9433 73.8365 51.83C73.9498 51.71 74.0932 51.65 74.2665 51.65ZM81.9584 50C82.2984 50 82.6217 50.1033 82.9284 50.31C83.235 50.51 83.4817 50.7833 83.6684 51.13C83.855 51.47 83.9484 51.8433 83.9484 52.25C83.9484 52.65 83.855 53.0233 83.6684 53.37C83.4817 53.7167 83.235 53.9933 82.9284 54.2C82.6217 54.4 82.2984 54.5 81.9584 54.5H80.2184V56.39C80.2184 56.57 80.165 56.7167 80.0584 56.83C79.9517 56.9433 79.8117 57 79.6384 57C79.4717 57 79.335 56.9433 79.2284 56.83C79.1217 56.71 79.0684 56.5633 79.0684 56.39V50.61C79.0684 50.4367 79.125 50.2933 79.2384 50.18C79.3584 50.06 79.505 50 79.6784 50H81.9584ZM81.9584 53.36C82.085 53.36 82.2084 53.3067 82.3284 53.2C82.455 53.0933 82.555 52.9567 82.6284 52.79C82.7084 52.6167 82.7484 52.4367 82.7484 52.25C82.7484 52.0633 82.7084 51.8867 82.6284 51.72C82.555 51.5467 82.455 51.41 82.3284 51.31C82.2084 51.2033 82.085 51.15 81.9584 51.15H80.2184V53.36H81.9584ZM89.6961 54.2C89.6894 54.36 89.6261 54.49 89.5061 54.59C89.3861 54.69 89.2461 54.74 89.0861 54.74H85.7861C85.8661 55.1333 86.0494 55.4433 86.3361 55.67C86.6228 55.89 86.9461 56 87.3061 56C87.5794 56 87.7928 55.9767 87.9461 55.93C88.0994 55.8767 88.2194 55.8233 88.3061 55.77C88.3994 55.71 88.4628 55.67 88.4961 55.65C88.6161 55.59 88.7294 55.56 88.8361 55.56C88.9761 55.56 89.0961 55.61 89.1961 55.71C89.2961 55.81 89.3461 55.9267 89.3461 56.06C89.3461 56.24 89.2528 56.4033 89.0661 56.55C88.8794 56.7033 88.6294 56.8333 88.3161 56.94C88.0028 57.0467 87.6861 57.1 87.3661 57.1C86.8061 57.1 86.3161 56.9833 85.8961 56.75C85.4828 56.5167 85.1628 56.1967 84.9361 55.79C84.7094 55.3767 84.5961 54.9133 84.5961 54.4C84.5961 53.8267 84.7161 53.3233 84.9561 52.89C85.1961 52.4567 85.5128 52.1267 85.9061 51.9C86.2994 51.6667 86.7194 51.55 87.1661 51.55C87.6061 51.55 88.0194 51.67 88.4061 51.91C88.7994 52.15 89.1128 52.4733 89.3461 52.88C89.5794 53.2867 89.6961 53.7267 89.6961 54.2ZM87.1661 52.65C86.3928 52.65 85.9361 53.0133 85.7961 53.74H88.4161V53.67C88.3894 53.39 88.2528 53.15 88.0061 52.95C87.7594 52.75 87.4794 52.65 87.1661 52.65ZM95.078 51.55C95.2514 51.55 95.3947 51.6067 95.508 51.72C95.6214 51.8333 95.678 51.98 95.678 52.16V56.61C95.678 57.4233 95.4247 58.0233 94.918 58.41C94.418 58.8033 93.7814 59 93.008 59C92.808 59 92.5314 58.9667 92.178 58.9C91.8314 58.8333 91.5847 58.7667 91.438 58.7C91.1114 58.56 90.948 58.3667 90.948 58.12C90.948 58.0733 90.958 58.02 90.978 57.96C91.018 57.8133 91.0847 57.7 91.178 57.62C91.278 57.5467 91.3847 57.51 91.498 57.51C91.5647 57.51 91.628 57.52 91.688 57.54C91.7147 57.5467 91.878 57.6067 92.178 57.72C92.4847 57.84 92.7614 57.9 93.008 57.9C93.5014 57.9 93.868 57.8 94.108 57.6C94.3547 57.4067 94.478 57.13 94.478 56.77V56.29C94.3314 56.4967 94.108 56.6833 93.808 56.85C93.5147 57.0167 93.198 57.1 92.858 57.1C92.3914 57.1 91.9647 56.9833 91.578 56.75C91.198 56.51 90.898 56.18 90.678 55.76C90.458 55.34 90.348 54.8633 90.348 54.33C90.348 53.7967 90.4547 53.32 90.668 52.9C90.888 52.4733 91.1847 52.1433 91.558 51.91C91.938 51.67 92.358 51.55 92.818 51.55C93.158 51.55 93.4747 51.62 93.768 51.76C94.0614 51.9 94.298 52.07 94.478 52.27V52.16C94.478 51.9867 94.5347 51.8433 94.648 51.73C94.7614 51.61 94.9047 51.55 95.078 51.55ZM93.008 56C93.4547 56 93.818 55.8433 94.098 55.53C94.3847 55.21 94.528 54.81 94.528 54.33C94.528 53.85 94.3847 53.45 94.098 53.13C93.818 52.81 93.4547 52.65 93.008 52.65C92.5614 52.65 92.198 52.81 91.918 53.13C91.638 53.45 91.498 53.85 91.498 54.33C91.498 54.81 91.638 55.21 91.918 55.53C92.198 55.8433 92.5614 56 93.008 56ZM105.369 56.22C105.402 56.3067 105.419 56.3867 105.419 56.46C105.419 56.6333 105.362 56.7767 105.249 56.89C105.136 56.9967 105.006 57.05 104.859 57.05C104.739 57.05 104.629 57.0133 104.529 56.94C104.436 56.8667 104.362 56.7667 104.309 56.64L103.789 55.43H100.809L100.289 56.65C100.242 56.7767 100.169 56.8767 100.069 56.95C99.9756 57.0167 99.8722 57.05 99.7589 57.05C99.5856 57.05 99.4522 57.0033 99.3589 56.91C99.2722 56.8167 99.2289 56.69 99.2289 56.53C99.2289 56.47 99.2389 56.4067 99.2589 56.34L101.749 50.36C101.802 50.2267 101.882 50.1233 101.989 50.05C102.096 49.9767 102.216 49.9467 102.349 49.96C102.469 49.96 102.579 49.9967 102.679 50.07C102.786 50.1367 102.862 50.2333 102.909 50.36L105.369 56.22ZM103.299 54.28L102.289 51.94L101.299 54.28H103.299ZM108.936 51.55C109.396 51.55 109.812 51.67 110.186 51.91C110.559 52.1433 110.852 52.47 111.066 52.89C111.286 53.31 111.396 53.7867 111.396 54.32C111.396 54.8533 111.289 55.3333 111.076 55.76C110.862 56.18 110.569 56.51 110.196 56.75C109.829 56.9833 109.422 57.1 108.976 57.1C108.656 57.1 108.352 57.0367 108.066 56.91C107.786 56.7767 107.552 56.6167 107.366 56.43V58.39C107.366 58.5633 107.309 58.7067 107.196 58.82C107.082 58.94 106.939 59 106.766 59C106.592 59 106.449 58.9433 106.336 58.83C106.222 58.7167 106.166 58.57 106.166 58.39V52.26C106.166 52.0867 106.222 51.9433 106.336 51.83C106.449 51.71 106.592 51.65 106.766 51.65C106.939 51.65 107.082 51.71 107.196 51.83C107.309 51.9433 107.366 52.0867 107.366 52.26V52.3C107.526 52.1 107.749 51.9267 108.036 51.78C108.322 51.6267 108.622 51.55 108.936 51.55ZM108.786 56C109.212 56 109.562 55.84 109.836 55.52C110.109 55.2 110.246 54.8 110.246 54.32C110.246 53.84 110.109 53.4433 109.836 53.13C109.569 52.81 109.219 52.65 108.786 52.65C108.352 52.65 107.999 52.81 107.726 53.13C107.452 53.4433 107.316 53.84 107.316 54.32C107.316 54.8 107.452 55.2 107.726 55.52C107.999 55.84 108.352 56 108.786 56ZM115.166 51.55C115.626 51.55 116.043 51.67 116.416 51.91C116.789 52.1433 117.083 52.47 117.296 52.89C117.516 53.31 117.626 53.7867 117.626 54.32C117.626 54.8533 117.519 55.3333 117.306 55.76C117.093 56.18 116.799 56.51 116.426 56.75C116.059 56.9833 115.653 57.1 115.206 57.1C114.886 57.1 114.583 57.0367 114.296 56.91C114.016 56.7767 113.783 56.6167 113.596 56.43V58.39C113.596 58.5633 113.539 58.7067 113.426 58.82C113.313 58.94 113.169 59 112.996 59C112.823 59 112.679 58.9433 112.566 58.83C112.453 58.7167 112.396 58.57 112.396 58.39V52.26C112.396 52.0867 112.453 51.9433 112.566 51.83C112.679 51.71 112.823 51.65 112.996 51.65C113.169 51.65 113.313 51.71 113.426 51.83C113.539 51.9433 113.596 52.0867 113.596 52.26V52.3C113.756 52.1 113.979 51.9267 114.266 51.78C114.553 51.6267 114.853 51.55 115.166 51.55ZM115.016 56C115.443 56 115.793 55.84 116.066 55.52C116.339 55.2 116.476 54.8 116.476 54.32C116.476 53.84 116.339 53.4433 116.066 53.13C115.799 52.81 115.449 52.65 115.016 52.65C114.583 52.65 114.229 52.81 113.956 53.13C113.683 53.4433 113.546 53.84 113.546 54.32C113.546 54.8 113.683 55.2 113.956 55.52C114.229 55.84 114.583 56 115.016 56Z" fill="#00B520"/>
<path d="M124.054 54.09C124.319 54.195 124.534 54.355 124.699 54.57C124.869 54.785 124.954 55.0625 124.954 55.4025C124.954 55.9975 124.784 56.4125 124.444 56.6475C124.104 56.8825 123.699 57 123.229 57H121.361C121.231 57 121.121 56.9575 121.031 56.8725C120.946 56.7825 120.904 56.6725 120.904 56.5425V52.2075C120.904 52.0775 120.946 51.97 121.031 51.885C121.121 51.795 121.231 51.75 121.361 51.75H123.251C124.201 51.75 124.676 52.195 124.676 53.085C124.676 53.31 124.621 53.51 124.511 53.685C124.406 53.855 124.254 53.99 124.054 54.09ZM123.701 53.25C123.701 53.045 123.649 52.8925 123.544 52.7925C123.444 52.6875 123.301 52.635 123.116 52.635H121.879V53.805H123.139C123.289 53.805 123.419 53.755 123.529 53.655C123.644 53.555 123.701 53.42 123.701 53.25ZM123.229 56.1375C123.464 56.1375 123.646 56.075 123.776 55.95C123.911 55.825 123.979 55.6425 123.979 55.4025C123.979 55.1075 123.901 54.915 123.746 54.825C123.591 54.735 123.401 54.69 123.176 54.69H121.879V56.1375H123.229ZM128.788 56.1375C128.918 56.1375 129.026 56.1825 129.111 56.2725C129.201 56.3575 129.246 56.4575 129.246 56.5725C129.246 56.6975 129.201 56.8 129.111 56.88C129.026 56.96 128.918 57 128.788 57H126.276C126.146 57 126.036 56.9575 125.946 56.8725C125.861 56.7825 125.818 56.6725 125.818 56.5425V52.2075C125.818 52.0775 125.861 51.97 125.946 51.885C126.036 51.795 126.146 51.75 126.276 51.75H128.788C128.918 51.75 129.026 51.7925 129.111 51.8775C129.201 51.9575 129.246 52.0625 129.246 52.1925C129.246 52.3175 129.203 52.42 129.118 52.5C129.033 52.575 128.923 52.6125 128.788 52.6125H126.756V53.8875H128.451C128.581 53.8875 128.688 53.93 128.773 54.015C128.863 54.095 128.908 54.2 128.908 54.33C128.908 54.455 128.866 54.5575 128.781 54.6375C128.696 54.7125 128.586 54.75 128.451 54.75H126.756V56.1375H128.788ZM133.56 51.75C133.695 51.75 133.805 51.79 133.89 51.87C133.975 51.95 134.018 52.055 134.018 52.185C134.018 52.315 133.975 52.42 133.89 52.5C133.805 52.575 133.695 52.6125 133.56 52.6125H132.383V56.5425C132.383 56.6725 132.335 56.7825 132.24 56.8725C132.145 56.9575 132.028 57 131.888 57C131.748 57 131.633 56.9575 131.543 56.8725C131.453 56.7825 131.408 56.6725 131.408 56.5425V52.6125H130.23C130.095 52.6125 129.985 52.5725 129.9 52.4925C129.815 52.4125 129.773 52.3075 129.773 52.1775C129.773 52.0525 129.815 51.95 129.9 51.87C129.99 51.79 130.1 51.75 130.23 51.75H133.56ZM138.549 56.415C138.574 56.48 138.586 56.54 138.586 56.595C138.586 56.725 138.544 56.8325 138.459 56.9175C138.374 56.9975 138.276 57.0375 138.166 57.0375C138.076 57.0375 137.994 57.01 137.919 56.955C137.849 56.9 137.794 56.825 137.754 56.73L137.364 55.8225H135.129L134.739 56.7375C134.704 56.8325 134.649 56.9075 134.574 56.9625C134.504 57.0125 134.426 57.0375 134.341 57.0375C134.211 57.0375 134.111 57.0025 134.041 56.9325C133.976 56.8625 133.944 56.7675 133.944 56.6475C133.944 56.6025 133.951 56.555 133.966 56.505L135.834 52.02C135.874 51.92 135.934 51.8425 136.014 51.7875C136.094 51.7325 136.184 51.71 136.284 51.72C136.374 51.72 136.456 51.7475 136.531 51.8025C136.611 51.8525 136.669 51.925 136.704 52.02L138.549 56.415ZM136.996 54.96L136.239 53.205L135.496 54.96H136.996Z" fill="black"/>
<defs>
<clipPath id="clip0">
<rect width="104" height="57" fill="white"/>
</clipPath>
</defs>
</svg>
