<svg width="1792" height="197" viewBox="0 0 1792 197" fill="none" xmlns="http://www.w3.org/2000/svg">
<path d="M0.28125 5.95739H90.5856C109.241 5.95739 123.856 10.7102 134.414 20.216C144.972 29.7217 150.252 42.6643 150.252 59.0284C150.252 66.7692 148.967 73.643 146.428 79.6189C143.873 85.6103 140.173 90.6728 135.343 94.8064C130.497 98.94 124.645 102.238 117.787 104.715C123.236 107.176 127.695 110.923 131.116 115.939C134.553 120.955 137.588 128.045 140.22 137.195L156.057 191.861H117.771L104.565 146.438C102.63 139.394 100.556 134.021 98.3573 130.321C96.1589 126.621 93.1245 123.896 89.2541 122.131C85.3837 120.367 80.1819 119.484 73.6796 119.484H35.9199V191.845H0.28125V5.94189V5.95739ZM85.5695 90.4561C94.7191 90.4561 101.856 88.2112 106.965 83.7216C112.074 79.2319 114.629 72.3271 114.629 62.9917C114.629 53.6563 112.074 47.1075 106.965 42.7881C101.856 38.4688 94.7346 36.3168 85.5695 36.3168H35.9354V90.4561H85.585H85.5695Z" fill="#FAFAF5"/>
<path d="M235.556 196.072C221.468 196.072 208.881 193.037 197.796 186.968C186.712 180.9 178.119 172.493 172.05 161.749C165.982 151.02 162.947 138.681 162.947 124.779C162.947 110.876 166.028 98.5064 172.19 87.6847C178.351 76.8631 186.928 68.3637 197.936 62.202C208.928 56.0403 221.576 52.9595 235.835 52.9595C250.093 52.9595 262.154 56.0403 273.068 62.202C283.983 68.3637 292.482 76.8631 298.551 87.6847C304.62 98.5064 307.654 110.783 307.654 124.516C307.654 138.248 304.62 150.788 298.551 161.61C292.482 172.431 283.936 180.884 272.944 186.968C261.937 193.037 249.49 196.072 235.587 196.072H235.556ZM235.556 166.765C242.771 166.765 249.149 165.046 254.707 161.61C260.249 158.173 264.569 153.296 267.649 146.948C270.73 140.616 272.263 133.123 272.263 124.5C272.263 115.877 270.715 108.662 267.649 102.315C264.569 95.9829 260.249 91.0443 254.707 87.53C249.164 84.0156 242.786 82.2507 235.556 82.2507C228.326 82.2507 221.654 84.0156 216.018 87.53C210.383 91.0598 206.033 95.9829 202.952 102.315C199.871 108.647 198.338 116.047 198.338 124.5C198.338 132.953 199.871 140.601 202.952 146.948C206.033 153.28 210.383 158.173 216.018 161.61C221.654 165.046 228.171 166.765 235.556 166.765Z" fill="#FAFAF5"/>
<path d="M391.89 196.072C377.802 196.072 365.215 193.037 354.13 186.968C343.046 180.9 334.453 172.493 328.384 161.749C322.316 151.02 319.281 138.681 319.281 124.779C319.281 110.876 322.362 98.5064 328.524 87.6847C334.685 76.8631 343.262 68.3637 354.27 62.202C365.262 56.0403 377.91 52.9595 392.169 52.9595C406.427 52.9595 418.487 56.0403 429.402 62.202C440.317 68.3637 448.816 76.8631 454.885 87.6847C460.954 98.5064 463.988 110.783 463.988 124.516C463.988 138.248 460.954 150.788 454.885 161.61C448.816 172.431 440.27 180.884 429.278 186.968C418.271 193.037 405.824 196.072 391.921 196.072H391.89ZM391.89 166.765C399.104 166.765 405.483 165.046 411.041 161.61C416.583 158.173 420.903 153.296 423.983 146.948C427.064 140.616 428.597 133.123 428.597 124.5C428.597 115.877 427.049 108.662 423.983 102.315C420.903 95.9829 416.583 91.0443 411.041 87.53C405.498 84.0156 399.12 82.2507 391.89 82.2507C384.66 82.2507 377.988 84.0156 372.352 87.53C366.717 91.0598 362.367 95.9829 359.286 102.315C356.205 108.647 354.672 116.047 354.672 124.5C354.672 132.953 356.205 140.601 359.286 146.948C362.367 153.28 366.717 158.173 372.352 161.61C377.988 165.046 384.505 166.765 391.89 166.765Z" fill="#FAFAF5"/>
<path d="M532.894 195.282C517.923 195.282 507.241 191.846 500.816 184.987C494.391 178.129 491.171 168.267 491.171 155.417V85.1772H470.58V57.1864H491.171V21.7954H526.02V57.1864H553.221V85.1772H526.02V153.575C526.02 157.972 527.336 161.146 529.983 163.081C532.63 165.016 536.408 165.991 541.331 165.991C544.149 165.991 548.019 165.635 552.942 164.939V192.403C546.068 194.338 539.38 195.313 532.878 195.313L532.894 195.282Z" fill="#FAFAF5"/>
<path d="M621.622 196.072C604.716 196.072 591.076 192.248 580.688 184.584C570.3 176.921 563.782 166.239 561.15 152.506L593.631 146.438C595.04 154.008 598.244 159.814 603.276 163.87C608.292 167.926 614.593 169.939 622.163 169.939C629.208 169.939 634.796 168.452 638.93 165.449C643.064 162.461 645.138 158.761 645.138 154.364C645.138 150.323 643.513 147.413 640.246 145.648C636.979 143.883 631.05 141.948 622.427 139.842C620.848 139.486 619.346 139.177 617.937 138.913C616.528 138.65 615.026 138.341 613.447 137.985C602.362 135.337 593.461 132.489 586.772 129.408C580.084 126.327 574.883 122.147 571.198 116.868C567.513 111.588 565.656 104.715 565.656 96.2771C565.656 87.8396 567.9 80.0833 572.39 73.5655C576.88 67.0477 583.305 61.9853 591.665 58.378C600.025 54.7708 609.67 52.9595 620.584 52.9595C635.896 52.9595 648.219 56.3964 657.554 63.2547C666.89 70.1131 673.036 79.8046 676.04 92.2983L644.875 98.8935C643.11 92.7318 640.262 87.886 636.298 84.3717C632.335 80.8574 627.102 79.0925 620.584 79.0925C614.779 79.0925 609.84 80.4084 605.799 83.0558C601.743 85.7031 599.731 89.1245 599.731 93.351C599.731 97.5775 601.619 100.256 605.412 101.928C609.19 103.6 616.11 105.489 626.142 107.61C626.669 107.78 627.149 107.919 627.598 108.012C628.031 108.105 628.526 108.229 629.053 108.415C641.206 111.062 650.835 113.88 657.972 116.868C665.11 119.856 670.559 124.036 674.352 129.408C678.13 134.78 680.034 141.87 680.034 150.664C680.034 159.458 677.665 167.833 672.912 174.692C668.159 181.55 661.425 186.845 652.709 190.529C643.993 194.229 633.651 196.072 621.684 196.072H621.622Z" fill="#FAFAF5"/>
<path d="M748.104 195.282C733.133 195.282 722.451 191.846 716.026 184.987C709.601 178.129 706.381 168.267 706.381 155.417V85.1772H685.79V57.1864H706.381V21.7954H741.23V57.1864H768.431V85.1772H741.23V153.575C741.23 157.972 742.546 161.146 745.193 163.081C747.84 165.016 751.618 165.991 756.541 165.991C759.359 165.991 763.229 165.635 768.152 164.939V192.403C761.278 194.338 754.59 195.313 748.088 195.313L748.104 195.282Z" fill="#FAFAF5"/>
<path d="M849.496 196.072C835.407 196.072 822.821 193.037 811.736 186.968C800.651 180.9 792.059 172.493 785.99 161.749C779.921 151.02 776.887 138.681 776.887 124.779C776.887 110.876 779.968 98.5064 786.129 87.6847C792.291 76.8631 800.868 68.3637 811.875 62.202C822.867 56.0403 835.516 52.9595 849.774 52.9595C864.033 52.9595 876.093 56.0403 887.008 62.202C897.922 68.3637 906.421 76.8631 912.49 87.6847C918.559 98.5064 921.593 110.783 921.593 124.516C921.593 138.248 918.559 150.788 912.49 161.61C906.421 172.431 897.876 180.884 886.884 186.968C875.876 193.037 863.429 196.072 849.526 196.072H849.496ZM849.496 166.765C856.71 166.765 863.088 165.046 868.646 161.61C874.189 158.173 878.508 153.296 881.589 146.948C884.67 140.616 886.202 133.123 886.202 124.5C886.202 115.877 884.654 108.662 881.589 102.315C878.508 95.9829 874.189 91.0443 868.646 87.53C863.104 84.0156 856.725 82.2507 849.496 82.2507C842.266 82.2507 835.593 84.0156 829.958 87.53C824.322 91.0598 819.972 95.9829 816.891 102.315C813.81 108.647 812.278 116.047 812.278 124.5C812.278 132.953 813.81 140.601 816.891 146.948C819.972 153.28 824.322 158.173 829.958 161.61C835.593 165.046 842.111 166.765 849.496 166.765Z" fill="#FAFAF5"/>
<path d="M1005.56 195.808C991.475 195.808 978.889 192.774 967.804 186.705C956.719 180.636 948.173 172.23 942.197 161.485C936.206 150.757 933.218 138.511 933.218 124.779C933.218 111.046 936.252 98.9862 942.321 88.0716C948.39 77.1571 956.889 68.5803 967.804 62.3257C978.718 56.0711 991.305 52.9438 1005.56 52.9438C1016.83 52.9438 1026.96 54.9719 1035.92 59.0126C1044.9 63.0688 1052.21 68.828 1057.84 76.3056C1063.48 83.7832 1067.18 92.5458 1068.93 102.578L1036.19 107.068C1034.08 99.6674 1030.46 93.7844 1025.36 89.3721C1020.26 84.9753 1013.66 82.7769 1005.56 82.7769C998.163 82.7769 991.614 84.6192 985.886 88.3193C980.158 92.0194 975.854 97.0355 972.944 103.367C970.033 109.699 968.593 116.666 968.593 124.221C968.593 131.776 970.08 139.006 973.083 145.354C976.071 151.686 980.344 156.702 985.886 160.402C991.429 164.102 997.993 165.944 1005.56 165.944C1013.66 165.944 1020.3 163.792 1025.5 159.473C1030.69 155.154 1034.27 149.394 1036.2 142.18L1069.47 146.933C1067.54 156.438 1063.88 164.799 1058.51 172.013C1053.14 179.227 1045.97 185.002 1036.99 189.306C1028.01 193.625 1017.53 195.777 1005.56 195.777V195.808Z" fill="#FAFAF5"/>
<path d="M1087.16 0.398798H1121.21V104.962L1170.34 57.1699H1213.64L1157.13 113.151L1214.69 191.845H1173.76L1133.62 136.389L1121.2 148.264V191.829H1087.14V0.383301L1087.16 0.398798Z" fill="#FAFAF5"/>
<path d="M1237.6 5.95703H1273.25V160.433L1362.75 160.433V191.86L1237.6 191.86V5.95703Z" fill="#FAFAF5"/>
<path d="M1416.8 194.755C1407.99 194.755 1400.29 193.207 1393.7 190.142C1387.1 187.077 1381.95 182.618 1378.25 176.812C1374.55 171.007 1372.7 164.319 1372.7 156.748C1372.7 144.951 1376.98 135.538 1385.51 128.494C1394.04 121.45 1406.33 116.79 1422.34 114.499L1451.12 109.746C1455.34 108.863 1458.29 107.64 1459.96 106.046C1461.63 104.467 1462.47 102.439 1462.47 99.977H1466.43V150.679C1463.43 164.768 1457.5 175.636 1448.61 183.299C1439.72 190.962 1429.1 194.786 1416.8 194.786V194.755ZM1437.39 52.9593C1449.35 52.9593 1459.83 55.0338 1468.81 59.1674C1477.79 63.301 1484.6 69.0757 1489.28 76.4604C1493.94 83.8606 1496.28 92.391 1496.28 102.067V191.845H1462.48V99.946C1462.48 94.6668 1460.28 90.301 1455.89 86.8795C1451.49 83.4426 1445.41 81.7242 1437.66 81.7242C1429.92 81.7242 1424.03 83.5665 1419.44 87.2666C1414.86 90.9667 1411.97 96.0756 1410.73 102.578L1376.14 98.6146C1378.25 88.9386 1381.99 80.7488 1387.36 74.0608C1392.74 67.3727 1399.69 62.1709 1408.22 58.4862C1416.75 54.7861 1426.49 52.9438 1437.4 52.9438L1437.39 52.9593ZM1428.41 167.57C1435.26 167.57 1441.3 165.82 1446.49 162.291C1451.68 158.776 1455.64 154.07 1458.38 148.171C1461.1 142.273 1462.47 136.158 1462.47 129.826V126.652C1461.06 127.534 1459.29 128.231 1457.19 128.757C1455.08 129.284 1452.7 129.733 1450.05 130.073L1432.62 132.984C1425.76 134.222 1420.03 136.204 1415.45 138.929C1410.87 141.654 1408.59 145.926 1408.59 151.732C1408.59 156.655 1410.39 160.541 1414.01 163.343C1417.62 166.161 1422.42 167.57 1428.41 167.57Z" fill="#FAFAF5"/>
<path d="M1599.52 196.072C1590.01 196.072 1581.43 194.044 1573.77 190.003C1566.11 185.962 1559.37 180.404 1553.57 173.36V191.845H1519.51V0.399414H1553.57V76.1819C1559.37 68.6114 1566.11 62.8523 1573.77 58.889C1581.43 54.9257 1590.1 52.9441 1599.78 52.9441C1612.1 52.9441 1623.06 56.0249 1632.66 62.1865C1642.26 68.3482 1649.74 76.8477 1655.11 87.6693C1660.48 98.491 1663.16 110.861 1663.16 124.763C1663.16 138.666 1660.48 151.005 1655.11 161.733C1649.74 172.478 1642.26 180.884 1632.66 186.953C1623.06 193.022 1612.03 196.056 1599.52 196.056V196.072ZM1590.8 165.96C1598.2 165.96 1604.66 164.288 1610.21 160.944C1615.76 157.6 1620.08 152.801 1623.16 146.546C1626.24 140.291 1627.77 133.03 1627.77 124.763C1627.77 112.27 1624.43 102.238 1617.74 94.667C1611.05 87.0965 1602.07 83.319 1590.8 83.319C1579.53 83.319 1570.5 87.112 1563.74 94.667C1556.96 102.238 1553.57 112.27 1553.57 124.763C1553.57 133.046 1555.1 140.307 1558.18 146.546C1561.26 152.801 1565.61 157.6 1571.25 160.944C1576.88 164.288 1583.4 165.96 1590.78 165.96H1590.8Z" fill="#FAFAF5"/>
<path d="M1733.4 196.072C1716.49 196.072 1702.85 192.248 1692.47 184.584C1682.08 176.921 1675.56 166.239 1672.93 152.506L1705.41 146.438C1706.82 154.008 1710.02 159.814 1715.05 163.87C1720.07 167.926 1726.37 169.939 1733.94 169.939C1740.98 169.939 1746.57 168.452 1750.71 165.449C1754.84 162.461 1756.92 158.761 1756.92 154.364C1756.92 150.323 1755.29 147.413 1752.02 145.648C1748.76 143.883 1742.83 141.948 1734.2 139.842C1732.62 139.486 1731.12 139.177 1729.71 138.913C1728.31 138.65 1726.8 138.341 1725.22 137.985C1714.14 135.337 1705.24 132.489 1698.55 129.408C1691.86 126.327 1686.66 122.147 1682.97 116.868C1679.29 111.588 1677.43 104.715 1677.43 96.2771C1677.43 87.8396 1679.68 80.0833 1684.17 73.5655C1688.66 67.0477 1695.08 61.9853 1703.44 58.378C1711.8 54.7708 1721.45 52.9595 1732.36 52.9595C1747.67 52.9595 1760 56.3964 1769.33 63.2547C1778.67 70.1131 1784.81 79.8046 1787.82 92.2983L1756.65 98.8935C1754.89 92.7318 1752.04 87.886 1748.08 84.3717C1744.11 80.8574 1738.88 79.0925 1732.36 79.0925C1726.56 79.0925 1721.62 80.4084 1717.58 83.0558C1713.52 85.7031 1711.51 89.1245 1711.51 93.351C1711.51 97.5775 1713.4 100.256 1717.19 101.928C1720.97 103.6 1727.89 105.489 1737.92 107.61C1738.45 107.78 1738.93 107.919 1739.37 108.012C1739.81 108.105 1740.3 108.229 1740.83 108.415C1752.98 111.062 1762.61 113.88 1769.75 116.868C1776.89 119.856 1782.34 124.036 1786.13 129.408C1789.91 134.78 1791.81 141.87 1791.81 150.664C1791.81 159.458 1789.44 167.833 1784.69 174.692C1779.94 181.55 1773.2 186.845 1764.49 190.529C1755.77 194.229 1745.43 196.072 1733.46 196.072H1733.4Z" fill="#FAFAF5"/>
</svg>
