<svg width="144" height="75" xmlns="http://www.w3.org/2000/svg" fill="none">
 <defs>
  <clipPath id="clip0">
            <rect id="svg_1" fill="white" height="57" width="104" />
        </clipPath>
    </defs>
    <g>
        <title>Testnet Logo</title>
        <g id="svg_2" clip-path="url(#clip0)">
            <path id="svg_3" fill="#1AB343"
                d="m14.8771,2.50986l0.0036,0c3.5906,3.24827 5.5257,6.43977 5.6467,9.43614c0.0143,2.7888 -1.5149,5.4907 -4.584,8.1091l0,-7.4758c0,-0.5801 -0.477,-1.0502 -1.0645,-1.0502l-0.0018,-9.01924z" />
            <path id="svg_4" fill="#0B6D3E"
                d="m14.8783,11.5291c-0.5874,0 -1.0645,0.4719 -1.0645,1.0502l0,7.4758c-3.0673,-2.6184 -4.59643,-5.3203 -4.58219,-8.1091c0.12105,-2.99637 2.05429,-6.18787 5.64669,-9.43614l0,9.01924z" />
            <path id="svg_5" fill="#0B6D3E"
                d="m34.6797,29.2932c-0.1424,-0.2289 -0.3809,-0.3921 -0.6266,-0.4436c-0.3364,-0.0691 -0.5536,-0.0337 -0.81,0.1225l-0.9096,0.5606c1.1179,-3.1809 4.2243,-2.379 5.5078,-2.0792l-3.1616,1.8397z" />
            <path id="svg_6" fill="#1AB343"
                d="m37.8399,27.4515c-0.3543,1.2525 -1.1447,4.3216 -4.5075,3.7521l0.9364,-0.5162c0.2635,-0.1472 0.3952,-0.3176 0.5002,-0.6404c0.0926,-0.2821 0.041,-0.5447 -0.0907,-0.754l3.1616,-1.8415z" />
            <path id="svg_7" fill="black"
                d="m33.3286,31.2036l0.9363,-0.5162c0.2635,-0.1473 0.3952,-0.3176 0.5003,-0.6404c0.194,-0.589 -0.2475,-1.1017 -0.7174,-1.1975c-0.3365,-0.0692 -0.5537,-0.0337 -0.81,0.1224l-0.9097,0.5606c1.118,-3.1809 4.2244,-2.379 5.5079,-2.0792c-0.3543,1.2525 -1.1447,4.3198 -4.5074,3.7503zm-7.0691,4.5026c-0.867,0 -1.5719,-0.6955 -1.5719,-1.5488c0,-0.8551 0.7049,-1.5505 1.5719,-1.5505c0.8651,0 1.5701,0.6972 1.5701,1.5505c0,0.8551 -0.705,1.5488 -1.5701,1.5488zm1.563,11.4177c0,0.8551 -0.705,1.5505 -1.5702,1.5505c-0.8669,0 -1.5719,-0.6954 -1.5719,-1.5505c0,-0.8551 0.705,-1.5505 1.5719,-1.5505c0.8652,0 1.5702,0.6954 1.5702,1.5505zm-9.5365,-5.8206c0.0534,-0.2378 0.0819,-0.4843 0.0819,-0.738c0,-0.2484 -0.0267,-0.4897 -0.0783,-0.7238l5.5702,-3.1738c0.372,0.3459 0.8206,0.612 1.3191,0.7699l0,6.4061c-0.4575,0.1455 -0.8741,0.3814 -1.2283,0.6883l-5.6646,-3.2287zm4.5377,6.4823l-5.6182,3.2004c-0.3614,-0.3193 -0.7904,-0.5659 -1.264,-0.7167l0,-6.4221c0.4789,-0.1507 0.9133,-0.4009 1.2764,-0.7255l5.6343,3.2092c-0.0605,0.2555 -0.0944,0.5198 -0.0944,0.793c0,0.2271 0.0232,0.4471 0.0659,0.6617zm-7.9503,7.3179c-0.8652,0 -1.5701,-0.6954 -1.5701,-1.5505c0,-0.8551 0.7049,-1.5505 1.5701,-1.5505c0.867,0 1.5719,0.6954 1.5719,1.5505c-0.0018,0.8533 -0.7049,1.5505 -1.5719,1.5505zm-7.95027,-7.3197c0.04272,-0.2128 0.06408,-0.4346 0.06408,-0.6581c0,-0.2714 -0.03382,-0.5358 -0.09257,-0.7895l5.63606,-3.211c0.3649,0.3264 0.7993,0.5766 1.2799,0.7256l0,6.4185c-0.4753,0.149 -0.9061,0.3956 -1.2674,0.7167l-5.62007,-3.2022zm-1.12508,-3.25c-0.35247,-0.3051 -0.76726,-0.5429 -1.22476,-0.6883l0,-6.4079c0.49667,-0.1579 0.94349,-0.424 1.31377,-0.7681l5.57014,3.1737c-0.0498,0.2324 -0.0783,0.4755 -0.0783,0.7256c0,0.2537 0.0285,0.5021 0.0819,0.7416l-5.66275,3.2234zm-2.30355,4.1406c-0.86695,0 -1.5719,-0.6954 -1.5719,-1.5505c0,-0.8551 0.70495,-1.5505 1.5719,-1.5505c0.86516,0 1.57012,0.6954 1.57012,1.5505c0,0.8551 -0.70496,1.5505 -1.57012,1.5505zm-1.5719,-14.517c0,-0.8551 0.70495,-1.5505 1.5719,-1.5505c0.86516,0 1.57012,0.6972 1.57012,1.5505c0,0.8551 -0.70496,1.5488 -1.57012,1.5488c-0.86695,0 -1.5719,-0.6937 -1.5719,-1.5488zm10.6348,-4.0004c0.3596,0.3157 0.7851,0.557 1.2532,0.7043l0,6.4167c-0.4859,0.1525 -0.9256,0.408 -1.2941,0.7397l-5.59693,-3.1879c0.0445,-0.2164 0.06764,-0.4435 0.06764,-0.6724c0,-0.2679 -0.03204,-0.5269 -0.08901,-0.777l5.6592,-3.2234zm2.316,-4.13c0.867,0 1.5719,0.6954 1.5719,1.5505c0,0.8551 -0.7049,1.5505 -1.5719,1.5505c-0.8652,0 -1.5701,-0.6954 -1.5701,-1.5505c-0.0018,-0.8551 0.7032,-1.5505 1.5701,-1.5505zm-5.64494,-14.0806c0.12105,-2.99635 2.05434,-6.18786 5.64674,-9.43613l0.0036,0c3.5906,3.24827 5.5256,6.43978 5.6467,9.43613c0.0142,2.7888 -1.5149,5.4907 -4.584,8.1092l0,-7.4759c0,-0.5801 -0.4771,-1.0502 -1.0645,-1.0502c-0.5875,0 -1.0646,0.4719 -1.0646,1.0502l0,7.4759c-3.069,-2.6185 -4.59818,-5.3204 -4.58394,-8.1092zm7.21504,28.6189c0,0.8533 -0.7049,1.5505 -1.5719,1.5505c-0.8651,0 -1.5701,-0.6954 -1.5701,-1.5505c0,-0.8569 0.705,-1.5505 1.5701,-1.5505c0.8688,0 1.5719,0.6936 1.5719,1.5505zm6.4051,-7.1867c-0.0587,0.2502 -0.0908,0.5109 -0.0908,0.7788c0,0.2307 0.0232,0.456 0.0677,0.6742l-5.5951,3.1879c-0.3667,-0.33 -0.8047,-0.5836 -1.2889,-0.7362l0,-6.4203c0.4682,-0.1472 0.8919,-0.3903 1.2497,-0.7043l5.6574,3.2199zm16.5148,-7.6816c0,0 -3.9324,-1.4636 -6.5618,-0.0497c-1.5309,0.8232 -2.624,2.5139 -2.948,5.1838l-1.2924,0.7344c-0.6141,-0.5322 -1.4188,-0.855 -2.3,-0.855c-0.8883,0 -1.6965,0.3264 -2.3124,0.8639l-0.0071,0l-5.661,-3.2252c0.057,-0.2466 0.089,-0.5056 0.089,-0.7717c0,-1.5363 -1.0201,-2.8385 -2.4264,-3.2838l0,-1.4831l0.5145,-0.3778l-0.0018,0c4.3063,-3.3565 6.3908,-6.8673 6.2467,-10.5343c-0.0499,-3.745 -2.4175,-7.62128 -7.1012,-11.6253c-0.1976,-0.16143 -0.4023,-0.25191 -0.6231,-0.2732l-0.2047,0c-0.2207,0.02129 -0.4272,0.11177 -0.6177,0.2732c-4.68544,4.00579 -7.05308,7.8803 -7.10292,11.6253c-0.1442,3.667 1.9404,7.1778 6.24662,10.5343l0.5109,0.3778l0,1.4831c-1.4099,0.4436 -2.4317,1.7475 -2.4317,3.2856c0,0.2661 0.0321,0.5251 0.089,0.7735l-5.65917,3.2252c-0.61594,-0.5393 -1.42592,-0.8675 -2.31423,-0.8675c-1.92972,-0.0018 -3.4945,1.5434 -3.4945,3.4469c0,1.5417 1.02716,2.8474 2.44419,3.2873l0,6.3901c-1.41703,0.4418 -2.44419,1.7475 -2.44419,3.2891c0,1.9036 1.56478,3.447 3.4945,3.447c0.93103,0 1.77662,-0.3602 2.40324,-0.9456l5.56666,3.1702c-0.0552,0.2448 -0.0855,0.4968 -0.0855,0.7575c0,1.9036 1.5648,3.447 3.4945,3.447c1.9297,0 3.4945,-1.5434 3.4945,-3.447c0,-0.259 -0.0302,-0.5127 -0.0854,-0.7557l5.5684,-3.172c0.6266,0.5854 1.4704,0.9456 2.4014,0.9456c1.9298,0 3.4945,-1.5434 3.4945,-3.447c0,-1.5399 -1.0236,-2.8456 -2.4388,-3.2873l0,-6.3919c1.417,-0.4382 2.4442,-1.7456 2.4442,-3.2873c0,-0.2732 -0.0338,-0.5375 -0.0944,-0.793l1.2052,-0.6936c2.5795,1.0626 4.6481,0.942 6.1399,0.0035c2.526,-1.5877 3.126,-5.6929 3.126,-5.6929c0.1299,-0.5091 -0.3098,-1.1655 -0.7655,-1.2844z" />
            <path id="svg_8" fill="black"
                d="m82.1413,18.3059c1.8265,-0.3441 3.5675,-0.6723 5.3798,-1.0129c0,5.5243 0,10.9973 0,16.7452c0.4058,-0.3744 0.6551,-0.589 0.8847,-0.8214c2.6151,-2.6398 5.2106,-5.2991 7.8631,-7.9016c0.3667,-0.3601 1.0022,-0.6032 1.5238,-0.6262c1.7642,-0.0763 3.5323,-0.0284 5.5523,-0.0284c-3.21,3.3174 -6.2394,6.4486 -9.3352,9.6472c3.2863,4.2329 6.5712,8.4657 9.9902,12.8707c-2.257,0 -4.2847,0.0248 -6.3123,-0.0284c-0.2706,-0.0071 -0.5875,-0.3655 -0.7886,-0.6316c-2.106,-2.8118 -4.1924,-5.6379 -6.3588,-8.5597c-0.9649,1.0112 -1.9102,1.9603 -2.7949,2.9626c-0.1816,0.2058 -0.1798,0.6121 -0.1834,0.9261c-0.016,1.735 -0.0071,3.4682 -0.0071,5.2689c-1.8372,0 -3.596,0 -5.4153,0c0.0017,-9.5976 0.0017,-19.1668 0.0017,-28.8105z" />
            <path id="svg_9" fill="black"
                d="m62.3244,41.9092c2.729,1.1567 5.3815,1.9923 8.2547,1.7776c1.6733,-0.126 2.7593,-0.9296 2.9213,-2.1466c0.1459,-1.0946 -0.2154,-1.9851 -1.2088,-2.473c-1.2657,-0.6209 -2.5884,-1.1265 -3.8808,-1.6924c-1.1126,-0.4879 -2.2519,-0.9296 -3.3165,-1.5062c-2.4281,-1.311 -3.4891,-3.3867 -3.2096,-6.1222c0.2901,-2.8562 2.0098,-4.5025 4.6765,-5.1785c3.9289,-0.9952 7.7491,-0.5481 11.5338,1.1053c-0.4611,1.2737 -0.8883,2.4606 -1.2853,3.5587c-1.6182,-0.424 -3.1189,-0.9491 -4.6641,-1.1762c-1.1446,-0.1685 -2.3605,-0.0426 -3.5176,0.1313c-0.8491,0.1277 -1.4793,0.7149 -1.5808,1.6658c-0.1033,0.9757 0.3543,1.6854 1.207,2.0579c1.5647,0.683 3.1865,1.2401 4.7477,1.9319c1.1358,0.5039 2.3053,1.0148 3.3005,1.7404c3.6778,2.6841 3.2862,8.4231 -0.6712,10.7045c-2.1807,1.2578 -4.5893,1.4849 -6.9907,1.2419c-2.0081,-0.2023 -3.9805,-0.7806 -5.9619,-1.2241c-0.7192,-0.1615 -0.9808,-0.5943 -0.7957,-1.3802c0.2207,-0.9474 0.2902,-1.9319 0.4415,-3.0159z" />
            <path id="svg_10" fill="black"
                d="m46.2044,47.1323c0,-7.3321 0,-14.5791 0,-21.9254c1.4722,-0.1774 2.9266,-0.3513 4.5039,-0.5411c0.2403,1.0893 0.4682,2.1218 0.7477,3.3884c1.9528,-2.9325 4.6356,-3.8159 7.8933,-3.4487c0,1.4849 0,2.9378 0,4.4457c-0.8331,0 -1.5844,-0.0372 -2.332,0.0071c-3.4287,0.204 -5.2996,2.1147 -5.3424,5.5546c-0.048,3.8071 -0.0142,7.6159 -0.016,11.423c0,0.3513 0,0.7008 0,1.0964c-1.8745,0 -3.6084,0 -5.4545,0z" />
        </g>
        <path id="svg_11" fill="#00B520"
            d="m50.5234,55.9c0.16,0 0.2934,0.0533 0.4,0.16c0.1067,0.1067 0.16,0.24 0.16,0.4c0,0.1533 -0.0533,0.2833 -0.16,0.39c-0.1066,0.1 -0.24,0.15 -0.4,0.15l-3.4,0c-0.1733,0 -0.31,-0.0533 -0.41,-0.16c-0.1,-0.1067 -0.15,-0.2433 -0.15,-0.41c0,-0.1667 0.06,-0.3133 0.18,-0.44l2.18,-2.33c0.2467,-0.2667 0.44,-0.5333 0.58,-0.8c0.1467,-0.2733 0.22,-0.5233 0.22,-0.75c0,-0.3 -0.1066,-0.56 -0.32,-0.78c-0.2133,-0.22 -0.46,-0.33 -0.74,-0.33c-0.1933,0 -0.39,0.0667 -0.59,0.2c-0.1933,0.1267 -0.37,0.2967 -0.53,0.51c-0.12,0.16 -0.2733,0.24 -0.46,0.24c-0.1466,0 -0.2833,-0.0567 -0.41,-0.17c-0.12,-0.1133 -0.18,-0.24 -0.18,-0.38c0,-0.1 0.0334,-0.2 0.1,-0.3c0.0667,-0.1067 0.1667,-0.2267 0.3,-0.36c0.2534,-0.2533 0.5467,-0.4567 0.88,-0.61c0.3334,-0.1533 0.6534,-0.23 0.96,-0.23c0.44,0 0.8267,0.0933 1.16,0.28c0.3334,0.1867 0.59,0.4433 0.77,0.77c0.18,0.3267 0.27,0.6967 0.27,1.11c0,0.4067 -0.11,0.8267 -0.33,1.26c-0.2133,0.4267 -0.5033,0.8367 -0.87,1.23l-1.27,1.35l2.06,0zm12.2841,-5.93c0.16,0 0.3067,0.0633 0.44,0.19c0.14,0.12 0.21,0.2733 0.21,0.46c0,0.06 -0.01,0.1267 -0.03,0.2l-1.97,5.8c-0.04,0.1133 -0.11,0.2033 -0.21,0.27c-0.1,0.0667 -0.21,0.1033 -0.33,0.11c-0.12,0 -0.2333,-0.0333 -0.34,-0.1c-0.1067,-0.0667 -0.19,-0.1633 -0.25,-0.29l-1.42,-3.23l-1.43,3.23c-0.06,0.1267 -0.1433,0.2233 -0.25,0.29c-0.1067,0.0667 -0.22,0.1 -0.34,0.1c-0.12,-0.0067 -0.23,-0.0433 -0.33,-0.11c-0.1,-0.0667 -0.17,-0.1567 -0.21,-0.27l-1.97,-5.8c-0.02,-0.0733 -0.03,-0.14 -0.03,-0.2c0,-0.1867 0.0667,-0.34 0.2,-0.46c0.14,-0.1267 0.2933,-0.19 0.46,-0.19c0.1333,0 0.2533,0.0367 0.36,0.11c0.1067,0.0667 0.18,0.16 0.22,0.28l1.49,4.52l1.3,-3.12c0.0533,-0.12 0.13,-0.2133 0.23,-0.28c0.1,-0.0733 0.2133,-0.1067 0.34,-0.1c0.1267,-0.0067 0.2367,0.0267 0.33,0.1c0.1,0.0667 0.1767,0.16 0.23,0.28l1.23,3.09l1.48,-4.49c0.04,-0.12 0.1133,-0.2133 0.22,-0.28c0.1133,-0.0733 0.2367,-0.11 0.37,-0.11zm5.7057,1.58c0.1733,0 0.3167,0.0567 0.43,0.17c0.1133,0.1133 0.17,0.26 0.17,0.44l0,4.23c0,0.1733 -0.0567,0.32 -0.17,0.44c-0.1133,0.1133 -0.2567,0.17 -0.43,0.17c-0.1733,0 -0.3167,-0.0567 -0.43,-0.17c-0.1067,-0.1133 -0.1633,-0.2567 -0.17,-0.43c-0.1667,0.1933 -0.3933,0.36 -0.68,0.5c-0.28,0.1333 -0.5767,0.2 -0.89,0.2c-0.46,0 -0.8767,-0.1167 -1.25,-0.35c-0.3733,-0.24 -0.67,-0.57 -0.89,-0.99c-0.2133,-0.42 -0.32,-0.8967 -0.32,-1.43c0,-0.5333 0.1067,-1.01 0.32,-1.43c0.2133,-0.4267 0.5033,-0.7567 0.87,-0.99c0.3733,-0.24 0.7833,-0.36 1.23,-0.36c0.32,0 0.62,0.06 0.9,0.18c0.28,0.1133 0.5167,0.26 0.71,0.44l0,-0.01c0,-0.1733 0.0567,-0.3167 0.17,-0.43c0.1133,-0.12 0.2567,-0.18 0.43,-0.18zm-2.02,4.45c0.4333,0 0.7867,-0.1567 1.06,-0.47c0.2733,-0.32 0.41,-0.72 0.41,-1.2c0,-0.48 -0.1367,-0.88 -0.41,-1.2c-0.2733,-0.32 -0.6267,-0.48 -1.06,-0.48c-0.4267,0 -0.7767,0.16 -1.05,0.48c-0.2733,0.32 -0.41,0.72 -0.41,1.2c0,0.48 0.1333,0.88 0.4,1.2c0.2733,0.3133 0.6267,0.47 1.06,0.47zm7.7733,-4.35c0.1733,0 0.3167,0.06 0.43,0.18c0.1133,0.1133 0.17,0.2567 0.17,0.43l0,4.25c0,0.8667 -0.2333,1.4967 -0.7,1.89c-0.4667,0.4 -1.09,0.6 -1.87,0.6c-0.2267,0 -0.46,-0.02 -0.7,-0.06c-0.2333,-0.0333 -0.4233,-0.08 -0.57,-0.14c-0.3267,-0.14 -0.49,-0.3333 -0.49,-0.58c0,-0.0467 0.01,-0.1 0.03,-0.16c0.04,-0.1467 0.1067,-0.26 0.2,-0.34c0.1,-0.0733 0.2067,-0.11 0.32,-0.11c0.0667,0 0.13,0.01 0.19,0.03c0.0467,0.02 0.1267,0.0533 0.24,0.1c0.12,0.0467 0.2433,0.0833 0.37,0.11c0.1333,0.0333 0.27,0.05 0.41,0.05c0.4733,0 0.82,-0.1033 1.04,-0.31c0.2267,-0.2 0.34,-0.5467 0.34,-1.04l0,-0.1c-0.3467,0.4333 -0.8867,0.65 -1.62,0.65c-0.3467,0 -0.6533,-0.08 -0.92,-0.24c-0.2667,-0.1667 -0.4733,-0.3933 -0.62,-0.68c-0.1467,-0.2933 -0.22,-0.6267 -0.22,-1l0,-2.92c0,-0.1733 0.0567,-0.3167 0.17,-0.43c0.1133,-0.12 0.2567,-0.18 0.43,-0.18c0.1733,0 0.3167,0.06 0.43,0.18c0.1133,0.1133 0.17,0.2567 0.17,0.43l0,2.56c0,0.42 0.09,0.7233 0.27,0.91c0.1867,0.18 0.4567,0.27 0.81,0.27c0.3467,0 0.6133,-0.1 0.8,-0.3c0.1933,-0.2067 0.29,-0.5 0.29,-0.88l0,-2.56c0,-0.1733 0.0567,-0.3167 0.17,-0.43c0.1133,-0.12 0.2567,-0.18 0.43,-0.18zm7.6919,-1.65c0.34,0 0.6633,0.1033 0.97,0.31c0.3066,0.2 0.5533,0.4733 0.74,0.82c0.1866,0.34 0.28,0.7133 0.28,1.12c0,0.4 -0.0934,0.7733 -0.28,1.12c-0.1867,0.3467 -0.4334,0.6233 -0.74,0.83c-0.3067,0.2 -0.63,0.3 -0.97,0.3l-1.74,0l0,1.89c0,0.18 -0.0534,0.3267 -0.16,0.44c-0.1067,0.1133 -0.2467,0.17 -0.42,0.17c-0.1667,0 -0.3034,-0.0567 -0.41,-0.17c-0.1067,-0.12 -0.16,-0.2667 -0.16,-0.44l0,-5.78c0,-0.1733 0.0566,-0.3167 0.17,-0.43c0.12,-0.12 0.2666,-0.18 0.44,-0.18l2.28,0zm0,3.36c0.1266,0 0.25,-0.0533 0.37,-0.16c0.1266,-0.1067 0.2266,-0.2433 0.3,-0.41c0.08,-0.1733 0.12,-0.3533 0.12,-0.54c0,-0.1867 -0.04,-0.3633 -0.12,-0.53c-0.0734,-0.1733 -0.1734,-0.31 -0.3,-0.41c-0.12,-0.1067 -0.2434,-0.16 -0.37,-0.16l-1.74,0l0,2.21l1.74,0zm7.7377,0.84c-0.0067,0.16 -0.07,0.29 -0.19,0.39c-0.12,0.1 -0.26,0.15 -0.42,0.15l-3.3,0c0.08,0.3933 0.2633,0.7033 0.55,0.93c0.2867,0.22 0.61,0.33 0.97,0.33c0.2733,0 0.4867,-0.0233 0.64,-0.07c0.1533,-0.0533 0.2733,-0.1067 0.36,-0.16c0.0933,-0.06 0.1567,-0.1 0.19,-0.12c0.12,-0.06 0.2333,-0.09 0.34,-0.09c0.14,0 0.26,0.05 0.36,0.15c0.1,0.1 0.15,0.2167 0.15,0.35c0,0.18 -0.0933,0.3433 -0.28,0.49c-0.1867,0.1533 -0.4367,0.2833 -0.75,0.39c-0.3133,0.1067 -0.63,0.16 -0.95,0.16c-0.56,0 -1.05,-0.1167 -1.47,-0.35c-0.4133,-0.2333 -0.7333,-0.5533 -0.96,-0.96c-0.2267,-0.4133 -0.34,-0.8767 -0.34,-1.39c0,-0.5733 0.12,-1.0767 0.36,-1.51c0.24,-0.4333 0.5567,-0.7633 0.95,-0.99c0.3933,-0.2333 0.8133,-0.35 1.26,-0.35c0.44,0 0.8533,0.12 1.24,0.36c0.3933,0.24 0.7067,0.5633 0.94,0.97c0.2333,0.4067 0.35,0.8467 0.35,1.32zm-2.53,-1.55c-0.7733,0 -1.23,0.3633 -1.37,1.09l2.62,0l0,-0.07c-0.0267,-0.28 -0.1633,-0.52 -0.41,-0.72c-0.2467,-0.2 -0.5267,-0.3 -0.84,-0.3zm7.9119,-1.1c0.1734,0 0.3167,0.0567 0.43,0.17c0.1134,0.1133 0.17,0.26 0.17,0.44l0,4.45c0,0.8133 -0.2533,1.4133 -0.76,1.8c-0.5,0.3933 -1.1366,0.59 -1.91,0.59c-0.2,0 -0.4766,-0.0333 -0.83,-0.1c-0.3466,-0.0667 -0.5933,-0.1333 -0.74,-0.2c-0.3266,-0.14 -0.49,-0.3333 -0.49,-0.58c0,-0.0467 0.01,-0.1 0.03,-0.16c0.04,-0.1467 0.1067,-0.26 0.2,-0.34c0.1,-0.0733 0.2067,-0.11 0.32,-0.11c0.0667,0 0.13,0.01 0.19,0.03c0.0267,0.0067 0.19,0.0667 0.49,0.18c0.3067,0.12 0.5834,0.18 0.83,0.18c0.4934,0 0.86,-0.1 1.1,-0.3c0.2467,-0.1933 0.37,-0.47 0.37,-0.83l0,-0.48c-0.1466,0.2067 -0.37,0.3933 -0.67,0.56c-0.2933,0.1667 -0.61,0.25 -0.95,0.25c-0.4666,0 -0.8933,-0.1167 -1.28,-0.35c-0.38,-0.24 -0.68,-0.57 -0.9,-0.99c-0.22,-0.42 -0.33,-0.8967 -0.33,-1.43c0,-0.5333 0.1067,-1.01 0.32,-1.43c0.22,-0.4267 0.5167,-0.7567 0.89,-0.99c0.38,-0.24 0.8,-0.36 1.26,-0.36c0.34,0 0.6567,0.07 0.95,0.21c0.2934,0.14 0.53,0.31 0.71,0.51l0,-0.11c0,-0.1733 0.0567,-0.3167 0.17,-0.43c0.1134,-0.12 0.2567,-0.18 0.43,-0.18zm-2.07,4.45c0.4467,0 0.81,-0.1567 1.09,-0.47c0.2867,-0.32 0.43,-0.72 0.43,-1.2c0,-0.48 -0.1433,-0.88 -0.43,-1.2c-0.28,-0.32 -0.6433,-0.48 -1.09,-0.48c-0.4466,0 -0.81,0.16 -1.09,0.48c-0.28,0.32 -0.42,0.72 -0.42,1.2c0,0.48 0.14,0.88 0.42,1.2c0.28,0.3133 0.6434,0.47 1.09,0.47zm12.361,0.22c0.033,0.0867 0.05,0.1667 0.05,0.24c0,0.1733 -0.057,0.3167 -0.17,0.43c-0.113,0.1067 -0.243,0.16 -0.39,0.16c-0.12,0 -0.23,-0.0367 -0.33,-0.11c-0.093,-0.0733 -0.167,-0.1733 -0.22,-0.3l-0.52,-1.21l-2.98,0l-0.52,1.22c-0.047,0.1267 -0.12,0.2267 -0.22,0.3c-0.0934,0.0667 -0.1968,0.1 -0.3101,0.1c-0.1733,0 -0.3067,-0.0467 -0.4,-0.14c-0.0867,-0.0933 -0.13,-0.22 -0.13,-0.38c0,-0.06 0.01,-0.1233 0.03,-0.19l2.4901,-5.98c0.053,-0.1333 0.133,-0.2367 0.24,-0.31c0.107,-0.0733 0.227,-0.1033 0.36,-0.09c0.12,0 0.23,0.0367 0.33,0.11c0.107,0.0667 0.183,0.1633 0.23,0.29l2.46,5.86zm-2.07,-1.94l-1.01,-2.34l-0.99,2.34l2,0zm5.637,-2.73c0.46,0 0.876,0.12 1.25,0.36c0.373,0.2333 0.666,0.56 0.88,0.98c0.22,0.42 0.33,0.8967 0.33,1.43c0,0.5333 -0.107,1.0133 -0.32,1.44c-0.214,0.42 -0.507,0.75 -0.88,0.99c-0.367,0.2333 -0.774,0.35 -1.22,0.35c-0.32,0 -0.624,-0.0633 -0.91,-0.19c-0.28,-0.1333 -0.514,-0.2933 -0.7,-0.48l0,1.96c0,0.1733 -0.057,0.3167 -0.17,0.43c-0.114,0.12 -0.257,0.18 -0.43,0.18c-0.174,0 -0.317,-0.0567 -0.43,-0.17c-0.114,-0.1133 -0.17,-0.26 -0.17,-0.44l0,-6.13c0,-0.1733 0.056,-0.3167 0.17,-0.43c0.113,-0.12 0.256,-0.18 0.43,-0.18c0.173,0 0.316,0.06 0.43,0.18c0.113,0.1133 0.17,0.2567 0.17,0.43l0,0.04c0.16,-0.2 0.383,-0.3733 0.67,-0.52c0.286,-0.1533 0.586,-0.23 0.9,-0.23zm-0.15,4.45c0.426,0 0.776,-0.16 1.05,-0.48c0.273,-0.32 0.41,-0.72 0.41,-1.2c0,-0.48 -0.137,-0.8767 -0.41,-1.19c-0.267,-0.32 -0.617,-0.48 -1.05,-0.48c-0.434,0 -0.787,0.16 -1.06,0.48c-0.274,0.3133 -0.41,0.71 -0.41,1.19c0,0.48 0.136,0.88 0.41,1.2c0.273,0.32 0.626,0.48 1.06,0.48zm6.38,-4.45c0.46,0 0.877,0.12 1.25,0.36c0.373,0.2333 0.667,0.56 0.88,0.98c0.22,0.42 0.33,0.8967 0.33,1.43c0,0.5333 -0.107,1.0133 -0.32,1.44c-0.213,0.42 -0.507,0.75 -0.88,0.99c-0.367,0.2333 -0.773,0.35 -1.22,0.35c-0.32,0 -0.623,-0.0633 -0.91,-0.19c-0.28,-0.1333 -0.513,-0.2933 -0.7,-0.48l0,1.96c0,0.1733 -0.057,0.3167 -0.17,0.43c-0.113,0.12 -0.257,0.18 -0.43,0.18c-0.173,0 -0.317,-0.0567 -0.43,-0.17c-0.113,-0.1133 -0.17,-0.26 -0.17,-0.44l0,-6.13c0,-0.1733 0.057,-0.3167 0.17,-0.43c0.113,-0.12 0.257,-0.18 0.43,-0.18c0.173,0 0.317,0.06 0.43,0.18c0.113,0.1133 0.17,0.2567 0.17,0.43l0,0.04c0.16,-0.2 0.383,-0.3733 0.67,-0.52c0.287,-0.1533 0.587,-0.23 0.9,-0.23zm-0.15,4.45c0.427,0 0.777,-0.16 1.05,-0.48c0.273,-0.32 0.41,-0.72 0.41,-1.2c0,-0.48 -0.137,-0.8767 -0.41,-1.19c-0.267,-0.32 -0.617,-0.48 -1.05,-0.48c-0.433,0 -0.787,0.16 -1.06,0.48c-0.273,0.3133 -0.41,0.71 -0.41,1.19c0,0.48 0.137,0.88 0.41,1.2c0.273,0.32 0.627,0.48 1.06,0.48z" />
        <path id="svg_12" fill="black"
            d="m124.054,54.09c0.265,0.105 0.48,0.265 0.645,0.48c0.17,0.215 0.255,0.4925 0.255,0.8325c0,0.595 -0.17,1.01 -0.51,1.245c-0.34,0.235 -0.745,0.3525 -1.215,0.3525l-1.868,0c-0.13,0 -0.24,-0.0425 -0.33,-0.1275c-0.085,-0.09 -0.127,-0.2 -0.127,-0.33l0,-4.335c0,-0.13 0.042,-0.2375 0.127,-0.3225c0.09,-0.09 0.2,-0.135 0.33,-0.135l1.89,0c0.95,0 1.425,0.445 1.425,1.335c0,0.225 -0.055,0.425 -0.165,0.6c-0.105,0.17 -0.257,0.305 -0.457,0.405zm-0.353,-0.84c0,-0.205 -0.052,-0.3575 -0.157,-0.4575c-0.1,-0.105 -0.243,-0.1575 -0.428,-0.1575l-1.237,0l0,1.17l1.26,0c0.15,0 0.28,-0.05 0.39,-0.15c0.115,-0.1 0.172,-0.235 0.172,-0.405zm-0.472,2.8875c0.235,0 0.417,-0.0625 0.547,-0.1875c0.135,-0.125 0.203,-0.3075 0.203,-0.5475c0,-0.295 -0.078,-0.4875 -0.233,-0.5775c-0.155,-0.09 -0.345,-0.135 -0.57,-0.135l-1.297,0l0,1.4475l1.35,0zm5.559,0c0.13,0 0.238,0.045 0.323,0.135c0.09,0.085 0.135,0.185 0.135,0.3c0,0.125 -0.045,0.2275 -0.135,0.3075c-0.085,0.08 -0.193,0.12 -0.323,0.12l-2.512,0c-0.13,0 -0.24,-0.0425 -0.33,-0.1275c-0.085,-0.09 -0.128,-0.2 -0.128,-0.33l0,-4.335c0,-0.13 0.043,-0.2375 0.128,-0.3225c0.09,-0.09 0.2,-0.135 0.33,-0.135l2.512,0c0.13,0 0.238,0.0425 0.323,0.1275c0.09,0.08 0.135,0.185 0.135,0.315c0,0.125 -0.043,0.2275 -0.128,0.3075c-0.085,0.075 -0.195,0.1125 -0.33,0.1125l-2.032,0l0,1.275l1.695,0c0.13,0 0.237,0.0425 0.322,0.1275c0.09,0.08 0.135,0.185 0.135,0.315c0,0.125 -0.042,0.2275 -0.127,0.3075c-0.085,0.075 -0.195,0.1125 -0.33,0.1125l-1.695,0l0,1.3875l2.032,0zm4.772,-4.3875c0.135,0 0.245,0.04 0.33,0.12c0.085,0.08 0.128,0.185 0.128,0.315c0,0.13 -0.043,0.235 -0.128,0.315c-0.085,0.075 -0.195,0.1125 -0.33,0.1125l-1.177,0l0,3.93c0,0.13 -0.048,0.24 -0.143,0.33c-0.095,0.085 -0.212,0.1275 -0.352,0.1275c-0.14,0 -0.255,-0.0425 -0.345,-0.1275c-0.09,-0.09 -0.135,-0.2 -0.135,-0.33l0,-3.93l-1.178,0c-0.135,0 -0.245,-0.04 -0.33,-0.12c-0.085,-0.08 -0.127,-0.185 -0.127,-0.315c0,-0.125 0.042,-0.2275 0.127,-0.3075c0.09,-0.08 0.2,-0.12 0.33,-0.12l3.33,0zm4.989,4.665c0.025,0.065 0.037,0.125 0.037,0.18c0,0.13 -0.042,0.2375 -0.127,0.3225c-0.085,0.08 -0.183,0.12 -0.293,0.12c-0.09,0 -0.172,-0.0275 -0.247,-0.0825c-0.07,-0.055 -0.125,-0.13 -0.165,-0.225l-0.39,-0.9075l-2.235,0l-0.39,0.915c-0.035,0.095 -0.09,0.17 -0.165,0.225c-0.07,0.05 -0.148,0.075 -0.233,0.075c-0.13,0 -0.23,-0.035 -0.3,-0.105c-0.065,-0.07 -0.097,-0.165 -0.097,-0.285c0,-0.045 0.007,-0.0925 0.022,-0.1425l1.868,-4.485c0.04,-0.1 0.1,-0.1775 0.18,-0.2325c0.08,-0.055 0.17,-0.0775 0.27,-0.0675c0.09,0 0.172,0.0275 0.247,0.0825c0.08,0.05 0.138,0.1225 0.173,0.2175l1.845,4.395zm-1.553,-1.455l-0.757,-1.755l-0.743,1.755l1.5,0z" />

        <text
            transform="matrix(1 0 0 1 106.139 59.7043)"
            opacity="0.95"
            text-anchor="start"
            font-family="Quicksand,sans-serif"
            font-size="10"
            id="svg_13"
            stroke-width="0"
            stroke="#000"
            fill="#6e6e6e"
            data-custom-element="TextEditable_cmp"
            data-type="TextBox"
            width="26.112991333007812"
            height="12.630013026297092"
            data-use-rich-text="false"
            font-style="normal"
            font-weight="300">
            <tspan data-start-offset="0" style="white-space: pre;" x="0" dy="12"><![CDATA[testnet]]></tspan>
        </text>
                    
    </g>
</svg>