<svg xmlns="http://www.w3.org/2000/svg" width="93.634" height="13.992" viewBox="0 0 93.634 13.992">
  <g id="Group_171" data-name="Group 171" transform="translate(-70.756 -1002.263)">
    <g id="Group_170" data-name="Group 170" transform="translate(-132.5 699.358)">
      <path id="Path_98" data-name="Path 98" d="M379.716,315.741h-.839V305.522a.559.559,0,0,1,.559-.558h.28Z" transform="translate(-142.276 -1.723)" fill="#00e482"/>
      <path id="Path_99" data-name="Path 99" d="M396.336,322.411h.281a.559.559,0,0,1,.559.559v7.119h-.84v-1.649a3.569,3.569,0,0,1-3.281,1.954,4.148,4.148,0,0,1,0-8.289,3.555,3.555,0,0,1,3.281,1.969Zm0,3.847a3.2,3.2,0,0,0-3.206-3.358,3.362,3.362,0,0,0,0,6.717,3.2,3.2,0,0,0,3.206-3.358" transform="translate(-150.822 -16.072)" fill="#00e482"/>
      <path id="Path_100" data-name="Path 100" d="M447.916,304.961v4.718a3.538,3.538,0,0,1,3.251-1.924,4.148,4.148,0,0,1,0,8.289,3.6,3.6,0,0,1-3.282-1.938v1.633h-.825V305.52a.559.559,0,0,1,.559-.559Zm3.175,3.618a3.322,3.322,0,1,0,3.206,3.327,3.161,3.161,0,0,0-3.206-3.327" transform="translate(-199.349 -1.721)" fill="#00e482"/>
      <path id="Path_101" data-name="Path 101" d="M498.86,327.6h.825a2.2,2.2,0,0,0,2.473,2.015c1.313,0,2.259-.687,2.259-1.572,0-2.137-5.358-.763-5.358-3.649,0-1.312,1.236-2.29,2.869-2.29,1.817,0,3.145,1.084,3.145,2.58l-.84-.015c0-1.038-.976-1.771-2.3-1.771-1.144,0-2.046.64-2.046,1.48,0,2.076,5.358.794,5.358,3.6,0,1.388-1.3,2.411-3.083,2.411-1.923,0-3.3-1.175-3.3-2.793" transform="translate(-242.706 -16.071)" fill="#00e482"/>
      <path id="Path_102" data-name="Path 102" d="M211.434,315.958H208.9v-9.279a1.46,1.46,0,0,1,1.459-1.46h1.075Z" transform="translate(0 -1.936)" fill="#00e482"/>
      <path id="Path_103" data-name="Path 103" d="M310.534,314.088l2.409-7.828a1.476,1.476,0,0,1,1.409-1.041H315.9l-3.439,10.739H308.6l-3.455-10.739h1.563a1.461,1.461,0,0,1,1.394,1.029Z" transform="translate(-80.564 -1.937)" fill="#00e482"/>
      <path id="Path_104" data-name="Path 104" d="M238.54,302.9a5.749,5.749,0,1,0,5.942,5.747,5.572,5.572,0,0,0-5.942-5.747m0,9.321a3.355,3.355,0,0,1-3.409-3.574,3.98,3.98,0,0,1,.39-1.766.007.007,0,0,1,0-.005.189.189,0,0,1,.019-.035.081.081,0,0,1,.017-.033c.01-.021.027-.052.046-.085.011-.016.019-.032.03-.052s.032-.052.052-.079a3.134,3.134,0,0,1,2.073-1.373l.058-.008a.4.4,0,0,0,.052-.006,2.13,2.13,0,0,1,1.988.8c.005.012.01.019.016.03a1.06,1.06,0,0,1,.066.129c.011.022.019.043.03.063a3.929,3.929,0,0,1-.834,3.918s2.4-1.36,2.305-3.473a3.861,3.861,0,0,1,.509,1.98,3.348,3.348,0,0,1-3.41,3.574" transform="translate(-19.837)" fill="#00e482"/>
      <path id="Path_105" data-name="Path 105" d="M379.716,315.741h-.839V305.522a.559.559,0,0,1,.559-.558h.28Z" transform="translate(-142.276 -1.723)" fill="#00e482"/>
      <path id="Path_106" data-name="Path 106" d="M396.336,322.411h.281a.559.559,0,0,1,.559.559v7.119h-.84v-1.649a3.569,3.569,0,0,1-3.281,1.954,4.148,4.148,0,0,1,0-8.289,3.555,3.555,0,0,1,3.281,1.969Zm0,3.847a3.2,3.2,0,0,0-3.206-3.358,3.362,3.362,0,0,0,0,6.717,3.2,3.2,0,0,0,3.206-3.358" transform="translate(-150.822 -16.072)" fill="#00e482"/>
      <path id="Path_107" data-name="Path 107" d="M447.916,304.961v4.718a3.538,3.538,0,0,1,3.251-1.924,4.148,4.148,0,0,1,0,8.289,3.6,3.6,0,0,1-3.282-1.938v1.633h-.825V305.52a.559.559,0,0,1,.559-.559Zm3.175,3.618a3.322,3.322,0,1,0,3.206,3.327,3.161,3.161,0,0,0-3.206-3.327" transform="translate(-199.349 -1.721)" fill="#00e482"/>
      <path id="Path_108" data-name="Path 108" d="M498.86,327.6h.825a2.2,2.2,0,0,0,2.473,2.015c1.313,0,2.259-.687,2.259-1.572,0-2.137-5.358-.763-5.358-3.649,0-1.312,1.236-2.29,2.869-2.29,1.817,0,3.145,1.084,3.145,2.58l-.84-.015c0-1.038-.976-1.771-2.3-1.771-1.144,0-2.046.64-2.046,1.48,0,2.076,5.358.794,5.358,3.6,0,1.388-1.3,2.411-3.083,2.411-1.923,0-3.3-1.175-3.3-2.793" transform="translate(-242.706 -16.071)" fill="#00e482"/>
      <path id="Path_109" data-name="Path 109" d="M211.434,315.958H208.9v-9.279a1.46,1.46,0,0,1,1.459-1.46h1.075Z" transform="translate(0 -1.936)" fill="#00e482"/>
      <path id="Path_110" data-name="Path 110" d="M310.534,314.088l2.409-7.828a1.476,1.476,0,0,1,1.409-1.041H315.9l-3.439,10.739H308.6l-3.455-10.739h1.563a1.461,1.461,0,0,1,1.394,1.029Z" transform="translate(-80.564 -1.937)" fill="#00e482"/>
      <path id="Path_111" data-name="Path 111" d="M238.54,302.9a5.749,5.749,0,1,0,5.942,5.747,5.572,5.572,0,0,0-5.942-5.747m0,9.321a3.355,3.355,0,0,1-3.409-3.574,3.98,3.98,0,0,1,.39-1.766.007.007,0,0,1,0-.005.189.189,0,0,1,.019-.035.081.081,0,0,1,.017-.033c.01-.021.027-.052.046-.085.011-.016.019-.032.03-.052s.032-.052.052-.079a3.134,3.134,0,0,1,2.073-1.373l.058-.008a.4.4,0,0,0,.052-.006,2.13,2.13,0,0,1,1.988.8c.005.012.01.019.016.03a1.06,1.06,0,0,1,.066.129c.011.022.019.043.03.063a3.929,3.929,0,0,1-.834,3.918s2.4-1.36,2.305-3.473a3.861,3.861,0,0,1,.509,1.98,3.348,3.348,0,0,1-3.41,3.574" transform="translate(-19.837)" fill="#00e482"/>
    </g>
  </g>
</svg>
