<svg width="64" height="64" viewBox="0 0 64 64" fill="none" xmlns="http://www.w3.org/2000/svg">
<path d="M21.2379 18.7155C18.4622 15.7738 18.939 12.9776 22.9033 10.6213C21.8257 8.25598 20.7383 5.87287 19.6508 3.48977C19.4647 3.07971 19.2492 2.67559 19.1088 2.25364C18.8312 1.40381 19.099 0.545058 19.9447 0.268713C20.5783 0.060711 21.6657 0.173626 22.1555 0.559915C26.1362 3.70074 32.9155 4.21183 37.3729 1.57615C37.8105 1.31764 38.1926 0.967004 38.5616 0.628258C39.329 -0.0730044 40.2238 -0.197805 41.1087 0.307341C41.9578 0.791688 42.0002 1.59101 41.6704 2.38736C40.6907 4.74075 39.6915 7.0882 38.702 9.43564C38.542 9.81302 38.3918 10.1934 38.2448 10.5529C42.0884 13.566 42.4607 15.224 40.1389 18.5075C42.3758 21.2709 44.6943 23.9482 46.7908 26.7592C50.2424 31.3917 52.8679 36.3837 54.086 41.9196C54.9024 45.6279 55.0395 49.3601 54.2656 53.0774C53.9978 54.361 54.5138 55.3862 54.9514 56.4886C56.2151 59.6829 54.5203 62.8831 50.9347 63.7478C49.8179 64.0182 48.4725 63.9885 47.359 63.6914C40.178 61.7778 32.8991 60.5981 25.4243 61.549C21.7767 62.0125 18.1846 62.9069 14.6023 63.7241C12.1532 64.2827 9.96197 64.0688 8.18225 62.378C6.42212 60.7051 5.89637 58.6429 6.91849 56.5242C7.68915 54.9256 7.5618 53.431 7.30709 51.7967C6.11516 44.1303 8.22144 37.0464 12.4862 30.5181C15.1183 26.4888 18.2401 22.724 21.2412 18.7095L21.2379 18.7155ZM50.9511 48.8074C50.9217 44.5255 50.2457 41.1173 48.9199 37.816C46.2911 31.2788 41.9121 25.7311 37.0039 20.4924C36.7492 20.222 36.1549 20.1121 35.714 20.1091C32.5367 20.0764 29.3593 20.0586 26.1852 20.124C25.6268 20.1358 24.879 20.4092 24.5622 20.7925C21.7734 24.1592 18.8181 27.4426 16.3788 31.0114C12.0029 37.4089 9.80849 44.3829 11.2159 51.9958C11.536 53.7341 11.6209 55.3386 10.7326 56.9492C10.1514 58.007 10.0828 59.1243 11.1082 60.0335C12.0715 60.8923 13.1785 60.6189 14.3019 60.2742C18.2467 59.0589 22.2796 58.2328 26.4432 57.9387C33.9343 57.4097 41.2165 58.3606 48.355 60.4079C49.9388 60.8626 51.0719 60.3218 51.3397 58.8657C51.4572 58.218 51.258 57.484 51.0425 56.8362C50.6278 55.5823 49.9714 54.4561 50.3894 53.0001C50.8433 51.4044 50.8498 49.7048 50.9609 48.8074H50.9511ZM30.548 13.8661V13.8601C28.7617 13.8601 26.9755 13.8601 25.1892 13.8601C24.0626 13.8601 23.3148 14.3891 23.3834 15.2121C23.4585 16.1511 24.1148 16.5612 25.1076 16.5642C28.7193 16.5701 32.3342 16.576 35.9459 16.5612C37.0072 16.5582 37.8367 15.8956 37.7126 15.126C37.5656 14.2227 36.9354 13.8334 35.91 13.8572C34.1237 13.8958 32.3375 13.869 30.5512 13.869L30.548 13.8661ZM25.0259 6.39288C25.5549 7.49231 26.1101 8.71061 26.7403 9.89027C26.8579 10.1102 27.2824 10.3092 27.5698 10.3152C29.5977 10.3508 31.6289 10.3449 33.66 10.3211C33.9278 10.3182 34.3491 10.1815 34.434 10.0032C35.0413 8.70466 35.5802 7.37643 36.1549 6.02739C34.189 6.26807 32.3963 6.61573 30.5937 6.67219C28.7584 6.72865 26.9101 6.49985 25.0259 6.39585V6.39288Z" fill="white"/>
<path d="M36.9976 36.1569C37.0356 37.252 36.5747 37.8237 35.6067 37.8897C34.5628 37.9609 34.0341 37.4883 33.885 36.35C33.7034 34.9703 32.5565 33.7761 31.3743 33.7304C29.5333 33.6592 28.2509 34.5155 27.958 36.0095C27.7113 37.2749 28.5654 38.6393 29.9563 39.056C30.588 39.244 31.2821 39.2389 31.9437 39.3558C34.5791 39.8157 36.5991 41.7391 36.9434 44.0996C37.3176 46.6709 35.9483 49.0797 33.4593 50.1926C32.9116 50.4365 32.4236 50.5839 32.364 51.3359C32.307 52.0321 31.659 52.3701 30.8836 52.3599C30.119 52.3497 29.5252 52.055 29.4113 51.3207C29.3191 50.7287 28.9938 50.5051 28.4488 50.284C26.1957 49.3744 24.9918 47.7178 24.7777 45.4462C24.6692 44.2902 25.1545 43.6549 26.1062 43.5609C27.1582 43.4568 27.6978 43.9268 27.9011 45.1363C28.1533 46.6277 29.2622 47.6898 30.6423 47.761C32.1199 47.8372 33.3319 47.0317 33.7603 45.6851C34.2863 44.0335 32.8737 42.321 30.9107 42.2295C27.1474 42.0542 24.6014 39.5616 24.7804 36.1289C24.9024 33.8091 26.1415 32.1245 28.4217 31.1768C28.9423 30.9608 29.33 30.783 29.4086 30.1605C29.4981 29.4287 30.0837 29.1086 30.851 29.0882C31.6726 29.0679 32.2989 29.4236 32.3911 30.1732C32.4697 30.8084 32.8303 30.9812 33.3509 31.1921C35.5172 32.0686 36.9271 34.0175 37.003 36.1569H36.9976Z" fill="white"/>
</svg>
